<svg width="682" height="322" viewBox="0 0 682 322" fill="none" xmlns="http://www.w3.org/2000/svg">
<g clip-path="url(#clip0_3_2195)">
<path d="M754 -36H-110V396H754V-36Z" fill="white"/>
<path d="M29.7305 258.988L29.793 258.922L55.2227 186.289H62.9453L88.5 259.059H79.5195L73.1172 240.062H45.0508L38.7734 258.988H29.7305L47.75 232.203L70.543 232.137L59.1758 198.176L59.0508 198.109L58.9258 198.312L47.6875 232.137L47.75 232.203L29.7305 258.988Z" fill="#109648"/>
<path d="M29.7305 308.703H29.8008V308.637L30.0195 308.539L30.5195 308.41L31.0195 308.324L32.3125 308.168L34.1016 308.02L35.9648 307.902L37.3281 307.836L38.5469 307.781L41.3398 307.684L43.1328 307.633L45.0664 307.59L47.4336 307.547L49.1523 307.52L53.0234 307.477L55.8906 307.457L58.1133 307.449H62.9141L65.7812 307.461L67.8594 307.473L70.1523 307.496L72.0859 307.52L75.457 307.578L78.4648 307.652L79.8281 307.691L81.9766 307.773L83.625 307.852L84.7734 307.922L86.0625 308.02L87.207 308.137L88.0703 308.273L88.5 308.387H78.4648L77.9648 308.281L77.3906 308.199L76.3164 308.09L75.2383 308.016L73.7344 307.938L72.375 307.887L70.5117 307.836L68.8633 307.805L67.1406 307.781L65.4922 307.766L62.3398 307.75H58.6836L57.3242 307.754L54.5273 307.777L53.0234 307.797L50.8711 307.832L49.3672 307.867L47.5781 307.918L46.3594 307.965L44.8516 308.031L43.7773 308.094L42.5586 308.18L41.8438 308.246L41.1992 308.32L40.625 308.406L40.1953 308.5L39.9062 308.598L39.7656 308.691V309.098L39.9062 309.195L40.2656 309.305L41.1992 309.465L42.5586 309.605L44.1367 309.715L45.6406 309.797L46.5 309.832L47.6484 309.875L49.4414 309.926L52.0195 309.98L53.5234 310L55.8164 310.023L58.1836 310.031H61.3359L64.1328 310.023L65.9961 310.008L67.9297 309.988L70.582 309.941L72.2305 309.898L73.6641 309.852L74.7383 309.801L75.457 309.758L76.5312 309.676L77.3906 309.586L78.0352 309.496L78.4648 309.406H88.5L88.0703 309.512L87.4219 309.613L86.7773 309.691L85.7773 309.781L84.6289 309.863L82.9805 309.957L81.6172 310.016L79.8281 310.082L78.1797 310.133L76.3867 310.176L73.7344 310.23L72.0156 310.258L70.1523 310.281L67.9297 310.301L65.1367 310.32L62.125 310.328L59.3281 310.332L56.3203 310.328L54.0977 310.316L51.1602 310.293L47.5039 310.246L44.8516 310.195L42.7734 310.145L40.9844 310.094L38.9766 310.023L36.3945 309.906L34.8203 309.816L33.7461 309.742L32.5273 309.641L31.6641 309.547L30.6641 309.398L29.9453 309.211L29.7305 309.066V308.703Z" fill="#255C99"/>
<path d="M29.7305 279.949L29.8008 279.91V279.066L30.0898 277.176L30.8047 274.566L31.7383 272.422L32.7422 270.738L33.3867 269.855L34.4609 268.594L35.3945 267.668L37.7578 265.773L40.7695 264.008L42.418 263.25L44.2812 262.535L46.9297 261.734L48.1484 261.441L51.875 260.766L56.1055 260.348L60.7617 260.219L62.9141 260.262L65.8516 260.43L69.8633 260.895L72.1602 261.312L73.9492 261.734L75.8125 262.281L78.1055 263.125L80.2578 264.133L81.9766 265.145L83.6953 266.406L85.1289 267.75L86.3477 269.223L87.4219 270.992L88.0703 272.461L88.5 273.934H78.5352L77.9648 272.461L77.3203 271.328L76.2422 269.938L75.168 268.93L74.0938 268.129L72.0859 267.035L70.3672 266.363L68.2148 265.773L66.1367 265.395L63.7734 265.145L62.3398 265.059H58.543L55.1016 265.352L53.0938 265.691L51.6602 266.027L49.6562 266.656L48.4375 267.16L47.7188 267.5L45.5703 268.801L44.1367 269.98L43.3477 270.781L42.3438 272.043L41.6289 273.18L40.8398 274.859L40.4102 276.121L39.8359 278.984L39.7656 286.555L39.9805 288.156L40.4102 289.879L40.9844 291.395L41.8438 292.992L42.7031 294.211L44.207 295.852L45.4961 296.945L46.5 297.664L48.4375 298.797L49.2266 299.176L51.0898 299.934L53.0234 300.523L55.3867 301.027L57.1797 301.281L60.0469 301.492H63.7031L68 301.238L70.7266 300.902L72.5898 300.566L73.8086 300.27L75.3125 299.809L76.3867 299.387L77.3906 298.926L78.6094 298.211V288.156L60.9062 288.113V283.402L88.4258 283.359L88.5 299.809L86.9922 300.945L85.1289 302.039L83.3398 302.879L81.4766 303.594L78.8242 304.395L76.6719 304.898L73.375 305.488L70.3672 305.867L67.2148 306.117L64.418 306.246L61.1211 306.285L58.1836 306.203L55.0312 305.949L52.5195 305.613L50.2266 305.191L47.9336 304.645L45.0664 303.762L43.2031 303.047L41.2695 302.164L39.3359 301.113L37.6133 299.977L36.4688 299.094L35.3203 298.082L34.1016 296.82L32.957 295.391L32.0977 294.086L31.3086 292.613L30.7344 291.227L30.1602 289.332L29.875 287.816L29.7305 286.516V279.949Z" fill="#F7B32B"/>
<path d="M91.5938 20.5859H150.359V51.6016L125.867 51.8711V310.324H116.012V52.1445L115.871 51.6016H91.5938V20.5859Z" fill="#D62839"/>
<path d="M153.453 158.246L153.523 158.02V153.43L153.812 143.109L154.527 128.891L155.461 117.191L156.461 108.016L157.109 103.199L158.184 96.3203L159.113 91.2734L161.48 80.9531L164.488 71.3164L166.137 67.1875L168 63.2891L170.652 58.9336L171.871 57.3281L175.598 53.6562L179.828 51.3633L184.484 50.6758L186.637 50.9023L189.574 51.8203L193.586 54.3438L195.879 56.6367L197.672 58.9336L199.535 61.9141L201.828 66.5L203.98 72.0078L205.699 77.5117L207.418 84.3906L208.852 91.7305L210.07 99.7578L211.145 109.395L211.789 117.422L212.219 125.449H202.258L201.684 117.422L201.039 111.227L199.965 103.66L198.891 98.1523L197.816 93.7969L195.809 87.832L194.09 84.1641L191.938 80.9531L189.859 78.8867L187.496 77.5117L186.062 77.0508H182.262L178.824 78.6562L176.816 80.4922L175.383 82.3281L173.375 85.7695L172.156 88.5195L171.441 90.3555L169.293 97.4648L167.859 103.887L167.07 108.246L166.066 115.129L165.348 121.32L164.562 130.496L164.133 137.375L163.559 152.973L163.484 194.258L163.703 202.973L164.133 212.379L164.703 220.637L165.566 229.352L166.426 236.004L167.93 244.949L169.219 250.914L170.223 254.812L172.156 261.004L172.945 263.07L174.809 267.199L176.746 270.41L179.109 273.16L180.902 274.535L183.77 275.684H187.422L191.723 274.309L194.445 272.473L196.309 270.637L197.527 269.031L199.035 266.508L200.109 264.215L201.113 261.691L202.332 257.793V202.973L184.629 202.746V177.055L212.148 176.828L212.219 266.508L210.715 272.703L208.852 278.664L207.059 283.254L205.195 287.152L202.547 291.512L200.395 294.262L197.098 297.473L194.09 299.539L190.934 300.914L188.141 301.602L184.844 301.832L181.906 301.371L178.75 299.996L176.242 298.16L173.949 295.867L171.656 292.887L168.789 288.07L166.926 284.172L164.992 279.355L163.055 273.621L161.336 267.426L160.191 262.609L159.043 257.105L157.824 250.223L156.68 242.426L155.816 235.316L155.031 227.289L154.457 219.719L153.883 209.398L153.598 201.141L153.453 194.027V158.246Z" fill="#F7B32B"/>
<path d="M153.453 302.996H212.219V303.781L187.727 303.789V310.332H177.875V303.793L177.73 303.781H153.453V302.996Z" fill="#D62839"/>
<path d="M215.312 310.059L215.375 309.789L240.805 20.5273H248.527L274.082 310.332H265.102L258.699 234.684H230.633L224.355 310.059H215.312L233.332 203.391L256.125 203.117L244.762 67.875L244.633 67.6016L244.508 68.418L233.27 203.117L233.332 203.391L215.312 310.059Z" fill="#109648"/>
<path d="M277.176 153.492L277.246 153.242V147.297L277.461 137.883L277.961 125.992L278.465 117.816L279.754 103.199L281.547 89.0781L283.41 78.1758L284.77 71.7344L285.988 66.7812L288.785 57.6133L290.578 52.9062L292.512 48.6953L294.875 44.4844L296.598 42.0039L300.465 38.0391L303.332 36.3086L305.555 35.5625H310.355L313.223 36.5547L315.301 37.793L317.594 39.7734L319.531 42.0039L322.898 47.457L325.91 54.3906L327.27 58.3555L329.422 66.0352L331.07 73.4688L332.215 79.9102L333.504 89.0781L334.652 100.227L335.512 112.859L335.941 123.516H325.91L325.406 113.605L324.832 105.926L323.758 95.7656L322.684 88.582L321.18 81.3984L319.816 76.6914L317.953 71.9844L316.305 69.0078L314.586 66.7812L312.938 65.293L309.785 63.8086H306.129L304.766 64.3008L301.973 66.2852L300.465 68.0195L298.316 71.4883L296.812 74.707L295.02 79.6641L293.801 83.875L292.297 90.3164L291.223 96.0156L290.004 104.191L289.285 110.383L288.641 117.32L288.066 125.496L287.637 134.168L287.352 143.332L287.207 152.254V190.652L287.352 199.574L287.711 209.977L288.641 225.09L290.004 238.223L291.578 248.625L293.086 256.059L293.945 259.527L295.09 263.492L296.883 268.445L299.465 273.402L300.969 275.383L303.262 277.367L305.625 278.355H308.781L311.574 277.367L313.438 276.125L315.375 274.145L318.023 269.934L319.672 265.969L321.105 261.262L322.184 256.555L322.898 252.59L323.973 244.91L324.832 236.488L325.48 227.816L325.91 219.391H335.941L335.512 229.301L334.867 238.965L334.223 246.148L333.219 254.82L332.07 262.5L330.422 271.172L329.062 276.871L327.27 283.062L325.621 287.77L323.832 291.984L321.18 296.938L319.457 299.414L317.594 301.645L315.375 303.625L312.578 305.359L309.57 306.352L306.773 306.602L303.762 306.105L301.543 305.113L298.602 302.883L294.949 298.426L292.297 293.719L290.219 289.008L288.426 284.055L286.418 277.367L283.84 266.465L282.262 258.043L281.188 251.105L279.969 241.441L279.109 232.77L278.105 218.898L277.391 201.309L277.176 187.68V153.492Z" fill="#255C99"/>
<path d="M277.176 307.766H335.941V308.039L311.449 308.043V310.332H301.594V308.043L301.453 308.039H277.176V307.766Z" fill="#D62839"/>
<path d="M339.035 310.328L339.098 310.324L364.527 305.707H372.25L397.805 310.332H388.824L382.422 309.125H354.355L348.078 310.328H339.035L357.055 308.625L379.848 308.621L368.48 306.465L368.355 306.461L368.23 306.473L356.992 308.621L357.055 308.625L339.035 310.328Z" fill="#109648"/>
<path d="M339.035 154.633L339.105 154.395V149.605L339.395 138.828L340.109 123.98L341.043 111.766L342.047 102.188L342.691 97.1602L343.766 89.9766L344.695 84.707L347.062 73.9297L350.07 63.8711L351.719 59.5625L353.582 55.4922L356.234 50.9414L357.453 49.2656L361.18 45.4336L365.41 43.0391L370.066 42.3203L372.219 42.5586L375.156 43.5156L379.168 46.1523L381.461 48.5469L383.254 50.9414L385.117 54.0547L387.41 58.8438L389.562 64.5898L391.281 70.3359L393 77.5234L394.434 85.1836L395.652 93.5664L396.727 103.625L397.375 112.008L397.805 120.387H387.84L387.27 112.008L386.621 105.539L385.547 97.6367L384.473 91.8906L383.398 87.3398L381.391 81.1133L379.672 77.2812L377.52 73.9297L375.441 71.7734L373.078 70.3359L371.645 69.8594H367.848L364.406 71.5352L362.398 73.4492L360.965 75.3672L358.961 78.957L357.742 81.832L357.023 83.75L354.875 91.1719L353.441 97.8789L352.652 102.426L351.648 109.613L350.934 116.078L350.145 125.656L349.715 132.84L349.141 149.125L349.07 192.23L349.285 201.332L349.715 211.148L350.289 219.77L351.148 228.871L352.008 235.816L353.512 245.156L354.801 251.383L355.805 255.453L357.742 261.918L358.527 264.074L360.391 268.383L362.328 271.738L364.691 274.609L366.484 276.047L369.352 277.246H373.008L377.305 275.809L380.031 273.891L381.895 271.977L383.109 270.301L384.617 267.664L385.691 265.27L386.695 262.637L387.914 258.566V201.332L370.211 201.09V174.27L397.73 174.031L397.805 267.664L396.297 274.133L394.434 280.359L392.645 285.148L390.781 289.219L388.129 293.77L385.977 296.641L382.68 299.996L379.672 302.148L376.52 303.586L373.723 304.305L370.426 304.543L367.488 304.066L364.336 302.629L361.824 300.711L359.531 298.316L357.238 295.203L354.371 290.176L352.508 286.105L350.574 281.074L348.641 275.09L346.918 268.625L345.773 263.594L344.625 257.848L343.406 250.664L342.262 242.52L341.398 235.098L340.613 226.715L340.039 218.812L339.465 208.035L339.18 199.414L339.035 191.992V154.633Z" fill="#F7B32B"/>
<path d="M400.895 20.5273H459.664V51.5469L435.172 51.8203V310.332H425.316V52.0938L425.176 51.5469H400.895V20.5273Z" fill="#D62839"/>
<path d="M462.758 310.324L462.82 310.316L488.25 302.16H495.973L521.523 310.332H512.547L506.141 308.199H478.078L471.797 310.324H462.758L480.777 307.316L503.566 307.309L492.203 303.496L492.078 303.488L491.953 303.512L480.715 307.309L480.777 307.316L462.758 310.324Z" fill="#109648"/>
<path d="M462.758 160.992L462.828 160.766V155.328L463.043 146.719L463.547 135.844L464.047 128.367L465.336 115.004L467.129 102.09L468.992 92.1211L470.355 86.2305L471.57 81.6992L474.367 73.3164L476.16 69.0117L478.094 65.1602L480.461 61.3086L482.18 59.0469L486.051 55.4219L488.914 53.8359L491.137 53.1562H495.938L498.805 54.0625L500.883 55.1953L503.18 57.0078L505.113 59.0469L508.48 64.0273L511.492 70.3711L512.852 73.9961L515.004 81.0195L516.652 87.8164L517.797 93.707L519.09 102.09L520.234 112.285L521.094 123.836L521.523 133.578H511.492L510.988 124.516L510.418 117.496L509.34 108.207L508.266 101.637L506.762 95.0664L505.398 90.7617L503.535 86.457L501.887 83.7383L500.168 81.6992L498.52 80.3398L495.367 78.9805H491.711L490.348 79.4336L487.555 81.2461L486.051 82.832L483.898 86.0039L482.395 88.9492L480.602 93.4805L479.383 97.332L477.879 103.223L476.805 108.434L475.586 115.91L474.867 121.57L474.223 127.914L473.652 135.391L473.219 143.32L472.934 151.703L472.789 159.859V194.973L472.934 203.129L473.293 212.645L474.223 226.465L475.586 238.469L477.164 247.984L478.668 254.781L479.527 257.953L480.676 261.578L482.465 266.109L485.047 270.641L486.551 272.453L488.844 274.266L491.211 275.172H494.363L497.156 274.266L499.02 273.133L500.957 271.32L503.609 267.469L505.258 263.844L506.691 259.539L507.766 255.234L508.48 251.609L509.555 244.586L510.418 236.883L511.062 228.957L511.492 221.254H521.523L521.094 230.316L520.449 239.148L519.805 245.719L518.801 253.648L517.656 260.672L516.008 268.602L514.645 273.812L512.852 279.477L511.203 283.781L509.414 287.633L506.762 292.164L505.043 294.43L503.18 296.465L500.957 298.277L498.16 299.863L495.152 300.77L492.355 300.996L489.348 300.543L487.125 299.637L484.188 297.598L480.531 293.523L477.879 289.219L475.801 284.914L474.008 280.383L472.004 274.266L469.422 264.297L467.844 256.594L466.77 250.25L465.551 241.414L464.691 233.488L463.688 220.801L462.973 204.715L462.758 192.254V160.992Z" fill="#255C99"/>
<path d="M524.617 310.059L524.68 309.789L550.109 20.5273H557.832L583.387 310.332H574.406L568.004 234.684H539.938L533.66 310.059H524.617L542.637 203.391L565.43 203.117L554.066 67.875L553.938 67.6016L553.812 68.418L542.574 203.117L542.637 203.391L524.617 310.059Z" fill="#109648"/>
<path d="M586.48 280.07L586.551 280.027V278.984L586.766 277.332L587.266 275.242L587.77 273.809L589.059 271.242L590.852 268.766L592.715 266.852L594.074 265.719L595.293 264.852L598.09 263.242L599.879 262.414L601.816 261.676L604.18 260.938L605.902 260.5L609.77 259.805L612.637 259.5L614.859 259.371H619.66L622.527 259.543L624.605 259.762L626.898 260.109L628.836 260.5L632.203 261.457L635.215 262.676L636.574 263.371L638.727 264.719L640.375 266.023L641.52 267.156L642.809 268.766L643.957 270.719L644.816 272.938L645.246 274.809H635.215L634.711 273.07L634.137 271.723L633.062 269.938L631.988 268.676L630.484 267.414L629.121 266.59L627.258 265.762L625.609 265.242L623.891 264.852L622.242 264.59L619.086 264.328H615.434L614.07 264.414L611.277 264.762L609.77 265.066L607.621 265.676L606.117 266.242L604.324 267.109L603.105 267.852L601.602 268.98L600.527 269.98L599.309 271.418L598.59 272.504L597.945 273.723L597.371 275.156L596.941 276.68L596.656 278.285L596.512 279.852V286.594L596.656 288.16L597.016 289.984L597.945 292.637L599.309 294.941L600.883 296.77L602.391 298.074L603.25 298.684L604.395 299.379L606.188 300.246L608.766 301.117L610.273 301.465L612.566 301.812L614.93 301.988H618.086L620.879 301.812L622.742 301.594L624.68 301.246L627.328 300.508L628.977 299.812L630.41 298.988L631.488 298.16L632.203 297.465L633.277 296.117L634.137 294.637L634.781 293.117L635.215 291.637H645.246L644.816 293.375L644.172 295.074L643.527 296.332L642.523 297.855L641.375 299.203L639.727 300.727L638.367 301.727L636.574 302.812L634.926 303.641L633.133 304.379L630.484 305.25L628.762 305.684L626.898 306.074L624.68 306.422L621.883 306.727L618.871 306.902L616.078 306.945L613.066 306.855L610.848 306.684L607.906 306.293L604.254 305.508L601.602 304.684L599.523 303.855L597.73 302.988L595.723 301.812L593.145 299.898L591.566 298.422L590.492 297.203L589.273 295.508L588.414 293.984L587.41 291.551L586.695 288.461L586.48 286.07V280.07Z" fill="#255C99"/>
<path d="M586.48 309.062L586.551 309.059V309.02L586.836 308.926L587.555 308.801L588.484 308.699L589.488 308.617L590.133 308.574L591.207 308.512L592.141 308.469L594.504 308.375L597.516 308.293L599.164 308.254L601.027 308.219L603.68 308.18L604.898 308.168L608.625 308.133L612.852 308.113L617.512 308.109H619.66L622.598 308.117L626.613 308.141L628.906 308.16L630.699 308.18L632.562 308.207L634.855 308.25L637.004 308.297L638.727 308.348L640.445 308.406L641.879 308.473L643.098 308.543L644.172 308.629L644.816 308.699L645.246 308.77H635.285L634.711 308.699L634.066 308.645L632.992 308.578L631.918 308.527L630.84 308.488L628.836 308.438L627.113 308.406L624.965 308.375L622.887 308.359L620.52 308.348L619.086 308.344H615.289L611.848 308.355L609.844 308.371L608.41 308.387L606.402 308.418L605.184 308.445L604.469 308.461L602.316 308.523L600.883 308.578L600.098 308.617L599.094 308.68L598.375 308.734L597.586 308.816L597.156 308.875L596.586 309.016L596.512 309.379L596.727 309.457L597.156 309.539L597.73 309.613L598.59 309.691L599.449 309.75L600.957 309.828L602.246 309.883L603.25 309.918L605.184 309.973L605.973 309.988L607.836 310.027L609.77 310.055L612.137 310.078L613.926 310.09L616.793 310.102H620.449L624.75 310.09L627.473 310.074L629.336 310.055L630.555 310.043L632.059 310.02L633.133 310L634.137 309.977L635.355 309.941V309.457L617.656 309.453V309.227H645.176L645.246 310.02L643.742 310.074L641.879 310.129L640.086 310.168L638.223 310.203L635.57 310.242L633.422 310.266L630.125 310.293L627.113 310.312L623.961 310.324L621.168 310.332H617.871L614.93 310.328L611.777 310.316L609.27 310.301L606.977 310.281L604.684 310.254L601.816 310.211L599.953 310.176L598.016 310.133L596.082 310.082L594.363 310.027L593.215 309.984L592.07 309.938L590.852 309.875L589.703 309.805L588.844 309.742L588.055 309.672L587.48 309.605L586.91 309.516L586.621 309.441L586.48 309.379V309.062Z" fill="#F7B32B"/>
<path d="M586.48 182.539H645.246V190.641L620.754 190.711V258.207H610.898V190.781L610.758 190.641H586.48V182.539Z" fill="#D62839"/>
</g>
<defs>
<clipPath id="clip0_3_2195">
<rect width="682" height="322" fill="white"/>
</clipPath>
</defs>
</svg>
