<svg width="682" height="322" viewBox="0 0 682 322" fill="none" xmlns="http://www.w3.org/2000/svg">
<g clip-path="url(#clip0_3_2306)">
<path d="M754 -36H-110V396H754V-36Z" fill="white"/>
<path d="M29.7305 272.059L29.793 271.973L55.2227 176.91H62.9453L88.5 272.148H79.5195L73.1172 247.289H45.0508L38.7734 272.059H29.7305L47.75 237.004L70.543 236.914L59.1758 192.473L59.0508 192.383L58.9258 192.648L47.6875 236.914L47.75 237.004L29.7305 272.059Z" fill="#109648"/>
<path d="M29.7305 306.445L29.8008 306.441V306.293L30.0195 306.059L30.5195 305.762L31.0195 305.559L32.3125 305.195L34.1016 304.844L35.9648 304.57L37.3281 304.41L38.5469 304.289L41.3398 304.059L43.1328 303.941L45.0664 303.836L47.4336 303.73L49.1523 303.672L53.0234 303.57L55.8906 303.527L58.1133 303.512H62.9141L65.7812 303.535L67.8594 303.566L70.1523 303.613L72.0859 303.672L75.457 303.805L78.4648 303.98L79.8281 304.078L81.9766 304.27L83.625 304.453L84.7734 304.613L86.0625 304.844L87.207 305.121L88.0703 305.434L88.5 305.699H78.4648L77.9648 305.453L77.3906 305.262L76.3164 305.008L75.2383 304.832L73.7344 304.652L72.375 304.535L70.5117 304.418L68.8633 304.344L67.1406 304.289L65.4922 304.25L62.3398 304.215H58.6836L57.3242 304.227L54.5273 304.273L53.0234 304.316L50.8711 304.406L49.3672 304.484L47.5781 304.609L46.3594 304.715L44.8516 304.875L43.7773 305.016L42.5586 305.219L41.8438 305.371L41.1992 305.547L40.625 305.75L40.1953 305.965L39.9062 306.191L39.7656 306.414V307.371L39.9062 307.594L40.2656 307.852L41.1992 308.23L42.5586 308.555L44.1367 308.816L45.6406 309L46.5 309.086L47.6484 309.184L49.4414 309.309L52.0195 309.43L53.5234 309.48L55.8164 309.531L58.1836 309.555H61.3359L64.1328 309.531L65.9961 309.5L67.9297 309.449L70.582 309.344L72.2305 309.246L73.6641 309.129L74.7383 309.012L75.457 308.914L76.5312 308.723L77.3906 308.512L78.0352 308.297L78.4648 308.086H88.5L88.0703 308.332L87.4219 308.574L86.7773 308.754L85.7773 308.969L84.6289 309.16L82.9805 309.375L81.6172 309.52L79.8281 309.672L78.1797 309.789L76.3867 309.895L73.7344 310.02L72.0156 310.078L70.1523 310.137L67.9297 310.184L65.1367 310.227L62.125 310.254L59.3281 310.258L56.3203 310.246L54.0977 310.223L51.1602 310.164L47.5039 310.055L44.8516 309.938L42.7734 309.82L40.9844 309.695L38.9766 309.531L36.3945 309.258L34.8203 309.051L33.7461 308.875L32.5273 308.637L31.6641 308.422L30.6641 308.074L29.9453 307.637L29.7305 307.297V306.445Z" fill="#255C99"/>
<path d="M29.7305 285.75L29.8008 285.723V285.191L30.0898 284L30.8047 282.355L31.7383 281.004L32.7422 279.941L33.3867 279.387L34.4609 278.59L35.3945 278.008L37.7578 276.812L40.7695 275.699L42.418 275.223L44.2812 274.77L46.9297 274.266L48.1484 274.082L51.875 273.656L56.1055 273.391L60.7617 273.312L62.9141 273.34L65.8516 273.445L69.8633 273.738L72.1602 274.004L73.9492 274.266L75.8125 274.613L78.1055 275.141L80.2578 275.777L81.9766 276.414L83.6953 277.211L85.1289 278.059L86.3477 278.988L87.4219 280.102L88.0703 281.027L88.5 281.957H78.5352L77.9648 281.027L77.3203 280.312L76.2422 279.438L75.168 278.801L74.0938 278.297L72.0859 277.609L70.3672 277.184L68.2148 276.812L66.1367 276.574L63.7734 276.414L62.3398 276.363H58.543L55.1016 276.547L53.0938 276.762L51.6602 276.973L49.6562 277.371L48.4375 277.688L47.7188 277.898L45.5703 278.723L44.1367 279.465L43.3477 279.969L42.3438 280.766L41.6289 281.48L40.8398 282.539L40.4102 283.336L39.8359 285.141L39.7656 289.91L39.9805 290.918L40.4102 292.008L40.9844 292.961L41.8438 293.969L42.7031 294.738L44.207 295.77L45.4961 296.461L46.5 296.91L48.4375 297.629L49.2266 297.867L51.0898 298.344L53.0234 298.715L55.3867 299.031L57.1797 299.191L60.0469 299.324H63.7031L68 299.164L70.7266 298.953L72.5898 298.742L73.8086 298.555L75.3125 298.266L76.3867 298L77.3906 297.707L78.6094 297.258V290.918L60.9062 290.891V287.922L88.4258 287.895L88.5 298.266L86.9922 298.98L85.1289 299.668L83.3398 300.199L81.4766 300.648L78.8242 301.152L76.6719 301.473L73.375 301.844L70.3672 302.082L67.2148 302.242L64.418 302.32L61.1211 302.348L58.1836 302.293L55.0312 302.137L52.5195 301.922L50.2266 301.656L47.9336 301.312L45.0664 300.758L43.2031 300.305L41.2695 299.75L39.3359 299.086L37.6133 298.371L36.4688 297.812L35.3203 297.176L34.1016 296.383L32.957 295.48L32.0977 294.656L31.3086 293.73L30.7344 292.855L30.1602 291.66L29.875 290.707L29.7305 289.887V285.75Z" fill="#F7B32B"/>
<path d="M91.5938 21.0547H150.359V52.0117L125.867 52.2852V310.258H116.012V52.5547L115.871 52.0117H91.5938V21.0547Z" fill="#D62839"/>
<path d="M153.453 309.926H153.523V309.91L153.812 309.883L154.527 309.84L155.461 309.809L156.461 309.781L157.109 309.77L158.184 309.75L159.113 309.734L161.48 309.703L164.488 309.676L166.137 309.664L168 309.656L170.652 309.641L171.871 309.637L175.598 309.629L179.828 309.621L184.484 309.617L186.637 309.621H189.574L193.586 309.629L195.879 309.637L197.672 309.641L199.535 309.652L201.828 309.664L203.98 309.68L205.699 309.695L207.418 309.715L208.852 309.734L210.07 309.758L211.145 309.785L211.789 309.809L212.219 309.832H202.258L201.684 309.809L201.039 309.789L199.965 309.77L198.891 309.754L197.816 309.742L195.809 309.723L194.09 309.715L191.938 309.703L189.859 309.699L187.496 309.695H182.262L178.824 309.699L176.816 309.703L175.383 309.707L173.375 309.719L172.156 309.727L171.441 309.73L169.293 309.75L167.859 309.77L167.07 309.781L166.066 309.801L165.348 309.82L164.562 309.844L164.133 309.867L163.559 309.91L163.484 310.027L163.703 310.051L164.133 310.078L164.703 310.102L165.566 310.129L167.93 310.172L169.219 310.188L170.223 310.199L172.156 310.219L172.945 310.223L174.809 310.234L176.746 310.242L179.109 310.25L180.902 310.254L183.77 310.258H187.422L191.723 310.254L194.445 310.25L196.309 310.246L197.527 310.238L199.035 310.234L200.109 310.227L201.113 310.219L202.332 310.207V310.051H184.629V309.977H212.148L212.219 310.234L210.715 310.25L208.852 310.266L207.059 310.281L205.195 310.293L202.547 310.305L200.395 310.312L197.098 310.32L194.09 310.328L190.934 310.332H181.906L178.75 310.328L176.242 310.324L171.656 310.309L168.789 310.293L166.926 310.281L164.992 310.27L163.055 310.254L161.336 310.234L160.191 310.223L159.043 310.207L157.824 310.188L156.68 310.164L155.816 310.145L155.031 310.121L154.457 310.098L153.883 310.07L153.598 310.047L153.453 310.027V309.926Z" fill="#F7B32B"/>
<path d="M153.453 28.9102H212.219V58.832L187.727 59.0938V308.457H177.875V59.3555L177.73 58.832H153.453V28.9102Z" fill="#D62839"/>
<path d="M215.312 307.492L215.375 307.469L240.805 280.156H248.527L274.082 307.52H265.102L258.699 300.375H230.633L224.355 307.492H215.312L233.332 297.422L256.125 297.395L244.762 284.629L244.633 284.602L244.508 284.68L233.27 297.395L233.332 297.422L215.312 307.492Z" fill="#109648"/>
<path d="M215.312 192.141L215.387 192.004V189.227L215.672 182.984L216.387 174.383L217.32 167.309L218.324 161.758L218.969 158.844L220.043 154.68L220.977 151.629L223.34 145.387L226.352 139.559L228 137.062L229.863 134.703L232.516 132.066L233.73 131.094L237.461 128.875L241.688 127.488L246.348 127.07L248.496 127.211L251.434 127.766L255.449 129.293L257.742 130.68L259.531 132.066L261.395 133.871L263.691 136.645L265.84 139.977L267.559 143.305L269.281 147.469L270.715 151.906L271.93 156.762L273.008 162.59L273.652 167.445L274.082 172.301H264.121L263.547 167.445L262.902 163.699L261.824 159.121L260.75 155.793L259.676 153.156L257.668 149.547L255.949 147.328L253.801 145.387L251.723 144.137L249.355 143.305L247.922 143.027H244.125L240.684 144L238.676 145.109L237.242 146.219L235.238 148.301L234.02 149.965L233.301 151.074L231.152 155.375L229.719 159.262L228.93 161.895L227.926 166.059L227.211 169.805L226.422 175.355L225.992 179.516L225.418 188.949L225.348 213.926L225.562 219.195L225.992 224.883L226.566 229.879L227.426 235.152L228.285 239.176L229.789 244.586L231.082 248.191L232.082 250.551L234.02 254.297L234.809 255.547L236.672 258.043L238.605 259.984L240.973 261.652L242.762 262.484L245.629 263.176H249.285L253.586 262.344L256.309 261.234L258.172 260.125L259.391 259.152L260.895 257.629L261.969 256.238L262.973 254.715L264.191 252.355V219.195L246.488 219.059V203.52L274.008 203.379L274.082 257.629L272.578 261.375L270.715 264.98L268.922 267.754L267.059 270.113L264.406 272.75L262.258 274.414L258.961 276.359L255.949 277.605L252.797 278.438L250 278.855L246.703 278.992L243.766 278.715L240.613 277.883L238.105 276.773L235.812 275.387L233.516 273.582L230.652 270.668L228.789 268.309L226.852 265.398L224.918 261.93L223.195 258.184L222.051 255.27L220.902 251.938L219.684 247.777L218.539 243.059L217.68 238.758L216.891 233.902L216.316 229.324L215.742 223.082L215.457 218.086L215.312 213.785V192.141Z" fill="#F7B32B"/>
<path d="M215.312 308.684H274.082V308.855L249.59 308.859V310.316H239.734V308.859L239.594 308.855H215.312V308.684Z" fill="#D62839"/>
<path d="M277.176 151.887L277.246 151.633V145.582L277.461 136L277.961 123.898L278.465 115.578L279.754 100.703L281.547 86.332L283.41 75.2383L284.77 68.6797L285.988 63.6367L288.785 54.3086L290.578 49.5195L292.512 45.2305L294.875 40.9453L296.598 38.4258L300.465 34.3906L303.332 32.625L305.555 31.8672H310.355L313.223 32.8789L315.301 34.1367L317.594 36.1562L319.531 38.4258L322.898 43.9727L325.91 51.0312L327.27 55.0664L329.422 62.8828L331.07 70.4453L332.215 77L333.504 86.332L334.652 97.6758L335.512 110.535L335.941 121.379H325.91L325.406 111.293L324.832 103.477L323.758 93.1367L322.684 85.8242L321.18 78.5156L319.816 73.7227L317.953 68.9336L316.305 65.9062L314.586 63.6367L312.938 62.125L309.785 60.6133H306.129L304.766 61.1172L301.973 63.1328L300.465 64.8984L298.316 68.4297L296.812 71.707L295.02 76.75L293.801 81.0352L292.297 87.5898L291.223 93.3906L290.004 101.711L289.285 108.016L288.641 115.074L288.066 123.395L287.637 132.219L287.352 141.547L287.207 150.625V189.707L287.352 198.785L287.711 209.371L288.641 224.754L290.004 238.117L291.578 248.707L293.086 256.27L293.945 259.801L295.09 263.836L296.883 268.879L299.465 273.922L300.969 275.938L303.262 277.953L305.625 278.961H308.781L311.574 277.953L313.438 276.695L315.375 274.676L318.023 270.391L319.672 266.355L321.105 261.566L322.184 256.773L322.898 252.742L323.973 244.926L324.832 236.352L325.48 227.527L325.91 218.953H335.941L335.512 229.039L334.867 238.871L334.223 246.184L333.219 255.008L332.07 262.824L330.422 271.652L329.062 277.449L327.27 283.754L325.621 288.543L323.832 292.832L321.18 297.871L319.457 300.395L317.594 302.664L315.375 304.68L312.578 306.445L309.57 307.453L306.773 307.707L303.762 307.203L301.543 306.195L298.602 303.926L294.949 299.387L292.297 294.594L290.219 289.805L288.426 284.762L286.418 277.953L283.84 266.859L282.262 258.289L281.188 251.227L279.969 241.395L279.109 232.57L278.105 218.449L277.391 200.547L277.176 186.68V151.887Z" fill="#255C99"/>
<path d="M277.176 308.871H335.941V309.02L311.449 309.023V310.285H301.594V309.023L301.453 309.02H277.176V308.871Z" fill="#D62839"/>
<path d="M339.035 310.145H339.098L364.527 308.941H372.25L397.805 310.145H388.824L382.422 309.832H354.355L348.078 310.145H339.035L357.055 309.699H379.848L368.48 309.137H368.355L368.23 309.141L356.992 309.699H357.055L339.035 310.145Z" fill="#109648"/>
<path d="M339.035 150.09L339.105 149.84V144.801L339.395 133.465L340.109 117.848L341.043 105L342.047 94.9258L342.691 89.6367L343.766 82.0781L344.695 76.5352L347.062 65.2031L350.07 54.6211L351.719 50.0859L353.582 45.8047L356.234 41.0195L357.453 39.2578L361.18 35.2266L365.41 32.707L370.066 31.9531L372.219 32.2031L375.156 33.2109L379.168 35.9805L381.461 38.5L383.254 41.0195L385.117 44.293L387.41 49.332L389.562 55.3789L391.281 61.4219L393 68.9805L394.434 77.0391L395.652 85.8555L396.727 96.4375L397.375 105.254L397.805 114.07H387.84L387.27 105.254L386.621 98.4531L385.547 90.1406L384.473 84.0938L383.398 79.3086L381.391 72.7578L379.672 68.7266L377.52 65.2031L375.441 62.9336L373.078 61.4219L371.645 60.918H367.848L364.406 62.6836L362.398 64.6992L360.965 66.7109L358.961 70.4922L357.742 73.5156L357.023 75.5273L354.875 83.3398L353.441 90.3906L352.652 95.1758L351.648 102.734L350.934 109.535L350.145 119.609L349.715 127.168L349.141 144.297L349.07 189.637L349.285 199.211L349.715 209.539L350.289 218.605L351.148 228.18L352.008 235.484L353.512 245.309L354.801 251.855L355.805 256.137L357.742 262.938L358.527 265.207L360.391 269.742L362.328 273.266L364.691 276.289L366.484 277.801L369.352 279.062H373.008L377.305 277.551L380.031 275.535L381.895 273.52L383.109 271.754L384.617 268.984L385.691 266.465L386.695 263.695L387.914 259.414V199.211L370.211 198.957V170.746L397.73 170.492L397.805 268.984L396.297 275.785L394.434 282.336L392.645 287.375L390.781 291.656L388.129 296.441L385.977 299.465L382.68 302.992L379.672 305.258L376.52 306.77L373.723 307.523L370.426 307.777L367.488 307.273L364.336 305.762L361.824 303.746L359.531 301.227L357.238 297.953L354.371 292.664L352.508 288.379L350.574 283.09L348.641 276.793L346.918 269.992L345.773 264.703L344.625 258.656L343.406 251.102L342.262 242.535L341.398 234.727L340.613 225.91L340.039 217.598L339.465 206.262L339.18 197.195L339.035 189.387V150.09Z" fill="#F7B32B"/>
<path d="M400.895 310.285H400.957L426.387 308.59H434.109L459.664 310.285H450.688L444.281 309.844H416.215L409.938 310.285H400.895L418.914 309.66H441.707L430.344 308.867L430.219 308.863L430.09 308.867L418.852 309.66H418.914L400.895 310.285Z" fill="#109648"/>
<path d="M400.895 192.777L400.969 192.637V189.266L401.184 183.93L401.684 177.188L402.188 172.551L403.477 164.266L405.27 156.258L407.133 150.078L408.492 146.426L409.711 143.617L412.508 138.422L414.297 135.75L416.234 133.363L418.598 130.977L420.316 129.57L424.188 127.324L427.055 126.34L429.277 125.918H434.078L436.945 126.48L439.023 127.184L441.316 128.309L443.254 129.57L446.621 132.66L449.629 136.594L450.992 138.844L453.141 143.195L454.789 147.41L455.938 151.062L457.227 156.258L458.375 162.578L459.234 169.742L459.664 175.781H449.629L449.129 170.164L448.555 165.809L447.48 160.051L446.406 155.977L444.898 151.906L443.539 149.234L441.676 146.566L440.027 144.883L438.309 143.617L436.66 142.773L433.504 141.934H429.852L428.488 142.215L425.691 143.336L424.188 144.32L422.039 146.285L420.535 148.113L418.742 150.922L417.523 153.309L416.02 156.961L414.941 160.191L413.727 164.828L413.008 168.34L412.363 172.273L411.789 176.906L411.359 181.824L411.074 187.02L410.93 192.078V213.848L411.074 218.906L411.43 224.805L412.363 233.371L413.727 240.816L415.301 246.715L416.805 250.93L417.668 252.898L418.812 255.145L420.605 257.953L423.184 260.762L424.691 261.887L426.984 263.008L429.348 263.57H432.5L435.297 263.008L437.16 262.309L439.094 261.184L441.746 258.797L443.395 256.547L444.828 253.879L445.902 251.211L446.621 248.965L447.695 244.609L448.555 239.832L449.199 234.918L449.629 230.141H459.664L459.234 235.762L458.59 241.238L457.945 245.312L456.941 250.227L455.793 254.582L454.145 259.5L452.785 262.73L450.992 266.242L449.344 268.91L447.551 271.297L444.898 274.105L443.18 275.512L441.316 276.773L439.094 277.898L436.301 278.883L433.289 279.445L430.496 279.586L427.484 279.305L425.262 278.742L422.324 277.477L418.668 274.949L416.02 272.281L413.941 269.613L412.148 266.801L410.141 263.008L407.562 256.828L405.984 252.055L404.91 248.121L403.691 242.645L402.832 237.727L401.828 229.859L401.109 219.887L400.895 212.164V192.777Z" fill="#255C99"/>
<path d="M400.895 280.746H459.664V283.602L435.172 283.629V307.426H425.316V283.652L425.176 283.602H400.895V280.746Z" fill="#D62839"/>
<path d="M462.758 308.148L462.82 307.887L488.25 29.0859H495.973L521.523 308.41H512.547L506.141 235.496H478.078L471.797 308.148H462.758L480.777 205.336L503.566 205.07L492.203 74.7188L492.078 74.457L491.953 75.2461L480.715 205.07L480.777 205.336L462.758 308.148Z" fill="#109648"/>
<path d="M462.758 309.902H462.828V309.887L463.043 309.859L463.547 309.828L464.047 309.805L465.336 309.762L467.129 309.723L468.992 309.691L470.355 309.676L471.57 309.66L474.367 309.633L476.16 309.621L478.094 309.609L480.461 309.598L482.18 309.59L486.051 309.578L488.914 309.574H498.805L500.883 309.578L503.18 309.586L505.113 309.59L508.48 309.605L511.492 309.625L512.852 309.637L515.004 309.656L516.652 309.68L517.797 309.695L519.09 309.723L520.234 309.754L521.094 309.789L521.523 309.82H511.492L510.988 309.793L510.418 309.77L509.34 309.742L508.266 309.723L506.762 309.703L505.398 309.688L503.535 309.676L501.887 309.668L500.168 309.66L498.52 309.656L495.367 309.652H490.348L487.555 309.66L486.051 309.664L483.898 309.672L482.395 309.684L480.602 309.695L479.383 309.707L477.879 309.727L476.805 309.742L475.586 309.766L474.867 309.781L474.223 309.801L473.652 309.824L473.219 309.848L472.934 309.875L472.789 309.898V310.008L472.934 310.031L473.293 310.062L474.223 310.105L475.586 310.141L477.164 310.172L478.668 310.191L479.527 310.199L480.676 310.211L482.465 310.227L485.047 310.238L486.551 310.246L488.844 310.25L491.211 310.254H494.363L497.156 310.25L499.02 310.246L500.957 310.242L503.609 310.23L505.258 310.219L506.691 310.207L507.766 310.191L508.48 310.18L509.555 310.16L510.418 310.137L511.062 310.113L511.492 310.09H521.523L521.094 310.117L520.449 310.145L519.805 310.164L518.801 310.188L517.656 310.211L516.008 310.234L514.645 310.25L512.852 310.266L511.203 310.281L509.414 310.293L506.762 310.305L505.043 310.312L503.18 310.32L500.957 310.324L498.16 310.328L495.152 310.332H489.348L487.125 310.328L484.188 310.324L480.531 310.309L477.879 310.297L475.801 310.285L474.008 310.27L472.004 310.25L469.422 310.219L467.844 310.195L466.77 310.176L465.551 310.148L464.691 310.125L463.688 310.086L462.973 310.039L462.758 310V309.902Z" fill="#255C99"/>
<path d="M524.617 310.035L524.68 309.766L550.109 20.7109H557.832L583.387 310.309H574.406L568.004 234.715H539.938L533.66 310.035H524.617L542.637 203.441L565.43 203.172L554.066 68.0234L553.938 67.7539L553.812 68.5703L542.574 203.172L542.637 203.441L524.617 310.035Z" fill="#109648"/>
<path d="M586.48 285.812L586.551 285.785V285.141L586.766 284.121L587.266 282.832L587.77 281.945L589.059 280.363L590.852 278.832L592.715 277.652L594.074 276.953L595.293 276.418L598.09 275.426L599.879 274.914L601.816 274.457L604.18 274L605.902 273.734L609.77 273.305L612.637 273.117L614.859 273.035H619.66L622.527 273.145L624.605 273.277L626.898 273.492L628.836 273.734L632.203 274.324L635.215 275.074L636.574 275.504L638.727 276.336L640.375 277.141L641.52 277.84L642.809 278.832L643.957 280.043L644.816 281.41L645.246 282.562H635.215L634.711 281.492L634.137 280.66L633.062 279.559L631.988 278.781L630.484 278L629.121 277.492L627.258 276.98L625.609 276.66L623.891 276.418L622.242 276.258L619.086 276.094H615.434L614.07 276.148L611.277 276.363L609.77 276.551L607.621 276.926L606.117 277.277L604.324 277.812L603.105 278.27L601.602 278.969L600.527 279.586L599.309 280.469L598.59 281.141L597.945 281.895L597.371 282.777L596.941 283.719L596.656 284.711L596.512 285.68V289.84L596.656 290.805L597.016 291.934L597.945 293.57L599.309 294.992L600.883 296.121L602.391 296.926L603.25 297.301L604.395 297.73L606.188 298.266L608.766 298.805L610.273 299.02L612.566 299.234L614.93 299.34H618.086L620.879 299.234L622.742 299.098L624.68 298.883L627.328 298.43L628.977 298L630.41 297.488L631.488 296.977L632.203 296.551L633.277 295.719L634.137 294.805L634.781 293.863L635.215 292.953H645.246L644.816 294.027L644.172 295.074L643.527 295.852L642.523 296.789L641.375 297.621L639.727 298.562L638.367 299.18L636.574 299.852L634.926 300.359L633.133 300.816L630.484 301.355L628.762 301.621L626.898 301.863L624.68 302.078L621.883 302.266L618.871 302.375L616.078 302.402L613.066 302.348L610.848 302.238L607.906 301.996L604.254 301.516L601.602 301.004L599.523 300.496L597.73 299.957L595.723 299.234L593.145 298.051L591.566 297.141L590.492 296.387L589.273 295.34L588.414 294.402L587.41 292.898L586.695 290.992L586.48 289.516V285.812Z" fill="#255C99"/>
<path d="M586.48 306.453L586.551 306.449V306.324L586.836 306.047L587.555 305.664L588.484 305.352L589.488 305.105L590.133 304.977L591.207 304.789L592.141 304.656L594.504 304.379L597.516 304.117L599.164 304.008L601.027 303.902L603.68 303.785L604.898 303.742L608.625 303.645L612.852 303.582L617.512 303.562L619.66 303.57L622.598 303.594L626.613 303.664L628.906 303.723L630.699 303.785L632.562 303.867L634.855 303.988L637.004 304.137L638.727 304.285L640.445 304.469L641.879 304.668L643.098 304.883L644.172 305.141L644.816 305.355L645.246 305.574H635.285L634.711 305.355L634.066 305.191L632.992 304.988L631.918 304.84L630.84 304.723L628.836 304.562L627.113 304.465L624.965 304.379L622.887 304.32L620.52 304.285L619.086 304.273H615.289L611.848 304.316L609.844 304.363L608.41 304.414L606.402 304.508L605.184 304.582L604.469 304.629L602.316 304.82L600.883 304.992L600.098 305.109L599.094 305.297L598.375 305.461L597.586 305.707L597.156 305.895L596.586 306.312L596.512 307.422L596.727 307.656L597.156 307.91L597.73 308.129L598.59 308.363L599.449 308.543L600.957 308.785L602.246 308.945L603.25 309.047L605.184 309.215L605.973 309.27L607.836 309.383L609.77 309.469L612.137 309.543L613.926 309.578L616.793 309.609H620.449L624.75 309.57L627.473 309.523L629.336 309.473L630.555 309.43L632.059 309.363L633.133 309.301L634.137 309.234L635.355 309.129V307.656L617.656 307.648V306.961L645.176 306.953L645.246 309.363L643.742 309.527L641.879 309.688L640.086 309.812L638.223 309.918L635.57 310.035L633.422 310.109L630.125 310.195L627.113 310.25L623.961 310.285L621.168 310.305L617.871 310.312L614.93 310.301L611.777 310.262L609.27 310.215L606.977 310.152L604.684 310.07L601.816 309.941L599.953 309.836L598.016 309.707L596.082 309.555L594.363 309.387L593.215 309.258L592.07 309.109L590.852 308.926L589.703 308.715L588.844 308.523L588.055 308.309L587.48 308.105L586.91 307.828L586.621 307.605L586.48 307.414V306.453Z" fill="#F7B32B"/>
<path d="M586.48 176.793H645.246V186.969L620.754 187.059V271.871H610.898V187.148L610.758 186.969H586.48V176.793Z" fill="#D62839"/>
</g>
<defs>
<clipPath id="clip0_3_2306">
<rect width="682" height="322" fill="white"/>
</clipPath>
</defs>
</svg>
