<svg width="682" height="322" viewBox="0 0 682 322" fill="none" xmlns="http://www.w3.org/2000/svg">
<g clip-path="url(#clip0_3_2420)">
<path d="M754 -36H-110V396H754V-36Z" fill="white"/>
<path d="M29.7305 304.305L29.8086 304.301L61.6367 299.551H71.3008L103.281 304.309H92.0469L84.0312 303.066H48.9062L41.0469 304.305H29.7305L52.2852 302.555L80.8086 302.551L66.5859 300.328L66.4297 300.324L66.2695 300.34L52.207 302.551L52.2852 302.555L29.7305 304.305Z" fill="#109648"/>
<path d="M29.7305 309.438L29.8203 309.434V309.395L30.0898 309.324L30.7188 309.238L31.3438 309.184L32.9609 309.078L35.2031 308.977L37.5352 308.898L39.2383 308.852L40.7656 308.816L44.2617 308.75L46.5039 308.715L48.9258 308.688L51.8867 308.656L54.0391 308.637L58.8828 308.609L62.4688 308.598L65.25 308.594H71.2617L74.8477 308.598L77.4492 308.609L80.3203 308.621L82.7422 308.637L86.957 308.676L90.7266 308.727L92.4297 308.754L95.1211 308.812L97.1836 308.863L98.6172 308.91L100.234 308.977L101.668 309.055L102.746 309.145L103.281 309.223H90.7266L90.0977 309.152L89.3789 309.098L88.0352 309.023L86.6875 308.973L84.8047 308.922L83.1016 308.887L80.7695 308.852L78.707 308.832L76.5547 308.816L74.4883 308.805L70.543 308.793H65.9688L64.2656 308.797L60.7656 308.812L58.8828 308.824L56.1914 308.852L54.3086 308.871L52.0664 308.91L50.5391 308.938L48.6562 308.984L47.3125 309.027L45.7852 309.086L44.8906 309.129L44.082 309.18L43.3633 309.238L42.8281 309.297L42.4688 309.363L42.2891 309.43V309.703L42.4688 309.766L42.918 309.844L44.082 309.949L45.7852 310.043L47.7617 310.117L49.6445 310.172L50.7188 310.195L52.1562 310.227L54.3984 310.262L57.6289 310.297L59.5117 310.309L62.3828 310.324L65.3398 310.332H69.2891L72.7852 310.324L75.1172 310.316L77.5391 310.301L80.8594 310.27L82.9219 310.242L84.7148 310.211L86.0625 310.176L86.957 310.148L88.3047 310.094L89.3789 310.031L90.1875 309.969L90.7266 309.91H103.281L102.746 309.98L101.938 310.051L101.129 310.102L99.875 310.164L98.4414 310.219L96.375 310.281L94.6719 310.32L92.4297 310.367L90.3672 310.398L88.125 310.43L84.8047 310.465L82.6523 310.484L80.3203 310.5L77.5391 310.512L74.043 310.523L70.2734 310.531L66.7773 310.535L63.0078 310.531L60.2266 310.523L56.5508 310.508L51.9766 310.477L48.6562 310.441L46.0547 310.406L43.8125 310.371L41.3008 310.324L38.0742 310.246L36.0977 310.188L34.7539 310.137L33.2305 310.066L32.1523 310.004L30.8984 309.906L30 309.781L29.7305 309.684V309.438Z" fill="#255C99"/>
<path d="M29.7305 306.281H29.8203V306.238L30.1797 306.141L31.0781 306.008L32.2422 305.898L33.5 305.812L34.3047 305.766L35.6523 305.699L36.8164 305.652L39.7773 305.559L43.543 305.465L45.6094 305.426L47.9414 305.391L51.2578 305.352L52.7852 305.336L57.4492 305.301L62.7383 305.277L68.5703 305.273H71.2617L74.9375 305.285L79.9609 305.309L82.832 305.328L85.0742 305.352L87.4062 305.379L90.2773 305.422L92.9688 305.473L95.1211 305.523L97.2734 305.59L99.0664 305.656L100.594 305.734L101.938 305.824L102.746 305.898L103.281 305.973H90.8164L90.0977 305.898L89.2891 305.84L87.9453 305.77L86.5977 305.719L85.2539 305.676L82.7422 305.621L80.5898 305.586L77.8984 305.559L75.2969 305.539L72.3359 305.523L70.543 305.52H65.7891L61.4844 305.535L58.9727 305.551L57.1797 305.57L54.668 305.602L53.1406 305.629L52.2461 305.645L49.5547 305.711L47.7617 305.773L46.7734 305.812L45.5195 305.879L44.6211 305.938L43.6328 306.023L43.0977 306.086L42.3789 306.234L42.2891 306.621L42.5586 306.703L43.0977 306.789L43.8125 306.867L44.8906 306.949L45.9648 307.012L47.8516 307.098L49.4648 307.152L50.7188 307.188L53.1406 307.246L54.1289 307.266L56.4609 307.305L58.8828 307.336L61.8438 307.359L64.0859 307.375L67.6719 307.383H72.2461L77.6289 307.371L81.0391 307.355L83.3711 307.336L84.8945 307.32L86.7773 307.297L88.125 307.277L89.3789 307.254L90.9062 307.215V306.703L68.75 306.699V306.457H103.195L103.281 307.297L101.398 307.355L99.0664 307.414L96.8242 307.457L94.4922 307.492L91.1758 307.531L88.4844 307.559L84.3555 307.59L80.5898 307.609L76.6445 307.621L73.1445 307.629H69.0195L65.3398 307.625L61.3945 307.613L58.2539 307.594L55.3828 307.574L52.5156 307.547L48.9258 307.5L46.5938 307.465L44.1719 307.418L41.75 307.367L39.5977 307.309L38.1641 307.262L36.7266 307.211L35.2031 307.145L33.7656 307.074L32.6914 307.004L31.7031 306.93L30.9883 306.859L30.2695 306.762L29.9102 306.684L29.7305 306.617V306.281Z" fill="#F7B32B"/>
<path d="M29.7305 73.3711H103.281V97.4766L72.6289 97.6914V298.59H60.2969V97.9023L60.1172 97.4766H29.7305V73.3711Z" fill="#D62839"/>
<path d="M107.156 310.531L107.234 310.527L139.059 306.961H148.723L180.707 310.535H169.469L161.453 309.602H126.328L118.469 310.531H107.156L129.707 309.215L158.23 309.211L144.008 307.547L143.852 307.543L143.695 307.555L129.629 309.211L129.707 309.215L107.156 310.531Z" fill="#109648"/>
<path d="M107.156 303.137L107.242 303.133V303.023L107.512 302.848L108.141 302.625L108.77 302.473L110.383 302.199L112.625 301.934L114.957 301.73L116.664 301.609L118.188 301.516L121.684 301.348L123.93 301.258L126.352 301.18L129.309 301.102L131.461 301.055L136.305 300.98L139.895 300.949L142.676 300.934H148.684L152.273 300.953L154.875 300.977L157.742 301.012L160.164 301.055L164.383 301.156L168.148 301.285L169.852 301.359L172.543 301.504L174.605 301.641L176.043 301.762L177.656 301.934L179.094 302.145L180.168 302.379L180.707 302.578H168.148L167.52 302.395L166.805 302.25L165.457 302.059L164.113 301.926L162.23 301.789L160.523 301.703L158.191 301.613L156.129 301.559L153.977 301.516L151.914 301.488L147.969 301.461H143.391L141.688 301.473L138.191 301.508L136.305 301.539L133.613 301.605L131.73 301.664L129.488 301.758L127.965 301.836L126.082 301.957L124.734 302.062L123.211 302.215L122.312 302.332L121.508 302.461L120.789 302.613L120.25 302.777L119.891 302.949L119.711 303.113V303.832L119.891 304L120.34 304.195L121.508 304.477L123.211 304.723L125.184 304.918L127.066 305.055L128.145 305.121L129.578 305.195L131.82 305.289L135.051 305.379L136.934 305.418L139.805 305.453L142.766 305.473H146.711L150.211 305.453L152.543 305.43L154.965 305.395L158.281 305.316L160.344 305.242L162.141 305.152L163.484 305.066L164.383 304.992L165.727 304.848L166.805 304.691L167.609 304.527L168.148 304.371H180.707L180.168 304.555L179.359 304.734L178.555 304.871L177.297 305.031L175.863 305.176L173.801 305.34L172.094 305.445L169.852 305.559L167.789 305.648L165.547 305.727L162.23 305.82L160.074 305.867L157.742 305.906L154.965 305.945L151.465 305.977L147.699 305.996L144.199 306L140.434 305.992L137.652 305.973L133.973 305.93L129.398 305.848L126.082 305.758L123.48 305.672L121.238 305.578L118.727 305.453L115.496 305.25L113.523 305.094L112.176 304.965L110.652 304.781L109.574 304.621L108.32 304.359L107.422 304.031L107.156 303.777V303.137Z" fill="#255C99"/>
<path d="M107.156 183.926L107.242 183.754V180.293L107.602 172.512L108.5 161.785L109.664 152.965L110.922 146.047L111.73 142.414L113.074 137.227L114.242 133.422L117.199 125.637L120.969 118.375L123.031 115.262L125.363 112.32L128.684 109.035L130.207 107.824L134.871 105.055L140.164 103.328L145.992 102.809L148.684 102.98L152.363 103.672L157.387 105.574L160.254 107.305L162.496 109.035L164.828 111.281L167.699 114.742L170.391 118.895L172.543 123.043L174.695 128.234L176.492 133.766L178.016 139.82L179.359 147.086L180.168 153.141L180.707 159.191H168.238L167.52 153.141L166.715 148.469L165.367 142.762L164.023 138.609L162.676 135.324L160.164 130.828L158.012 128.059L155.32 125.637L152.723 124.082L149.762 123.043L147.969 122.699H143.211L138.906 123.91L136.395 125.293L134.602 126.676L132.09 129.27L130.566 131.348L129.668 132.73L126.977 138.09L125.184 142.934L124.195 146.219L122.941 151.41L122.043 156.078L121.059 162.996L120.52 168.188L119.801 179.949L119.711 211.082L119.98 217.652L120.52 224.742L121.238 230.969L122.312 237.543L123.391 242.559L125.273 249.305L126.887 253.801L128.145 256.742L130.566 261.41L131.551 262.969L133.883 266.082L136.305 268.504L139.266 270.578L141.508 271.617L145.098 272.48H149.672L155.055 271.441L158.461 270.059L160.793 268.676L162.32 267.465L164.203 265.562L165.547 263.832L166.805 261.93L168.328 258.988V217.652L146.172 217.48V198.109L180.617 197.934L180.707 265.562L178.824 270.23L176.492 274.73L174.25 278.188L171.918 281.129L168.598 284.414L165.906 286.488L161.781 288.91L158.012 290.469L154.066 291.508L150.566 292.023L146.441 292.199L142.766 291.852L138.816 290.812L135.68 289.43L132.809 287.699L129.938 285.453L126.352 281.82L124.016 278.879L121.594 275.246L119.172 270.926L117.02 266.254L115.586 262.621L114.152 258.473L112.625 253.281L111.191 247.402L110.113 242.039L109.129 235.984L108.41 230.277L107.691 222.496L107.332 216.27L107.156 210.906V183.926Z" fill="#F7B32B"/>
<path d="M107.156 293.16H180.707V293.891L150.051 293.895V299.973H137.719V293.902L137.539 293.891H107.156V293.16Z" fill="#D62839"/>
<path d="M184.578 293.859L184.656 293.672L216.48 94.3359H226.148L258.129 294.047H246.895L238.879 241.914H203.75L195.895 293.859H184.578L207.129 220.352L235.656 220.164L221.434 126.965L221.273 126.777L221.117 127.34L207.051 220.164L207.129 220.352L184.578 293.859Z" fill="#109648"/>
<path d="M184.578 308.383L184.668 308.379V308.293L184.938 308.164L185.562 307.996L186.191 307.879L187.809 307.676L190.051 307.477L192.383 307.324L194.086 307.234L195.609 307.164L199.109 307.035L201.352 306.969L203.773 306.91L206.734 306.848L208.887 306.816L213.73 306.758L217.316 306.734L220.098 306.723H226.109L229.695 306.738L232.297 306.754L235.168 306.785L237.59 306.816L241.805 306.891L245.57 306.988L247.277 307.043L249.969 307.152L252.031 307.258L253.465 307.348L255.082 307.477L256.516 307.633L257.59 307.812L258.129 307.961H245.57L244.945 307.82L244.227 307.715L242.883 307.57L241.535 307.469L239.652 307.367L237.949 307.301L235.617 307.234L233.551 307.195L231.398 307.164L229.336 307.141L225.391 307.121H220.816L219.109 307.129L215.613 307.156L213.73 307.18L211.039 307.23L209.156 307.273L206.914 307.344L205.387 307.402L203.504 307.492L202.16 307.574L200.633 307.688L199.738 307.777L198.93 307.875L198.211 307.988L197.672 308.109L197.316 308.238L197.137 308.363V308.902L197.316 309.031L197.762 309.176L198.93 309.387L200.633 309.574L202.605 309.719L204.492 309.824L205.566 309.871L207.004 309.93L209.246 309.996L212.473 310.066L214.355 310.094L217.227 310.121L220.188 310.137H224.133L227.633 310.121L229.965 310.105L232.387 310.078L235.707 310.02L237.77 309.961L239.562 309.898L240.906 309.832L241.805 309.773L243.148 309.668L244.227 309.547L245.035 309.426L245.57 309.309H258.129L257.59 309.449L256.785 309.582L255.977 309.684L254.723 309.805L253.285 309.914L251.223 310.035L249.52 310.117L247.277 310.203L245.215 310.27L242.973 310.328L239.652 310.398L237.5 310.434L235.168 310.465L232.387 310.492L228.887 310.516L225.121 310.531L221.621 310.535L217.855 310.527L215.074 310.512L211.398 310.48L206.824 310.418L203.504 310.352L200.902 310.285L198.66 310.219L196.148 310.121L192.918 309.969L190.945 309.852L189.602 309.754L188.074 309.617L187 309.496L185.742 309.301L184.848 309.055L184.578 308.863V308.383Z" fill="#255C99"/>
<path d="M184.578 303.172L184.668 303.168V303.086L185.027 302.898L185.922 302.641L187.09 302.43L188.344 302.266L189.152 302.18L190.496 302.055L191.664 301.965L194.625 301.777L198.391 301.605L200.453 301.527L202.785 301.457L206.105 301.379L207.629 301.352L212.293 301.285L217.586 301.242L223.418 301.23L226.109 301.234L229.785 301.25L234.809 301.297L237.68 301.34L239.922 301.379L242.254 301.434L245.125 301.516L247.816 301.617L249.969 301.715L252.121 301.84L253.914 301.973L255.438 302.117L256.785 302.289L257.59 302.434L258.129 302.578H245.66L244.945 302.434L244.137 302.324L242.793 302.188L241.445 302.086L240.102 302.008L237.59 301.902L235.438 301.836L232.746 301.777L230.145 301.738L227.184 301.715L225.391 301.707H220.637L216.332 301.734L213.82 301.77L212.023 301.801L209.512 301.863L207.988 301.914L207.094 301.945L204.402 302.074L202.605 302.191L201.621 302.27L200.363 302.395L199.469 302.504L198.48 302.672L197.941 302.797L197.227 303.078L197.137 303.82L197.406 303.977L197.941 304.148L198.66 304.297L199.738 304.453L200.812 304.574L202.695 304.734L204.312 304.844L205.566 304.914L207.988 305.023L208.977 305.062L211.309 305.137L213.73 305.195L216.691 305.246L218.934 305.27L222.52 305.289H227.094L232.477 305.266L235.887 305.23L238.219 305.199L239.742 305.172L241.625 305.125L242.973 305.082L244.227 305.039L245.75 304.969V303.977L223.598 303.973V303.512L258.039 303.508L258.129 305.125L256.246 305.234L253.914 305.344L251.672 305.426L249.34 305.496L246.02 305.574L243.328 305.625L239.203 305.684L235.438 305.719L231.488 305.746L227.992 305.758L223.867 305.762L220.188 305.754L216.242 305.73L213.102 305.695L210.23 305.652L207.359 305.602L203.773 305.512L201.441 305.441L199.02 305.355L196.598 305.254L194.445 305.141L193.008 305.055L191.574 304.953L190.051 304.832L188.613 304.691L187.539 304.562L186.551 304.418L185.832 304.281L185.117 304.094L184.758 303.945L184.578 303.816V303.172Z" fill="#F7B32B"/>
<path d="M184.578 295.008H258.129V295.574L227.477 295.578V300.27H215.141V295.582L214.965 295.574H184.578V295.008Z" fill="#D62839"/>
<path d="M262 310.531H262.078L293.906 308.387H303.57L335.555 310.535H324.316L316.301 309.973H281.176L273.316 310.531H262L284.555 309.742L313.078 309.738L298.855 308.738L298.699 308.734L298.543 308.742L284.477 309.738L284.555 309.742L262 310.531Z" fill="#109648"/>
<path d="M262 287.59L262.09 287.57V287.152L262.359 286.488L262.988 285.645L263.617 285.07L265.23 284.035L267.473 283.039L269.805 282.266L271.508 281.812L273.035 281.461L276.531 280.812L278.773 280.48L281.195 280.184L284.156 279.887L286.309 279.711L291.152 279.43L294.742 279.309L297.52 279.258H303.531L307.117 279.324L309.719 279.414L312.59 279.555L315.012 279.711L319.227 280.098L322.996 280.586L324.699 280.867L327.391 281.41L329.453 281.934L330.891 282.391L332.504 283.039L333.938 283.824L335.016 284.719L335.555 285.473H322.996L322.367 284.77L321.648 284.227L320.305 283.512L318.961 283.004L317.074 282.496L315.371 282.164L313.039 281.828L310.977 281.621L308.824 281.461L306.762 281.355L302.812 281.25H298.238L296.535 281.285L293.035 281.426L291.152 281.551L288.461 281.793L286.578 282.023L284.336 282.371L282.812 282.672L280.926 283.125L279.582 283.527L278.059 284.105L277.16 284.543L276.352 285.035L275.637 285.613L275.098 286.223L274.738 286.871L274.559 287.504V290.215L274.738 290.848L275.188 291.582L276.352 292.648L278.059 293.578L280.031 294.312L281.914 294.84L282.992 295.082L284.426 295.363L286.668 295.715L289.898 296.062L291.781 296.203L294.652 296.344L297.609 296.414H301.559L305.055 296.344L307.387 296.258L309.809 296.117L313.129 295.82L315.191 295.539L316.984 295.207L318.332 294.871L319.227 294.594L320.574 294.051L321.648 293.453L322.457 292.844L322.996 292.246H335.555L335.016 292.945L334.207 293.629L333.402 294.137L332.145 294.75L330.711 295.293L328.645 295.906L326.941 296.309L324.699 296.746L322.637 297.078L320.395 297.375L317.074 297.727L314.922 297.902L312.59 298.059L309.809 298.199L306.312 298.32L302.543 298.391L299.047 298.41L295.277 298.375L292.5 298.305L288.82 298.148L284.246 297.832L280.926 297.5L278.324 297.168L276.082 296.816L273.57 296.344L270.344 295.574L268.371 294.977L267.023 294.488L265.5 293.805L264.422 293.191L263.168 292.211L262.27 290.969L262 290.004V287.59Z" fill="#255C99"/>
<path d="M262 302.82L262.09 302.812V302.668L262.449 302.336L263.348 301.879L264.512 301.504L265.77 301.211L266.574 301.055L267.922 300.836L269.086 300.672L272.047 300.344L275.816 300.035L277.879 299.902L280.211 299.777L283.527 299.637L285.055 299.586L289.719 299.469L295.012 299.395L300.84 299.371L303.531 299.379L307.207 299.41L312.23 299.488L315.102 299.562L317.344 299.637L319.676 299.73L322.547 299.879L325.238 300.055L327.391 300.23L329.543 300.453L331.336 300.688L332.863 300.945L334.207 301.254L335.016 301.512L335.555 301.77H323.086L322.367 301.512L321.559 301.312L320.215 301.07L318.871 300.895L317.523 300.754L315.012 300.562L312.859 300.445L310.168 300.344L307.566 300.277L304.609 300.23L302.812 300.219H298.059L293.754 300.27L291.242 300.328L289.449 300.387L286.938 300.496L285.414 300.586L284.516 300.645L281.824 300.871L280.031 301.078L279.043 301.219L277.789 301.438L276.891 301.637L275.902 301.93L275.367 302.152L274.648 302.652L274.559 303.977L274.828 304.254L275.367 304.559L276.082 304.82L277.16 305.102L278.234 305.312L280.121 305.602L281.734 305.793L282.992 305.918L285.414 306.117L286.398 306.184L288.73 306.312L291.152 306.418L294.113 306.504L296.355 306.551L299.941 306.586H304.52L309.898 306.543L313.309 306.484L315.641 306.426L317.164 306.375L319.047 306.293L320.395 306.219L321.648 306.137L323.176 306.012V304.254L301.02 304.246V303.426L335.465 303.418L335.555 306.293L333.668 306.492L331.336 306.684L329.094 306.828L326.762 306.953L323.445 307.094L320.754 307.184L316.629 307.285L312.859 307.352L308.914 307.395L305.414 307.418L301.289 307.426L297.609 307.41L293.664 307.367L290.523 307.309L287.656 307.234L284.785 307.137L281.195 306.984L278.863 306.859L276.441 306.703L274.02 306.52L271.867 306.32L270.434 306.168L268.996 305.992L267.473 305.77L266.039 305.52L264.961 305.293L263.973 305.035L263.258 304.793L262.539 304.461L262.18 304.195L262 303.969V302.82Z" fill="#F7B32B"/>
<path d="M262 198.367H335.555V206.922L304.898 206.996V278.293H292.566V207.074L292.387 206.922H262V198.367Z" fill="#D62839"/>
<path d="M339.426 310.531L339.504 310.527L371.328 307.473H380.992L412.977 310.535H401.738L393.723 309.734H358.598L350.738 310.531H339.426L361.977 309.402H390.504L376.277 307.973L376.121 307.969L375.965 307.977L361.898 309.402H361.977L339.426 310.531Z" fill="#109648"/>
<path d="M339.426 298.812L339.516 298.809V298.715L339.781 298.559L340.41 298.367L341.039 298.234L342.652 297.996L344.895 297.766L347.227 297.586L348.934 297.48L350.457 297.402L353.957 297.25L356.199 297.176L358.621 297.105L361.578 297.039L363.734 296.996L368.574 296.934L372.164 296.902L374.945 296.891H380.953L384.543 296.906L387.145 296.93L390.016 296.961L392.438 296.996L396.652 297.086L400.418 297.199L402.125 297.262L404.812 297.387L406.879 297.512L408.312 297.613L409.926 297.766L411.363 297.945L412.438 298.152L412.977 298.324H400.418L399.789 298.164L399.074 298.039L397.727 297.875L396.383 297.758L394.5 297.641L392.793 297.562L390.461 297.484L388.398 297.438L386.246 297.402L384.184 297.375L380.238 297.352H375.664L373.957 297.359L370.461 297.395L368.574 297.422L365.887 297.477L364 297.531L361.758 297.609L360.234 297.68L358.352 297.785L357.004 297.879L355.48 298.012L354.582 298.113L353.777 298.227L353.059 298.359L352.52 298.5L352.16 298.648L351.98 298.793V299.422L352.16 299.566L352.609 299.734L353.777 299.98L355.48 300.195L357.453 300.367L359.336 300.488L360.414 300.543L361.848 300.609L364.09 300.688L367.32 300.77L369.203 300.801L372.074 300.832L375.035 300.852H378.98L382.48 300.832L384.812 300.812L387.234 300.781L390.551 300.711L392.613 300.648L394.41 300.57L395.754 300.496L396.652 300.43L397.996 300.305L399.074 300.168L399.879 300.027L400.418 299.891H412.977L412.438 300.051L411.633 300.207L410.824 300.324L409.566 300.465L408.133 300.59L406.07 300.734L404.367 300.824L402.125 300.926L400.059 301.004L397.816 301.074L394.5 301.152L392.348 301.195L390.016 301.23L387.234 301.262L383.734 301.289L379.969 301.305L376.469 301.312L372.703 301.301L369.922 301.285L366.242 301.25L361.668 301.176L358.352 301.102L355.75 301.023L353.508 300.941L350.996 300.832L347.766 300.656L345.793 300.52L344.449 300.406L342.922 300.25L341.848 300.105L340.59 299.879L339.695 299.594L339.426 299.371V298.812Z" fill="#255C99"/>
<path d="M339.426 175.695L339.516 175.504V171.66L339.871 163.02L340.77 151.109L341.938 141.316L343.191 133.633L344 129.598L345.344 123.836L346.512 119.613L349.469 110.969L353.238 102.902L355.301 99.4453L357.633 96.1797L360.953 92.5312L362.477 91.1875L367.141 88.1133L372.434 86.1914L378.262 85.6172L380.953 85.8086L384.633 86.5781L389.656 88.6875L392.527 90.6094L394.77 92.5312L397.102 95.0273L399.969 98.8672L402.66 103.477L404.812 108.09L406.969 113.852L408.762 119.996L410.285 126.719L411.633 134.785L412.438 141.508L412.977 148.23H400.508L399.789 141.508L398.984 136.32L397.637 129.984L396.293 125.375L394.949 121.727L392.438 116.73L390.281 113.656L387.594 110.969L384.992 109.242L382.031 108.09L380.238 107.703H375.484L371.176 109.047L368.664 110.586L366.871 112.121L364.359 115.004L362.836 117.309L361.938 118.844L359.246 124.797L357.453 130.176L356.469 133.824L355.211 139.586L354.312 144.773L353.328 152.457L352.789 158.219L352.07 171.277L351.98 205.852L352.25 213.148L352.789 221.023L353.508 227.938L354.582 235.234L355.66 240.805L357.543 248.297L359.156 253.289L360.414 256.555L362.836 261.742L363.82 263.469L366.156 266.926L368.574 269.617L371.535 271.922L373.777 273.074L377.367 274.035H381.941L387.324 272.883L390.73 271.344L393.062 269.809L394.59 268.465L396.473 266.352L397.816 264.43L399.074 262.316L400.598 259.051V213.148L378.441 212.957V191.445L412.887 191.254L412.977 266.352L411.094 271.535L408.762 276.531L406.52 280.371L404.188 283.637L400.867 287.285L398.176 289.59L394.051 292.281L390.281 294.008L386.336 295.16L382.84 295.738L378.711 295.93L375.035 295.547L371.086 294.395L367.949 292.855L365.078 290.938L362.207 288.438L358.621 284.406L356.289 281.141L353.867 277.105L351.445 272.305L349.293 267.121L347.855 263.086L346.422 258.477L344.895 252.715L343.461 246.184L342.383 240.23L341.398 233.508L340.68 227.168L339.961 218.527L339.605 211.613L339.426 205.656V175.695Z" fill="#F7B32B"/>
<path d="M339.426 302.273H412.977V302.727L382.324 302.73V306.512H369.988V302.734L369.809 302.727H339.426V302.273Z" fill="#D62839"/>
<path d="M416.848 304.844L416.926 304.824L448.75 285.148H458.418L490.398 304.863H479.164L471.148 299.715H436.023L428.164 304.844H416.848L439.402 297.586L467.926 297.57L453.703 288.367L453.547 288.352L453.387 288.406L439.32 297.57L439.402 297.586L416.848 304.844Z" fill="#109648"/>
<path d="M416.848 306.652H416.938V306.609L417.207 306.543L417.836 306.461L418.461 306.402L420.078 306.301L422.32 306.199L424.652 306.125L426.355 306.078L427.879 306.043L431.379 305.98L433.621 305.945L436.043 305.918L439.004 305.887L441.156 305.871L446 305.844L449.586 305.832L452.367 305.824H458.379L461.965 305.832L464.566 305.84L467.438 305.855L469.859 305.871L474.074 305.91L477.844 305.957L479.547 305.984L482.238 306.039L484.301 306.09L485.734 306.137L487.352 306.199L488.785 306.277L489.863 306.367L490.398 306.441H477.844L477.215 306.371L476.496 306.32L475.152 306.246L473.805 306.195L471.922 306.145L470.219 306.113L467.887 306.082L465.824 306.059L463.672 306.043L461.605 306.035L457.66 306.023H453.086L451.383 306.027L447.883 306.039L446 306.051L443.309 306.078L441.426 306.098L439.184 306.133L437.656 306.164L435.773 306.211L434.43 306.25L432.902 306.305L432.008 306.352L431.199 306.398L430.48 306.457L429.945 306.516L429.586 306.582L429.406 306.645V306.914L429.586 306.977L430.035 307.047L431.199 307.156L432.902 307.246L434.879 307.32L436.762 307.371L437.836 307.395L439.273 307.422L441.516 307.457L444.742 307.492L446.629 307.508L449.496 307.52L452.457 307.527H456.406L459.902 307.52L462.234 307.512L464.656 307.5L467.977 307.469L470.039 307.441L471.832 307.406L473.18 307.375L474.074 307.348L475.422 307.293L476.496 307.234L477.305 307.172L477.844 307.113H490.398L489.863 307.184L489.055 307.25L488.246 307.301L486.992 307.363L485.555 307.418L483.492 307.477L481.789 307.52L479.547 307.562L477.484 307.594L475.242 307.625L471.922 307.66L469.77 307.676L467.438 307.691L464.656 307.707L461.16 307.719L457.391 307.723L453.895 307.727L450.125 307.723L447.344 307.715L443.668 307.699L439.094 307.668L435.773 307.637L433.172 307.602L430.93 307.566L428.418 307.52L425.191 307.445L423.215 307.387L421.871 307.336L420.348 307.27L419.27 307.207L418.016 307.109L417.117 306.988L416.848 306.891V306.652Z" fill="#255C99"/>
<path d="M416.848 309.48L416.938 309.477V309.445L417.297 309.367L418.191 309.262L419.359 309.176L420.613 309.109L421.422 309.074L422.77 309.023L423.934 308.988L426.895 308.91L430.66 308.84L432.723 308.809L435.055 308.781L438.375 308.75L439.898 308.738L444.562 308.711L449.855 308.695L455.688 308.688L458.379 308.691L462.055 308.695L467.078 308.715L469.949 308.73L472.191 308.75L474.523 308.77L477.395 308.805L480.086 308.844L482.238 308.887L484.391 308.938L486.184 308.988L487.711 309.051L489.055 309.121L489.863 309.18L490.398 309.238H477.934L477.215 309.18L476.406 309.133L475.062 309.078L473.715 309.039L472.371 309.004L469.859 308.961L467.707 308.934L465.016 308.91L462.414 308.895L459.453 308.887L457.66 308.883H452.906L448.602 308.895L446.09 308.906L444.297 308.922L441.785 308.945L440.258 308.965L439.363 308.98L436.672 309.031L434.879 309.078L433.891 309.113L432.633 309.164L431.738 309.207L430.75 309.273L430.211 309.324L429.496 309.441L429.406 309.742L429.676 309.809L430.211 309.875L430.93 309.938L432.008 310L433.082 310.051L434.965 310.117L436.582 310.16L437.836 310.188L440.258 310.234L441.246 310.25L443.578 310.281L446 310.305L448.961 310.324L451.203 310.332L454.789 310.34H459.363L464.746 310.332L468.156 310.316L470.488 310.305L472.012 310.293L473.895 310.273L475.242 310.258L476.496 310.238L478.023 310.211V309.809L455.867 309.805V309.617H490.309L490.398 310.273L488.516 310.32L486.184 310.363L483.941 310.398L481.609 310.426L478.289 310.457L475.602 310.477L471.473 310.5L467.707 310.516L463.758 310.527L460.262 310.531L456.137 310.535L452.457 310.531L448.512 310.52L445.371 310.508L442.5 310.488L439.633 310.469L436.043 310.434L433.711 310.402L431.289 310.367L428.867 310.328L426.715 310.281L425.281 310.246L423.844 310.207L422.32 310.156L420.883 310.098L419.809 310.047L418.82 309.984L418.102 309.93L417.387 309.855L417.027 309.793L416.848 309.742V309.48Z" fill="#F7B32B"/>
<path d="M416.848 126.457H490.398V143.34L459.746 143.488V284.184H447.414V143.637L447.234 143.34H416.848V126.457Z" fill="#D62839"/>
<path d="M494.27 300.199L494.352 300.191L526.176 292.109H535.84L567.824 300.207H556.586L548.57 298.094H513.445L505.586 300.199H494.27L516.824 297.219L545.348 297.211L531.125 293.434L530.969 293.426L530.812 293.449L516.746 297.211L516.824 297.219L494.27 300.199Z" fill="#109648"/>
<path d="M494.27 187.449L494.359 187.281V183.254L494.629 176.879L495.258 168.824L495.887 163.285L497.5 153.387L499.742 143.82L502.074 136.438L503.777 132.074L505.305 128.719L508.801 122.512L511.043 119.32L513.465 116.469L516.426 113.617L518.578 111.938L523.422 109.254L527.012 108.078L529.793 107.578H535.801L539.391 108.246L541.992 109.086L544.859 110.43L547.281 111.938L551.5 115.629L555.266 120.328L556.969 123.016L559.66 128.215L561.723 133.25L563.16 137.613L564.773 143.82L566.207 151.371L567.285 159.93L567.824 167.145H555.266L554.637 160.434L553.922 155.23L552.574 148.352L551.23 143.484L549.344 138.617L547.641 135.43L545.309 132.242L543.246 130.23L541.094 128.719L539.031 127.711L535.082 126.707H530.508L528.805 127.039L525.305 128.383L523.422 129.559L520.73 131.906L518.848 134.09L516.605 137.445L515.082 140.297L513.199 144.66L511.852 148.52L510.328 154.055L509.43 158.25L508.621 162.949L507.906 168.488L507.367 174.359L507.008 180.57L506.828 186.609V212.617L507.008 218.66L507.457 225.707L508.621 235.941L510.328 244.836L512.301 251.883L514.184 256.918L515.262 259.266L516.695 261.949L518.938 265.309L522.168 268.664L524.051 270.004L526.922 271.348L529.883 272.02H533.828L537.324 271.348L539.656 270.508L542.078 269.168L545.398 266.312L547.461 263.629L549.254 260.441L550.602 257.254L551.5 254.566L552.844 249.367L553.922 243.66L554.727 237.789L555.266 232.082H567.824L567.285 238.793L566.477 245.34L565.672 250.203L564.414 256.078L562.98 261.281L560.918 267.152L559.211 271.012L556.969 275.207L554.906 278.395L552.664 281.246L549.344 284.605L547.191 286.281L544.859 287.793L542.078 289.133L538.582 290.309L534.816 290.98L531.316 291.148L527.551 290.812L524.77 290.141L521.09 288.633L516.516 285.609L513.199 282.422L510.598 279.234L508.355 275.879L505.844 271.348L502.613 263.965L500.641 258.258L499.293 253.562L497.77 247.016L496.691 241.145L495.438 231.746L494.539 219.832L494.27 210.605V187.449Z" fill="#255C99"/>
<path d="M494.27 303.145L494.359 303.141V303.059L494.719 302.867L495.617 302.605L496.781 302.391L498.039 302.223L498.844 302.133L500.191 302.008L501.355 301.914L504.316 301.723L508.086 301.547L510.148 301.473L512.48 301.398L515.797 301.32L517.324 301.289L521.988 301.223L527.281 301.18L533.109 301.168L535.801 301.172L539.48 301.188L544.5 301.234L547.371 301.277L549.613 301.32L551.945 301.375L554.816 301.457L557.508 301.559L559.66 301.66L561.812 301.789L563.609 301.922L565.133 302.07L566.477 302.246L567.285 302.395L567.824 302.543H555.355L554.637 302.395L553.832 302.281L552.484 302.141L551.141 302.039L549.793 301.961L547.281 301.852L545.129 301.785L542.438 301.723L539.836 301.688L536.879 301.66L535.082 301.652H530.328L526.023 301.684L523.512 301.715L521.719 301.75L519.207 301.812L517.684 301.863L516.785 301.898L514.094 302.027L512.301 302.145L511.312 302.227L510.059 302.352L509.16 302.465L508.176 302.637L507.637 302.762L506.918 303.047L506.828 303.809L507.098 303.969L507.637 304.141L508.355 304.293L509.43 304.453L510.508 304.574L512.391 304.738L514.004 304.852L515.262 304.922L517.684 305.035L518.668 305.074L521 305.148L523.422 305.207L526.383 305.258L528.625 305.285L532.215 305.305H536.789L542.168 305.281L545.578 305.246L547.91 305.211L549.434 305.184L551.32 305.137L552.664 305.094L553.922 305.047L555.445 304.977V303.969L533.289 303.965V303.492L567.734 303.488L567.824 305.137L565.941 305.25L563.609 305.359L561.363 305.445L559.031 305.516L555.715 305.598L553.023 305.648L548.898 305.707L545.129 305.742L541.184 305.77L537.684 305.781L533.559 305.785L529.883 305.777L525.934 305.754L522.797 305.719L519.926 305.676L517.055 305.621L513.465 305.531L511.133 305.461L508.711 305.371L506.289 305.266L504.137 305.152L502.703 305.066L501.266 304.965L499.742 304.836L498.309 304.695L497.23 304.562L496.246 304.414L495.527 304.277L494.809 304.086L494.449 303.934L494.27 303.805V303.145Z" fill="#F7B32B"/>
<path d="M494.27 306.75H567.824V307.152L537.168 307.156V310.535H524.836V307.16L524.656 307.152H494.27V306.75Z" fill="#D62839"/>
<path d="M571.695 299.051L571.773 298.836L603.598 70.8906H613.266L645.246 299.266H634.008L625.996 239.652H590.867L583.012 299.051H571.695L594.246 214.992L622.773 214.777L608.551 108.203L608.391 107.988L608.234 108.633L594.168 214.777L594.246 214.992L571.695 299.051Z" fill="#109648"/>
<path d="M571.695 309.34L571.785 309.336V309.289L572.055 309.215L572.68 309.125L573.309 309.059L574.922 308.945L577.164 308.836L579.5 308.75L581.203 308.699L582.727 308.66L586.227 308.59L588.469 308.551L590.891 308.52L593.852 308.488L596.004 308.469L600.848 308.438L604.434 308.422L607.215 308.418H613.223L616.812 308.426L619.414 308.434L622.285 308.449L624.707 308.469L628.922 308.512L632.688 308.562L634.395 308.594L637.086 308.656L639.148 308.715L640.582 308.762L642.195 308.836L643.633 308.922L644.707 309.02L645.246 309.105H632.688L632.062 309.027L631.344 308.965L629.996 308.887L628.652 308.832L626.77 308.773L625.066 308.738L622.734 308.703L620.668 308.68L618.516 308.66L616.453 308.648L612.508 308.637H607.934L606.227 308.641L602.73 308.656L600.848 308.672L598.156 308.699L596.273 308.723L594.027 308.762L592.504 308.793L590.621 308.844L589.273 308.891L587.75 308.953L586.852 309L586.047 309.055L585.328 309.121L584.789 309.188L584.43 309.258L584.254 309.328V309.629L584.43 309.699L584.879 309.777L586.047 309.898L587.75 310L589.723 310.082L591.605 310.141L592.684 310.168L594.117 310.195L596.363 310.234L599.59 310.273L601.473 310.289L604.344 310.305L607.305 310.312H611.25L614.75 310.305L617.082 310.297L619.504 310.281L622.82 310.246L624.887 310.215L626.68 310.18L628.023 310.145L628.922 310.113L630.266 310.051L631.344 309.984L632.152 309.918L632.688 309.852H645.246L644.707 309.93L643.902 310.004L643.094 310.062L641.84 310.129L640.402 310.191L638.34 310.258L636.637 310.301L634.395 310.352L632.332 310.387L630.086 310.418L626.77 310.457L624.617 310.477L622.285 310.496L619.504 310.512L616.004 310.523L612.238 310.531L608.738 310.535L604.973 310.531L602.191 310.523L598.516 310.504L593.941 310.469L590.621 310.434L588.02 310.398L585.777 310.359L583.266 310.305L580.035 310.219L578.062 310.156L576.719 310.102L575.191 310.023L574.117 309.957L572.859 309.848L571.965 309.711L571.695 309.605V309.34Z" fill="#255C99"/>
<path d="M571.695 305.891H571.785V305.84L572.145 305.727L573.039 305.57L574.207 305.445L575.461 305.344L576.27 305.293L577.613 305.219L578.781 305.164L581.742 305.051L585.508 304.945L587.57 304.902L589.902 304.859L593.223 304.812L594.746 304.793L599.41 304.754L604.703 304.727L610.535 304.723H613.223L616.902 304.734L621.926 304.762L624.797 304.785L627.039 304.812L629.371 304.844L632.242 304.895L634.93 304.953L637.086 305.012L639.238 305.086L641.031 305.168L642.555 305.254L643.902 305.359L644.707 305.449L645.246 305.535H632.777L632.062 305.449L631.254 305.379L629.91 305.297L628.562 305.238L627.219 305.191L624.707 305.125L622.555 305.086L619.863 305.051L617.262 305.027L614.301 305.012L612.508 305.008H607.754L603.449 305.027L600.938 305.047L599.141 305.066L596.629 305.102L595.105 305.133L594.207 305.152L591.52 305.23L589.723 305.301L588.738 305.348L587.48 305.422L586.586 305.488L585.598 305.59L585.059 305.664L584.344 305.836L584.254 306.285L584.52 306.379L585.059 306.48L585.777 306.57L586.852 306.664L587.93 306.738L589.812 306.836L591.43 306.902L592.684 306.941L595.105 307.012L596.094 307.031L598.426 307.078L600.848 307.113L603.805 307.145L606.047 307.156L609.637 307.172H614.211L619.594 307.156L623 307.137L625.332 307.113L626.859 307.098L628.742 307.07L630.086 307.047L631.344 307.02L632.867 306.977V306.379L610.715 306.375V306.098L645.156 306.094L645.246 307.07L643.363 307.137L641.031 307.203L638.789 307.254L636.457 307.293L633.137 307.344L630.445 307.371L626.32 307.406L622.555 307.43L618.605 307.445L615.109 307.453H610.98L607.305 307.449L603.359 307.434L600.219 307.414L597.348 307.391L594.477 307.355L590.891 307.305L588.559 307.262L586.137 307.211L583.715 307.148L581.562 307.082L580.125 307.027L578.691 306.969L577.164 306.895L575.73 306.809L574.656 306.73L573.668 306.645L572.949 306.562L572.234 306.449L571.875 306.359L571.695 306.281V305.891Z" fill="#F7B32B"/>
<path d="M571.695 300.23H645.246V300.605L614.594 300.609V303.758H602.258V300.613L602.082 300.605H571.695V300.23Z" fill="#D62839"/>
</g>
<defs>
<clipPath id="clip0_3_2420">
<rect width="682" height="322" fill="white"/>
</clipPath>
</defs>
</svg>
