<svg width="682" height="322" viewBox="0 0 682 322" fill="none" xmlns="http://www.w3.org/2000/svg">
<g clip-path="url(#clip0_3_1544)">
<path d="M754 -36H-110V396H754V-36Z" fill="white"/>
<path d="M29.7305 285.027L29.793 285.004L55.2227 263.113H62.9453L88.5 285.047H79.5195L73.1172 279.32H45.0508L38.7734 285.027H29.7305L47.75 276.953L70.543 276.934L59.1758 266.699L59.0508 266.676L58.9258 266.738L47.6875 276.934L47.75 276.953L29.7305 285.027Z" fill="#109648"/>
<path d="M29.7305 292.703L29.8008 292.691V292.355L30.0195 291.824L30.5195 291.152L31.0195 290.691L32.3125 289.867L34.1016 289.07L35.9648 288.457L37.3281 288.094L38.5469 287.816L41.3398 287.297L43.1328 287.031L45.0664 286.797L47.4336 286.559L49.1523 286.418L53.0234 286.195L55.8906 286.098L58.1133 286.055H62.9141L65.7812 286.109L67.8594 286.18L70.1523 286.293L72.0859 286.418L75.457 286.727L78.4648 287.117L79.8281 287.34L81.9766 287.773L83.625 288.191L84.7734 288.555L86.0625 289.07L87.207 289.699L88.0703 290.414L88.5 291.016H78.4648L77.9648 290.457L77.3906 290.023L76.3164 289.449L75.2383 289.043L73.7344 288.641L72.375 288.375L70.5117 288.109L68.8633 287.941L67.1406 287.816L65.4922 287.73L62.3398 287.648H58.6836L57.3242 287.676L54.5273 287.785L53.0234 287.883L50.8711 288.082L49.3672 288.262L47.5781 288.543L46.3594 288.777L44.8516 289.141L43.7773 289.465L42.5586 289.926L41.8438 290.273L41.1992 290.664L40.625 291.125L40.1953 291.613L39.9062 292.133L39.7656 292.633V294.801L39.9062 295.305L40.2656 295.891L41.1992 296.742L42.5586 297.48L44.1367 298.07L45.6406 298.488L46.5 298.684L47.6484 298.906L49.4414 299.188L52.0195 299.465L53.5234 299.578L55.8164 299.688L58.1836 299.746H61.3359L64.1328 299.688L65.9961 299.621L67.9297 299.508L70.582 299.27L72.2305 299.047L73.6641 298.781L74.7383 298.516L75.457 298.293L76.5312 297.859L77.3906 297.383L78.0352 296.895L78.4648 296.422H88.5L88.0703 296.98L87.4219 297.523L86.7773 297.93L85.7773 298.418L84.6289 298.852L82.9805 299.34L81.6172 299.66L79.8281 300.012L78.1797 300.277L76.3867 300.512L73.7344 300.793L72.0156 300.934L70.1523 301.059L67.9297 301.172L65.1367 301.27L62.125 301.324L59.3281 301.336L56.3203 301.309L54.0977 301.254L51.1602 301.129L47.5039 300.875L44.8516 300.613L42.7734 300.348L40.9844 300.066L38.9766 299.688L36.3945 299.074L34.8203 298.602L33.7461 298.207L32.5273 297.664L31.6641 297.176L30.6641 296.391L29.9453 295.402L29.7305 294.633V292.703Z" fill="#255C99"/>
<path d="M29.7305 304.523L29.8008 304.52V304.426L30.0898 304.219L30.8047 303.93L31.7383 303.691L32.7422 303.508L33.3867 303.41L34.4609 303.27L35.3945 303.168L37.7578 302.957L40.7695 302.766L42.418 302.68L44.2812 302.602L46.9297 302.512L48.1484 302.48L51.875 302.406L56.1055 302.359L60.7617 302.348L62.9141 302.352L65.8516 302.367L69.8633 302.422L72.1602 302.465L73.9492 302.512L75.8125 302.574L78.1055 302.668L80.2578 302.777L81.9766 302.891L83.6953 303.027L85.1289 303.176L86.3477 303.34L87.4219 303.535L88.0703 303.699L88.5 303.859H78.5352L77.9648 303.699L77.3203 303.57L76.2422 303.418L75.168 303.309L74.0938 303.219L72.0859 303.098L70.3672 303.023L68.2148 302.957L66.1367 302.918L63.7734 302.891L62.3398 302.879H58.543L55.1016 302.914L53.0938 302.949L51.6602 302.988L49.6562 303.055L48.4375 303.113L47.7188 303.148L45.5703 303.293L44.1367 303.422L43.3477 303.512L42.3438 303.652L41.6289 303.777L40.8398 303.961L40.4102 304.102L39.8359 304.418L39.7656 305.254L39.9805 305.43L40.4102 305.621L40.9844 305.789L41.8438 305.965L42.7031 306.098L44.207 306.281L45.4961 306.402L46.5 306.48L48.4375 306.605L49.2266 306.648L51.0898 306.73L53.0234 306.797L55.3867 306.852L57.1797 306.879L60.0469 306.902H63.7031L68 306.875L70.7266 306.836L72.5898 306.801L73.8086 306.77L75.3125 306.715L76.3867 306.672L77.3906 306.617L78.6094 306.539V305.43L60.9062 305.426V304.906L88.4258 304.902L88.5 306.715L86.9922 306.844L85.1289 306.961L83.3398 307.055L81.4766 307.133L78.8242 307.223L76.6719 307.277L73.375 307.344L70.3672 307.387L67.2148 307.414L64.418 307.426L61.1211 307.434L58.1836 307.422L55.0312 307.395L52.5195 307.359L50.2266 307.312L47.9336 307.25L45.0664 307.152L43.2031 307.074L41.2695 306.977L39.3359 306.859L37.6133 306.734L36.4688 306.637L35.3203 306.527L34.1016 306.387L32.957 306.23L32.0977 306.086L31.3086 305.922L30.7344 305.77L30.1602 305.559L29.875 305.395L29.7305 305.25V304.523Z" fill="#F7B32B"/>
<path d="M29.7305 308.441H88.5V308.66H64.0078V310.488H54.1523V308.664L54.0078 308.66H29.7305V308.441Z" fill="#D62839"/>
<path d="M91.5938 310.484L91.6562 310.48L117.082 306.875H124.805L150.359 310.488H141.383L134.977 309.543H106.91L100.633 310.484H91.5938L109.613 309.156L132.402 309.152L121.039 307.465L120.914 307.461L120.789 307.473L109.547 309.152L109.613 309.156L91.5938 310.484Z" fill="#109648"/>
<path d="M91.5938 179.727L91.6641 179.539V175.074L91.8789 168.008L92.3789 159.078L92.8828 152.938L94.1719 141.965L95.9648 131.359L97.8281 123.176L99.1875 118.34L100.406 114.617L103.203 107.734L104.992 104.203L106.93 101.039L109.293 97.8789L111.016 96.0156L114.883 93.0391L117.75 91.7383L119.973 91.1797H124.773L127.641 91.9258L129.719 92.8555L132.012 94.3438L133.949 96.0156L137.316 100.109L140.324 105.316L141.688 108.293L143.836 114.062L145.484 119.641L146.633 124.477L147.922 131.359L149.07 139.73L149.93 149.219L150.359 157.219H140.324L139.824 149.777L139.25 144.008L138.176 136.383L137.102 130.988L135.598 125.594L134.234 122.059L132.371 118.523L130.723 116.293L129.004 114.617L127.355 113.504L124.199 112.387H120.547L119.184 112.758L116.391 114.246L114.883 115.551L112.734 118.152L111.23 120.57L109.438 124.293L108.219 127.453L106.715 132.289L105.641 136.57L104.422 142.707L103.703 147.359L103.059 152.566L102.484 158.703L102.055 165.215L101.77 172.098L101.625 178.793V207.629L101.77 214.324L102.129 222.137L103.059 233.484L104.422 243.344L105.996 251.156L107.504 256.734L108.363 259.34L109.508 262.316L111.301 266.035L113.879 269.758L115.387 271.246L117.68 272.734L120.043 273.477H123.199L125.992 272.734L127.855 271.805L129.789 270.316L132.441 267.152L134.09 264.176L135.523 260.641L136.598 257.109L137.316 254.133L138.391 248.367L139.25 242.039L139.895 235.531L140.324 229.207H150.359L149.93 236.645L149.285 243.902L148.641 249.297L147.637 255.805L146.488 261.574L144.84 268.082L143.48 272.363L141.688 277.012L140.039 280.547L138.246 283.707L135.598 287.43L133.875 289.289L132.012 290.965L129.789 292.453L126.996 293.754L123.984 294.496L121.191 294.684L118.18 294.312L115.957 293.566L113.02 291.895L109.367 288.547L106.715 285.012L104.637 281.477L102.844 277.758L100.836 272.734L98.2578 264.551L96.6797 258.223L95.6055 253.016L94.3867 245.762L93.5273 239.25L92.5234 228.832L91.8086 215.625L91.5938 205.395V179.727Z" fill="#255C99"/>
<path d="M91.5938 303.328L91.6641 303.324V303.246L91.9492 303.062L92.668 302.812L93.5977 302.605L94.6016 302.441L95.2461 302.359L96.3203 302.238L97.2539 302.148L99.6172 301.965L102.629 301.793L104.277 301.723L106.141 301.652L108.793 301.574L110.012 301.547L113.738 301.484L117.965 301.441L122.625 301.43L124.773 301.434L127.711 301.449L131.727 301.496L134.02 301.535L135.812 301.574L137.676 301.629L139.969 301.711L142.117 301.809L143.836 301.902L145.559 302.027L146.992 302.156L148.211 302.297L149.285 302.469L149.93 302.609L150.359 302.75H140.398L139.824 302.609L139.18 302.5L138.105 302.367L137.031 302.27L135.953 302.191L133.949 302.086L132.227 302.023L130.078 301.965L128 301.93L125.633 301.902L124.199 301.895H120.402L116.961 301.926L114.957 301.957L113.523 301.988L111.516 302.051L110.297 302.098L109.582 302.133L107.43 302.258L105.996 302.371L105.207 302.445L104.207 302.57L103.488 302.68L102.699 302.84L102.27 302.961L101.695 303.238L101.625 303.965L101.84 304.121L102.27 304.285L102.844 304.434L103.703 304.586L104.562 304.703L106.07 304.859L107.359 304.965L108.363 305.035L110.297 305.145L111.086 305.18L112.949 305.254L114.883 305.312L117.25 305.359L119.039 305.383L121.906 305.402H125.562L129.863 305.379L132.586 305.348L134.449 305.316L135.668 305.285L137.172 305.242L138.246 305.203L139.25 305.156L140.469 305.09V304.121L122.766 304.117V303.664L150.289 303.656L150.359 305.242L148.855 305.352L146.992 305.457L145.199 305.539L143.336 305.605L140.684 305.684L138.535 305.73L135.238 305.789L132.227 305.824L129.074 305.848L126.277 305.863L122.984 305.867L120.043 305.859L116.891 305.832L114.383 305.801L112.09 305.762L109.797 305.707L106.93 305.621L105.066 305.555L103.129 305.469L101.195 305.367L99.4766 305.258L98.3281 305.172L97.1836 305.074L95.9648 304.953L94.8164 304.816L93.957 304.691L93.168 304.551L92.5938 304.414L92.0234 304.234L91.7344 304.086L91.5938 303.961V303.328Z" fill="#F7B32B"/>
<path d="M91.5938 295.691H150.359V296.199L125.867 296.203V300.422H116.012V296.207L115.871 296.199H91.5938V295.691Z" fill="#D62839"/>
<path d="M153.453 298.238L153.516 298.219L178.945 280.035H186.668L212.219 298.254H203.242L196.84 293.5H168.773L162.492 298.238H153.453L171.473 291.531L194.266 291.512L182.898 283.012L182.773 282.992L182.648 283.043L171.41 291.512L171.473 291.531L153.453 298.238Z" fill="#109648"/>
<path d="M153.453 308.652H153.523V308.578L153.738 308.465L154.242 308.324L154.742 308.227L156.031 308.051L157.824 307.883L159.688 307.75L161.051 307.672L162.27 307.613L165.062 307.504L166.855 307.449L168.789 307.398L171.156 307.348L172.875 307.316L176.746 307.27L179.613 307.25L181.832 307.242H186.637L189.5 307.254L191.582 307.266L193.875 307.289L195.809 307.316L199.176 307.383L202.188 307.465L203.547 307.512L205.699 307.605L207.348 307.695L208.492 307.773L209.785 307.883L210.93 308.016L211.789 308.168L212.219 308.293H202.188L201.684 308.176L201.113 308.082L200.035 307.961L198.961 307.875L197.457 307.789L196.094 307.734L194.23 307.676L192.582 307.641L190.863 307.613L189.215 307.598L186.062 307.578H182.406L181.043 307.586L178.25 307.609L176.746 307.629L174.594 307.672L173.09 307.711L171.297 307.77L170.078 307.82L168.574 307.895L167.5 307.965L166.281 308.062L165.566 308.137L164.918 308.219L164.348 308.316L163.918 308.422L163.629 308.531L163.484 308.641V309.098L163.629 309.207L163.988 309.332L164.918 309.512L166.281 309.668L167.859 309.793L169.363 309.883L170.223 309.926L171.371 309.973L173.16 310.031L175.742 310.09L177.246 310.113L179.539 310.137L181.906 310.148H185.059L187.852 310.137L189.715 310.125L191.652 310.098L194.305 310.051L195.953 310L197.387 309.945L198.461 309.887L199.176 309.84L200.254 309.75L201.113 309.648L201.758 309.543L202.188 309.441H212.219L211.789 309.562L211.145 309.68L210.5 309.766L209.496 309.867L208.352 309.961L206.703 310.062L205.34 310.133L203.547 310.207L201.898 310.262L200.109 310.312L197.457 310.371L195.738 310.402L193.875 310.43L191.652 310.453L188.855 310.473L185.848 310.484L183.051 310.488L180.043 310.484L177.82 310.469L174.883 310.445L171.227 310.391L168.574 310.336L166.496 310.277L164.703 310.219L162.699 310.137L160.117 310.008L158.543 309.906L157.465 309.824L156.246 309.707L155.387 309.605L154.383 309.438L153.668 309.227L153.453 309.062V308.652Z" fill="#255C99"/>
<path d="M153.453 231.762L153.523 231.688V230.176L153.812 226.781L154.527 222.098L155.461 218.25L156.461 215.23L157.109 213.645L158.184 211.379L159.113 209.719L161.48 206.32L164.488 203.148L166.137 201.789L168 200.508L170.652 199.07L171.871 198.543L175.598 197.336L179.828 196.582L184.484 196.355L186.637 196.43L189.574 196.73L193.586 197.562L195.879 198.316L197.672 199.07L199.535 200.055L201.828 201.562L203.98 203.375L205.699 205.188L207.418 207.453L208.852 209.867L210.07 212.512L211.145 215.684L211.789 218.324L212.219 220.965H202.258L201.684 218.324L201.039 216.285L199.965 213.793L198.891 211.98L197.816 210.547L195.809 208.586L194.09 207.375L191.938 206.32L189.859 205.641L187.496 205.188L186.062 205.035H182.262L178.824 205.566L176.816 206.168L175.383 206.773L173.375 207.906L172.156 208.812L171.441 209.414L169.293 211.754L167.859 213.871L167.07 215.305L166.066 217.57L165.348 219.609L164.562 222.629L164.133 224.895L163.559 230.027L163.484 243.617L163.703 246.484L164.133 249.582L164.703 252.297L165.566 255.168L166.426 257.355L167.93 260.301L169.219 262.266L170.223 263.547L172.156 265.586L172.945 266.266L174.809 267.625L176.746 268.684L179.109 269.59L180.902 270.039L183.77 270.418H187.422L191.723 269.965L194.445 269.363L196.309 268.758L197.527 268.23L199.035 267.398L200.109 266.645L201.113 265.812L202.332 264.531V246.484L184.629 246.41V237.953L212.148 237.879L212.219 267.398L210.715 269.438L208.852 271.398L207.059 272.91L205.195 274.195L202.547 275.629L200.395 276.535L197.098 277.59L194.09 278.27L190.934 278.723L188.141 278.949L184.844 279.023L181.906 278.875L178.75 278.422L176.242 277.816L173.949 277.062L171.656 276.082L168.789 274.496L166.926 273.211L164.992 271.625L163.055 269.738L161.336 267.699L160.191 266.113L159.043 264.305L157.824 262.039L156.68 259.473L155.816 257.129L155.031 254.488L154.457 251.996L153.883 248.598L153.598 245.883L153.453 243.539V231.762Z" fill="#F7B32B"/>
<path d="M153.453 299.262H212.219V300.008L187.727 300.016V306.23H177.875V300.023L177.73 300.008H153.453V299.262Z" fill="#D62839"/>
<path d="M215.312 310.488H215.375L240.805 309.668H248.527L274.082 310.488H265.102L258.699 310.273H230.633L224.355 310.488H215.312L233.332 310.188L256.125 310.184L244.762 309.805L244.633 309.801L244.508 309.805L233.27 310.184L233.332 310.188L215.312 310.488Z" fill="#109648"/>
<path d="M215.312 167.543L215.387 167.328V162.168L215.602 154.004L216.102 143.688L216.605 136.598L217.895 123.918L219.684 111.668L221.547 102.211L222.91 96.625L224.129 92.3281L226.922 84.375L228.715 80.293L230.652 76.6406L233.016 72.9844L234.734 70.8359L238.605 67.3984L241.473 65.8945L243.695 65.25H248.496L251.363 66.1094L253.441 67.1836L255.734 68.9023L257.668 70.8359L261.039 75.5664L264.047 81.582L265.41 85.0195L267.559 91.6836L269.207 98.1289L270.355 103.715L271.645 111.668L272.793 121.34L273.652 132.297L274.082 141.539H264.047L263.547 132.941L262.973 126.281L261.898 117.469L260.824 111.238L259.316 105.008L257.957 100.922L256.094 96.8398L254.445 94.2617L252.723 92.3281L251.074 91.0391L247.922 89.75H244.266L242.906 90.1797L240.109 91.8984L238.605 93.4023L236.457 96.4102L234.949 99.2031L233.16 103.5L231.941 107.156L230.434 112.742L229.359 117.684L228.141 124.777L227.426 130.148L226.781 136.168L226.207 143.258L225.777 150.777L225.492 158.73L225.348 166.465V199.777L225.492 207.512L225.848 216.539L226.781 229.648L228.141 241.035L229.719 250.062L231.223 256.508L232.082 259.516L233.23 262.957L235.023 267.254L237.602 271.551L239.105 273.27L241.402 274.988L243.766 275.852H246.918L249.715 274.988L251.578 273.914L253.512 272.195L256.164 268.543L257.812 265.105L259.246 261.023L260.32 256.938L261.039 253.5L262.113 246.84L262.973 239.531L263.617 232.012L264.047 224.703H274.082L273.652 233.301L273.008 241.68L272.363 247.914L271.359 255.434L270.211 262.098L268.562 269.617L267.203 274.559L265.41 279.934L263.762 284.016L261.969 287.668L259.316 291.969L257.598 294.117L255.734 296.051L253.512 297.77L250.719 299.273L247.707 300.133L244.914 300.348L241.902 299.918L239.68 299.059L236.742 297.125L233.086 293.258L230.434 289.172L228.355 285.09L226.566 280.793L224.559 274.988L221.98 265.535L220.402 258.227L219.328 252.211L218.109 243.828L217.25 236.309L216.246 224.273L215.527 209.016L215.312 197.195V167.543Z" fill="#255C99"/>
<path d="M215.312 303.215L215.387 303.211V303.133L215.672 302.953L216.387 302.707L217.32 302.508L218.324 302.348L218.969 302.266L220.043 302.145L220.977 302.059L223.34 301.879L226.352 301.715L228 301.641L229.863 301.574L232.516 301.5L233.73 301.473L237.461 301.406L241.688 301.367L246.348 301.355L248.496 301.359L251.434 301.375L255.449 301.418L257.742 301.461L259.531 301.5L261.395 301.551L263.691 301.629L265.84 301.727L267.559 301.82L269.281 301.938L270.715 302.066L271.93 302.203L273.008 302.371L273.652 302.512L274.082 302.648H264.121L263.547 302.512L262.902 302.402L261.824 302.273L260.75 302.176L259.676 302.102L257.668 302L255.949 301.934L253.801 301.879L251.723 301.844L249.355 301.82L247.922 301.812H244.125L240.684 301.84L238.676 301.871L237.242 301.902L235.238 301.965L234.02 302.012L233.301 302.043L231.152 302.164L229.719 302.277L228.93 302.352L227.926 302.473L227.211 302.578L226.422 302.738L225.992 302.855L225.418 303.125L225.348 303.84L225.562 303.988L225.992 304.152L226.566 304.297L227.426 304.445L228.285 304.562L229.789 304.715L231.082 304.82L232.082 304.887L234.02 304.992L234.809 305.031L236.672 305.102L238.605 305.156L240.973 305.203L242.762 305.227L245.629 305.246H249.285L253.586 305.223L256.309 305.191L258.172 305.16L259.391 305.133L260.895 305.09L261.969 305.051L262.973 305.004L264.191 304.938V303.988L246.488 303.984V303.543L274.008 303.539L274.082 305.09L272.578 305.195L270.715 305.301L268.922 305.379L267.059 305.445L264.406 305.52L262.258 305.57L258.961 305.625L255.949 305.66L252.797 305.684L250 305.695L246.703 305.699L243.766 305.691L240.613 305.668L238.105 305.637L235.812 305.598L233.516 305.547L230.652 305.461L228.789 305.395L226.852 305.312L224.918 305.211L223.195 305.105L222.051 305.023L220.902 304.926L219.684 304.809L218.539 304.672L217.68 304.551L216.891 304.41L216.316 304.281L215.742 304.102L215.457 303.957L215.312 303.836V303.215Z" fill="#F7B32B"/>
<path d="M215.312 306.707H274.082V306.918H249.59V308.66H239.734V306.922L239.594 306.918H215.312V306.707Z" fill="#D62839"/>
<path d="M277.176 308.012L277.238 308.004L302.664 299.727H310.387L335.941 308.02H326.965L320.559 305.855H292.496L286.215 308.012H277.176L295.195 304.961L317.984 304.953L306.621 301.082L306.496 301.074L306.371 301.098L295.133 304.953L295.195 304.961L277.176 308.012Z" fill="#109648"/>
<path d="M277.176 190.188L277.246 190.027V186.176L277.461 180.082L277.961 172.383L278.465 167.086L279.754 157.625L281.547 148.48L283.41 141.422L284.77 137.25L285.988 134.043L288.785 128.109L290.578 125.062L292.512 122.332L294.875 119.605L296.598 118.004L300.465 115.438L303.332 114.312L305.555 113.832H310.355L313.223 114.473L315.301 115.277L317.594 116.559L319.531 118.004L322.898 121.531L325.91 126.023L327.27 128.59L329.422 133.562L331.07 138.375L332.215 142.547L333.504 148.48L334.652 155.699L335.512 163.879L335.941 170.777H325.91L325.406 164.359L324.832 159.387L323.758 152.812L322.684 148.16L321.18 143.508L319.816 140.461L317.953 137.41L316.305 135.488L314.586 134.043L312.938 133.082L309.785 132.117H306.129L304.766 132.438L301.973 133.723L300.465 134.844L298.316 137.09L296.812 139.176L295.02 142.383L293.801 145.113L292.297 149.281L291.223 152.973L290.004 158.266L289.285 162.273L288.641 166.766L288.066 172.059L287.637 177.676L287.352 183.609L287.207 189.383V214.246L287.352 220.023L287.711 226.758L288.641 236.543L290.004 245.047L291.578 251.785L293.086 256.594L293.945 258.84L295.09 261.406L296.883 264.617L299.465 267.824L300.969 269.105L303.262 270.391L305.625 271.031H308.781L311.574 270.391L313.438 269.59L315.375 268.305L318.023 265.578L319.672 263.012L321.105 259.965L322.184 256.918L322.898 254.352L323.973 249.379L324.832 243.922L325.48 238.309L325.91 232.855H335.941L335.512 239.27L334.867 245.527L334.223 250.18L333.219 255.793L332.07 260.766L330.422 266.379L329.062 270.07L327.27 274.078L325.621 277.129L323.832 279.855L321.18 283.062L319.457 284.668L317.594 286.109L315.375 287.395L312.578 288.516L309.57 289.16L306.773 289.32L303.762 288.996L301.543 288.355L298.602 286.914L294.949 284.023L292.297 280.977L290.219 277.93L288.426 274.723L286.418 270.391L283.84 263.332L282.262 257.879L281.188 253.387L279.969 247.133L279.109 241.516L278.105 232.535L277.391 221.145L277.176 212.324V190.188Z" fill="#255C99"/>
<path d="M277.176 293.922L277.246 293.914V293.762L277.531 293.414L278.25 292.941L279.18 292.551L280.184 292.242L280.828 292.082L281.906 291.852L282.836 291.684L285.203 291.34L288.211 291.016L289.859 290.879L291.723 290.75L294.375 290.602L295.594 290.551L299.32 290.426L303.547 290.352L308.207 290.328L310.355 290.336L313.297 290.363L317.309 290.449L319.602 290.527L321.395 290.602L323.258 290.703L325.551 290.855L327.699 291.039L329.422 291.223L331.141 291.453L332.574 291.699L333.793 291.965L334.867 292.289L335.512 292.559L335.941 292.824H325.98L325.406 292.559L324.762 292.352L323.688 292.098L322.613 291.914L321.535 291.766L319.531 291.566L317.809 291.445L315.66 291.34L313.582 291.27L311.215 291.223L309.785 291.207H305.984L302.547 291.262L300.539 291.324L299.105 291.383L297.098 291.5L295.879 291.59L295.164 291.652L293.012 291.891L291.578 292.105L290.793 292.25L289.789 292.48L289.07 292.688L288.281 292.992L287.852 293.223L287.281 293.746L287.207 295.125L287.422 295.414L287.852 295.73L288.426 296.004L289.285 296.297L290.145 296.52L291.652 296.816L292.941 297.016L293.945 297.148L295.879 297.355L296.668 297.422L298.531 297.562L300.465 297.668L302.832 297.762L304.625 297.805L307.488 297.844H311.145L315.445 297.797L318.168 297.738L320.031 297.676L321.25 297.621L322.754 297.539L323.832 297.461L324.832 297.379L326.051 297.246V295.414L308.352 295.406V294.551L335.871 294.543L335.941 297.539L334.438 297.746L332.574 297.945L330.781 298.098L328.918 298.227L326.266 298.375L324.117 298.465L320.82 298.574L317.809 298.641L314.656 298.688L311.863 298.711L308.566 298.719L305.625 298.703L302.473 298.656L299.965 298.594L297.672 298.52L295.379 298.418L292.512 298.258L290.648 298.129L288.715 297.969L286.777 297.777L285.059 297.57L283.91 297.406L282.766 297.223L281.547 296.992L280.398 296.734L279.539 296.496L278.75 296.227L278.18 295.977L277.605 295.629L277.316 295.355L277.176 295.117V293.922Z" fill="#F7B32B"/>
<path d="M277.176 309.027H335.941V309.184L311.449 309.188V310.488H301.594V309.188L301.453 309.184H277.176V309.027Z" fill="#D62839"/>
<path d="M339.035 310.488L339.098 310.484L364.527 309.082H372.25L397.805 310.488H388.824L382.422 310.121H354.355L348.078 310.488H339.035L357.055 309.969H379.848L368.48 309.312L368.355 309.309L368.23 309.312L356.992 309.969H357.055L339.035 310.488Z" fill="#109648"/>
<path d="M339.035 172.637L339.105 172.434V167.57L339.32 159.871L339.824 150.141L340.324 143.453L341.617 131.5L343.406 119.945L345.27 111.031L346.633 105.762L347.852 101.707L350.645 94.2109L352.438 90.3594L354.371 86.9141L356.738 83.4688L358.457 81.4414L362.328 78.1992L365.195 76.7812L367.414 76.1758H372.219L375.086 76.9844L377.164 77.9961L379.457 79.6211L381.391 81.4414L384.758 85.9023L387.77 91.5742L389.133 94.8164L391.281 101.102L392.93 107.18L394.078 112.449L395.367 119.945L396.512 129.066L397.375 139.402L397.805 148.117H387.77L387.27 140.008L386.695 133.727L385.621 125.418L384.543 119.543L383.039 113.664L381.68 109.812L379.816 105.965L378.168 103.531L376.445 101.707L374.797 100.492L371.645 99.2773H367.988L366.629 99.6836L363.832 101.305L362.328 102.723L360.176 105.559L358.672 108.191L356.879 112.246L355.664 115.691L354.156 120.961L353.082 125.621L351.863 132.309L351.148 137.375L350.504 143.051L349.93 149.738L349.5 156.828L349.211 164.328L349.07 171.625V203.035L349.211 210.328L349.57 218.84L350.504 231.203L351.863 241.945L353.441 250.453L354.945 256.535L355.805 259.371L356.953 262.613L358.742 266.668L361.324 270.719L362.828 272.34L365.121 273.961L367.488 274.773H370.641L373.438 273.961L375.301 272.949L377.234 271.328L379.887 267.883L381.535 264.641L382.969 260.789L384.043 256.941L384.758 253.699L385.836 247.414L386.695 240.523L387.34 233.434L387.77 226.543H397.805L397.375 234.648L396.727 242.551L396.082 248.43L395.078 255.52L393.934 261.805L392.285 268.895L390.922 273.559L389.133 278.625L387.484 282.473L385.691 285.918L383.039 289.973L381.32 292L379.457 293.824L377.234 295.445L374.438 296.863L371.43 297.672L368.633 297.875L365.625 297.469L363.402 296.66L360.465 294.836L356.809 291.188L354.156 287.336L352.078 283.488L350.289 279.434L348.281 273.961L345.699 265.047L344.125 258.156L343.047 252.48L341.832 244.578L340.969 237.484L339.969 226.137L339.25 211.75L339.035 200.602V172.637Z" fill="#255C99"/>
<path d="M339.035 300.75L339.105 300.746V300.668L339.395 300.488L340.109 300.242L341.043 300.039L342.047 299.879L342.691 299.797L343.766 299.676L344.695 299.59L347.062 299.41L350.07 299.242L351.719 299.172L353.582 299.102L356.234 299.027L357.453 299L361.18 298.934L365.41 298.895L370.066 298.883L372.219 298.887L375.156 298.902L379.168 298.945L381.461 298.988L383.254 299.027L385.117 299.078L387.41 299.16L389.562 299.254L391.281 299.348L393 299.469L394.434 299.598L395.652 299.734L396.727 299.902L397.375 300.043L397.805 300.18H387.84L387.27 300.043L386.621 299.934L385.547 299.805L384.473 299.707L383.398 299.633L381.391 299.527L379.672 299.465L377.52 299.41L375.441 299.375L373.078 299.348L371.645 299.34H367.848L364.406 299.371L362.398 299.402L360.965 299.434L358.961 299.492L357.742 299.539L357.023 299.574L354.875 299.695L353.441 299.809L352.652 299.883L351.648 300.004L350.934 300.109L350.145 300.27L349.715 300.387L349.141 300.66L349.07 301.375L349.285 301.527L349.715 301.691L350.289 301.836L351.148 301.984L352.008 302.102L353.512 302.258L354.801 302.359L355.805 302.426L357.742 302.535L358.527 302.57L360.391 302.641L362.328 302.699L364.691 302.746L366.484 302.77L369.352 302.789H373.008L377.305 302.766L380.031 302.734L381.895 302.703L383.109 302.676L384.617 302.629L385.691 302.59L386.695 302.547L387.914 302.48V301.527L370.211 301.523V301.078L397.73 301.074L397.805 302.629L396.297 302.738L394.434 302.84L392.645 302.922L390.781 302.988L388.129 303.066L385.977 303.113L382.68 303.168L379.672 303.203L376.52 303.227L373.723 303.238L370.426 303.242L367.488 303.234L364.336 303.211L361.824 303.18L359.531 303.141L357.238 303.09L354.371 303.004L352.508 302.938L350.574 302.852L348.641 302.754L346.918 302.645L345.773 302.562L344.625 302.469L343.406 302.348L342.262 302.211L341.398 302.09L340.613 301.949L340.039 301.816L339.465 301.641L339.18 301.496L339.035 301.371V300.75Z" fill="#F7B32B"/>
<path d="M339.035 304.25H397.805V304.66L373.312 304.664V308.074H363.457V304.668L363.312 304.66H339.035V304.25Z" fill="#D62839"/>
<path d="M400.895 277.82L400.957 277.738L426.387 191.375H434.109L459.664 277.898H450.688L444.281 255.312H416.215L409.938 277.82H400.895L418.914 245.969L441.707 245.891L430.344 205.512L430.219 205.43L430.09 205.672L418.852 245.891L418.914 245.969L400.895 277.82Z" fill="#109648"/>
<path d="M400.895 287.727L400.969 287.707V287.266L401.184 286.559L401.684 285.672L402.188 285.059L403.477 283.965L405.27 282.91L407.133 282.094L408.492 281.613L409.711 281.242L412.508 280.559L414.297 280.203L416.234 279.891L418.598 279.574L420.316 279.391L424.188 279.094L427.055 278.965L429.277 278.906H434.078L436.945 278.98L439.023 279.074L441.316 279.223L443.254 279.391L446.621 279.797L449.629 280.316L450.992 280.613L453.141 281.188L454.789 281.742L455.938 282.223L457.227 282.91L458.375 283.742L459.234 284.688L459.664 285.484H449.629L449.129 284.746L448.555 284.172L447.48 283.41L446.406 282.871L444.898 282.336L443.539 281.984L441.676 281.633L440.027 281.41L438.309 281.242L436.66 281.133L433.504 281.02H429.852L428.488 281.059L425.691 281.207L424.188 281.336L422.039 281.594L420.535 281.836L418.742 282.207L417.523 282.52L416.02 283.004L414.941 283.43L413.727 284.039L413.008 284.504L412.363 285.023L411.789 285.633L411.359 286.281L411.074 286.969L410.93 287.637V290.508L411.074 291.172L411.43 291.953L412.363 293.082L413.727 294.062L415.301 294.844L416.805 295.398L417.668 295.656L418.812 295.953L420.605 296.324L423.184 296.695L424.691 296.844L426.984 296.992L429.348 297.066H432.5L435.297 296.992L437.16 296.898L439.094 296.75L441.746 296.438L443.395 296.141L444.828 295.789L445.902 295.434L446.621 295.141L447.695 294.566L448.555 293.934L449.199 293.285L449.629 292.656H459.664L459.234 293.398L458.59 294.121L457.945 294.656L456.941 295.305L455.793 295.879L454.145 296.527L452.785 296.953L450.992 297.418L449.344 297.77L447.551 298.086L444.898 298.457L443.18 298.641L441.316 298.809L439.094 298.957L436.301 299.086L433.289 299.16L430.496 299.18L427.484 299.141L425.262 299.066L422.324 298.898L418.668 298.566L416.02 298.215L413.941 297.863L412.148 297.492L410.141 296.992L407.562 296.176L405.984 295.547L404.91 295.027L403.691 294.305L402.832 293.656L401.828 292.617L401.109 291.305L400.895 290.285V287.727Z" fill="#255C99"/>
<path d="M400.895 303.324L400.969 303.316V303.184L401.254 302.883L401.973 302.465L402.902 302.125L403.906 301.859L404.551 301.719L405.625 301.516L406.559 301.371L408.922 301.07L411.934 300.789L413.582 300.668L415.445 300.555L418.098 300.426L419.316 300.379L423.043 300.273L427.27 300.207L431.93 300.188L434.078 300.191L437.016 300.219L441.031 300.293L443.324 300.359L445.117 300.426L446.98 300.512L449.273 300.648L451.422 300.809L453.141 300.969L454.863 301.168L456.297 301.383L457.516 301.617L458.59 301.898L459.234 302.133L459.664 302.367H449.703L449.129 302.133L448.484 301.953L447.41 301.73L446.332 301.57L445.258 301.441L443.254 301.27L441.531 301.164L439.383 301.07L437.305 301.008L434.938 300.969L433.504 300.953H429.707L426.266 301L424.262 301.055L422.828 301.109L420.82 301.211L419.602 301.289L418.887 301.344L416.734 301.551L415.301 301.738L414.512 301.863L413.512 302.066L412.793 302.246L412.004 302.512L411.574 302.715L411 303.168L410.93 304.371L411.145 304.625L411.574 304.902L412.148 305.141L413.008 305.395L413.867 305.59L415.375 305.852L416.664 306.023L417.668 306.137L419.602 306.316L420.391 306.379L422.254 306.5L424.188 306.594L426.555 306.672L428.344 306.711L431.211 306.746H434.867L439.168 306.707L441.891 306.652L443.754 306.598L444.973 306.551L446.477 306.48L447.551 306.41L448.555 306.34L449.773 306.227V304.625L432.07 304.621V303.871L459.594 303.863L459.664 306.48L458.16 306.66L456.297 306.832L454.504 306.969L452.641 307.082L449.988 307.207L447.84 307.289L444.543 307.383L441.531 307.441L438.379 307.48L435.582 307.504L432.285 307.508L429.348 307.496L426.195 307.457L423.688 307.402L421.395 307.336L419.102 307.246L416.234 307.109L414.371 306.992L412.434 306.852L410.5 306.688L408.781 306.504L407.633 306.363L406.484 306.203L405.27 306.004L404.121 305.777L403.262 305.57L402.473 305.336L401.898 305.113L401.328 304.812L401.039 304.574L400.895 304.367V303.324Z" fill="#F7B32B"/>
<path d="M400.895 308.516H459.664V308.727L435.172 308.73V310.488H425.316V308.73L425.176 308.727H400.895V308.516Z" fill="#D62839"/>
<path d="M462.758 310.488H462.82L488.25 310.234H495.973L521.523 310.488H512.547L506.141 310.422H478.078L471.797 310.488H462.758L480.777 310.395H503.566L492.203 310.277H491.953L480.715 310.395H480.777L462.758 310.488Z" fill="#109648"/>
<path d="M462.758 164.801L462.828 164.582V159.273L463.043 150.867L463.547 140.25L464.047 132.949L465.336 119.898L467.129 107.289L468.992 97.5586L470.355 91.8047L471.57 87.3828L474.367 79.1992L476.16 74.9961L478.094 71.2344L480.461 67.4727L482.18 65.2617L486.051 61.7227L488.914 60.1758L491.137 59.5117H495.938L498.805 60.3945L500.883 61.5L503.18 63.2695L505.113 65.2617L508.48 70.1289L511.492 76.3203L512.852 79.8594L515.004 86.7188L516.652 93.3555L517.797 99.1055L519.09 107.289L520.234 117.242L521.094 128.523L521.523 138.035H511.492L510.988 129.188L510.418 122.332L509.34 113.262L508.266 106.848L506.762 100.434L505.398 96.2305L503.535 92.0273L501.887 89.3711L500.168 87.3828L498.52 86.0547L495.367 84.7266H491.711L490.348 85.168L487.555 86.9375L486.051 88.4883L483.898 91.5859L482.395 94.4609L480.602 98.8828L479.383 102.645L477.879 108.395L476.805 113.484L475.586 120.781L474.867 126.312L474.223 132.508L473.652 139.805L473.219 147.547L472.934 155.734L472.789 163.695V197.98L472.934 205.945L473.293 215.234L474.223 228.73L475.586 240.453L477.164 249.742L478.668 256.379L479.527 259.477L480.676 263.016L482.465 267.438L485.047 271.863L486.551 273.633L488.844 275.402L491.211 276.285H494.363L497.156 275.402L499.02 274.297L500.957 272.527L503.609 268.766L505.258 265.227L506.691 261.023L507.766 256.82L508.48 253.281L509.555 246.426L510.418 238.902L511.062 231.16L511.492 223.641H521.523L521.094 232.488L520.449 241.117L519.805 247.531L518.801 255.273L517.656 262.129L516.008 269.871L514.645 274.961L512.852 280.488L511.203 284.691L509.414 288.453L506.762 292.875L505.043 295.09L503.18 297.078L500.957 298.848L498.16 300.398L495.152 301.281L492.355 301.504L489.348 301.062L487.125 300.176L484.188 298.188L480.531 294.203L477.879 290L475.801 285.797L474.008 281.375L472.004 275.402L469.422 265.668L467.844 258.148L466.77 251.953L465.551 243.328L464.691 235.586L463.688 223.199L462.973 207.492L462.758 195.328V164.801Z" fill="#255C99"/>
<path d="M462.758 304.547L462.828 304.543V304.453L463.117 304.258L463.832 303.992L464.766 303.77L465.766 303.594L466.414 303.504L467.488 303.375L468.418 303.277L470.785 303.082L473.793 302.902L475.441 302.824L477.305 302.75L479.957 302.668L481.176 302.637L484.902 302.566L489.133 302.523L493.789 302.512L495.938 302.516L498.879 302.535L502.891 302.582L505.184 302.625L506.977 302.668L508.84 302.723L511.133 302.812L513.281 302.914L515.004 303.02L516.723 303.148L518.156 303.289L519.375 303.441L520.449 303.621L521.094 303.773L521.523 303.926H511.562L510.988 303.773L510.344 303.656L509.27 303.512L508.195 303.41L507.121 303.328L505.113 303.215L503.395 303.145L501.242 303.082L499.164 303.047L496.801 303.02L495.367 303.012H491.566L488.129 303.039L486.121 303.074L484.688 303.109L482.68 303.176L481.461 303.227L480.746 303.262L478.598 303.395L477.164 303.52L476.375 303.602L475.371 303.73L474.652 303.848L473.867 304.02L473.438 304.152L472.863 304.445L472.789 305.227L473.004 305.391L473.438 305.57L474.008 305.727L474.867 305.891L475.73 306.016L477.234 306.184L478.523 306.297L479.527 306.371L481.461 306.488L482.25 306.527L484.113 306.605L486.051 306.664L488.414 306.719L490.207 306.742L493.074 306.766H496.727L501.027 306.738L503.75 306.703L505.613 306.672L506.832 306.641L508.34 306.594L509.414 306.551L510.418 306.5L511.633 306.426V305.391L493.934 305.387V304.902L521.453 304.898L521.523 306.594L520.02 306.711L518.156 306.82L516.363 306.91L514.5 306.984L511.852 307.066L509.699 307.117L506.402 307.176L503.395 307.215L500.238 307.242L497.445 307.254L494.148 307.262L491.211 307.25L488.055 307.227L485.547 307.191L483.254 307.148L480.961 307.09L478.094 307L476.23 306.926L474.297 306.836L472.359 306.727L470.641 306.609L469.492 306.52L468.348 306.414L467.129 306.285L465.98 306.137L465.121 306.004L464.332 305.852L463.762 305.707L463.188 305.512L462.902 305.355L462.758 305.223V304.547Z" fill="#F7B32B"/>
<path d="M462.758 308.27H521.523V308.371H497.031V309.227H487.18V308.371H462.758V308.27Z" fill="#D62839"/>
<path d="M524.617 295.594L524.68 295.586L550.109 283.57H557.832L583.387 295.605H574.406L568.004 292.465H539.938L533.66 295.594H524.617L542.637 291.164L565.43 291.156L554.066 285.539L553.938 285.527L553.812 285.562L542.574 291.156L542.637 291.164L524.617 295.594Z" fill="#109648"/>
<path d="M524.617 299.566L524.691 299.562V299.41L524.906 299.176L525.406 298.879L525.906 298.676L527.199 298.309L528.988 297.953L530.852 297.68L532.215 297.52L533.434 297.395L536.227 297.168L538.02 297.051L539.953 296.945L542.32 296.84L544.039 296.777L547.91 296.676L550.777 296.633L553 296.613H557.801L560.668 296.641L562.746 296.672L565.039 296.719L566.973 296.777L570.344 296.914L573.352 297.086L574.715 297.184L576.863 297.379L578.512 297.562L579.66 297.727L580.949 297.953L582.098 298.234L582.957 298.551L583.387 298.816H573.352L572.852 298.57L572.277 298.375L571.203 298.121L570.129 297.941L568.621 297.762L567.262 297.645L565.398 297.527L563.75 297.453L562.027 297.395L560.379 297.359L557.227 297.32H553.57L552.211 297.336L549.414 297.383L547.91 297.426L545.762 297.516L544.254 297.594L542.465 297.719L541.246 297.824L539.738 297.984L538.664 298.129L537.445 298.332L536.73 298.488L536.086 298.66L535.512 298.867L535.082 299.082L534.793 299.312L534.652 299.535V300.496L534.793 300.723L535.152 300.98L536.086 301.359L537.445 301.688L539.023 301.949L540.527 302.137L541.387 302.223L542.535 302.32L544.328 302.445L546.906 302.57L548.41 302.617L550.707 302.668L553.07 302.691H556.223L559.02 302.668L560.883 302.637L562.816 302.586L565.469 302.48L567.117 302.383L568.551 302.266L569.625 302.148L570.344 302.047L571.418 301.855L572.277 301.645L572.922 301.43L573.352 301.219H583.387L582.957 301.465L582.312 301.707L581.664 301.887L580.664 302.105L579.516 302.297L577.867 302.512L576.504 302.656L574.715 302.812L573.066 302.93L571.273 303.035L568.621 303.16L566.902 303.219L565.039 303.277L562.816 303.324L560.023 303.371L557.012 303.395L554.219 303.398L551.207 303.387L548.984 303.363L546.047 303.309L542.391 303.195L539.738 303.078L537.66 302.961L535.871 302.836L533.863 302.668L531.281 302.395L529.707 302.184L528.633 302.012L527.414 301.77L526.555 301.551L525.551 301.203L524.832 300.766L524.617 300.422V299.566Z" fill="#255C99"/>
<path d="M524.617 250.52L524.691 250.469V249.445L524.977 247.141L525.691 243.969L526.625 241.355L527.629 239.309L528.273 238.234L529.348 236.699L530.281 235.57L532.645 233.27L535.656 231.117L537.305 230.199L539.168 229.328L541.816 228.355L543.035 227.996L546.762 227.176L550.992 226.664L555.648 226.512L557.801 226.562L560.738 226.77L564.754 227.332L567.047 227.844L568.836 228.355L570.699 229.02L572.992 230.043L575.145 231.273L576.863 232.5L578.586 234.035L580.016 235.676L581.234 237.465L582.312 239.617L582.957 241.406L583.387 243.199H573.426L572.852 241.406L572.207 240.027L571.129 238.336L570.055 237.109L568.98 236.137L566.973 234.805L565.254 233.984L563.105 233.27L561.023 232.809L558.66 232.5L557.227 232.398H553.43L549.988 232.758L547.98 233.168L546.547 233.574L544.543 234.344L543.324 234.957L542.605 235.367L540.457 236.953L539.023 238.387L538.234 239.359L537.23 240.895L536.516 242.277L535.727 244.324L535.297 245.859L534.723 249.344L534.652 258.555L534.867 260.5L535.297 262.602L535.871 264.441L536.73 266.387L537.59 267.871L539.094 269.867L540.387 271.199L541.387 272.07L543.324 273.453L544.113 273.914L545.977 274.836L547.91 275.551L550.273 276.164L552.066 276.473L554.934 276.727H558.59L562.891 276.422L565.613 276.012L567.477 275.602L568.695 275.242L570.199 274.68L571.273 274.168L572.277 273.605L573.496 272.734V260.5L555.793 260.449V254.719L583.312 254.664L583.387 274.68L581.879 276.062L580.016 277.395L578.227 278.418L576.363 279.289L573.711 280.262L571.559 280.875L568.266 281.59L565.254 282.051L562.102 282.359L559.305 282.512L556.008 282.562L553.07 282.461L549.918 282.156L547.41 281.746L545.113 281.234L542.82 280.566L539.953 279.492L538.09 278.621L536.156 277.547L534.223 276.266L532.5 274.887L531.355 273.809L530.207 272.582L528.988 271.047L527.844 269.305L526.984 267.719L526.195 265.926L525.621 264.238L525.047 261.934L524.762 260.09L524.617 258.504V250.52Z" fill="#F7B32B"/>
<path d="M524.617 304.41H583.387V305.059L558.895 305.066V310.488H549.039V305.07L548.895 305.059H524.617V304.41Z" fill="#D62839"/>
<path d="M586.48 310.484L586.543 310.48L611.969 306.598H619.691L645.246 310.488H636.27L629.863 309.473H601.797L595.52 310.484H586.48L604.5 309.055L627.289 309.051L615.926 307.234L615.801 307.23L615.676 307.242L604.438 309.051L604.5 309.055L586.48 310.484Z" fill="#109648"/>
<path d="M586.48 211.824L586.551 211.711V208.938L586.766 204.551L587.266 199.008L587.77 195.195L589.059 188.383L590.852 181.801L592.715 176.723L594.074 173.719L595.293 171.41L598.09 167.137L599.879 164.941L601.816 162.98L604.18 161.016L605.902 159.863L609.77 158.016L612.637 157.207L614.859 156.859H619.66L622.527 157.32L624.605 157.898L626.898 158.824L628.836 159.863L632.203 162.402L635.215 165.637L636.574 167.484L638.727 171.062L640.375 174.527L641.52 177.527L642.809 181.801L643.957 186.996L644.816 192.887L645.246 197.852H635.215L634.711 193.234L634.137 189.652L633.062 184.918L631.988 181.57L630.484 178.223L629.121 176.027L627.258 173.836L625.609 172.449L623.891 171.41L622.242 170.715L619.086 170.023H615.434L614.07 170.254L611.277 171.18L609.77 171.988L607.621 173.602L606.117 175.105L604.324 177.414L603.105 179.375L601.602 182.379L600.527 185.035L599.309 188.844L598.59 191.734L597.945 194.965L597.371 198.777L596.941 202.816L596.656 207.09L596.512 211.246V229.145L596.656 233.305L597.016 238.152L597.945 245.195L599.309 251.316L600.883 256.168L602.391 259.633L603.25 261.246L604.395 263.094L606.188 265.406L608.766 267.715L610.273 268.637L612.566 269.562L614.93 270.023H618.086L620.879 269.562L622.742 268.984L624.68 268.062L627.328 266.098L628.977 264.25L630.41 262.055L631.488 259.863L632.203 258.016L633.277 254.434L634.137 250.508L634.781 246.469L635.215 242.539H645.246L644.816 247.16L644.172 251.664L643.527 255.012L642.523 259.055L641.375 262.633L639.727 266.676L638.367 269.332L636.574 272.219L634.926 274.41L633.133 276.375L630.484 278.684L628.762 279.84L626.898 280.879L624.68 281.801L621.883 282.609L618.871 283.07L616.078 283.188L613.066 282.957L610.848 282.496L607.906 281.457L604.254 279.379L601.602 277.184L599.523 274.988L597.73 272.68L595.723 269.562L593.145 264.48L591.566 260.555L590.492 257.32L589.273 252.816L588.414 248.777L587.41 242.309L586.695 234.109L586.48 227.762V211.824Z" fill="#255C99"/>
<path d="M586.48 299.934L586.551 299.926V299.746L586.836 299.34L587.555 298.777L588.484 298.316L589.488 297.957L590.133 297.766L591.207 297.496L592.141 297.297L594.504 296.891L597.516 296.512L599.164 296.348L601.027 296.195L603.68 296.023L604.898 295.961L608.625 295.816L612.852 295.727L617.512 295.699L619.66 295.707L622.598 295.742L626.613 295.844L628.906 295.934L630.699 296.023L632.562 296.141L634.855 296.32L637.004 296.539L638.727 296.754L640.445 297.027L641.879 297.316L643.098 297.633L644.172 298.012L644.816 298.328L645.246 298.645H635.285L634.711 298.328L634.066 298.082L632.992 297.785L631.918 297.566L630.84 297.398L628.836 297.16L627.113 297.016L624.965 296.891L622.887 296.809L620.52 296.754L619.086 296.738H615.289L611.848 296.801L609.844 296.871L608.41 296.945L606.402 297.082L605.184 297.188L604.469 297.262L602.316 297.543L600.883 297.793L600.098 297.965L599.094 298.238L598.375 298.48L597.586 298.844L597.156 299.113L596.586 299.727L596.512 301.355L596.727 301.695L597.156 302.066L597.73 302.395L598.59 302.734L599.449 303L600.957 303.352L602.246 303.586L603.25 303.738L605.184 303.984L605.973 304.062L607.836 304.227L609.77 304.352L612.137 304.461L613.926 304.516L616.793 304.562H620.449L624.75 304.508L627.473 304.434L629.336 304.363L630.555 304.301L632.059 304.199L633.133 304.109L634.137 304.012L635.355 303.855V301.695L617.656 301.688V300.676L645.176 300.668L645.246 304.199L643.742 304.445L641.879 304.68L640.086 304.859L638.223 305.012L635.57 305.184L633.422 305.293L630.125 305.418L627.113 305.5L623.961 305.555L621.168 305.582L617.871 305.59L614.93 305.574L611.777 305.52L609.27 305.445L606.977 305.355L604.684 305.238L601.816 305.051L599.953 304.895L598.016 304.707L596.082 304.48L594.363 304.234L593.215 304.047L592.07 303.828L590.852 303.559L589.703 303.25L588.844 302.973L588.055 302.656L587.48 302.355L586.91 301.949L586.621 301.625L586.48 301.344V299.934Z" fill="#F7B32B"/>
<path d="M586.48 284.195H645.246V285.32L620.754 285.328V294.691H610.898V285.34L610.758 285.32H586.48V284.195Z" fill="#D62839"/>
</g>
<defs>
<clipPath id="clip0_3_1544">
<rect width="682" height="322" fill="white"/>
</clipPath>
</defs>
</svg>
