<svg width="682" height="322" viewBox="0 0 682 322" fill="none" xmlns="http://www.w3.org/2000/svg">
<g clip-path="url(#clip0_3_1402)">
<path d="M754 -36H-110V396H754V-36Z" fill="white"/>
<path d="M29.7305 305.023L29.7891 305.012L52.8945 294.391H59.9102L83.1328 305.031H74.9727L69.1523 302.254H43.6523L37.9453 305.023H29.7305L46.1055 301.105L66.8164 301.098L56.4883 296.129L56.375 296.117L56.2617 296.148L46.0469 301.098L46.1055 301.105L29.7305 305.023Z" fill="#109648"/>
<path d="M29.7305 286.906L29.7969 286.895V286.645L29.9922 286.246L30.4492 285.742L30.9023 285.398L32.0742 284.777L33.7031 284.184L35.3984 283.723L36.6328 283.449L37.7422 283.238L40.2812 282.852L41.9102 282.652L43.668 282.477L45.8164 282.297L47.3789 282.191L50.8945 282.023L53.5 281.953L55.5195 281.922H59.8828L62.4883 281.961L64.375 282.016L66.4609 282.098L68.2188 282.191L71.2812 282.422L74.0156 282.715L75.2539 282.883L77.207 283.207L78.7031 283.523L79.7461 283.793L80.918 284.184L81.9609 284.652L82.7422 285.188L83.1328 285.637H74.0156L73.5586 285.219L73.0391 284.895L72.0625 284.465L71.0859 284.16L69.7148 283.855L68.4805 283.66L66.7852 283.461L65.2891 283.332L63.7266 283.238L62.2266 283.176L59.3633 283.113H56.0391L54.8047 283.133L52.2617 283.219L50.8945 283.293L48.9414 283.438L47.5742 283.574L45.9453 283.785L44.8398 283.961L43.4727 284.234L42.4961 284.477L41.3867 284.82L40.7383 285.082L40.1523 285.375L39.6289 285.723L39.2383 286.086L38.9766 286.477L38.8477 286.852V288.477L38.9766 288.852L39.3047 289.293L40.1523 289.93L41.3867 290.484L42.8203 290.926L44.1875 291.238L44.9688 291.387L46.0117 291.555L47.6406 291.762L49.9844 291.973L51.3516 292.055L53.4375 292.141L55.5859 292.184H58.4492L60.9883 292.141L62.6836 292.086L64.4414 292.004L66.8516 291.824L68.3477 291.66L69.6523 291.461L70.6289 291.262L71.2812 291.094L72.2578 290.77L73.0391 290.414L73.625 290.047L74.0156 289.691H83.1328L82.7422 290.109L82.1562 290.516L81.5703 290.82L80.6562 291.188L79.6133 291.512L78.1172 291.879L76.8789 292.121L75.2539 292.383L73.7539 292.578L72.125 292.758L69.7148 292.969L68.1523 293.07L66.4609 293.168L64.4414 293.25L61.9023 293.324L59.168 293.367L56.625 293.375L53.8906 293.355L51.8711 293.312L49.2031 293.219L45.8828 293.031L43.4727 292.832L41.582 292.633L39.957 292.422L38.1328 292.141L35.7891 291.68L34.3555 291.324L33.3789 291.031L32.2695 290.621L31.4883 290.254L30.5781 289.668L29.9258 288.926L29.7305 288.348V286.906Z" fill="#255C99"/>
<path d="M29.7305 234.598L29.7969 234.523V233.043L30.0547 229.715L30.707 225.129L31.5547 221.355L32.4648 218.395L33.0508 216.844L34.0273 214.625L34.875 212.996L37.0234 209.668L39.7617 206.559L41.2578 205.227L42.9492 203.973L45.3594 202.566L46.4688 202.047L49.8555 200.863L53.6953 200.125L57.9297 199.902L59.8828 199.977L62.5547 200.273L66.1992 201.086L68.2852 201.824L69.9102 202.566L71.6055 203.527L73.6875 205.008L75.6445 206.781L77.207 208.559L78.7695 210.777L80.0703 213.145L81.1797 215.734L82.1562 218.84L82.7422 221.43L83.1328 224.02H74.0781L73.5586 221.43L72.9727 219.434L71.9961 216.992L71.0195 215.215L70.043 213.809L68.2188 211.887L66.6562 210.703L64.7031 209.668L62.8125 209L60.6641 208.559L59.3633 208.41H55.9102L52.7852 208.926L50.9609 209.52L49.6602 210.109L47.8359 211.219L46.7266 212.109L46.0781 212.699L44.125 214.992L42.8203 217.066L42.1055 218.469L41.1914 220.688L40.543 222.688L39.8242 225.645L39.4336 227.863L38.9141 232.895L38.8477 246.211L39.043 249.023L39.4336 252.055L39.957 254.719L40.7383 257.527L41.5195 259.676L42.8867 262.559L44.0586 264.484L44.9688 265.742L46.7266 267.738L47.4453 268.402L49.1367 269.734L50.8945 270.77L53.0469 271.66L54.6719 272.102L57.2773 272.473H60.5977L64.5078 272.027L66.9805 271.438L68.6758 270.844L69.7812 270.328L71.1484 269.512L72.125 268.773L73.0391 267.961L74.1445 266.703V249.023L58.0586 248.949V240.664L83.0664 240.59L83.1328 269.512L81.7656 271.512L80.0703 273.434L78.4414 274.914L76.75 276.172L74.3398 277.578L72.3867 278.465L69.3906 279.5L66.6562 280.164L63.7891 280.609L61.25 280.832L58.2539 280.906L55.5859 280.758L52.7188 280.312L50.4414 279.723L48.3555 278.98L46.2734 278.02L43.668 276.469L41.9727 275.211L40.2148 273.656L38.457 271.805L36.8945 269.809L35.8516 268.254L34.8125 266.48L33.7031 264.262L32.6602 261.746L31.8789 259.453L31.1641 256.863L30.6445 254.422L30.1211 251.094L29.8594 248.43L29.7305 246.137V234.598Z" fill="#F7B32B"/>
<path d="M29.7305 306.047H83.1328V306.523L60.875 306.527V310.48H51.9219V306.531L51.793 306.523H29.7305V306.047Z" fill="#D62839"/>
<path d="M85.9414 305.316H86L109.105 302.52H116.125L139.344 305.32H131.184L125.367 304.59H99.8633L94.1562 305.316H85.9414L102.316 304.285H123.027L112.699 302.977H112.586L112.473 302.984L102.258 304.285H102.316L85.9414 305.316Z" fill="#109648"/>
<path d="M85.9414 309.672H86.0078V309.641L86.2031 309.59L86.6602 309.527L87.1133 309.484L88.2852 309.406L89.9141 309.332L91.6094 309.273L92.8438 309.238L93.9531 309.215L96.4922 309.164L98.1211 309.141L99.8789 309.117L102.027 309.094L103.59 309.082L107.109 309.062L109.711 309.051L111.73 309.047H116.094L118.699 309.055L120.59 309.059L122.672 309.07L124.43 309.082L127.492 309.109L130.227 309.148L131.465 309.168L133.418 309.211L134.914 309.25L135.957 309.281L137.129 309.332L138.172 309.391L138.953 309.457L139.344 309.512H130.227L129.77 309.461L129.25 309.422L128.273 309.367L127.297 309.328L125.93 309.289L124.691 309.266L122.996 309.242L121.5 309.227L119.938 309.215L118.438 309.207L115.574 309.199H111.016L108.477 309.211L107.109 309.219L105.152 309.238L103.785 309.254L102.156 309.281L101.051 309.305L99.6836 309.336L98.707 309.367L97.5977 309.41L96.9492 309.445L96.3633 309.48L95.8398 309.523L95.4492 309.57L95.1914 309.617L95.0586 309.664V309.867L95.1914 309.914L95.5156 309.973L96.3633 310.051L97.5977 310.121L99.0312 310.176L100.398 310.215L101.18 310.234L102.223 310.254L103.852 310.281L106.195 310.305L107.562 310.316L109.648 310.328L111.797 310.332H114.66L117.203 310.328L118.895 310.32L120.652 310.309L123.062 310.289L124.559 310.266L125.863 310.242L126.84 310.219L127.492 310.195L128.469 310.156L129.25 310.109L129.836 310.066L130.227 310.02H139.344L138.953 310.074L138.367 310.125L137.781 310.16L136.867 310.207L135.828 310.25L134.328 310.293L133.09 310.324L131.465 310.355L129.965 310.383L128.336 310.406L125.93 310.43L124.363 310.445L122.672 310.457L120.652 310.465L118.113 310.477L115.379 310.48H110.102L108.086 310.473L105.414 310.461L102.094 310.438L99.6836 310.414L97.793 310.391L96.168 310.363L94.3438 310.328L92 310.27L90.5664 310.227L89.5898 310.188L88.4805 310.137L87.6992 310.09L86.7891 310.02L86.1367 309.926L85.9414 309.852V309.672Z" fill="#255C99"/>
<path d="M85.9414 307.062H86.0078V307.031L86.2695 306.961L86.918 306.863L87.7656 306.785L88.6758 306.723L89.2656 306.691L90.2422 306.645L91.0859 306.609L93.2344 306.539L95.9727 306.473L97.4688 306.445L99.1641 306.422L101.57 306.391L102.68 306.379L106.066 306.355L109.906 306.34L114.141 306.336H116.094L118.766 306.344L122.41 306.359L124.496 306.375L126.125 306.391L127.816 306.41L129.902 306.441L131.855 306.48L133.418 306.516L134.98 306.562L136.281 306.613L137.391 306.668L138.367 306.73L138.953 306.785L139.344 306.84H130.293L129.77 306.785L129.184 306.746L128.207 306.691L127.23 306.656L126.254 306.625L124.43 306.586L122.867 306.562L120.914 306.539L119.023 306.527L116.875 306.516L115.574 306.512H112.121L108.996 306.523L107.172 306.535L105.871 306.551L104.047 306.57L102.941 306.59L102.289 306.602L100.336 306.652L99.0312 306.695L98.3164 306.723L97.4023 306.77L96.7539 306.812L96.0352 306.875L95.6445 306.922L95.125 307.027L95.0586 307.305L95.2539 307.363L95.6445 307.43L96.168 307.484L96.9492 307.543L97.7305 307.59L99.0977 307.648L100.27 307.688L101.18 307.715L102.941 307.758L103.656 307.773L105.348 307.801L107.109 307.82L109.258 307.84L110.883 307.848L113.488 307.855H116.812L120.719 307.848L123.191 307.836L124.887 307.824L125.992 307.812L127.359 307.793L128.336 307.781L129.25 307.762L130.355 307.734V307.363H114.27V307.191L139.277 307.188L139.344 307.793L137.977 307.836L136.281 307.879L134.656 307.906L132.961 307.934L130.551 307.965L128.598 307.984L125.602 308.004L122.867 308.02L120 308.027L117.461 308.031L114.465 308.035L111.797 308.031L108.93 308.02L106.652 308.008L104.566 307.992L102.484 307.973L99.8789 307.941L98.1875 307.914L96.4258 307.883L94.668 307.844L93.1055 307.801L92.0625 307.77L91.0234 307.73L89.9141 307.684L88.8711 307.633L88.0898 307.582L87.375 307.531L86.8555 307.477L86.332 307.41L86.0742 307.352L85.9414 307.305V307.062Z" fill="#F7B32B"/>
<path d="M85.9414 61.0781H139.344V86.8125L117.086 87.0391V301.504H108.133V87.2656L108.004 86.8125H85.9414V61.0781Z" fill="#D62839"/>
<path d="M142.152 304.574L142.211 304.566L165.316 295.387H172.336L195.555 304.586H187.395L181.578 302.184H156.074L150.371 304.574H142.152L158.527 301.191L179.238 301.184L168.91 296.891L168.797 296.883L168.684 296.906L158.473 301.184L158.527 301.191L142.152 304.574Z" fill="#109648"/>
<path d="M142.152 178.039L142.219 177.852V173.336L142.414 166.18L142.871 157.145L143.324 150.934L144.5 139.828L146.125 129.098L147.82 120.816L149.059 115.922L150.164 112.156L152.703 105.191L154.332 101.613L156.09 98.4141L158.238 95.2148L159.801 93.332L163.32 90.3203L165.922 89.0039L167.941 88.4375H172.305L174.91 89.1914L176.801 90.1328L178.883 91.6367L180.641 93.332L183.703 97.4727L186.438 102.746L187.676 105.758L189.629 111.594L191.125 117.238L192.168 122.133L193.34 129.098L194.383 137.57L195.164 147.168L195.555 155.262H186.438L185.98 147.734L185.461 141.898L184.484 134.18L183.508 128.723L182.141 123.262L180.902 119.688L179.207 116.109L177.711 113.852L176.148 112.156L174.648 111.027L171.785 109.898H168.465L167.227 110.273L164.688 111.781L163.32 113.098L161.363 115.734L159.996 118.18L158.371 121.945L157.262 125.145L155.895 130.039L154.918 134.367L153.812 140.582L153.16 145.285L152.574 150.559L152.051 156.77L151.66 163.359L151.402 170.324L151.27 177.098V206.277L151.402 213.055L151.727 220.961L152.574 232.441L153.812 242.418L155.242 250.324L156.609 255.973L157.395 258.605L158.434 261.617L160.062 265.383L162.406 269.148L163.773 270.656L165.859 272.16L168.008 272.914H170.875L173.414 272.16L175.105 271.219L176.863 269.715L179.273 266.512L180.773 263.5L182.074 259.926L183.051 256.348L183.703 253.336L184.68 247.5L185.461 241.102L186.047 234.512L186.438 228.113H195.555L195.164 235.641L194.578 242.984L193.992 248.441L193.082 255.031L192.039 260.867L190.539 267.453L189.305 271.785L187.676 276.488L186.176 280.066L184.551 283.266L182.141 287.031L180.578 288.914L178.883 290.609L176.863 292.113L174.324 293.43L171.59 294.184L169.051 294.371L166.316 293.996L164.297 293.242L161.625 291.551L158.305 288.16L155.895 284.586L154.008 281.008L152.379 277.242L150.555 272.16L148.211 263.879L146.777 257.477L145.801 252.207L144.695 244.867L143.914 238.277L143 227.734L142.348 214.371L142.152 204.02V178.039Z" fill="#255C99"/>
<path d="M142.152 309.945H142.219V309.93L142.48 309.891L143.129 309.836L143.977 309.793L144.891 309.762L145.477 309.742L146.453 309.715L147.297 309.699L149.449 309.66L152.184 309.625L153.68 309.609L155.375 309.594L157.785 309.578L158.891 309.57L162.277 309.559L166.121 309.547H172.305L174.977 309.551L178.621 309.559L180.707 309.57L182.336 309.578L184.027 309.59L186.113 309.605L188.066 309.625L189.629 309.645L191.191 309.672L192.492 309.699L193.602 309.73L194.578 309.766L195.164 309.793L195.555 309.824H186.504L185.98 309.793L185.395 309.773L184.418 309.742L183.441 309.723L182.465 309.707L180.641 309.684L179.078 309.672L177.125 309.66L175.238 309.652L173.086 309.645H168.332L165.207 309.652L163.383 309.656L162.082 309.664L160.258 309.676L159.152 309.688L158.5 309.695L156.547 309.719L155.242 309.746L154.527 309.762L153.617 309.785L152.965 309.809L152.246 309.844L151.855 309.871L151.336 309.926L151.27 310.082L151.465 310.113L151.855 310.148L152.379 310.18L153.16 310.211L153.941 310.238L155.309 310.27L156.48 310.293L157.395 310.309L159.152 310.328L159.867 310.336L161.562 310.352L163.32 310.363L165.469 310.375L167.098 310.379L169.699 310.383H173.023L176.93 310.379L179.402 310.371L181.098 310.367L182.203 310.359L183.57 310.352L184.551 310.34L185.461 310.332L186.566 310.316V310.113H170.484V310.016H195.488L195.555 310.352L194.188 310.375L192.492 310.395L190.867 310.414L189.172 310.426L186.762 310.445L184.809 310.453L181.812 310.465L179.078 310.473L176.215 310.477L173.672 310.48H168.008L165.141 310.477L162.863 310.469L160.777 310.461L158.695 310.449L156.09 310.43L154.398 310.418L152.641 310.398L150.879 310.375L149.316 310.355L148.277 310.336L147.234 310.316L146.125 310.289L145.086 310.262L144.305 310.234L143.586 310.203L143.066 310.176L142.543 310.137L142.285 310.105L142.152 310.082V309.945Z" fill="#F7B32B"/>
<path d="M142.152 305.598H195.555V305.914H173.301V308.531H164.344V305.918L164.215 305.914H142.152V305.598Z" fill="#D62839"/>
<path d="M198.367 301.812L198.422 301.582L221.527 57.8711H228.547L251.766 302.043H243.609L237.789 238.305H212.285L206.582 301.812H198.367L214.738 211.941L235.449 211.711L225.121 97.7656L225.008 97.5352L224.895 98.2227L214.684 211.711L214.738 211.941L198.367 301.812Z" fill="#109648"/>
<path d="M198.367 310.477H251.766H207.484V310.48H251.766H198.367V310.477Z" fill="#255C99"/>
<path d="M198.367 308.336L198.43 308.332V308.297L198.691 308.215L199.344 308.105L200.188 308.012L201.102 307.941L201.688 307.902L202.664 307.848L203.512 307.809L205.66 307.73L208.395 307.652L209.891 307.621L211.586 307.59L213.996 307.555L215.102 307.543L218.488 307.516L222.332 307.496L226.562 307.492H228.516L231.188 307.5L234.836 307.52L236.918 307.539L238.547 307.555L240.238 307.578L242.324 307.617L244.277 307.66L245.84 307.703L247.402 307.758L248.707 307.812L249.812 307.875L250.789 307.953L251.375 308.016L251.766 308.078H242.715L242.191 308.016L241.605 307.965L240.629 307.906L239.652 307.863L238.676 307.828L236.852 307.781L235.289 307.754L233.336 307.73L231.449 307.711L229.301 307.703L227.996 307.699H224.543L221.418 307.711L219.594 307.727L218.293 307.738L216.469 307.766L215.363 307.789L214.711 307.801L212.758 307.859L211.457 307.91L210.738 307.941L209.828 307.996L209.176 308.047L208.461 308.117L208.07 308.172L207.547 308.293L207.484 308.617L207.68 308.688L208.07 308.758L208.59 308.824L209.371 308.891L210.152 308.945L211.52 309.016L212.691 309.062L213.605 309.094L215.363 309.141L216.078 309.156L217.773 309.188L219.531 309.215L221.68 309.234L223.309 309.246L225.914 309.254H229.234L233.141 309.246L235.617 309.23L237.309 309.215L238.418 309.203L239.785 309.184L240.762 309.164L241.672 309.145L242.781 309.117V308.688L226.695 308.684V308.48H251.699L251.766 309.184L250.398 309.23L248.707 309.277L247.078 309.316L245.383 309.344L242.977 309.379L241.02 309.402L238.023 309.426L235.289 309.441L232.426 309.453L229.887 309.457L226.891 309.461L224.219 309.457L221.355 309.445L219.074 309.434L216.992 309.414L214.906 309.391L212.301 309.352L210.609 309.32L208.852 309.285L207.094 309.238L205.527 309.191L204.488 309.152L203.445 309.109L202.34 309.055L201.297 308.996L200.516 308.938L199.797 308.875L199.277 308.816L198.758 308.734L198.496 308.672L198.367 308.617V308.336Z" fill="#F7B32B"/>
<path d="M198.367 303.059H251.766V303.422L229.512 303.426V306.477H220.555V303.43L220.426 303.422H198.367V303.059Z" fill="#D62839"/>
<path d="M254.578 308.297H254.633L277.738 305.836H284.758L307.977 308.301H299.82L294 307.656H268.496L262.793 308.297H254.578L270.949 307.391L291.66 307.387L281.336 306.238L281.219 306.234L281.105 306.242L270.895 307.387L270.949 307.391L254.578 308.297Z" fill="#109648"/>
<path d="M254.578 309.824L254.641 309.82V309.797L254.836 309.754L255.293 309.703L255.75 309.668L256.922 309.605L258.551 309.547L260.242 309.5L261.48 309.469L262.586 309.449L265.125 309.41L266.754 309.391L268.512 309.371L270.664 309.352L272.227 309.344L275.742 309.324L278.348 309.316H284.73L287.332 309.32L289.223 309.324L291.305 309.332L293.066 309.344L296.125 309.367L298.859 309.395L300.098 309.414L302.051 309.445L303.551 309.477L304.59 309.504L305.762 309.547L306.805 309.594L307.586 309.648L307.977 309.695H298.859L298.406 309.652L297.883 309.617L296.906 309.574L295.93 309.543L294.562 309.512L293.324 309.492L291.633 309.473L290.133 309.457L288.57 309.449L287.074 309.441L284.207 309.438H279.648L277.109 309.445L275.742 309.453L273.789 309.469L272.422 309.484L270.793 309.504L269.684 309.523L268.316 309.551L267.34 309.574L266.234 309.609L265.582 309.637L264.996 309.668L264.477 309.703L264.086 309.738L263.824 309.777L263.695 309.816V309.984L263.824 310.02L264.148 310.066L264.996 310.129L266.234 310.188L267.668 310.23L269.035 310.266L269.816 310.277L270.859 310.297L272.484 310.316L274.832 310.34L276.199 310.348L278.281 310.355L280.43 310.359H283.297L285.836 310.355L287.527 310.352L289.289 310.344L291.695 310.324L293.195 310.309L294.496 310.285L295.473 310.266L296.125 310.25L297.102 310.215L297.883 310.18L298.469 310.141L298.859 310.105H307.977L307.586 310.148L307 310.191L306.414 310.223L305.504 310.258L304.461 310.293L302.965 310.328L301.727 310.355L300.098 310.379L298.602 310.402L296.973 310.418L294.562 310.441L293 310.449L291.305 310.461L289.289 310.469L286.746 310.477L284.012 310.48H278.738L276.719 310.477L274.047 310.465L270.727 310.445L268.316 310.426L266.43 310.406L264.801 310.383L262.977 310.355L260.633 310.309L259.199 310.273L258.223 310.242L257.117 310.203L256.336 310.164L255.422 310.105L254.773 310.027L254.578 309.969V309.824Z" fill="#255C99"/>
<path d="M254.578 184.438L254.641 184.27V180.91L254.902 173.348L255.555 162.93L256.398 154.359L257.312 147.637L257.898 144.105L258.875 139.066L259.723 135.371L261.871 127.809L264.605 120.75L266.105 117.727L267.797 114.867L270.207 111.676L271.312 110.5L274.699 107.812L278.543 106.129L282.773 105.625L284.73 105.793L287.398 106.465L291.047 108.316L293.129 109.996L294.758 111.676L296.449 113.859L298.535 117.223L300.488 121.254L302.051 125.285L303.613 130.328L304.918 135.707L306.023 141.586L307 148.645L307.586 154.527L307.977 160.406H298.926L298.406 154.527L297.82 149.988L296.84 144.445L295.863 140.41L294.887 137.219L293.066 132.848L291.5 130.16L289.547 127.809L287.66 126.297L285.512 125.285L284.207 124.949H280.758L277.629 126.129L275.809 127.473L274.504 128.816L272.68 131.336L271.574 133.352L270.922 134.695L268.969 139.906L267.668 144.613L266.949 147.805L266.039 152.844L265.387 157.383L264.672 164.105L264.281 169.145L263.758 180.574L263.695 210.82L263.891 217.207L264.281 224.094L264.801 230.145L265.582 236.531L266.363 241.402L267.73 247.957L268.902 252.324L269.816 255.184L271.574 259.719L272.289 261.23L273.984 264.258L275.742 266.609L277.891 268.625L279.52 269.633L282.125 270.473H285.445L289.352 269.465L291.828 268.121L293.52 266.777L294.629 265.602L295.996 263.754L296.973 262.07L297.883 260.223L298.992 257.367V217.207L282.906 217.039V198.215L307.914 198.047L307.977 263.754L306.609 268.289L304.918 272.66L303.289 276.02L301.598 278.875L299.188 282.07L297.234 284.086L294.238 286.438L291.5 287.949L288.637 288.957L286.098 289.461L283.102 289.629L280.43 289.293L277.566 288.285L275.285 286.941L273.203 285.262L271.117 283.078L268.512 279.547L266.82 276.691L265.062 273.164L263.305 268.961L261.742 264.426L260.699 260.895L259.656 256.863L258.551 251.82L257.508 246.109L256.727 240.898L256.008 235.016L255.488 229.473L254.969 221.91L254.707 215.859L254.578 210.652V184.438Z" fill="#F7B32B"/>
<path d="M254.578 290.645H307.977V292.164L285.723 292.176V304.82H276.77V292.188L276.637 292.164H254.578V290.645Z" fill="#D62839"/>
<path d="M310.789 310.48H310.844L333.953 308.844H340.969L364.188 310.48H356.031L350.211 310.055H324.711L319.004 310.48H310.789L327.164 309.879L347.871 309.875L337.547 309.113L337.434 309.109L337.316 309.113L327.105 309.875L327.164 309.879L310.789 310.48Z" fill="#109648"/>
<path d="M310.789 167.445L310.852 167.23V162.062L311.051 153.875L311.504 143.539L311.961 136.43L313.133 123.719L314.762 111.441L316.453 101.965L317.691 96.3633L318.797 92.0547L321.34 84.0859L322.965 79.9922L324.727 76.332L326.875 72.668L328.438 70.5156L331.953 67.0703L334.559 65.5625L336.578 64.9141H340.941L343.547 65.7773L345.434 66.8555L347.52 68.5781L349.277 70.5156L352.336 75.2539L355.07 81.2852L356.309 84.7305L358.262 91.4102L359.762 97.8711L360.805 103.473L361.977 111.441L363.016 121.137L363.797 132.121L364.188 141.383H355.07L354.617 132.766L354.094 126.09L353.117 117.258L352.141 111.012L350.773 104.766L349.535 100.672L347.844 96.5781L346.344 93.9961L344.781 92.0547L343.285 90.7617L340.418 89.4727H337.098L335.859 89.9023L333.32 91.625L331.953 93.1328L330 96.1484L328.633 98.9492L327.004 103.258L325.898 106.918L324.531 112.52L323.551 117.473L322.445 124.582L321.793 129.969L321.207 136L320.688 143.105L320.297 150.645L320.035 158.617L319.906 166.371V199.758L320.035 207.512L320.363 216.559L321.207 229.699L322.445 241.113L323.879 250.16L325.246 256.625L326.027 259.641L327.07 263.086L328.695 267.395L331.043 271.703L332.41 273.426L334.492 275.148L336.641 276.008H339.508L342.047 275.148L343.742 274.07L345.5 272.348L347.91 268.688L349.406 265.238L350.707 261.148L351.688 257.055L352.336 253.609L353.312 246.93L354.094 239.605L354.68 232.066L355.07 224.742H364.188L363.797 233.359L363.211 241.762L362.625 248.008L361.715 255.547L360.672 262.223L359.176 269.762L357.938 274.719L356.309 280.102L354.812 284.195L353.184 287.855L350.773 292.164L349.211 294.32L347.52 296.258L345.5 297.98L342.961 299.488L340.223 300.352L337.684 300.566L334.949 300.133L332.93 299.273L330.262 297.336L326.938 293.457L324.531 289.363L322.641 285.273L321.012 280.965L319.188 275.148L316.844 265.672L315.41 258.348L314.434 252.316L313.328 243.914L312.547 236.375L311.637 224.312L310.984 209.02L310.789 197.172V167.445Z" fill="#255C99"/>
<path d="M310.789 306.848H310.852V306.816L311.113 306.746L311.766 306.648L312.613 306.566L313.523 306.504L314.109 306.473L315.086 306.426L315.934 306.391L318.082 306.32L320.816 306.254L322.316 306.227L324.008 306.199L326.418 306.168L327.523 306.16L330.91 306.133L334.754 306.117L338.988 306.113H340.941L343.609 306.121L347.258 306.137L349.34 306.152L350.969 306.168L352.664 306.191L354.746 306.223L356.699 306.258L358.262 306.297L359.824 306.344L361.129 306.395L362.234 306.449L363.211 306.516L363.797 306.57L364.188 306.625H355.137L354.617 306.57L354.031 306.527L353.055 306.477L352.078 306.438L351.098 306.406L349.277 306.367L347.715 306.344L345.758 306.32L343.871 306.305L341.723 306.297L340.418 306.293H336.969L333.844 306.305L332.02 306.316L330.715 306.328L328.891 306.352L327.785 306.371L327.133 306.383L325.18 306.434L323.879 306.477L323.16 306.508L322.25 306.555L321.598 306.598L320.883 306.66L320.492 306.707L319.969 306.812L319.906 307.094L320.102 307.152L320.492 307.219L321.012 307.273L321.793 307.336L322.574 307.379L323.941 307.441L325.117 307.48L326.027 307.508L327.785 307.551L328.5 307.566L330.195 307.594L331.953 307.613L334.102 307.633L335.73 307.645L338.336 307.652H341.656L345.562 307.641L348.039 307.629L349.73 307.617L350.84 307.605L352.207 307.59L353.184 307.574L354.094 307.555L355.203 307.527V307.152H339.117V306.977H364.125L364.188 307.59L362.82 307.629L361.129 307.672L359.5 307.703L357.809 307.73L355.398 307.758L353.445 307.777L350.449 307.801L347.715 307.812L344.848 307.824L342.309 307.828H336.641L333.777 307.816L331.496 307.805L329.414 307.789L327.328 307.77L324.727 307.734L323.031 307.707L321.273 307.676L319.516 307.637L317.953 307.594L316.91 307.562L315.867 307.523L314.762 307.477L313.719 307.422L312.938 307.375L312.223 307.32L311.699 307.27L311.18 307.199L310.918 307.141L310.789 307.094V306.848Z" fill="#F7B32B"/>
<path d="M310.789 301.578H364.188V301.957L341.934 301.961V305.098H332.98V301.965L332.848 301.957H310.789V301.578Z" fill="#D62839"/>
<path d="M367 291.961L367.059 291.781L390.164 101.066H397.18L420.402 292.141H412.242L406.422 242.266H380.922L375.215 291.961H367L383.375 221.633L404.082 221.453L393.758 132.285L393.645 132.105L393.527 132.645L383.316 221.453L383.375 221.633L367 291.961Z" fill="#109648"/>
<path d="M367 309.293H367.066V309.246L367.262 309.172L367.715 309.082L368.172 309.02L369.344 308.906L370.973 308.797L372.664 308.711L373.902 308.66L375.012 308.621L377.551 308.551L379.18 308.516L380.938 308.48L383.086 308.449L384.648 308.43L388.164 308.398L390.77 308.387L392.789 308.379H397.152L399.758 308.387L401.645 308.398L403.73 308.414L405.488 308.43L408.547 308.473L411.285 308.527L412.52 308.559L414.473 308.617L415.973 308.676L417.016 308.723L418.188 308.797L419.227 308.883L420.012 308.98L420.402 309.062H411.285L410.828 308.984L410.309 308.926L409.328 308.848L408.352 308.793L406.984 308.734L405.746 308.699L404.055 308.664L402.559 308.641L400.992 308.621L399.496 308.609L396.629 308.598H393.309L392.07 308.602L389.531 308.617L388.164 308.633L386.211 308.66L384.844 308.684L383.215 308.723L382.109 308.754L380.742 308.805L379.766 308.848L378.656 308.914L378.004 308.961L377.418 309.016L376.898 309.078L376.508 309.145L376.246 309.215L376.117 309.285V309.582L376.246 309.652L376.574 309.734L377.418 309.852L378.656 309.953L380.09 310.031L381.457 310.09L382.238 310.117L383.281 310.148L384.91 310.188L387.254 310.223L388.621 310.238L390.703 310.254L392.855 310.262H395.719L398.258 310.254L399.953 310.246L401.711 310.23L404.121 310.199L405.617 310.168L406.922 310.129L407.898 310.094L408.547 310.062L409.523 310.004L410.309 309.938L410.895 309.871L411.285 309.805H420.402L420.012 309.883L419.426 309.957L418.836 310.012L417.926 310.082L416.883 310.141L415.387 310.207L414.148 310.25L412.52 310.301L411.023 310.336L409.395 310.367L406.984 310.406L405.422 310.426L403.73 310.445L401.711 310.457L399.172 310.473L396.434 310.48H393.895L391.16 310.477L389.141 310.469L386.473 310.453L383.148 310.418L380.742 310.383L378.852 310.344L377.223 310.309L375.402 310.254L373.055 310.172L371.625 310.105L370.648 310.051L369.539 309.977L368.758 309.91L367.848 309.801L367.195 309.664L367 309.559V309.293Z" fill="#255C99"/>
<path d="M367 304.629L367.066 304.625V304.535L367.324 304.34L367.977 304.066L368.824 303.844L369.734 303.668L370.32 303.578L371.297 303.445L372.145 303.352L374.293 303.152L377.027 302.969L378.527 302.891L380.219 302.816L382.629 302.734L383.738 302.703L387.121 302.633L390.965 302.59L395.199 302.578L397.152 302.582L399.82 302.598L403.469 302.648L405.551 302.691L407.18 302.734L408.875 302.789L410.957 302.879L412.91 302.984L414.473 303.09L416.039 303.219L417.34 303.359L418.445 303.512L419.426 303.695L420.012 303.848L420.402 304.004H411.348L410.828 303.848L410.242 303.73L409.266 303.586L408.289 303.48L407.312 303.398L405.488 303.285L403.926 303.215L401.973 303.152L400.082 303.113L397.934 303.09L396.629 303.078H393.18L390.055 303.109L388.23 303.145L386.926 303.18L385.105 303.246L383.996 303.297L383.348 303.332L381.391 303.469L380.09 303.59L379.375 303.676L378.461 303.805L377.809 303.922L377.094 304.098L376.703 304.23L376.184 304.527L376.117 305.312L376.312 305.48L376.703 305.66L377.223 305.816L378.004 305.984L378.785 306.109L380.156 306.281L381.328 306.395L382.238 306.469L383.996 306.586L384.715 306.625L386.406 306.707L388.164 306.766L390.312 306.82L391.941 306.844L394.547 306.867H397.867L401.777 306.84L404.25 306.805L405.945 306.77L407.051 306.738L408.418 306.691L409.395 306.648L410.309 306.602L411.414 306.527V305.48L395.328 305.477V304.984L420.336 304.98L420.402 306.691L419.031 306.809L417.34 306.922L415.711 307.012L414.02 307.086L411.609 307.168L409.656 307.223L406.66 307.281L403.926 307.32L401.059 307.348L398.52 307.359L395.523 307.367L392.855 307.355L389.988 307.332L387.707 307.297L385.625 307.25L383.543 307.195L380.938 307.102L379.242 307.027L377.484 306.938L375.727 306.828L374.164 306.711L373.121 306.617L372.078 306.512L370.973 306.383L369.93 306.234L369.148 306.098L368.434 305.945L367.91 305.801L367.391 305.602L367.129 305.445L367 305.309V304.629Z" fill="#F7B32B"/>
<path d="M367 293.156H420.402V294.055L398.145 294.062V301.562H389.191V294.07L389.062 294.055H367V293.156Z" fill="#D62839"/>
<path d="M423.211 298.773L423.27 298.766L446.375 289.645H453.391L476.613 298.781H468.453L462.633 296.398H437.133L431.426 298.773H423.211L439.586 295.41L460.297 295.402L449.969 291.137L449.855 291.129L449.742 291.156L439.527 295.402L439.586 295.41L423.211 298.773Z" fill="#109648"/>
<path d="M423.211 307.781L423.277 307.777V307.672L423.473 307.508L423.926 307.297L424.383 307.152L425.555 306.895L427.184 306.645L428.879 306.453L430.113 306.34L431.223 306.25L433.762 306.09L435.391 306.008L437.148 305.934L439.297 305.859L440.859 305.816L444.375 305.746L446.98 305.715L449 305.703H453.363L455.969 305.719L457.855 305.742L459.941 305.777L461.699 305.816L464.762 305.91L467.496 306.035L468.73 306.102L470.688 306.238L472.184 306.371L473.227 306.484L474.398 306.645L475.441 306.844L476.223 307.066L476.613 307.254H467.496L467.039 307.078L466.52 306.941L465.543 306.762L464.562 306.637L463.195 306.508L461.961 306.426L460.266 306.344L458.77 306.293L457.207 306.25L455.707 306.227L452.844 306.199H449.52L448.285 306.207L445.742 306.242L444.375 306.273L442.422 306.336L441.055 306.391L439.426 306.48L438.32 306.555L436.953 306.668L435.977 306.766L434.867 306.91L434.219 307.02L433.633 307.145L433.109 307.289L432.719 307.441L432.457 307.602L432.328 307.758V308.438L432.457 308.594L432.785 308.777L433.633 309.043L434.867 309.277L436.301 309.461L437.668 309.59L438.449 309.652L439.492 309.723L441.121 309.809L443.465 309.895L444.832 309.93L446.918 309.965L449.066 309.984H451.93L454.469 309.965L456.164 309.945L457.922 309.91L460.332 309.836L461.828 309.766L463.133 309.684L464.109 309.598L464.762 309.527L465.738 309.395L466.52 309.246L467.105 309.094L467.496 308.945H476.613L476.223 309.117L475.637 309.289L475.051 309.414L474.137 309.57L473.094 309.703L471.598 309.855L470.359 309.957L468.73 310.066L467.234 310.148L465.605 310.223L463.195 310.312L461.633 310.355L459.941 310.395L457.922 310.43L455.383 310.461L452.648 310.477L450.105 310.48L447.371 310.473L445.352 310.457L442.684 310.418L439.363 310.336L436.953 310.254L435.062 310.172L433.438 310.086L431.613 309.965L429.27 309.773L427.836 309.625L426.859 309.504L425.75 309.332L424.969 309.18L424.059 308.934L423.406 308.625L423.211 308.383V307.781Z" fill="#255C99"/>
<path d="M423.211 301.891L423.277 301.887V301.797L423.535 301.598L424.188 301.32L425.035 301.094L425.945 300.914L426.531 300.82L427.508 300.688L428.355 300.586L430.504 300.387L433.242 300.199L434.738 300.117L436.43 300.043L438.84 299.957L439.949 299.926L443.336 299.855L447.176 299.812L451.41 299.797L453.363 299.801L456.035 299.82L459.68 299.867L461.766 299.914L463.391 299.957L465.086 300.016L467.168 300.105L469.125 300.211L470.688 300.32L472.25 300.453L473.551 300.598L474.66 300.754L475.637 300.941L476.223 301.098L476.613 301.254H467.559L467.039 301.098L466.453 300.977L465.477 300.828L464.5 300.723L463.523 300.637L461.699 300.52L460.137 300.449L458.184 300.387L456.293 300.348L454.145 300.32L452.844 300.312H449.391L446.266 300.344L444.441 300.379L443.141 300.414L441.316 300.48L440.207 300.535L439.559 300.57L437.602 300.707L436.301 300.832L435.586 300.918L434.672 301.051L434.023 301.172L433.305 301.352L432.914 301.484L432.395 301.789L432.328 302.594L432.523 302.762L432.914 302.945L433.438 303.105L434.219 303.277L435 303.406L436.367 303.578L437.539 303.695L438.449 303.77L440.207 303.891L440.926 303.934L442.617 304.012L444.375 304.074L446.523 304.129L448.152 304.156L450.758 304.18H454.078L457.988 304.152L460.461 304.117L462.156 304.078L463.262 304.047L464.629 304L465.605 303.953L466.52 303.906L467.625 303.828V302.762L451.539 302.758V302.258L476.547 302.254L476.613 304L475.246 304.121L473.551 304.234L471.922 304.324L470.23 304.402L467.82 304.484L465.867 304.539L462.871 304.602L460.137 304.641L457.27 304.668L454.73 304.684L451.734 304.688L449.066 304.68L446.199 304.652L443.922 304.617L441.836 304.57L439.754 304.512L437.148 304.418L435.453 304.344L433.695 304.25L431.938 304.137L430.375 304.016L429.332 303.922L428.289 303.816L427.184 303.684L426.141 303.531L425.359 303.391L424.645 303.234L424.121 303.09L423.602 302.887L423.34 302.727L423.211 302.59V301.891Z" fill="#F7B32B"/>
<path d="M423.211 261.328H476.613V264.25L454.355 264.273V288.629H445.402V264.301L445.273 264.25H423.211V261.328Z" fill="#D62839"/>
<path d="M479.422 299.273L479.48 299.254L502.586 279.453H509.602L532.824 299.289H524.664L518.848 294.113H493.344L487.637 299.273H479.422L495.797 291.969L516.508 291.949L506.18 282.691L506.066 282.676L505.953 282.73L495.738 291.949L495.797 291.969L479.422 299.273Z" fill="#109648"/>
<path d="M479.422 302.41L479.488 302.406V302.301L479.684 302.133L480.141 301.918L480.594 301.773L481.766 301.512L483.395 301.262L485.09 301.066L486.324 300.949L487.434 300.863L489.973 300.699L491.602 300.613L493.359 300.539L495.508 300.465L497.07 300.422L500.586 300.348L503.191 300.316L505.211 300.305H509.574L512.18 300.324L514.066 300.344L516.152 300.379L517.91 300.422L520.973 300.516L523.707 300.641L524.945 300.711L526.898 300.848L528.395 300.98L529.438 301.098L530.609 301.262L531.652 301.461L532.434 301.684L532.824 301.875H523.707L523.25 301.699L522.73 301.562L521.754 301.379L520.777 301.25L519.41 301.121L518.172 301.039L516.477 300.953L514.98 300.902L513.418 300.863L511.918 300.836L509.055 300.809H505.734L504.496 300.816L501.957 300.852L500.586 300.883L498.633 300.945L497.266 301.004L495.637 301.094L494.531 301.168L493.164 301.281L492.188 301.383L491.078 301.531L490.43 301.641L489.844 301.766L489.32 301.91L488.93 302.066L488.672 302.227L488.539 302.387V303.074L488.672 303.23L488.996 303.418L489.844 303.688L491.078 303.922L492.512 304.109L493.879 304.242L494.66 304.301L495.703 304.375L497.332 304.461L499.676 304.551L501.043 304.586L503.129 304.621L505.277 304.637H508.141L510.684 304.621L512.375 304.598L514.133 304.562L516.543 304.488L518.039 304.418L519.344 304.332L520.32 304.25L520.973 304.18L521.949 304.043L522.73 303.891L523.316 303.734L523.707 303.586H532.824L532.434 303.762L531.848 303.934L531.262 304.062L530.348 304.219L529.309 304.355L527.809 304.512L526.57 304.613L524.945 304.723L523.445 304.805L521.816 304.883L519.41 304.969L517.844 305.016L516.152 305.055L514.133 305.09L511.594 305.121L508.859 305.137L506.32 305.141L503.582 305.133L501.566 305.117L498.895 305.074L495.574 304.996L493.164 304.914L491.273 304.828L489.648 304.738L487.824 304.621L485.48 304.426L484.047 304.277L483.07 304.152L481.961 303.98L481.18 303.824L480.27 303.578L479.617 303.262L479.422 303.02V302.41Z" fill="#255C99"/>
<path d="M479.422 308.008L479.488 308.004V307.926L479.75 307.75L480.398 307.504L481.246 307.301L482.156 307.145L482.742 307.062L483.723 306.941L484.566 306.855L486.715 306.68L489.453 306.512L490.949 306.441L492.645 306.375L495.051 306.301L496.16 306.273L499.547 306.207L503.387 306.168L507.621 306.156L509.574 306.16L512.246 306.176L515.891 306.219L517.977 306.258L519.605 306.301L521.297 306.352L523.379 306.43L525.336 306.523L526.898 306.617L528.461 306.738L529.762 306.863L530.871 307.004L531.848 307.168L532.434 307.305L532.824 307.445H523.773L523.25 307.305L522.664 307.199L521.688 307.07L520.711 306.973L519.734 306.898L517.91 306.797L516.348 306.734L514.395 306.68L512.504 306.645L510.355 306.617L509.055 306.609H505.602L502.477 306.641L500.652 306.672L499.352 306.703L497.527 306.762L496.418 306.809L495.77 306.84L493.816 306.961L492.512 307.074L491.797 307.148L490.883 307.266L490.234 307.375L489.516 307.531L489.125 307.648L488.605 307.918L488.539 308.629L488.734 308.781L489.125 308.941L489.648 309.082L490.43 309.234L491.211 309.348L492.578 309.504L493.75 309.605L494.66 309.672L496.418 309.777L497.137 309.812L498.828 309.887L500.586 309.941L502.738 309.988L504.363 310.012L506.969 310.031H510.293L514.199 310.008L516.672 309.977L518.367 309.945L519.473 309.918L520.84 309.875L521.816 309.836L522.73 309.789L523.836 309.723V308.781L507.75 308.777V308.332L532.758 308.328L532.824 309.875L531.457 309.98L529.762 310.082L528.137 310.16L526.441 310.23L524.031 310.305L522.078 310.352L519.082 310.406L516.348 310.441L513.48 310.465L510.941 310.477L507.945 310.48L505.277 310.473L502.41 310.449L500.133 310.418L498.047 310.379L495.965 310.328L493.359 310.246L491.664 310.176L489.906 310.094L488.148 309.996L486.586 309.891L485.543 309.805L484.504 309.711L483.395 309.594L482.352 309.457L481.57 309.336L480.855 309.199L480.336 309.066L479.812 308.891L479.555 308.746L479.422 308.625V308.008Z" fill="#F7B32B"/>
<path d="M479.422 201.547H532.824V209.777L510.566 209.848V278.438H501.613V209.922L501.484 209.777H479.422V201.547Z" fill="#D62839"/>
<path d="M535.633 297.957L535.691 297.941L558.797 280.531H565.816L589.035 297.973H580.875L575.059 293.422H549.555L543.852 297.957H535.633L552.008 291.539L572.719 291.52L562.391 283.383L562.277 283.367L562.164 283.414L551.953 291.52L552.008 291.539L535.633 297.957Z" fill="#109648"/>
<path d="M535.633 301.91L535.699 301.902V301.758L535.895 301.523L536.352 301.23L536.805 301.027L537.98 300.664L539.605 300.316L541.301 300.043L542.539 299.887L543.645 299.762L546.184 299.535L547.812 299.418L549.57 299.312L551.719 299.211L553.281 299.148L556.801 299.051L559.402 299.008L561.422 298.988H565.785L568.391 299.012L570.281 299.043L572.363 299.094L574.121 299.148L577.184 299.285L579.918 299.457L581.156 299.555L583.109 299.742L584.605 299.93L585.648 300.086L586.82 300.316L587.863 300.59L588.645 300.902L589.035 301.168H579.918L579.461 300.922L578.941 300.73L577.965 300.48L576.988 300.301L575.621 300.125L574.383 300.008L572.688 299.891L571.191 299.816L569.629 299.762L568.129 299.727L565.266 299.688H561.945L560.707 299.699L558.168 299.75L556.801 299.793L554.844 299.879L553.477 299.957L551.852 300.082L550.742 300.188L549.375 300.344L548.398 300.488L547.293 300.688L546.641 300.844L546.055 301.016L545.531 301.215L545.141 301.43L544.883 301.66L544.75 301.879V302.832L544.883 303.051L545.207 303.309L546.055 303.684L547.293 304.008L548.723 304.266L550.09 304.453L550.871 304.539L551.914 304.637L553.543 304.758L555.887 304.883L557.254 304.93L559.34 304.98L561.488 305.004H564.355L566.895 304.98L568.586 304.949L570.344 304.898L572.754 304.797L574.254 304.695L575.555 304.582L576.531 304.465L577.184 304.367L578.16 304.176L578.941 303.965L579.527 303.75L579.918 303.543H589.035L588.645 303.789L588.059 304.027L587.473 304.207L586.559 304.422L585.52 304.609L584.02 304.824L582.785 304.969L581.156 305.121L579.656 305.238L578.031 305.34L575.621 305.465L574.059 305.523L572.363 305.582L570.344 305.629L567.805 305.672L565.07 305.695L562.531 305.703L559.793 305.691L557.777 305.668L555.105 305.609L551.785 305.5L549.375 305.383L547.488 305.27L545.859 305.145L544.035 304.98L541.691 304.711L540.258 304.5L539.281 304.328L538.176 304.09L537.391 303.875L536.48 303.531L535.828 303.094L535.633 302.758V301.91Z" fill="#255C99"/>
<path d="M535.633 308.328H535.699V308.258L535.961 308.102L536.609 307.891L537.457 307.715L538.371 307.578L538.957 307.504L539.934 307.402L540.777 307.328L542.93 307.172L545.664 307.027L547.16 306.965L548.855 306.906L551.266 306.84L552.371 306.816L555.758 306.762L559.598 306.727L563.832 306.719L565.785 306.723L568.457 306.734L572.102 306.773L574.188 306.809L575.816 306.84L577.508 306.887L579.594 306.953L581.547 307.039L583.109 307.121L584.672 307.223L585.973 307.332L587.082 307.453L588.059 307.598L588.645 307.719L589.035 307.84H579.984L579.461 307.719L578.875 307.625L577.898 307.512L576.922 307.43L575.945 307.363L574.121 307.273L572.559 307.219L570.605 307.172L568.715 307.141L566.566 307.121L565.266 307.113H561.812L558.688 307.137L556.863 307.164L555.562 307.191L553.738 307.242L552.633 307.285L551.98 307.312L550.027 307.418L548.723 307.516L548.008 307.582L547.098 307.684L546.445 307.777L545.727 307.914L545.336 308.016L544.816 308.25L544.75 308.871L544.945 309L545.336 309.141L545.859 309.266L546.641 309.395L547.422 309.496L548.789 309.629L549.961 309.719L550.871 309.777L552.633 309.871L553.348 309.902L555.039 309.961L556.801 310.012L558.949 310.051L560.578 310.074L563.18 310.09H566.504L570.41 310.07L572.883 310.043L574.578 310.016L575.684 309.992L577.051 309.953L578.031 309.918L578.941 309.879L580.047 309.82V309L563.961 308.996V308.613L588.969 308.609L589.035 309.953L587.668 310.047L585.973 310.133L584.348 310.203L582.652 310.262L580.242 310.328L578.289 310.367L575.293 310.418L572.559 310.449L569.695 310.469L567.152 310.477L564.156 310.48L561.488 310.477L558.621 310.453L556.344 310.426L554.258 310.391L552.176 310.348L549.57 310.277L547.879 310.219L546.117 310.145L544.359 310.059L542.797 309.965L541.754 309.895L540.715 309.812L539.605 309.707L538.566 309.59L537.785 309.484L537.066 309.363L536.547 309.25L536.023 309.098L535.766 308.973L535.633 308.867V308.328Z" fill="#F7B32B"/>
<path d="M535.633 191.09H589.035V200.555L566.781 200.641V279.516H557.824V200.723L557.695 200.555H535.633V191.09Z" fill="#D62839"/>
<path d="M591.848 296.113L591.902 296.102L615.008 284.047H622.027L645.246 296.125H637.09L631.27 292.973H605.766L600.062 296.113H591.848L608.219 291.668L628.93 291.656L618.602 286.02L618.488 286.012L618.375 286.043L608.164 291.656L608.219 291.668L591.848 296.113Z" fill="#109648"/>
<path d="M591.848 300.902L591.91 300.895V300.703L592.105 300.402L592.562 300.023L593.02 299.762L594.191 299.297L595.816 298.848L597.512 298.496L598.75 298.293L599.855 298.133L602.395 297.84L604.023 297.691L605.781 297.559L607.93 297.422L609.492 297.344L613.012 297.215L615.617 297.16L617.633 297.137H621.996L624.602 297.168L626.492 297.207L628.574 297.273L630.332 297.344L633.395 297.516L636.129 297.738L637.367 297.863L639.32 298.109L640.816 298.348L641.859 298.555L643.031 298.848L644.074 299.203L644.855 299.605L645.246 299.945H636.129L635.672 299.629L635.152 299.383L634.176 299.059L633.199 298.832L631.832 298.602L630.594 298.449L628.902 298.301L627.402 298.207L625.84 298.133L624.344 298.086L621.477 298.039H618.156L616.918 298.055L614.379 298.117L613.012 298.172L611.059 298.285L609.688 298.387L608.062 298.547L606.953 298.68L605.586 298.887L604.609 299.066L603.504 299.328L602.852 299.527L602.266 299.746L601.746 300.008L601.355 300.285L601.094 300.578L600.965 300.863V302.09L601.094 302.375L601.418 302.707L602.266 303.188L603.504 303.605L604.934 303.938L606.305 304.176L607.086 304.289L608.125 304.414L609.754 304.57L612.098 304.73L613.465 304.793L615.551 304.855L617.699 304.887H620.566L623.105 304.855L624.797 304.816L626.555 304.754L628.965 304.621L630.465 304.492L631.766 304.344L632.742 304.191L633.395 304.066L634.371 303.82L635.152 303.551L635.738 303.273L636.129 303.008H645.246L644.855 303.324L644.27 303.629L643.684 303.859L642.773 304.137L641.73 304.383L640.23 304.66L638.996 304.84L637.367 305.039L635.867 305.188L634.242 305.324L631.832 305.48L630.27 305.559L628.574 305.633L626.555 305.695L624.016 305.75L621.281 305.781L618.742 305.789L616.008 305.773L613.988 305.742L611.316 305.672L607.996 305.527L605.586 305.379L603.699 305.227L602.07 305.07L600.246 304.855L597.902 304.508L596.469 304.238L595.492 304.02L594.387 303.711L593.605 303.434L592.691 302.988L592.043 302.43L591.848 301.992V300.902Z" fill="#255C99"/>
<path d="M591.848 308.379L591.91 308.375V308.309L592.172 308.156L592.824 307.949L593.668 307.777L594.582 307.645L595.168 307.574L596.145 307.473L596.992 307.398L599.141 307.246L601.875 307.105L603.371 307.047L605.066 306.988L607.477 306.926L608.582 306.902L611.969 306.848L615.812 306.812L620.043 306.805L621.996 306.809L624.668 306.82L628.316 306.859L630.398 306.891L632.027 306.926L633.719 306.969L635.805 307.035L637.758 307.117L639.32 307.199L640.883 307.297L642.188 307.406L643.293 307.523L644.27 307.664L644.855 307.781L645.246 307.898H636.195L635.672 307.781L635.086 307.691L634.109 307.582L633.133 307.5L632.156 307.438L630.332 307.348L628.77 307.293L626.816 307.246L624.93 307.219L622.777 307.199L621.477 307.191H618.023L614.898 307.215L613.074 307.242L611.773 307.27L609.949 307.316L608.844 307.359L608.191 307.387L606.238 307.488L604.934 307.582L604.219 307.648L603.309 307.75L602.656 307.84L601.941 307.973L601.551 308.074L601.027 308.301L600.965 308.906L601.16 309.035L601.551 309.172L602.07 309.293L602.852 309.422L603.633 309.52L605 309.648L606.172 309.734L607.086 309.793L608.844 309.883L609.559 309.914L611.254 309.977L613.012 310.023L615.16 310.062L616.789 310.082L619.395 310.098H622.715L626.621 310.078L629.098 310.051L630.789 310.023L631.895 310L633.266 309.965L634.242 309.93L635.152 309.895L636.258 309.836V309.035L620.176 309.031V308.656L645.18 308.652L645.246 309.965L643.879 310.055L642.188 310.145L640.559 310.211L638.863 310.266L636.453 310.332L634.5 310.371L631.504 310.418L628.77 310.449L625.906 310.469L623.367 310.477L620.371 310.48L617.699 310.477L614.836 310.453L612.555 310.43L610.473 310.395L608.387 310.352L605.781 310.281L604.09 310.223L602.332 310.152L600.57 310.07L599.008 309.977L597.969 309.906L596.926 309.828L595.816 309.727L594.777 309.613L593.996 309.508L593.277 309.391L592.758 309.281L592.238 309.129L591.977 309.008L591.848 308.902V308.379Z" fill="#F7B32B"/>
<path d="M591.848 235.777H645.246V240.836L622.992 240.883V283.035H614.035V240.926L613.906 240.836H591.848V235.777Z" fill="#D62839"/>
</g>
<defs>
<clipPath id="clip0_3_1402">
<rect width="682" height="322" fill="white"/>
</clipPath>
</defs>
</svg>
