<svg width="682" height="322" viewBox="0 0 682 322" fill="none" xmlns="http://www.w3.org/2000/svg">
<g clip-path="url(#clip0_3_1298)">
<path d="M754 -36H-110V396H754V-36Z" fill="white"/>
<path d="M29.7305 164.109L29.8125 163.895V159.609L30.1289 149.973L30.9258 136.691L31.9609 125.766L33.0781 117.199L33.793 112.699L34.9883 106.273L36.0234 101.562L38.6562 91.9219L42 82.9258L43.832 79.0703L45.9062 75.4297L48.8516 71.3594L50.207 69.8633L54.3516 66.4336L59.0508 64.293L64.2305 63.6484L66.6211 63.8633L69.8867 64.7227L74.3477 67.0781L76.8984 69.2188L78.8906 71.3594L80.9609 74.1445L83.5117 78.4297L85.9023 83.5703L87.8164 88.7109L89.7266 95.1367L91.3203 101.992L92.6758 109.488L93.8711 118.484L94.5859 125.98L95.0664 133.477H83.9883L83.3516 125.98L82.6367 120.199L81.4414 113.129L80.2461 107.988L79.0508 103.918L76.8203 98.3516L74.9062 94.9219L72.5156 91.9219L70.207 89.9961L67.5781 88.7109L65.9844 88.2812H61.7617L57.9375 89.7812L55.707 91.4961L54.1133 93.207L51.8789 96.4219L50.5273 98.9922L49.7305 100.707L47.3398 107.348L45.7461 113.344L44.8711 117.414L43.7539 123.84L42.957 129.621L42.082 138.191L41.6016 144.617L40.9648 159.184L40.8867 197.738L41.125 205.875L41.6016 214.66L42.2383 222.371L43.1953 230.508L44.1523 236.723L45.8242 245.074L47.2578 250.645L48.375 254.285L50.5273 260.07L51.4023 261.996L53.4727 265.852L55.625 268.852L58.2539 271.422L60.2461 272.707L63.4336 273.777H67.4961L72.2773 272.492L75.3047 270.777L77.3789 269.066L78.7305 267.566L80.4062 265.211L81.6016 263.066L82.7148 260.711L84.0703 257.07V205.875L64.3906 205.664V181.672L94.9844 181.457L95.0664 265.211L93.3906 270.992L91.3203 276.562L89.3281 280.848L87.2578 284.488L84.3086 288.559L81.918 291.129L78.2539 294.125L74.9062 296.055L71.4023 297.34L68.293 297.98L64.6289 298.195L61.3633 297.766L57.8555 296.48L55.0664 294.77L52.5195 292.625L49.9688 289.844L46.7812 285.344L44.7109 281.703L42.5586 277.203L40.4062 271.848L38.4961 266.066L37.2188 261.566L35.9453 256.426L34.5898 250L33.3164 242.719L32.3594 236.078L31.4844 228.582L30.8477 221.512L30.2109 211.875L29.8906 204.164L29.7305 197.523V164.109Z" fill="#F7B32B"/>
<path d="M29.7305 299.34H95.0664V300.465L67.8359 300.477V309.855H56.8789V300.484L56.7227 300.465H29.7305V299.34Z" fill="#D62839"/>
<path d="M98.5039 147.141L98.582 146.883V141.695L98.9023 130.023L99.6992 113.941L100.734 100.715L101.852 90.3438L102.566 84.8945L103.762 77.1172L104.797 71.4102L107.426 59.7383L110.773 48.8477L112.605 44.1797L114.68 39.7695L117.625 34.8398L118.98 33.0273L123.125 28.875L127.824 26.2812L133.004 25.5039L135.395 25.7656L138.66 26.8008L143.121 29.6523L145.672 32.2461L147.664 34.8398L149.734 38.2109L152.285 43.3984L154.676 49.625L156.586 55.8477L158.5 63.6289L160.094 71.9297L161.449 81.0039L162.645 91.8984L163.359 100.977L163.836 110.055H152.762L152.125 100.977L151.41 93.9727L150.215 85.4141L149.02 79.1914L147.824 74.2617L145.594 67.5195L143.68 63.3711L141.289 59.7383L138.98 57.4062L136.348 55.8477L134.758 55.3281H130.535L126.707 57.1445L124.477 59.2188L122.883 61.2969L120.652 65.1836L119.301 68.2969L118.504 70.3711L116.113 78.4141L114.52 85.6758L113.641 90.6016L112.527 98.3828L111.73 105.383L110.852 115.758L110.375 123.539L109.738 141.176L109.66 187.859L109.898 197.715L110.375 208.348L111.012 217.684L111.969 227.539L112.926 235.059L114.598 245.176L116.031 251.918L117.148 256.328L119.301 263.328L120.176 265.664L122.246 270.332L124.398 273.965L127.027 277.074L129.02 278.633L132.207 279.93H136.27L141.051 278.371L144.078 276.297L146.148 274.223L147.504 272.406L149.176 269.555L150.371 266.961L151.488 264.109L152.844 259.699V197.715L133.164 197.453V168.406L163.758 168.148L163.836 269.555L162.164 276.559L160.094 283.301L158.102 288.488L156.031 292.895L153.082 297.824L150.691 300.938L147.027 304.566L143.68 306.902L140.176 308.457L137.066 309.234L133.402 309.496L130.137 308.977L126.629 307.418L123.84 305.344L121.289 302.75L118.742 299.379L115.555 293.934L113.484 289.523L111.332 284.078L109.18 277.594L107.27 270.59L105.992 265.145L104.719 258.922L103.363 251.141L102.09 242.324L101.133 234.281L100.258 225.207L99.6172 216.648L98.9805 204.977L98.6641 195.641L98.5039 187.598V147.141Z" fill="#F7B32B"/>
<path d="M167.277 147.141L167.355 146.883V141.695L167.676 130.023L168.473 113.941L169.508 100.715L170.621 90.3438L171.34 84.8945L172.535 77.1172L173.57 71.4102L176.199 59.7383L179.547 48.8477L181.379 44.1797L183.449 39.7695L186.398 34.8398L187.754 33.0273L191.895 28.875L196.598 26.2812L201.777 25.5039L204.168 25.7656L207.434 26.8008L211.895 29.6523L214.445 32.2461L216.438 34.8398L218.508 38.2109L221.059 43.3984L223.449 49.625L225.359 55.8477L227.273 63.6289L228.867 71.9297L230.219 81.0039L231.414 91.8984L232.133 100.977L232.609 110.055H221.535L220.898 100.977L220.18 93.9727L218.984 85.4141L217.789 79.1914L216.594 74.2617L214.363 67.5195L212.453 63.3711L210.062 59.7383L207.75 57.4062L205.121 55.8477L203.527 55.3281H199.305L195.48 57.1445L193.25 59.2188L191.656 61.2969L189.426 65.1836L188.07 68.2969L187.273 70.3711L184.883 78.4141L183.293 85.6758L182.414 90.6016L181.301 98.3828L180.504 105.383L179.625 115.758L179.148 123.539L178.512 141.176L178.43 187.859L178.672 197.715L179.148 208.348L179.785 217.684L180.742 227.539L181.699 235.059L183.371 245.176L184.805 251.918L185.922 256.328L188.07 263.328L188.949 265.664L191.02 270.332L193.172 273.965L195.801 277.074L197.793 278.633L200.98 279.93H205.043L209.824 278.371L212.852 276.297L214.922 274.223L216.277 272.406L217.949 269.555L219.145 266.961L220.262 264.109L221.613 259.699V197.715L201.934 197.453V168.406L232.531 168.148L232.609 269.555L230.938 276.559L228.867 283.301L226.875 288.488L224.801 292.895L221.855 297.824L219.465 300.938L215.801 304.566L212.453 306.902L208.945 308.457L205.84 309.234L202.176 309.496L198.906 308.977L195.402 307.418L192.613 305.344L190.062 302.75L187.516 299.379L184.328 293.934L182.254 289.523L180.105 284.078L177.953 277.594L176.039 270.59L174.766 265.145L173.492 258.922L172.137 251.141L170.863 242.324L169.906 234.281L169.027 225.207L168.391 216.648L167.754 204.977L167.438 195.641L167.277 187.598V147.141Z" fill="#F7B32B"/>
<path d="M236.051 147.141L236.129 146.883V141.695L236.449 130.023L237.246 113.941L238.281 100.715L239.395 90.3438L240.113 84.8945L241.309 77.1172L242.344 71.4102L244.973 59.7383L248.32 48.8477L250.152 44.1797L252.223 39.7695L255.172 34.8398L256.527 33.0273L260.668 28.875L265.371 26.2812L270.547 25.5039L272.938 25.7656L276.207 26.8008L280.668 29.6523L283.219 32.2461L285.207 34.8398L287.281 38.2109L289.832 43.3984L292.219 49.625L294.133 55.8477L296.043 63.6289L297.637 71.9297L298.992 81.0039L300.188 91.8984L300.906 100.977L301.383 110.055H290.309L289.672 100.977L288.953 93.9727L287.758 85.4141L286.562 79.1914L285.367 74.2617L283.137 67.5195L281.227 63.3711L278.836 59.7383L276.523 57.4062L273.895 55.8477L272.301 55.3281H268.078L264.254 57.1445L262.023 59.2188L260.43 61.2969L258.199 65.1836L256.844 68.2969L256.047 70.3711L253.656 78.4141L252.062 85.6758L251.188 90.6016L250.07 98.3828L249.273 105.383L248.398 115.758L247.922 123.539L247.285 141.176L247.203 187.859L247.441 197.715L247.922 208.348L248.559 217.684L249.516 227.539L250.469 235.059L252.145 245.176L253.578 251.918L254.691 256.328L256.844 263.328L257.723 265.664L259.793 270.332L261.945 273.965L264.574 277.074L266.566 278.633L269.75 279.93H273.816L278.598 278.371L281.625 276.297L283.695 274.223L285.051 272.406L286.723 269.555L287.918 266.961L289.035 264.109L290.387 259.699V197.715L270.707 197.453V168.406L301.305 168.148L301.383 269.555L299.711 276.559L297.637 283.301L295.645 288.488L293.574 292.895L290.625 297.824L288.238 300.938L284.57 304.566L281.227 306.902L277.719 308.457L274.613 309.234L270.945 309.496L267.68 308.977L264.176 307.418L261.387 305.344L258.836 302.75L256.285 299.379L253.102 293.934L251.027 289.523L248.875 284.078L246.727 277.594L244.812 270.59L243.539 265.145L242.266 258.922L240.91 251.141L239.633 242.324L238.68 234.281L237.801 225.207L237.164 216.648L236.527 204.977L236.207 195.641L236.051 187.598V147.141Z" fill="#F7B32B"/>
<path d="M304.82 309.98L304.891 309.938L333.16 266.844H341.746L370.156 310.02H360.176L353.055 298.75H321.852L314.875 309.98H304.82L324.855 294.086L350.191 294.047L337.559 273.898L337.418 273.859L337.281 273.98L324.785 294.047L324.855 294.086L304.82 309.98Z" fill="#109648"/>
<path d="M304.82 197.801L304.902 197.691V195.055L305.141 190.879L305.699 185.605L306.258 181.98L307.691 175.5L309.684 169.234L311.754 164.402L313.266 161.547L314.621 159.348L317.73 155.281L319.723 153.195L321.871 151.328L324.5 149.461L326.414 148.359L330.715 146.602L333.902 145.832L336.375 145.504H341.711L344.898 145.945L347.211 146.492L349.758 147.371L351.91 148.359L355.656 150.777L359 153.855L360.516 155.613L362.906 159.02L364.738 162.312L366.012 165.172L367.445 169.234L368.723 174.18L369.68 179.781L370.156 184.508H359L358.445 180.113L357.805 176.707L356.609 172.203L355.414 169.016L353.742 165.828L352.23 163.742L350.156 161.656L348.324 160.336L346.414 159.348L344.578 158.688L341.074 158.027H337.012L335.496 158.25L332.391 159.129L330.715 159.898L328.324 161.434L326.652 162.863L324.66 165.062L323.305 166.93L321.633 169.785L320.438 172.312L319.082 175.938L318.285 178.684L317.57 181.762L316.934 185.387L316.453 189.23L316.137 193.297L315.977 197.254V214.281L316.137 218.238L316.535 222.852L317.57 229.555L319.082 235.375L320.836 239.992L322.508 243.289L323.465 244.824L324.742 246.582L326.734 248.781L329.602 250.977L331.273 251.855L333.824 252.734L336.453 253.176H339.957L343.066 252.734L345.137 252.188L347.289 251.309L350.238 249.441L352.07 247.684L353.664 245.594L354.859 243.508L355.656 241.75L356.852 238.344L357.805 234.609L358.523 230.762L359 227.027H370.156L369.68 231.422L368.961 235.707L368.242 238.891L367.129 242.738L365.852 246.145L364.02 249.988L362.508 252.516L360.516 255.262L358.684 257.352L356.691 259.219L353.742 261.414L351.832 262.516L349.758 263.504L347.289 264.383L344.18 265.152L340.836 265.59L337.727 265.699L334.383 265.48L331.91 265.043L328.645 264.051L324.582 262.074L321.633 259.988L319.324 257.898L317.332 255.703L315.102 252.734L312.23 247.902L310.48 244.168L309.285 241.09L307.93 236.805L306.973 232.961L305.859 226.809L305.062 219.008L304.82 212.965V197.801Z" fill="#255C99"/>
<path d="M373.594 147.141L373.676 146.883V141.695L373.992 130.023L374.789 113.941L375.824 100.715L376.941 90.3438L377.656 84.8945L378.852 77.1172L379.891 71.4102L382.52 59.7383L385.863 48.8477L387.695 44.1797L389.77 39.7695L392.715 34.8398L394.07 33.0273L398.215 28.875L402.914 26.2812L408.094 25.5039L410.484 25.7656L413.75 26.8008L418.211 29.6523L420.762 32.2461L422.754 34.8398L424.824 38.2109L427.375 43.3984L429.766 49.625L431.68 55.8477L433.59 63.6289L435.184 71.9297L436.539 81.0039L437.734 91.8984L438.449 100.977L438.93 110.055H427.855L427.215 100.977L426.5 93.9727L425.305 85.4141L424.109 79.1914L422.914 74.2617L420.684 67.5195L418.77 63.3711L416.379 59.7383L414.07 57.4062L411.441 55.8477L409.848 55.3281H405.625L401.801 57.1445L399.57 59.2188L397.977 61.2969L395.746 65.1836L394.391 68.2969L393.594 70.3711L391.203 78.4141L389.609 85.6758L388.734 90.6016L387.617 98.3828L386.82 105.383L385.945 115.758L385.465 123.539L384.828 141.176L384.75 187.859L384.988 197.715L385.465 208.348L386.105 217.684L387.059 227.539L388.016 235.059L389.688 245.176L391.125 251.918L392.238 256.328L394.391 263.328L395.266 265.664L397.336 270.332L399.488 273.965L402.117 277.074L404.109 278.633L407.297 279.93H411.359L416.141 278.371L419.168 276.297L421.242 274.223L422.594 272.406L424.27 269.555L425.465 266.961L426.578 264.109L427.934 259.699V197.715L408.254 197.453V168.406L438.848 168.148L438.93 269.555L437.254 276.559L435.184 283.301L433.191 288.488L431.121 292.895L428.172 297.824L425.781 300.938L422.117 304.566L418.77 306.902L415.266 308.457L412.156 309.234L408.492 309.496L405.227 308.977L401.719 307.418L398.93 305.344L396.383 302.75L393.832 299.379L390.645 293.934L388.574 289.523L386.422 284.078L384.27 277.594L382.359 270.59L381.082 265.145L379.809 258.922L378.453 251.141L377.18 242.324L376.223 234.281L375.348 225.207L374.711 216.648L374.074 204.977L373.754 195.641L373.594 187.598V147.141Z" fill="#F7B32B"/>
<path d="M442.367 299.652L442.445 299.637V299.238L442.688 298.609L443.242 297.812L443.801 297.266L445.234 296.289L447.227 295.344L449.301 294.613L450.812 294.184L452.168 293.852L455.273 293.238L457.266 292.922L459.418 292.641L462.047 292.359L463.961 292.191L468.262 291.93L471.449 291.812L473.918 291.762H479.258L482.445 291.828L484.754 291.91L487.305 292.043L489.457 292.191L493.199 292.559L496.547 293.023L498.059 293.289L500.449 293.801L502.285 294.297L503.559 294.73L504.992 295.344L506.266 296.09L507.223 296.934L507.703 297.648H496.547L495.988 296.984L495.352 296.469L494.156 295.789L492.961 295.309L491.289 294.828L489.773 294.516L487.703 294.199L485.871 294L483.957 293.852L482.125 293.75L478.621 293.652H474.555L473.043 293.684L469.934 293.816L468.262 293.934L465.871 294.164L464.199 294.383L462.207 294.715L460.852 294.996L459.18 295.426L457.984 295.809L456.629 296.355L455.832 296.77L455.117 297.234L454.477 297.781L454 298.359L453.68 298.973L453.523 299.57V302.141L453.68 302.738L454.078 303.434L455.117 304.445L456.629 305.324L458.383 306.02L460.055 306.516L461.012 306.75L462.285 307.016L464.277 307.344L467.145 307.676L468.82 307.809L471.367 307.941L474 308.008H477.504L480.613 307.941L482.684 307.859L484.836 307.727L487.781 307.445L489.613 307.18L491.207 306.863L492.402 306.551L493.199 306.285L494.395 305.77L495.352 305.207L496.07 304.625L496.547 304.062H507.703L507.223 304.727L506.508 305.371L505.789 305.855L504.672 306.434L503.398 306.949L501.566 307.527L500.051 307.91L498.059 308.324L496.227 308.641L494.234 308.922L491.289 309.254L489.375 309.418L487.305 309.566L484.836 309.699L481.727 309.816L478.379 309.883L475.273 309.898L471.926 309.867L469.457 309.801L466.191 309.648L462.125 309.352L459.18 309.035L456.867 308.723L454.875 308.391L452.645 307.941L449.777 307.215L448.023 306.648L446.828 306.184L445.473 305.539L444.52 304.957L443.402 304.031L442.605 302.852L442.367 301.941V299.652Z" fill="#255C99"/>
<path d="M442.367 173.008L442.445 172.82V169.062L442.766 160.605L443.562 148.957L444.598 139.375L445.715 131.863L446.43 127.918L447.625 122.281L448.66 118.148L451.289 109.691L454.637 101.801L456.469 98.418L458.543 95.2266L461.488 91.6562L462.844 90.3398L466.988 87.3359L471.688 85.457L476.867 84.8906L479.258 85.082L482.523 85.832L486.984 87.8984L489.535 89.7773L491.527 91.6562L493.598 94.0977L496.148 97.8555L498.539 102.363L500.449 106.875L502.363 112.512L503.957 118.523L505.312 125.098L506.508 132.988L507.223 139.566L507.703 146.141H496.625L495.988 139.566L495.273 134.492L494.078 128.293L492.883 123.781L491.688 120.215L489.457 115.328L487.543 112.324L485.152 109.691L482.844 108L480.215 106.875L478.621 106.5H474.398L470.574 107.812L468.34 109.316L466.746 110.82L464.516 113.637L463.164 115.891L462.367 117.395L459.977 123.219L458.383 128.48L457.504 132.051L456.391 137.688L455.594 142.758L454.719 150.273L454.238 155.91L453.602 168.688L453.523 202.504L453.762 209.645L454.238 217.348L454.875 224.109L455.832 231.25L456.789 236.699L458.461 244.023L459.895 248.91L461.012 252.102L463.164 257.176L464.039 258.867L466.109 262.25L468.262 264.879L470.891 267.133L472.883 268.262L476.07 269.199H480.133L484.914 268.074L487.941 266.57L490.012 265.066L491.367 263.75L493.039 261.684L494.234 259.805L495.352 257.738L496.707 254.547V209.645L477.027 209.453V188.414L507.621 188.227L507.703 261.684L506.027 266.758L503.957 271.641L501.965 275.398L499.895 278.594L496.945 282.164L494.555 284.418L490.891 287.047L487.543 288.738L484.039 289.867L480.93 290.43L477.266 290.617L474 290.242L470.492 289.113L467.703 287.613L465.156 285.734L462.605 283.289L459.418 279.344L457.348 276.152L455.195 272.207L453.043 267.508L451.133 262.438L449.855 258.492L448.582 253.98L447.227 248.344L445.953 241.957L444.996 236.133L444.121 229.559L443.484 223.359L442.844 214.902L442.527 208.141L442.367 202.316V173.008Z" fill="#F7B32B"/>
<path d="M511.141 301.34L511.211 301.316L539.48 276.262H548.066L576.473 301.363H566.492L559.371 294.809H528.172L521.191 301.34H511.141L531.172 292.098L556.512 292.074L543.875 280.363L543.738 280.34L543.598 280.41L531.102 292.074L531.172 292.098L511.141 301.34Z" fill="#109648"/>
<path d="M511.141 304.348L511.219 304.344V304.25L511.457 304.102L512.016 303.918L512.574 303.789L514.008 303.562L516 303.34L518.07 303.172L519.586 303.07L520.941 302.992L524.047 302.852L526.039 302.777L528.191 302.711L530.82 302.645L532.73 302.605L537.035 302.547L540.223 302.52L542.691 302.508H548.031L551.215 302.523L553.527 302.543L556.078 302.57L558.227 302.605L561.973 302.691L565.32 302.801L566.832 302.863L569.223 302.98L571.055 303.098L572.332 303.199L573.766 303.34L575.039 303.516L575.996 303.711L576.473 303.879H565.32L564.762 303.723L564.125 303.605L562.93 303.445L561.734 303.332L560.062 303.223L558.547 303.148L556.477 303.074L554.645 303.027L552.73 302.992L550.898 302.969L547.391 302.945H543.328L541.816 302.953L538.707 302.984L537.035 303.012L534.645 303.066L532.973 303.117L530.98 303.195L529.625 303.262L527.953 303.359L526.758 303.449L525.402 303.578L524.605 303.676L523.887 303.781L523.25 303.91L522.773 304.047L522.453 304.188L522.293 304.328V304.926L522.453 305.066L522.852 305.227L523.887 305.465L525.402 305.668L527.156 305.832L528.828 305.945L529.785 306L531.059 306.062L533.051 306.141L535.918 306.219L537.594 306.25L540.141 306.281L542.77 306.297H546.277L549.383 306.281L551.457 306.262L553.605 306.23L556.555 306.164L558.387 306.102L559.98 306.027L561.176 305.953L561.973 305.895L563.168 305.773L564.125 305.641L564.84 305.508L565.32 305.375H576.473L575.996 305.531L575.277 305.68L574.562 305.793L573.445 305.93L572.172 306.047L570.34 306.184L568.824 306.273L566.832 306.367L565 306.441L563.008 306.508L560.062 306.586L558.148 306.625L556.078 306.66L553.605 306.688L550.5 306.715L547.152 306.73L544.047 306.734L540.699 306.727L538.23 306.711L534.965 306.68L530.898 306.609L527.953 306.535L525.641 306.461L523.648 306.383L521.418 306.281L518.551 306.109L516.797 305.977L515.602 305.871L514.246 305.719L513.293 305.582L512.176 305.367L511.379 305.094L511.141 304.879V304.348Z" fill="#255C99"/>
<path d="M511.141 236.84L511.219 236.781V235.559L511.539 232.805L512.336 229.016L513.371 225.895L514.484 223.449L515.203 222.168L516.398 220.332L517.434 218.988L520.062 216.234L523.41 213.668L525.242 212.566L527.312 211.527L530.262 210.367L531.617 209.938L535.758 208.961L540.461 208.348L545.641 208.164L548.031 208.227L551.297 208.469L555.758 209.145L558.309 209.754L560.301 210.367L562.371 211.16L564.922 212.383L567.312 213.852L569.223 215.32L571.137 217.152L572.73 219.109L574.082 221.25L575.277 223.816L575.996 225.957L576.473 228.098H565.398L564.762 225.957L564.043 224.305L562.848 222.289L561.652 220.82L560.461 219.66L558.227 218.07L556.316 217.09L553.926 216.234L551.613 215.684L548.984 215.32L547.391 215.195H543.168L539.344 215.625L537.113 216.113L535.52 216.602L533.289 217.52L531.934 218.254L531.137 218.742L528.75 220.637L527.156 222.352L526.277 223.512L525.164 225.348L524.367 226.996L523.488 229.441L523.012 231.277L522.375 235.434L522.293 246.441L522.535 248.766L523.012 251.27L523.648 253.473L524.605 255.797L525.562 257.566L527.234 259.953L528.668 261.543L529.785 262.582L531.934 264.234L532.812 264.781L534.883 265.883L537.035 266.738L539.664 267.473L541.656 267.84L544.844 268.145H548.906L553.688 267.777L556.715 267.289L558.785 266.801L560.141 266.371L561.812 265.699L563.008 265.09L564.125 264.418L565.48 263.375V248.766L545.797 248.703V241.855L576.395 241.793L576.473 265.699L574.801 267.352L572.73 268.941L570.738 270.164L568.664 271.203L565.719 272.363L563.328 273.098L559.664 273.953L556.316 274.504L552.809 274.871L549.703 275.055L546.039 275.117L542.77 274.992L539.266 274.629L536.477 274.137L533.926 273.527L531.379 272.73L528.191 271.449L526.117 270.41L523.969 269.125L521.816 267.598L519.902 265.945L518.629 264.66L517.355 263.195L516 261.359L514.727 259.281L513.77 257.387L512.895 255.246L512.254 253.227L511.617 250.477L511.301 248.273L511.141 246.379V236.84Z" fill="#F7B32B"/>
<path d="M511.141 307.879H576.473V308.145L549.246 308.148V310.352H538.289V308.148L538.129 308.145H511.141V307.879Z" fill="#D62839"/>
<path d="M579.914 309.934L579.98 309.906L608.25 279.672H616.836L645.246 309.961H635.266L628.145 302.055H596.945L589.965 309.934H579.914L599.945 298.785L625.285 298.758L612.648 284.621L612.512 284.594L612.371 284.68L599.875 298.758L599.945 298.785L579.914 309.934Z" fill="#109648"/>
<path d="M579.914 185.875L579.992 185.727V182.77L580.312 176.109L581.109 166.93L582.145 159.383L583.258 153.461L583.977 150.355L585.172 145.914L586.207 142.656L588.836 135.996L592.184 129.781L594.016 127.117L596.086 124.602L599.035 121.789L600.391 120.754L604.531 118.383L609.234 116.902L614.414 116.461L616.801 116.609L620.07 117.199L624.531 118.828L627.082 120.309L629.074 121.789L631.145 123.711L633.695 126.672L636.082 130.227L637.996 133.777L639.91 138.219L641.5 142.953L642.855 148.133L644.051 154.352L644.77 159.531L645.246 164.711H634.172L633.535 159.531L632.816 155.535L631.621 150.648L630.426 147.098L629.23 144.285L627 140.438L625.09 138.07L622.699 135.996L620.387 134.664L617.758 133.777L616.164 133.48H611.941L608.117 134.516L605.887 135.699L604.293 136.887L602.062 139.105L600.707 140.883L599.91 142.066L597.52 146.652L595.926 150.797L595.051 153.609L593.934 158.051L593.141 162.047L592.262 167.969L591.785 172.406L591.148 182.473L591.066 209.113L591.305 214.738L591.785 220.805L592.422 226.133L593.379 231.758L594.332 236.051L596.008 241.824L597.441 245.672L598.559 248.188L600.707 252.184L601.586 253.516L603.656 256.18L605.809 258.254L608.438 260.027L610.43 260.918L613.617 261.656H617.68L622.461 260.77L625.488 259.586L627.559 258.398L628.914 257.363L630.586 255.734L631.781 254.258L632.898 252.629L634.25 250.113V214.738L614.57 214.59V198.012L645.168 197.863L645.246 255.734L643.574 259.734L641.5 263.582L639.512 266.539L637.438 269.059L634.492 271.871L632.102 273.645L628.434 275.719L625.09 277.051L621.582 277.938L618.477 278.383L614.809 278.531L611.543 278.234L608.039 277.344L605.25 276.16L602.699 274.68L600.148 272.758L596.965 269.648L594.891 267.133L592.742 264.023L590.59 260.324L588.676 256.328L587.402 253.219L586.129 249.668L584.773 245.227L583.496 240.195L582.543 235.605L581.664 230.426L581.027 225.543L580.391 218.883L580.07 213.555L579.914 208.965V185.875Z" fill="#F7B32B"/>
</g>
<defs>
<clipPath id="clip0_3_1298">
<rect width="682" height="322" fill="white"/>
</clipPath>
</defs>
</svg>
