<svg width="682" height="322" viewBox="0 0 682 322" fill="none" xmlns="http://www.w3.org/2000/svg">
<g clip-path="url(#clip0_3_1677)">
<path d="M754 -36H-110V396H754V-36Z" fill="white"/>
<path d="M29.7305 275.918L29.793 275.848L55.2227 200.523H62.9453L88.5 275.992H79.5195L73.1172 256.293H45.0508L38.7734 275.918H29.7305L47.75 248.145L70.543 248.07L59.1758 212.855L59.0508 212.785L58.9258 212.996L47.6875 248.07L47.75 248.145L29.7305 275.918Z" fill="#109648"/>
<path d="M29.7305 304.324L29.8008 304.316V304.176L30.0195 303.949L30.5195 303.66L31.0195 303.465L32.3125 303.113L34.1016 302.773L35.9648 302.512L37.3281 302.359L38.5469 302.238L41.3398 302.02L43.1328 301.906L45.0664 301.805L47.4336 301.703L49.1523 301.645L53.0234 301.547L55.8906 301.508L58.1133 301.488H62.9141L65.7812 301.512L67.8594 301.543L70.1523 301.59L72.0859 301.645L75.457 301.773L78.4648 301.941L79.8281 302.035L81.9766 302.223L83.625 302.398L84.7734 302.555L86.0625 302.773L87.207 303.043L88.0703 303.348L88.5 303.602H78.4648L77.9648 303.363L77.3906 303.18L76.3164 302.934L75.2383 302.762L73.7344 302.59L72.375 302.477L70.5117 302.363L68.8633 302.293L67.1406 302.238L65.4922 302.203L62.3398 302.168H58.6836L57.3242 302.18L54.5273 302.227L53.0234 302.27L50.8711 302.352L49.3672 302.43L47.5781 302.547L46.3594 302.648L44.8516 302.805L43.7773 302.941L42.5586 303.137L41.8438 303.285L41.1992 303.453L40.625 303.648L40.1953 303.859L39.9062 304.078L39.7656 304.293V305.215L39.9062 305.43L40.2656 305.68L41.1992 306.043L42.5586 306.359L44.1367 306.609L45.6406 306.789L46.5 306.871L47.6484 306.969L49.4414 307.086L52.0195 307.203L53.5234 307.254L55.8164 307.301L58.1836 307.324H61.3359L64.1328 307.301L65.9961 307.27L67.9297 307.223L70.582 307.121L72.2305 307.027L73.6641 306.914L74.7383 306.801L75.457 306.703L76.5312 306.52L77.3906 306.316L78.0352 306.109L78.4648 305.906H88.5L88.0703 306.145L87.4219 306.379L86.7773 306.551L85.7773 306.758L84.6289 306.941L82.9805 307.152L81.6172 307.289L79.8281 307.438L78.1797 307.551L76.3867 307.652L73.7344 307.77L72.0156 307.832L70.1523 307.883L67.9297 307.93L65.1367 307.973L62.125 307.996L59.3281 308.004L56.3203 307.992L54.0977 307.969L51.1602 307.914L47.5039 307.805L44.8516 307.691L42.7734 307.582L40.9844 307.461L38.9766 307.301L36.3945 307.039L34.8203 306.836L33.7461 306.668L32.5273 306.438L31.6641 306.227L30.6641 305.895L29.9453 305.473L29.7305 305.145V304.324Z" fill="#255C99"/>
<path d="M29.7305 287.055L29.8008 287.035V286.605L30.0898 285.641L30.8047 284.312L31.7383 283.219L32.7422 282.359L33.3867 281.91L34.4609 281.266L35.3945 280.793L37.7578 279.828L40.7695 278.926L42.418 278.543L44.2812 278.176L46.9297 277.77L48.1484 277.621L51.875 277.277L56.1055 277.062L60.7617 276.996L62.9141 277.02L65.8516 277.105L69.8633 277.34L72.1602 277.555L73.9492 277.77L75.8125 278.047L78.1055 278.477L80.2578 278.992L81.9766 279.508L83.6953 280.148L85.1289 280.836L86.3477 281.586L87.4219 282.488L88.0703 283.238L88.5 283.988H78.5352L77.9648 283.238L77.3203 282.66L76.2422 281.953L75.168 281.438L74.0938 281.031L72.0859 280.473L70.3672 280.129L68.2148 279.828L66.1367 279.637L63.7734 279.508L62.3398 279.465H58.543L55.1016 279.613L53.0938 279.785L51.6602 279.957L49.6562 280.277L48.4375 280.535L47.7188 280.707L45.5703 281.371L44.1367 281.973L43.3477 282.379L42.3438 283.023L41.6289 283.602L40.8398 284.461L40.4102 285.105L39.8359 286.562L39.7656 290.422L39.9805 291.238L40.4102 292.117L40.9844 292.891L41.8438 293.703L42.7031 294.328L44.207 295.164L45.4961 295.719L46.5 296.086L48.4375 296.664L49.2266 296.855L51.0898 297.242L53.0234 297.543L55.3867 297.801L57.1797 297.93L60.0469 298.035H63.7031L68 297.906L70.7266 297.738L72.5898 297.566L73.8086 297.414L75.3125 297.18L76.3867 296.965L77.3906 296.727L78.6094 296.363V291.238L60.9062 291.215V288.816L88.4258 288.793L88.5 297.18L86.9922 297.758L85.1289 298.316L83.3398 298.746L81.4766 299.109L78.8242 299.516L76.6719 299.773L73.375 300.074L70.3672 300.266L67.2148 300.395L64.418 300.461L61.1211 300.48L58.1836 300.438L55.0312 300.309L52.5195 300.137L50.2266 299.926L47.9336 299.645L45.0664 299.195L43.2031 298.832L41.2695 298.379L39.3359 297.844L37.6133 297.266L36.4688 296.812L35.3203 296.301L34.1016 295.656L32.957 294.926L32.0977 294.262L31.3086 293.512L30.7344 292.805L30.1602 291.84L29.875 291.066L29.7305 290.402V287.055Z" fill="#F7B32B"/>
<path d="M29.7305 309.012H88.5V309.168H64.0078V310.488H54.1523V309.172L54.0078 309.168H29.7305V309.012Z" fill="#D62839"/>
<path d="M91.5938 301.258L91.6562 301.254L117.082 296.664H124.805L150.359 301.262H141.383L134.977 300.062H106.91L100.633 301.258H91.5938L109.613 299.566L132.402 299.562L121.039 297.414L120.914 297.41L120.789 297.426L109.547 299.562L109.613 299.566L91.5938 301.258Z" fill="#109648"/>
<path d="M91.5938 304.094L91.6641 304.09V303.996L91.8789 303.852L92.3789 303.668L92.8828 303.539L94.1719 303.316L95.9648 303.098L97.8281 302.93L99.1875 302.828L100.406 302.754L103.203 302.609L104.992 302.539L106.93 302.473L109.293 302.406L111.016 302.367L114.883 302.309L117.75 302.281L119.973 302.27H124.773L127.641 302.285L129.719 302.305L132.012 302.336L133.949 302.367L137.316 302.453L140.324 302.559L141.688 302.621L143.836 302.742L145.484 302.855L146.633 302.953L147.922 303.098L149.07 303.27L149.93 303.465L150.359 303.629H140.324L139.824 303.477L139.25 303.355L138.176 303.199L137.102 303.09L135.598 302.977L134.234 302.906L132.371 302.832L130.723 302.785L129.004 302.754L127.355 302.73L124.199 302.707H120.547L119.184 302.715L116.391 302.746L114.883 302.77L112.734 302.824L111.23 302.875L109.438 302.949L108.219 303.016L106.715 303.117L105.641 303.203L104.422 303.332L103.703 303.426L103.059 303.531L102.484 303.66L102.055 303.793L101.77 303.934L101.625 304.074V304.668L101.77 304.805L102.129 304.965L103.059 305.199L104.422 305.402L105.996 305.562L107.504 305.676L108.363 305.73L109.508 305.793L111.301 305.867L113.879 305.945L115.387 305.977L117.68 306.008L120.043 306.023H123.199L125.992 306.008L127.855 305.988L129.789 305.957L132.441 305.891L134.09 305.832L135.523 305.758L136.598 305.684L137.316 305.625L138.391 305.504L139.25 305.375L139.895 305.242L140.324 305.109H150.359L149.93 305.266L149.285 305.414L148.641 305.523L147.637 305.66L146.488 305.777L144.84 305.91L143.48 306L141.688 306.094L140.039 306.168L138.246 306.234L135.598 306.309L133.875 306.348L132.012 306.383L129.789 306.414L126.996 306.438L123.984 306.453L121.191 306.457L118.18 306.449L115.957 306.434L113.02 306.402L109.367 306.332L106.715 306.258L104.637 306.188L102.844 306.109L100.836 306.008L98.2578 305.84L96.6797 305.707L95.6055 305.602L94.3867 305.453L93.5273 305.316L92.5234 305.102L91.8086 304.832L91.5938 304.621V304.094Z" fill="#255C99"/>
<path d="M91.5938 308.762L91.6641 308.758V308.703L91.9492 308.578L92.668 308.406L93.5977 308.266L94.6016 308.156L95.2461 308.098L96.3203 308.016L97.2539 307.953L99.6172 307.828L102.629 307.715L104.277 307.664L106.141 307.617L108.793 307.566L110.012 307.547L113.738 307.5L117.965 307.473L122.625 307.465L124.773 307.469L127.711 307.48L131.727 307.508L134.02 307.539L135.812 307.566L137.676 307.602L139.969 307.656L142.117 307.723L143.836 307.789L145.559 307.871L146.992 307.961L148.211 308.055L149.285 308.172L149.93 308.27L150.359 308.367H140.398L139.824 308.27L139.18 308.195L138.105 308.102L137.031 308.039L135.953 307.984L133.949 307.914L132.227 307.867L130.078 307.828L128 307.805L125.633 307.789L124.199 307.781H120.402L116.961 307.801L114.957 307.824L113.523 307.848L111.516 307.887L110.297 307.922L109.582 307.941L107.43 308.027L105.996 308.105L105.207 308.16L104.207 308.242L103.488 308.316L102.699 308.426L102.27 308.508L101.695 308.695L101.625 309.195L101.84 309.301L102.27 309.414L102.844 309.512L103.703 309.617L104.562 309.695L106.07 309.805L107.359 309.875L108.363 309.922L110.297 309.996L111.086 310.023L112.949 310.074L114.883 310.109L117.25 310.145L119.039 310.16L121.906 310.176H125.562L129.863 310.156L132.586 310.137L134.449 310.113L135.668 310.094L137.172 310.062L138.246 310.035L139.25 310.008L140.469 309.961V309.301L122.766 309.297V308.988L150.289 308.984L150.359 310.062L148.855 310.137L146.992 310.211L145.199 310.266L143.336 310.312L140.684 310.363L138.535 310.398L135.238 310.438L132.227 310.461L129.074 310.477L126.277 310.488H122.984L120.043 310.484L116.891 310.469L114.383 310.445L112.09 310.418L109.797 310.383L106.93 310.324L105.066 310.277L103.129 310.219L101.195 310.148L99.4766 310.074L98.3281 310.016L97.1836 309.949L95.9648 309.867L94.8164 309.773L93.957 309.688L93.168 309.594L92.5938 309.5L92.0234 309.375L91.7344 309.277L91.5938 309.191V308.762Z" fill="#F7B32B"/>
<path d="M91.5938 86.6211H150.359V108.996L125.867 109.191V295.656H116.012V109.387L115.871 108.996H91.5938V86.6211Z" fill="#D62839"/>
<path d="M153.453 310.488L153.516 310.484L178.945 308.086H186.668L212.219 310.488H203.242L196.84 309.863H168.773L162.492 310.488H153.453L171.473 309.602H194.266L182.898 308.48L182.773 308.477L182.648 308.484L171.41 309.602H171.473L153.453 310.488Z" fill="#109648"/>
<path d="M153.453 172.215L153.523 172.008V167.117L153.738 159.367L154.242 149.582L154.742 142.855L156.031 130.824L157.824 119.203L159.688 110.234L161.051 104.934L162.27 100.855L165.062 93.3125L166.855 89.4375L168.789 85.9727L171.156 82.5039L172.875 80.4648L176.746 77.2031L179.613 75.7773L181.832 75.1641H186.637L189.5 75.9805L191.582 77L193.875 78.6328L195.809 80.4648L199.176 84.9531L202.188 90.6602L203.547 93.9219L205.699 100.242L207.348 106.359L208.492 111.66L209.785 119.203L210.93 128.379L211.789 138.777L212.219 147.543H202.188L201.684 139.387L201.113 133.066L200.035 124.707L198.961 118.797L197.457 112.883L196.094 109.012L194.23 105.137L192.582 102.691L190.863 100.855L189.215 99.6328L186.062 98.4102H182.406L181.043 98.8164L178.25 100.445L176.746 101.875L174.594 104.73L173.09 107.379L171.297 111.457L170.078 114.922L168.574 120.223L167.5 124.914L166.281 131.641L165.566 136.738L164.918 142.445L164.348 149.176L163.918 156.309L163.629 163.855L163.484 171.195V202.797L163.629 210.133L163.988 218.699L164.918 231.133L166.281 241.941L167.859 250.504L169.363 256.621L170.223 259.473L171.371 262.734L173.16 266.812L175.742 270.891L177.246 272.523L179.539 274.152L181.906 274.969H185.059L187.852 274.152L189.715 273.133L191.652 271.504L194.305 268.035L195.953 264.773L197.387 260.902L198.461 257.027L199.176 253.766L200.254 247.445L201.113 240.512L201.758 233.379L202.188 226.445H212.219L211.789 234.602L211.145 242.551L210.5 248.465L209.496 255.602L208.352 261.922L206.703 269.055L205.34 273.746L203.547 278.844L201.898 282.715L200.109 286.184L197.457 290.262L195.738 292.297L193.875 294.133L191.652 295.766L188.855 297.191L185.848 298.008L183.051 298.211L180.043 297.805L177.82 296.988L174.883 295.152L171.227 291.484L168.574 287.609L166.496 283.734L164.703 279.656L162.699 274.152L160.117 265.184L158.543 258.25L157.465 252.543L156.246 244.59L155.387 237.453L154.383 226.039L153.668 211.562L153.453 200.348V172.215Z" fill="#255C99"/>
<path d="M153.453 301.027L153.523 301.023V300.945L153.812 300.773L154.527 300.531L155.461 300.336L156.461 300.184L157.109 300.102L158.184 299.984L159.113 299.902L161.48 299.727L164.488 299.566L166.137 299.496L168 299.43L170.652 299.355L171.871 299.328L175.598 299.27L179.828 299.23L184.484 299.219L186.637 299.223L189.574 299.238L193.586 299.281L195.879 299.32L197.672 299.355L199.535 299.406L201.828 299.484L203.98 299.578L205.699 299.668L207.418 299.785L208.852 299.91L210.07 300.043L211.145 300.207L211.789 300.34L212.219 300.477H202.258L201.684 300.34L201.039 300.234L199.965 300.109L198.891 300.016L197.816 299.941L195.809 299.844L194.09 299.781L191.938 299.727L189.859 299.691L187.496 299.668L186.062 299.66H182.262L178.824 299.688L176.816 299.719L175.383 299.75L173.375 299.809L172.156 299.855L171.441 299.887L169.293 300.004L167.859 300.113L167.07 300.188L166.066 300.301L165.348 300.406L164.562 300.559L164.133 300.676L163.559 300.938L163.484 301.633L163.703 301.777L164.133 301.938L164.703 302.074L165.566 302.223L166.426 302.332L167.93 302.484L169.219 302.586L170.223 302.648L172.156 302.754L172.945 302.789L174.809 302.859L176.746 302.91L179.109 302.957L180.902 302.98L183.77 303H187.422L191.723 302.977L194.445 302.945L196.309 302.914L197.527 302.891L199.035 302.848L200.109 302.809L201.113 302.766L202.332 302.699V301.777L184.629 301.773V301.344L212.148 301.34L212.219 302.848L210.715 302.949L208.852 303.051L207.059 303.129L205.195 303.191L202.547 303.266L200.395 303.312L197.098 303.367L194.09 303.402L190.934 303.426L188.141 303.438L184.844 303.441L181.906 303.434L178.75 303.41L176.242 303.379L173.949 303.34L171.656 303.289L168.789 303.207L166.926 303.145L164.992 303.062L163.055 302.965L161.336 302.863L160.191 302.781L159.043 302.688L157.824 302.574L156.68 302.441L155.816 302.32L155.031 302.188L154.457 302.059L153.883 301.887L153.598 301.746L153.453 301.629V301.027Z" fill="#F7B32B"/>
<path d="M153.453 304.445H212.219V304.73H187.727V307.082H177.875V304.734L177.73 304.73H153.453V304.445Z" fill="#D62839"/>
<path d="M215.312 301.484L215.375 301.258L240.805 59.7422H248.527L274.082 301.711H265.102L258.699 238.551H230.633L224.355 301.484H215.312L233.332 212.422L256.125 212.195L244.762 99.2773L244.633 99.0508L244.508 99.7305L233.27 212.195L233.332 212.422L215.312 301.484Z" fill="#109648"/>
<path d="M215.312 307.832H215.387V307.809L215.602 307.77L216.102 307.719L216.605 307.684L217.895 307.621L219.684 307.562L221.547 307.516L222.91 307.488L224.129 307.469L226.922 307.43L228.715 307.41L230.652 307.391L233.016 307.375L234.734 307.363L238.605 307.348L241.473 307.34L243.695 307.336H248.496L251.363 307.34L253.441 307.344L255.734 307.355L257.668 307.363L261.039 307.387L264.047 307.414L265.41 307.434L267.559 307.465L269.207 307.496L270.355 307.523L271.645 307.562L272.793 307.609L273.652 307.664L274.082 307.707H264.047L263.547 307.664L262.973 307.633L261.898 307.59L260.824 307.559L259.316 307.531L257.957 307.512L256.094 307.488L254.445 307.477L252.723 307.469L251.074 307.461L247.922 307.457H242.906L240.109 307.465L238.605 307.473L236.457 307.488L234.949 307.5L233.16 307.523L231.941 307.539L230.434 307.566L229.359 307.59L228.141 307.625L227.426 307.652L226.781 307.68L226.207 307.715L225.777 307.754L225.492 307.789L225.348 307.828V307.992L225.492 308.027L225.848 308.07L226.781 308.137L228.141 308.191L229.719 308.234L231.223 308.266L232.082 308.281L233.23 308.297L235.023 308.32L237.602 308.34L239.105 308.348L241.402 308.355L243.766 308.359H246.918L249.715 308.355L251.578 308.352L253.512 308.344L256.164 308.324L257.812 308.309L259.246 308.289L260.32 308.27L261.039 308.25L262.113 308.219L262.973 308.184L263.617 308.148L264.047 308.113H274.082L273.652 308.152L273.008 308.195L272.363 308.227L271.359 308.262L270.211 308.293L268.562 308.332L267.203 308.355L265.41 308.379L263.762 308.398L261.969 308.418L259.316 308.438L257.598 308.449L255.734 308.457L253.512 308.469L250.719 308.473L247.707 308.48H244.914L241.902 308.477L239.68 308.473L236.742 308.465L233.086 308.445L230.434 308.426L228.355 308.406L226.566 308.383L224.559 308.355L221.98 308.309L220.402 308.273L219.328 308.246L218.109 308.203L217.25 308.168L216.246 308.109L215.527 308.035L215.312 307.977V307.832Z" fill="#255C99"/>
<path d="M215.312 309.918L215.387 309.914V309.898L215.672 309.855L216.387 309.801L217.32 309.754L218.324 309.715L218.969 309.695L220.043 309.668L220.977 309.648L223.34 309.609L226.352 309.57L228 309.551L229.863 309.539L232.516 309.52L233.73 309.512L237.461 309.5L241.688 309.488H248.496L251.434 309.492L255.449 309.5L257.742 309.512L259.531 309.52L261.395 309.531L263.691 309.551L265.84 309.57L267.559 309.594L269.281 309.621L270.715 309.652L271.93 309.684L273.008 309.723L273.652 309.754L274.082 309.785H264.121L263.547 309.754L262.902 309.727L261.824 309.699L260.75 309.676L259.676 309.66L257.668 309.637L255.949 309.621L253.801 309.609L251.723 309.598L249.355 309.594H244.125L240.684 309.598L238.676 309.605L237.242 309.613L235.238 309.625L234.02 309.637L233.301 309.645L231.152 309.672L229.719 309.699L228.93 309.715L227.926 309.742L227.211 309.77L226.422 309.805L225.992 309.832L225.418 309.895L225.348 310.059L225.562 310.094L225.992 310.133L226.566 310.164L227.426 310.199L228.285 310.227L229.789 310.262L231.082 310.285L232.082 310.301L234.02 310.328L234.809 310.336L236.672 310.352L238.605 310.363L240.973 310.375L242.762 310.379L245.629 310.387H249.285L253.586 310.379L256.309 310.371L258.172 310.363L259.391 310.359L260.895 310.348L261.969 310.34L262.973 310.328L264.191 310.312V310.094H246.488V309.992H274.008L274.082 310.348L272.578 310.371L270.715 310.398L268.922 310.414L267.059 310.43L264.406 310.449L262.258 310.461L258.961 310.473L255.949 310.48L252.797 310.484L250 310.488H243.766L240.613 310.48L238.105 310.477L235.812 310.465L233.516 310.453L230.652 310.434L228.789 310.418L226.852 310.398L224.918 310.375L223.195 310.352L222.051 310.332L220.902 310.312L219.684 310.285L218.539 310.254L217.68 310.223L216.891 310.191L216.316 310.16L215.742 310.121L215.457 310.086L215.312 310.059V309.918Z" fill="#F7B32B"/>
<path d="M215.312 302.719H274.082V303.105L249.59 303.109V306.328H239.734V303.109L239.594 303.105H215.312V302.719Z" fill="#D62839"/>
<path d="M277.176 310.488H277.238L302.664 310.43H310.387L335.941 310.488H326.965L320.559 310.473H292.496L286.215 310.488H277.176L295.195 310.469H317.984L306.621 310.438H306.371L295.133 310.469H295.195L277.176 310.488Z" fill="#109648"/>
<path d="M277.176 205.539L277.246 205.426V202.766L277.461 198.555L277.961 193.23L278.465 189.574L279.754 183.031L281.547 176.711L283.41 171.832L284.77 168.949L285.988 166.734L288.785 162.633L290.578 160.523L292.512 158.641L294.875 156.754L296.598 155.645L300.465 153.871L303.332 153.098L305.555 152.762H310.355L313.223 153.207L315.301 153.762L317.594 154.648L319.531 155.645L322.898 158.086L325.91 161.191L327.27 162.965L329.422 166.402L331.07 169.727L332.215 172.609L333.504 176.711L334.652 181.699L335.512 187.355L335.941 192.121H325.91L325.406 187.688L324.832 184.25L323.758 179.707L322.684 176.488L321.18 173.273L319.816 171.168L317.953 169.062L316.305 167.73L314.586 166.734L312.938 166.066L309.785 165.402H306.129L304.766 165.625L301.973 166.512L300.465 167.289L298.316 168.84L296.812 170.281L295.02 172.5L293.801 174.383L292.297 177.266L291.223 179.816L290.004 183.477L289.285 186.246L288.641 189.352L288.066 193.012L287.637 196.891L287.352 200.992L287.207 204.984V222.168L287.352 226.16L287.711 230.816L288.641 237.582L290.004 243.457L291.578 248.113L293.086 251.438L293.945 252.992L295.09 254.766L296.883 256.984L299.465 259.199L300.969 260.086L303.262 260.973L305.625 261.418H308.781L311.574 260.973L313.438 260.418L315.375 259.531L318.023 257.648L319.672 255.875L321.105 253.766L322.184 251.66L322.898 249.887L323.973 246.449L324.832 242.68L325.48 238.801L325.91 235.031H335.941L335.512 239.465L334.867 243.789L334.223 247.004L333.219 250.887L332.07 254.32L330.422 258.203L329.062 260.754L327.27 263.523L325.621 265.629L323.832 267.516L321.18 269.734L319.457 270.84L317.594 271.84L315.375 272.727L312.578 273.504L309.57 273.945L306.773 274.059L303.762 273.836L301.543 273.391L298.602 272.395L294.949 270.398L292.297 268.293L290.219 266.184L288.426 263.969L286.418 260.973L283.84 256.098L282.262 252.328L281.188 249.223L279.969 244.898L279.109 241.016L278.105 234.809L277.391 226.938L277.176 220.84V205.539Z" fill="#255C99"/>
<path d="M277.176 288.598L277.246 288.57V287.992L277.531 286.695L278.25 284.906L279.18 283.434L280.184 282.277L280.828 281.672L281.906 280.809L282.836 280.172L285.203 278.875L288.211 277.66L289.859 277.141L291.723 276.652L294.375 276.102L295.594 275.902L299.32 275.438L303.547 275.152L308.207 275.062L310.355 275.094L313.297 275.207L317.309 275.527L319.602 275.812L321.395 276.102L323.258 276.477L325.551 277.055L327.699 277.75L329.422 278.441L331.141 279.305L332.574 280.23L333.793 281.238L334.867 282.453L335.512 283.461L335.941 284.473H325.98L325.406 283.461L324.762 282.684L323.688 281.73L322.613 281.039L321.535 280.488L319.531 279.738L317.809 279.277L315.66 278.875L313.582 278.613L311.215 278.441L309.785 278.383H305.984L302.547 278.586L300.539 278.816L299.105 279.047L297.098 279.48L295.879 279.824L295.164 280.059L293.012 280.953L291.578 281.758L290.793 282.309L289.789 283.172L289.07 283.953L288.281 285.105L287.852 285.973L287.281 287.938L287.207 293.129L287.422 294.227L287.852 295.41L288.426 296.449L289.285 297.547L290.145 298.383L291.652 299.508L292.941 300.258L293.945 300.75L295.879 301.527L296.668 301.789L298.531 302.309L300.465 302.711L302.832 303.059L304.625 303.23L307.488 303.375H311.145L315.445 303.203L318.168 302.973L320.031 302.742L321.25 302.539L322.754 302.223L323.832 301.934L324.832 301.617L326.051 301.125V294.227L308.352 294.199V290.965L335.871 290.938L335.941 302.223L334.438 303L332.574 303.75L330.781 304.328L328.918 304.82L326.266 305.367L324.117 305.715L320.82 306.117L317.809 306.379L314.656 306.551L311.863 306.637L308.566 306.668L305.625 306.609L302.473 306.434L299.965 306.203L297.672 305.914L295.379 305.539L292.512 304.934L290.648 304.445L288.715 303.836L286.777 303.117L285.059 302.336L283.91 301.73L282.766 301.039L281.547 300.172L280.398 299.191L279.539 298.297L278.75 297.285L278.18 296.336L277.605 295.035L277.316 293.996L277.176 293.102V288.598Z" fill="#F7B32B"/>
<path d="M277.176 307.672H335.941V307.859L311.449 307.863V309.422H301.594V307.863L301.453 307.859H277.176V307.672Z" fill="#D62839"/>
<path d="M339.035 309.469H339.098L364.527 307.289H372.25L397.805 309.473H388.824L382.422 308.902H354.355L348.078 309.469H339.035L357.055 308.664H379.848L368.48 307.645H368.355L368.23 307.648L356.992 308.664H357.055L339.035 309.469Z" fill="#109648"/>
<path d="M339.035 222.254L339.105 222.191V220.68L339.32 218.289L339.824 215.266L340.324 213.188L341.617 209.473L343.406 205.883L345.27 203.109L346.633 201.473L347.852 200.215L350.645 197.883L352.438 196.688L354.371 195.617L356.738 194.547L358.457 193.918L362.328 192.91L365.195 192.469L367.414 192.281H372.219L375.086 192.531L377.164 192.848L379.457 193.352L381.391 193.918L384.758 195.301L387.77 197.066L389.133 198.074L391.281 200.023L392.93 201.914L394.078 203.551L395.367 205.883L396.512 208.715L397.375 211.926L397.805 214.637H387.77L387.27 212.117L386.695 210.164L385.621 207.582L384.543 205.758L383.039 203.93L381.68 202.734L379.816 201.535L378.168 200.781L376.445 200.215L374.797 199.836L371.645 199.457H367.988L366.629 199.586L363.832 200.09L362.328 200.527L360.176 201.41L358.672 202.23L356.879 203.488L355.664 204.559L354.156 206.195L353.082 207.645L351.863 209.723L351.148 211.297L350.504 213.062L349.93 215.141L349.5 217.344L349.211 219.672L349.07 221.941V231.703L349.211 233.969L349.57 236.613L350.504 240.453L351.863 243.793L353.441 246.438L354.945 248.328L355.805 249.207L356.953 250.215L358.742 251.477L361.324 252.734L362.828 253.238L365.121 253.742L367.488 253.992H370.641L373.438 253.742L375.301 253.426L377.234 252.922L379.887 251.852L381.535 250.844L382.969 249.648L384.043 248.453L384.758 247.445L385.836 245.492L386.695 243.352L387.34 241.148L387.77 239.008H397.805L397.375 241.523L396.727 243.98L396.082 245.809L395.078 248.012L393.934 249.965L392.285 252.168L390.922 253.617L389.133 255.191L387.484 256.387L385.691 257.457L383.039 258.719L381.32 259.348L379.457 259.914L377.234 260.418L374.438 260.859L371.43 261.109L368.633 261.172L365.625 261.047L363.402 260.797L360.465 260.23L356.809 259.094L354.156 257.898L352.078 256.703L350.289 255.441L348.281 253.742L345.699 250.973L344.125 248.832L343.047 247.066L341.832 244.609L340.969 242.406L339.969 238.879L339.25 234.41L339.035 230.945V222.254Z" fill="#255C99"/>
<path d="M339.035 281.07L339.105 281.027V280.223L339.395 278.41L340.109 275.914L341.043 273.859L342.047 272.25L342.691 271.402L343.766 270.195L344.695 269.309L347.062 267.496L350.07 265.805L351.719 265.078L353.582 264.395L356.234 263.629L357.453 263.348L361.18 262.703L365.41 262.301L370.066 262.18L372.219 262.219L375.156 262.383L379.168 262.824L381.461 263.227L383.254 263.629L385.117 264.152L387.41 264.961L389.562 265.926L391.281 266.891L393 268.102L394.434 269.391L395.652 270.801L396.727 272.492L397.375 273.902L397.805 275.309H387.84L387.27 273.902L386.621 272.812L385.547 271.484L384.473 270.516L383.398 269.754L381.391 268.703L379.672 268.059L377.52 267.496L375.441 267.133L373.078 266.891L371.645 266.812H367.848L364.406 267.094L362.398 267.418L360.965 267.738L358.961 268.344L357.742 268.824L357.023 269.148L354.875 270.395L353.441 271.523L352.652 272.289L351.648 273.496L350.934 274.586L350.145 276.195L349.715 277.406L349.141 280.145L349.07 287.395L349.285 288.922L349.715 290.574L350.289 292.023L351.148 293.555L352.008 294.723L353.512 296.293L354.801 297.34L355.805 298.027L357.742 299.113L358.527 299.477L360.391 300.199L362.328 300.766L364.691 301.246L366.484 301.488L369.352 301.691H373.008L377.305 301.449L380.031 301.125L381.895 300.805L383.109 300.523L384.617 300.078L385.691 299.676L386.695 299.234L387.914 298.551V288.922L370.211 288.883V284.371L397.73 284.332L397.805 300.078L396.297 301.168L394.434 302.215L392.645 303.02L390.781 303.703L388.129 304.469L385.977 304.953L382.68 305.516L379.672 305.879L376.52 306.121L373.723 306.242L370.426 306.281L367.488 306.203L364.336 305.961L361.824 305.637L359.531 305.234L357.238 304.711L354.371 303.867L352.508 303.18L350.574 302.336L348.641 301.328L346.918 300.242L345.773 299.395L344.625 298.43L343.406 297.219L342.262 295.852L341.398 294.602L340.613 293.191L340.039 291.863L339.465 290.051L339.18 288.602L339.035 287.352V281.07Z" fill="#F7B32B"/>
<path d="M339.035 310.477H397.805V310.48H373.312V310.488H363.457V310.48H339.035V310.477Z" fill="#D62839"/>
<path d="M400.895 305.441L400.957 305.438L426.387 301.926H434.109L459.664 305.445H450.688L444.281 304.527H416.215L409.938 305.441H400.895L418.914 304.145H441.707L430.344 302.5H430.219L430.09 302.508L418.852 304.145H418.914L400.895 305.441Z" fill="#109648"/>
<path d="M400.895 307.527L400.969 307.523V307.469L401.184 307.383L401.684 307.277L402.188 307.199L403.477 307.066L405.27 306.938L407.133 306.84L408.492 306.781L409.711 306.734L412.508 306.652L414.297 306.609L416.234 306.57L418.598 306.531L420.316 306.508L424.188 306.473L427.055 306.457L429.277 306.449H434.078L436.945 306.461L439.023 306.473L441.316 306.488L443.254 306.508L446.621 306.559L449.629 306.621L450.992 306.66L453.141 306.73L454.789 306.797L455.938 306.855L457.227 306.938L458.375 307.039L459.234 307.156L459.664 307.254H449.629L449.129 307.164L448.555 307.094L447.48 307L446.406 306.934L444.898 306.867L443.539 306.824L441.676 306.781L440.027 306.754L438.309 306.734L436.66 306.723L433.504 306.707H429.852L428.488 306.711L425.691 306.73L424.188 306.746L422.039 306.777L420.535 306.809L418.742 306.852L417.523 306.891L416.02 306.949L414.941 307.004L413.727 307.078L413.008 307.133L412.363 307.195L411.789 307.27L411.359 307.352L411.074 307.434L410.93 307.516V307.867L411.074 307.945L411.43 308.043L412.363 308.18L413.727 308.301L415.301 308.395L416.805 308.461L417.668 308.492L418.812 308.531L420.605 308.574L423.184 308.621L424.691 308.637L426.984 308.656L429.348 308.664H432.5L435.297 308.656L437.16 308.645L439.094 308.629L441.746 308.59L443.395 308.551L444.828 308.512L445.902 308.469L446.621 308.43L447.695 308.359L448.555 308.285L449.199 308.203L449.629 308.129H459.664L459.234 308.219L458.59 308.305L457.945 308.371L456.941 308.449L455.793 308.52L454.145 308.602L452.785 308.652L450.992 308.707L449.344 308.75L447.551 308.789L444.898 308.836L443.18 308.859L441.316 308.879L439.094 308.895L436.301 308.914L433.289 308.922H430.496L427.484 308.918L425.262 308.91L422.324 308.891L418.668 308.848L416.02 308.805L413.941 308.762L412.148 308.719L410.141 308.656L407.562 308.559L405.984 308.48L404.91 308.418L403.691 308.328L402.832 308.25L401.828 308.125L401.109 307.961L400.895 307.84V307.527Z" fill="#255C99"/>
<path d="M400.895 310.168H400.969V310.16L401.254 310.137L401.973 310.105L402.902 310.078L403.906 310.059L404.551 310.047L405.625 310.031L406.559 310.02L408.922 309.996L411.934 309.977L413.582 309.969L415.445 309.957L418.098 309.949L419.316 309.945L423.043 309.938L427.27 309.934L431.93 309.93H434.078L437.016 309.934L441.031 309.938L443.324 309.945L445.117 309.949L446.98 309.957L449.273 309.965L451.422 309.977L453.141 309.988L454.863 310.004L456.297 310.023L457.516 310.039L458.59 310.062L459.234 310.078L459.664 310.098H449.703L449.129 310.078L447.41 310.047L446.332 310.035L445.258 310.027L443.254 310.012L441.531 310.004L439.383 309.996L437.305 309.992L434.938 309.988H429.707L426.266 309.992L424.262 309.996L422.828 310L420.82 310.008L419.602 310.016L418.887 310.02L416.734 310.035L415.301 310.051L414.512 310.059L413.512 310.074L412.793 310.086L412.004 310.109L411.574 310.125L411 310.156L410.93 310.25L411.145 310.27L411.574 310.289L412.148 310.309L413.008 310.328L413.867 310.344L415.375 310.363L416.664 310.375L417.668 310.383L419.602 310.398L420.391 310.402L422.254 310.414L424.188 310.418L426.555 310.426L428.344 310.43H439.168L441.891 310.426L443.754 310.418H444.973L446.477 310.41L447.551 310.406L448.555 310.398L449.773 310.391V310.27H432.07V310.211H459.594L459.664 310.41L458.16 310.426L456.297 310.438L454.504 310.449L452.641 310.457L449.988 310.465L447.84 310.473L444.543 310.48L441.531 310.484L438.379 310.488H429.348L426.195 310.484L423.688 310.48L421.395 310.477L419.102 310.469L416.234 310.457L414.371 310.449L412.434 310.438L410.5 310.426L408.781 310.414L406.484 310.391L405.27 310.375L404.121 310.355L403.262 310.34L402.473 310.324L401.898 310.305L401.328 310.285L401.039 310.266L400.895 310.25V310.168Z" fill="#F7B32B"/>
<path d="M400.895 63.0078H459.664V88.4727L435.172 88.6953V300.922H425.316V88.918L425.176 88.4727H400.895V63.0078Z" fill="#D62839"/>
<path d="M462.758 310.488H462.82L488.25 309.379H495.973L521.523 310.488H512.547L506.141 310.199H478.078L471.797 310.488H462.758L480.777 310.082L503.566 310.078L492.203 309.562L492.078 309.559L491.953 309.562L480.715 310.078L480.777 310.082L462.758 310.488Z" fill="#109648"/>
<path d="M462.758 302.363L462.828 302.359V302.219L463.043 301.996L463.547 301.715L464.047 301.52L465.336 301.176L467.129 300.84L468.992 300.582L470.355 300.43L471.57 300.312L474.367 300.094L476.16 299.984L478.094 299.883L480.461 299.785L482.18 299.727L486.051 299.633L488.914 299.59L491.137 299.574H495.938L498.805 299.598L500.883 299.625L503.18 299.672L505.113 299.727L508.48 299.855L511.492 300.02L512.852 300.113L515.004 300.293L516.652 300.469L517.797 300.621L519.09 300.84L520.234 301.105L521.094 301.402L521.523 301.656H511.492L510.988 301.422L510.418 301.238L509.34 301L508.266 300.828L506.762 300.656L505.398 300.547L503.535 300.434L501.887 300.363L500.168 300.312L498.52 300.277L495.367 300.242H491.711L490.348 300.254L487.555 300.301L486.051 300.34L483.898 300.422L482.395 300.5L480.602 300.617L479.383 300.715L477.879 300.867L476.805 301.004L475.586 301.199L474.867 301.344L474.223 301.508L473.652 301.703L473.219 301.906L472.934 302.125L472.789 302.336V303.246L472.934 303.457L473.293 303.703L474.223 304.059L475.586 304.371L477.164 304.617L478.668 304.793L479.527 304.875L480.676 304.969L482.465 305.086L485.047 305.203L486.551 305.25L488.844 305.297L491.211 305.32H494.363L497.156 305.297L499.02 305.266L500.957 305.219L503.609 305.121L505.258 305.027L506.691 304.914L507.766 304.805L508.48 304.711L509.555 304.527L510.418 304.328L511.062 304.125L511.492 303.926H521.523L521.094 304.16L520.449 304.387L519.805 304.559L518.801 304.762L517.656 304.945L516.008 305.148L514.645 305.285L512.852 305.43L511.203 305.543L509.414 305.645L506.762 305.762L505.043 305.82L503.18 305.871L500.957 305.918L498.16 305.961L495.152 305.984L492.355 305.988L489.348 305.977L487.125 305.953L484.188 305.902L480.531 305.797L477.879 305.684L475.801 305.574L474.008 305.453L472.004 305.297L469.422 305.039L467.844 304.84L466.77 304.676L465.551 304.445L464.691 304.242L463.688 303.914L462.973 303.496L462.758 303.172V302.363Z" fill="#255C99"/>
<path d="M462.758 168.844L462.828 168.637V164.492L463.117 155.164L463.832 142.316L464.766 131.75L465.766 123.461L466.414 119.109L467.488 112.891L468.418 108.332L470.785 99.0078L473.793 90.3047L475.441 86.5742L477.305 83.0508L479.957 79.1133L481.176 77.6641L484.902 74.3477L489.133 72.2773L493.789 71.6523L495.938 71.8594L498.879 72.6914L502.891 74.9688L505.184 77.043L506.977 79.1133L508.84 81.8086L511.133 85.9531L513.281 90.9258L515.004 95.8984L516.723 102.117L518.156 108.746L519.375 116L520.449 124.703L521.094 131.957L521.523 139.211H511.562L510.988 131.957L510.344 126.363L509.27 119.523L508.195 114.551L507.121 110.613L505.113 105.223L503.395 101.91L501.242 99.0078L499.164 97.1445L496.801 95.8984L495.367 95.4844H491.566L488.129 96.9336L486.121 98.5938L484.688 100.25L482.68 103.359L481.461 105.848L480.746 107.504L478.598 113.93L477.164 119.73L476.375 123.668L475.371 129.883L474.652 135.48L473.867 143.77L473.438 149.984L472.863 164.078L472.789 201.379L473.004 209.25L473.438 217.746L474.008 225.207L474.867 233.082L475.73 239.094L477.234 247.176L478.523 252.562L479.527 256.086L481.461 261.68L482.25 263.543L484.113 267.273L486.051 270.176L488.414 272.664L490.207 273.906L493.074 274.941H496.727L501.027 273.699L503.75 272.043L505.613 270.383L506.832 268.934L508.34 266.652L509.414 264.582L510.418 262.301L511.633 258.777V209.25L493.934 209.043V185.836L521.453 185.629L521.523 266.652L520.02 272.25L518.156 277.637L516.363 281.781L514.5 285.305L511.852 289.242L509.699 291.727L506.402 294.629L503.395 296.492L500.238 297.738L497.445 298.359L494.148 298.566L491.211 298.152L488.055 296.91L485.547 295.25L483.254 293.18L480.961 290.484L478.094 286.133L476.23 282.609L474.297 278.258L472.359 273.078L470.641 267.48L469.492 263.129L468.348 258.156L467.129 251.941L465.98 244.895L465.121 238.469L464.332 231.219L463.762 224.379L463.188 215.055L462.902 207.594L462.758 201.172V168.844Z" fill="#F7B32B"/>
<path d="M462.758 306.996H521.523V307.145H497.031V308.375H487.18V307.145H462.758V306.996Z" fill="#D62839"/>
<path d="M524.617 296.43L524.68 296.227L550.109 81.8711H557.832L583.387 296.629H574.406L568.004 240.57H539.938L533.66 296.43H524.617L542.637 217.383L565.43 217.18L554.066 116.957L553.938 116.758L553.812 117.363L542.574 217.18L542.637 217.383L524.617 296.43Z" fill="#109648"/>
<path d="M524.617 305.184H524.691V305.121L524.906 305.023L525.406 304.902L525.906 304.816L527.199 304.668L528.988 304.523L530.852 304.41L532.215 304.344L533.434 304.293L536.227 304.199L538.02 304.148L539.953 304.105L542.32 304.062L544.039 304.039L547.91 303.996L550.777 303.98L553 303.973H557.801L560.668 303.98L562.746 303.996L565.039 304.016L566.973 304.039L570.344 304.094L573.352 304.164L574.715 304.207L576.863 304.285L578.512 304.363L579.66 304.43L580.949 304.523L582.098 304.637L582.957 304.766L583.387 304.875H573.352L572.852 304.773L572.277 304.695L571.203 304.59L570.129 304.516L568.621 304.441L567.262 304.395L565.398 304.348L563.75 304.316L562.027 304.293L560.379 304.277L557.227 304.262H553.57L552.211 304.266L549.414 304.289L547.91 304.305L545.762 304.34L544.254 304.375L542.465 304.426L541.246 304.469L539.738 304.535L538.664 304.594L537.445 304.676L536.73 304.742L536.086 304.812L535.512 304.898L535.082 304.984L534.793 305.082L534.652 305.172V305.566L534.793 305.66L535.152 305.766L536.086 305.922L537.445 306.055L539.023 306.164L540.527 306.238L541.387 306.273L542.535 306.316L544.328 306.367L546.906 306.418L548.41 306.438L550.707 306.457L553.07 306.469H556.223L559.02 306.457L560.883 306.445L562.816 306.426L565.469 306.383L567.117 306.34L568.551 306.293L569.625 306.246L570.344 306.203L571.418 306.125L572.277 306.039L572.922 305.949L573.352 305.863H583.387L582.957 305.965L582.312 306.062L581.664 306.137L580.664 306.227L579.516 306.305L577.867 306.395L576.504 306.453L574.715 306.516L573.066 306.566L571.273 306.609L568.621 306.66L566.902 306.684L565.039 306.707L562.816 306.73L560.023 306.746L557.012 306.758H554.219L551.207 306.754L548.984 306.742L546.047 306.723L542.391 306.676L539.738 306.625L537.66 306.578L535.871 306.527L533.863 306.457L531.281 306.348L529.707 306.262L528.633 306.188L527.414 306.09L526.555 306L525.551 305.855L524.832 305.676L524.617 305.535V305.184Z" fill="#255C99"/>
<path d="M524.617 308.934L524.691 308.93V308.879L524.977 308.77L525.691 308.613L526.625 308.488L527.629 308.387L528.273 308.336L529.348 308.262L530.281 308.207L532.645 308.094L535.656 307.988L537.305 307.945L539.168 307.902L541.816 307.855L543.035 307.84L546.762 307.797L550.992 307.773L555.648 307.766L557.801 307.77L560.738 307.777L564.754 307.805L567.047 307.832L568.836 307.855L570.699 307.887L572.992 307.938L575.145 307.996L576.863 308.059L578.586 308.133L580.016 308.211L581.234 308.297L582.312 308.402L582.957 308.488L583.387 308.578H573.426L572.852 308.488L572.207 308.422L571.129 308.34L570.055 308.281L568.98 308.234L566.973 308.168L565.254 308.129L563.105 308.094L561.023 308.07L558.66 308.059L557.227 308.051H553.43L549.988 308.07L547.98 308.09L546.547 308.109L544.543 308.148L543.324 308.176L542.605 308.195L540.457 308.273L539.023 308.344L538.234 308.391L537.23 308.465L536.516 308.531L535.727 308.633L535.297 308.707L534.723 308.875L534.652 309.324L534.867 309.418L535.297 309.52L535.871 309.609L536.73 309.703L537.59 309.777L539.094 309.871L540.387 309.938L541.387 309.98L543.324 310.047L544.113 310.07L545.977 310.113L547.91 310.148L550.273 310.18L552.066 310.195L554.934 310.207H558.59L562.891 310.191L565.613 310.172L567.477 310.152L568.695 310.133L570.199 310.105L571.273 310.082L572.277 310.055L573.496 310.012V309.418L555.793 309.414V309.137L583.312 309.133L583.387 310.105L581.879 310.172L580.016 310.238L578.227 310.289L576.363 310.332L573.711 310.379L571.559 310.406L568.266 310.441L565.254 310.465L562.102 310.48L559.305 310.488H556.008L553.07 310.484L549.918 310.469L547.41 310.449L545.113 310.426L542.82 310.391L539.953 310.34L538.09 310.297L536.156 310.246L534.223 310.184L532.5 310.117L531.355 310.062L530.207 310.004L528.988 309.93L527.844 309.844L526.984 309.77L526.195 309.68L525.621 309.598L525.047 309.488L524.762 309.398L524.617 309.32V308.934Z" fill="#F7B32B"/>
<path d="M524.617 297.637H583.387V298.207L558.895 298.211V302.965H549.039V298.219L548.895 298.207H524.617V297.637Z" fill="#D62839"/>
<path d="M586.48 310.488H586.543L611.969 309.219H619.691L645.246 310.488H636.27L629.863 310.156H601.797L595.52 310.488H586.48L604.5 310.02H627.289L615.926 309.426H615.801L615.676 309.43L604.438 310.02H604.5L586.48 310.488Z" fill="#109648"/>
<path d="M586.48 287.254L586.551 287.234V286.742L586.766 285.957L587.266 284.969L587.77 284.293L589.059 283.078L590.852 281.902L592.715 281L594.074 280.465L595.293 280.051L598.09 279.289L599.879 278.898L601.816 278.551L604.18 278.199L605.902 277.992L609.77 277.664L612.637 277.52L614.859 277.461H619.66L622.527 277.543L624.605 277.645L626.898 277.809L628.836 277.992L632.203 278.445L635.215 279.023L636.574 279.352L638.727 279.992L640.375 280.609L641.52 281.145L642.809 281.902L643.957 282.832L644.816 283.879L645.246 284.766H635.215L634.711 283.941L634.137 283.305L633.062 282.461L631.988 281.863L630.484 281.266L629.121 280.875L627.258 280.484L625.609 280.238L623.891 280.051L622.242 279.93L619.086 279.805H615.434L614.07 279.848L611.277 280.012L609.77 280.156L607.621 280.441L606.117 280.711L604.324 281.121L603.105 281.473L601.602 282.008L600.527 282.48L599.309 283.16L598.59 283.676L597.945 284.25L597.371 284.93L596.941 285.648L596.656 286.41L596.512 287.152V290.34L596.656 291.082L597.016 291.945L597.945 293.203L599.309 294.293L600.883 295.156L602.391 295.773L603.25 296.062L604.395 296.391L606.188 296.805L608.766 297.215L610.273 297.379L612.566 297.543L614.93 297.625H618.086L620.879 297.543L622.742 297.441L624.68 297.277L627.328 296.926L628.977 296.598L630.41 296.207L631.488 295.816L632.203 295.488L633.277 294.848L634.137 294.148L634.781 293.43L635.215 292.73H645.246L644.816 293.551L644.172 294.355L643.527 294.953L642.523 295.672L641.375 296.309L639.727 297.031L638.367 297.504L636.574 298.02L634.926 298.41L633.133 298.758L630.484 299.172L628.762 299.375L626.898 299.562L624.68 299.727L621.883 299.871L618.871 299.953L616.078 299.973L613.066 299.93L610.848 299.848L607.906 299.664L604.254 299.293L601.602 298.902L599.523 298.512L597.73 298.102L595.723 297.543L593.145 296.641L591.566 295.938L590.492 295.363L589.273 294.559L588.414 293.84L587.41 292.688L586.695 291.227L586.48 290.094V287.254Z" fill="#255C99"/>
<path d="M586.48 304.078L586.551 304.07V303.938L586.836 303.641L587.555 303.23L588.484 302.895L589.488 302.633L590.133 302.492L591.207 302.293L592.141 302.148L594.504 301.852L597.516 301.574L599.164 301.457L601.027 301.344L603.68 301.219L604.898 301.172L608.625 301.066L612.852 301L617.512 300.98L619.66 300.988L622.598 301.012L626.613 301.086L628.906 301.152L630.699 301.219L632.562 301.305L634.855 301.434L637.004 301.594L638.727 301.754L640.445 301.949L641.879 302.16L643.098 302.395L644.172 302.672L644.816 302.902L645.246 303.133H635.285L634.711 302.902L634.066 302.723L632.992 302.504L631.918 302.348L630.84 302.223L628.836 302.051L627.113 301.945L624.965 301.852L622.887 301.793L620.52 301.754L619.086 301.738H615.289L611.848 301.785L609.844 301.84L608.41 301.891L606.402 301.992L605.184 302.07L604.469 302.121L602.316 302.328L600.883 302.512L600.098 302.637L599.094 302.836L598.375 303.016L597.586 303.277L597.156 303.477L596.586 303.926L596.512 305.113L596.727 305.363L597.156 305.637L597.73 305.875L598.59 306.125L599.449 306.316L600.957 306.574L602.246 306.746L603.25 306.859L605.184 307.035L605.973 307.094L607.836 307.215L609.77 307.309L612.137 307.387L613.926 307.426L616.793 307.457H620.449L624.75 307.418L627.473 307.367L629.336 307.312L630.555 307.266L632.059 307.195L633.133 307.129L634.137 307.055L635.355 306.945V305.363L617.656 305.359V304.617L645.176 304.613L645.246 307.195L643.742 307.371L641.879 307.543L640.086 307.676L638.223 307.789L635.57 307.914L633.422 307.992L630.125 308.086L627.113 308.145L623.961 308.184L621.168 308.203L617.871 308.211L614.93 308.199L611.777 308.16L609.27 308.105L606.977 308.039L604.684 307.953L601.816 307.816L599.953 307.703L598.016 307.562L596.082 307.398L594.363 307.223L593.215 307.082L592.07 306.922L590.852 306.727L589.703 306.5L588.844 306.297L588.055 306.066L587.48 305.848L586.91 305.551L586.621 305.312L586.48 305.109V304.078Z" fill="#F7B32B"/>
<path d="M586.48 196.137H645.246V204.734L620.754 204.809V276.453H610.898V204.887L610.758 204.734H586.48V196.137Z" fill="#D62839"/>
</g>
<defs>
<clipPath id="clip0_3_1677">
<rect width="682" height="322" fill="white"/>
</clipPath>
</defs>
</svg>
