<svg width="682" height="322" viewBox="0 0 682 322" fill="none" xmlns="http://www.w3.org/2000/svg">
<g clip-path="url(#clip0_3_1810)">
<path d="M768 -36H-96V396H768V-36Z" fill="white"/>
<path d="M43.7305 261.355L43.793 261.262L69.2227 161.141H76.9453L102.5 261.449H93.5195L87.1172 235.266H59.0508L52.7734 261.355H43.7305L61.75 224.434L84.543 224.34L73.1758 177.527L73.0508 177.434L72.9258 177.719L61.6875 224.34L61.75 224.434L43.7305 261.355Z" fill="#109648"/>
<path d="M43.7305 310.281H43.8008V310.277H44.0195L45.0195 310.27L46.3125 310.266L48.1016 310.258L49.9648 310.254H51.3281L52.5469 310.25H55.3398L57.1328 310.246H59.0664L61.4336 310.242H86.0859L89.457 310.246H92.4648L93.8281 310.25H95.9766L97.625 310.254L98.7734 310.258H100.062L101.207 310.262L102.07 310.266L102.5 310.27H92.4648L91.9648 310.266H91.3906L90.3164 310.262L89.2383 310.258H87.7344L86.375 310.254H82.8633L81.1406 310.25H67.0234L64.8711 310.254H63.3672L61.5781 310.258H58.8516L57.7773 310.262L56.5586 310.266H55.8438L55.1992 310.27H54.625L54.1953 310.273L53.9062 310.277L53.7656 310.281V310.293L53.9062 310.297L54.2656 310.301L55.1992 310.305L56.5586 310.309L58.1367 310.312L59.6406 310.316H61.6484L63.4414 310.32H67.5234L69.8164 310.324H78.1328L79.9961 310.32H86.2305L87.6641 310.316H88.7383L89.457 310.312H90.5312L91.3906 310.309L92.0352 310.305H102.5H102.07L101.422 310.309L100.777 310.312L99.7773 310.316H98.6289L96.9805 310.32L95.6172 310.324H92.1797L90.3867 310.328H86.0156L84.1523 310.332H65.1602L61.5039 310.328H56.7734L54.9844 310.324H52.9766L50.3945 310.32L48.8203 310.316L47.7461 310.312L46.5273 310.309H45.6641L44.6641 310.305L43.9453 310.297L43.7305 310.293V310.281Z" fill="#255C99"/>
<path d="M43.7305 282.512L43.8008 282.469V281.621L44.0898 279.711L44.8047 277.078L45.7383 274.914L46.7422 273.215L47.3867 272.324L48.4609 271.051L49.3945 270.117L51.7578 268.207L54.7695 266.422L56.418 265.66L58.2812 264.938L60.9297 264.129L62.1484 263.832L65.875 263.152L70.1055 262.73L74.7617 262.602L76.9141 262.645L79.8516 262.812L83.8633 263.281L86.1602 263.707L87.9492 264.129L89.8125 264.684L92.1055 265.531L94.2578 266.551L95.9766 267.57L97.6953 268.844L99.1289 270.199L100.348 271.688L101.422 273.469L102.07 274.957L102.5 276.441H92.5352L91.9648 274.957L91.3203 273.809L90.2422 272.41L89.168 271.391L88.0938 270.582L86.0859 269.48L84.3672 268.801L82.2148 268.207L80.1367 267.824L77.7734 267.57L76.3398 267.484H72.543L69.1016 267.781L67.0938 268.121L65.6602 268.461L63.6562 269.098L62.4375 269.605L61.7188 269.945L59.5703 271.262L58.1367 272.449L57.3477 273.258L56.3438 274.531L55.6289 275.676L54.8398 277.375L54.4102 278.648L53.8359 281.535L53.7656 289.176L53.9805 290.789L54.4102 292.531L54.9844 294.059L55.8438 295.672L56.7031 296.902L58.207 298.559L59.4961 299.664L60.5 300.383L62.4375 301.531L63.2266 301.914L65.0898 302.676L67.0234 303.273L69.3867 303.781L71.1797 304.035L74.0469 304.246H77.7031L82 303.992L84.7266 303.652L86.5898 303.312L87.8086 303.016L89.3125 302.551L90.3867 302.125L91.3906 301.66L92.6094 300.938V290.789L74.9062 290.746V285.992L102.426 285.949L102.5 302.551L100.992 303.695L99.1289 304.801L97.3398 305.648L95.4766 306.371L92.8242 307.176L90.6719 307.688L87.375 308.281L84.3672 308.664L81.2148 308.918L78.418 309.047L75.1211 309.086L72.1836 309.004L69.0312 308.746L66.5195 308.41L64.2266 307.984L61.9336 307.434L59.0664 306.539L57.2031 305.82L55.2695 304.926L53.3359 303.867L51.6133 302.719L50.4688 301.828L49.3203 300.809L48.1016 299.535L46.957 298.094L46.0977 296.777L45.3086 295.289L44.7344 293.891L44.1602 291.98L43.875 290.449L43.7305 289.133V282.512Z" fill="#F7B32B"/>
<path d="M105.594 309.117H105.656L131.082 308.301H138.805L164.359 309.117H155.383L148.977 308.906H120.91L114.633 309.117H105.594L123.613 308.816H146.402L135.039 308.434H134.914L134.789 308.438L123.547 308.816H123.613L105.594 309.117Z" fill="#109648"/>
<path d="M105.594 35.6172H164.359V64.6836L139.867 64.9375V307.148H130.012V65.1914L129.871 64.6836H105.594V35.6172Z" fill="#D62839"/>
<path d="M167.453 147.887L167.523 147.625V141.336L167.738 131.375L168.242 118.797L168.742 110.145L170.031 94.6836L171.824 79.7422L173.688 68.2109L175.051 61.3984L176.27 56.1562L179.062 46.457L180.855 41.4805L182.789 37.0234L185.156 32.5664L186.875 29.9453L190.746 25.7539L193.613 23.918L195.832 23.1328H200.637L203.5 24.1797L205.582 25.4922L207.875 27.5898L209.809 29.9453L213.176 35.7148L216.188 43.0508L217.547 47.2461L219.699 55.3711L221.348 63.2305L222.492 70.0469L223.785 79.7422L224.93 91.5391L225.789 104.906L226.219 116.176H216.188L215.684 105.691L215.113 97.5664L214.035 86.8203L212.961 79.2188L211.457 71.6211L210.094 66.6406L208.23 61.6602L206.582 58.5156L204.863 56.1562L203.215 54.582L200.062 53.0117H196.406L195.043 53.5352L192.25 55.6328L190.746 57.4648L188.594 61.1367L187.09 64.543L185.297 69.7852L184.078 74.2383L182.574 81.0547L181.5 87.082L180.281 95.7305L179.566 102.285L178.918 109.621L178.348 118.27L177.918 127.445L177.629 137.141L177.484 146.578V187.199L177.629 196.637L177.988 207.645L178.918 223.629L180.281 237.523L181.859 248.527L183.363 256.391L184.223 260.062L185.371 264.254L187.16 269.496L189.742 274.738L191.246 276.836L193.539 278.93L195.906 279.98H199.059L201.852 278.93L203.715 277.621L205.652 275.523L208.305 271.07L209.953 266.875L211.387 261.895L212.461 256.918L213.176 252.723L214.254 244.598L215.113 235.688L215.758 226.516L216.188 217.602H226.219L225.789 228.086L225.145 238.309L224.5 245.91L223.496 255.082L222.352 263.207L220.703 272.379L219.34 278.406L217.547 284.961L215.898 289.938L214.109 294.395L211.457 299.637L209.738 302.258L207.875 304.617L205.652 306.715L202.855 308.547L199.848 309.598L197.051 309.859L194.043 309.332L191.82 308.285L188.883 305.926L185.227 301.211L182.574 296.23L180.496 291.25L178.703 286.008L176.699 278.93L174.117 267.398L172.543 258.488L171.465 251.148L170.246 240.93L169.387 231.754L168.383 217.078L167.668 198.469L167.453 184.055V147.887Z" fill="#255C99"/>
<path d="M229.312 306.168L229.375 305.914L254.805 36.3008H262.527L288.082 306.422H279.102L272.699 235.91H244.633L238.355 306.168H229.312L247.332 206.742L270.125 206.488L258.762 80.4336L258.633 80.1797L258.508 80.9414L247.27 206.488L247.332 206.742L229.312 306.168Z" fill="#109648"/>
<path d="M229.312 308.754L229.387 308.75V308.699L229.672 308.586L230.387 308.43L231.32 308.305L232.324 308.203L232.969 308.148L234.043 308.074L234.977 308.02L237.34 307.906L240.352 307.801L242 307.758L243.863 307.715L246.516 307.664L247.73 307.648L251.461 307.609L255.688 307.582L260.348 307.574L262.496 307.578L265.434 307.586L269.449 307.617L271.742 307.641L273.531 307.664L275.395 307.699L277.691 307.75L279.84 307.809L281.559 307.867L283.281 307.945L284.715 308.023L285.93 308.113L287.008 308.219L287.652 308.305L288.082 308.395H278.121L277.547 308.305L276.902 308.238L275.824 308.156L274.75 308.094L273.676 308.047L271.668 307.98L269.949 307.941L267.801 307.906L265.723 307.883L263.355 307.867L261.922 307.863H258.125L254.684 307.883L252.676 307.902L251.242 307.922L249.238 307.961L248.02 307.988L247.301 308.008L245.152 308.086L243.719 308.156L242.93 308.207L241.926 308.281L241.211 308.348L240.422 308.449L239.992 308.523L239.418 308.695L239.348 309.148L239.562 309.242L239.992 309.344L240.566 309.434L241.426 309.531L242.285 309.602L243.789 309.703L245.082 309.766L246.082 309.809L248.02 309.879L248.809 309.898L250.672 309.945L252.605 309.98L254.973 310.012L256.762 310.023L259.629 310.039H263.285L267.586 310.023L270.309 310.004L272.172 309.984L273.391 309.965L274.895 309.938L275.969 309.914L276.973 309.883L278.191 309.844V309.242L260.488 309.238V308.957H288.008L288.082 309.938L286.578 310.004L284.715 310.07L282.922 310.121L281.059 310.164L278.406 310.211L276.258 310.242L272.961 310.277L269.949 310.297L266.797 310.312L264 310.32L260.703 310.324L257.766 310.32L254.613 310.305L252.105 310.285L249.812 310.258L247.516 310.227L244.652 310.172L242.789 310.129L240.852 310.078L238.918 310.016L237.195 309.949L236.051 309.895L234.902 309.836L233.684 309.758L232.539 309.672L231.68 309.598L230.891 309.508L230.316 309.426L229.742 309.312L229.457 309.223L229.312 309.145V308.754Z" fill="#F7B32B"/>
<path d="M291.176 162.426L291.246 162.203V156.844L291.461 148.355L291.961 137.633L292.465 130.262L293.754 117.082L295.547 104.348L297.41 94.5195L298.77 88.7148L299.988 84.2461L302.785 75.9805L304.578 71.7383L306.512 67.9375L308.875 64.1406L310.598 61.9102L314.465 58.3359L317.332 56.7695L319.555 56.1016H324.355L327.223 56.9922L329.301 58.1094L331.594 59.8984L333.531 61.9102L336.898 66.8242L339.91 73.0781L341.27 76.6523L343.422 83.5742L345.07 90.2773L346.215 96.0859L347.504 104.348L348.652 114.402L349.512 125.793L349.941 135.398H339.91L339.406 126.465L338.832 119.539L337.758 110.379L336.684 103.902L335.18 97.4258L333.816 93.1797L331.953 88.9375L330.305 86.2578L328.586 84.2461L326.938 82.9062L323.785 81.5664H320.129L318.766 82.0117L315.973 83.8008L314.465 85.3633L312.316 88.4883L310.812 91.3945L309.02 95.8594L307.801 99.6602L306.297 105.465L305.223 110.605L304.004 117.977L303.285 123.559L302.641 129.812L302.066 137.184L301.637 145.004L301.352 153.27L301.207 161.309V195.934L301.352 203.973L301.711 213.355L302.641 226.98L304.004 238.82L305.578 248.203L307.086 254.902L307.945 258.031L309.09 261.605L310.883 266.07L313.465 270.539L314.969 272.328L317.262 274.113L319.625 275.008H322.781L325.574 274.113L327.438 272.996L329.375 271.211L332.023 267.414L333.672 263.84L335.105 259.594L336.184 255.352L336.898 251.777L337.973 244.852L338.832 237.258L339.48 229.438L339.91 221.844H349.941L349.512 230.777L348.867 239.492L348.223 245.969L347.219 253.785L346.07 260.711L344.422 268.527L343.062 273.668L341.27 279.25L339.621 283.496L337.832 287.293L335.18 291.762L333.457 293.992L331.594 296.004L329.375 297.793L326.578 299.355L323.57 300.25L320.773 300.473L317.762 300.023L315.543 299.133L312.602 297.121L308.949 293.102L306.297 288.855L304.219 284.613L302.426 280.145L300.418 274.113L297.84 264.285L296.262 256.691L295.188 250.438L293.969 241.723L293.109 233.906L292.105 221.398L291.391 205.539L291.176 193.254V162.426Z" fill="#255C99"/>
<path d="M291.176 305.234L291.246 305.227V305.07L291.531 304.727L292.25 304.25L293.18 303.855L294.184 303.547L294.828 303.387L295.906 303.156L296.836 302.988L299.203 302.641L302.211 302.316L303.859 302.18L305.723 302.047L308.375 301.902L309.594 301.848L313.32 301.727L317.547 301.648L322.207 301.625L324.355 301.633L327.297 301.664L331.309 301.75L333.602 301.824L335.395 301.902L337.258 302.004L339.551 302.156L341.699 302.34L343.422 302.523L345.141 302.758L346.574 303.004L347.793 303.273L348.867 303.594L349.512 303.863L349.941 304.133H339.98L339.406 303.863L338.762 303.656L337.688 303.402L336.613 303.219L335.535 303.07L333.531 302.871L331.809 302.75L329.66 302.641L327.582 302.57L325.215 302.523L323.785 302.512H319.984L316.547 302.562L314.539 302.625L313.105 302.688L311.098 302.801L309.879 302.895L309.164 302.957L307.012 303.195L305.578 303.41L304.793 303.555L303.789 303.785L303.07 303.996L302.281 304.301L301.852 304.535L301.281 305.055L301.207 306.441L301.422 306.734L301.852 307.051L302.426 307.328L303.285 307.617L304.145 307.844L305.652 308.141L306.941 308.344L307.945 308.473L309.879 308.68L310.668 308.75L312.531 308.887L314.465 308.996L316.832 309.09L318.625 309.133L321.488 309.172H325.145L329.445 309.125L332.168 309.066L334.031 309.004L335.25 308.949L336.754 308.863L337.832 308.789L338.832 308.703L340.051 308.574V306.734L322.352 306.727V305.863L349.871 305.855L349.941 308.863L348.438 309.074L346.574 309.273L344.781 309.426L342.918 309.559L340.266 309.703L338.117 309.797L334.82 309.902L331.809 309.973L328.656 310.02L325.863 310.043L322.566 310.051L319.625 310.035L316.473 309.988L313.965 309.926L311.672 309.852L309.379 309.75L306.512 309.59L304.648 309.457L302.715 309.297L300.777 309.105L299.059 308.895L297.91 308.734L296.766 308.551L295.547 308.32L294.398 308.059L293.539 307.82L292.75 307.551L292.18 307.297L291.605 306.949L291.316 306.672L291.176 306.434V305.234Z" fill="#F7B32B"/>
<path d="M353.035 305.301L353.105 305.293V305.109L353.32 304.82L353.824 304.453L354.324 304.199L355.617 303.746L357.406 303.312L359.27 302.973L360.633 302.773L361.852 302.621L364.645 302.34L366.438 302.191L368.371 302.062L370.738 301.934L372.457 301.855L376.328 301.734L379.195 301.68L381.414 301.656H386.219L389.086 301.688L391.164 301.727L393.457 301.789L395.391 301.855L398.758 302.023L401.77 302.238L403.133 302.363L405.281 302.598L406.93 302.828L408.078 303.027L409.367 303.312L410.512 303.656L411.375 304.047L411.805 304.375H401.77L401.27 304.07L400.695 303.832L399.621 303.52L398.543 303.297L397.039 303.074L395.68 302.93L393.816 302.781L392.168 302.691L390.445 302.621L388.797 302.574L385.645 302.531H381.988L380.629 302.547L377.832 302.605L376.328 302.66L374.176 302.766L372.672 302.867L370.879 303.02L369.664 303.148L368.156 303.348L367.082 303.523L365.863 303.777L365.148 303.969L364.504 304.184L363.93 304.438L363.5 304.703L363.211 304.988L363.07 305.262V306.449L363.211 306.727L363.57 307.047L364.504 307.516L365.863 307.918L367.441 308.242L368.945 308.473L369.805 308.578L370.953 308.699L372.742 308.855L375.324 309.008L376.828 309.066L379.121 309.129L381.488 309.16H384.641L387.438 309.129L389.301 309.09L391.234 309.031L393.887 308.898L395.535 308.777L396.969 308.633L398.043 308.484L398.758 308.363L399.836 308.125L400.695 307.867L401.34 307.598L401.77 307.336H411.805L411.375 307.645L410.727 307.941L410.082 308.164L409.078 308.434L407.934 308.672L406.285 308.938L404.922 309.113L403.133 309.305L401.484 309.449L399.691 309.582L397.039 309.734L395.32 309.812L393.457 309.879L391.234 309.941L388.438 309.996L385.43 310.023L382.633 310.031L379.625 310.016L377.402 309.988L374.465 309.918L370.809 309.781L368.156 309.633L366.078 309.488L364.289 309.336L362.281 309.129L359.699 308.793L358.125 308.531L357.047 308.316L355.832 308.02L354.969 307.75L353.969 307.324L353.25 306.777L353.035 306.359V305.301Z" fill="#255C99"/>
<path d="M353.035 160.77L353.105 160.543V156.082L353.395 146.035L354.109 132.195L355.043 120.812L356.047 111.883L356.691 107.195L357.766 100.5L358.695 95.5859L361.062 85.543L364.07 76.168L365.719 72.1484L367.582 68.3555L370.234 64.1133L371.453 62.5508L375.18 58.9805L379.41 56.7461L384.066 56.0781L386.219 56.3008L389.156 57.1953L393.168 59.6484L395.461 61.8828L397.254 64.1133L399.117 67.0156L401.41 71.4805L403.562 76.8359L405.281 82.1953L407 88.8906L408.434 96.0352L409.652 103.848L410.727 113.223L411.375 121.035L411.805 128.848H401.84L401.27 121.035L400.621 115.008L399.547 107.641L398.473 102.285L397.398 98.043L395.391 92.2383L393.672 88.668L391.52 85.543L389.441 83.5352L387.078 82.1953L385.645 81.7461H381.848L378.406 83.3125L376.398 85.0977L374.965 86.8828L372.961 90.2305L371.742 92.9102L371.023 94.6953L368.875 101.613L367.441 107.863L366.652 112.105L365.648 118.801L364.934 124.828L364.145 133.758L363.715 140.453L363.141 155.633L363.07 195.812L363.285 204.297L363.715 213.449L364.289 221.484L365.148 229.965L366.008 236.441L367.512 245.145L368.801 250.949L369.805 254.742L371.742 260.77L372.527 262.781L374.391 266.797L376.328 269.922L378.691 272.602L380.484 273.941L383.352 275.059H387.008L391.305 273.719L394.031 271.934L395.895 270.145L397.109 268.582L398.617 266.129L399.691 263.895L400.695 261.441L401.914 257.645V204.297L384.211 204.074V179.07L411.73 178.848L411.805 266.129L410.297 272.156L408.434 277.957L406.645 282.422L404.781 286.219L402.129 290.457L399.977 293.137L396.68 296.262L393.672 298.273L390.52 299.609L387.723 300.281L384.426 300.504L381.488 300.059L378.336 298.719L375.824 296.934L373.531 294.699L371.238 291.797L368.371 287.109L366.508 283.316L364.574 278.629L362.641 273.047L360.918 267.02L359.773 262.332L358.625 256.977L357.406 250.277L356.262 242.691L355.398 235.77L354.613 227.957L354.039 220.59L353.465 210.547L353.18 202.512L353.035 195.59V160.77Z" fill="#F7B32B"/>
<path d="M414.895 308.621H414.969V308.555L415.184 308.449L415.684 308.32L416.188 308.23L417.477 308.07L419.27 307.914L421.133 307.797L422.492 307.723L423.711 307.668L426.508 307.57L428.297 307.516L430.234 307.473L432.598 307.426L434.316 307.398L438.188 307.355L441.055 307.336L443.277 307.328H448.078L450.945 307.336L453.023 307.352L455.316 307.371L457.254 307.398L460.621 307.457L463.629 307.535L464.992 307.578L467.141 307.66L468.789 307.742L469.938 307.812L471.227 307.914L472.375 308.039L473.234 308.176L473.664 308.293H463.629L463.129 308.184L462.555 308.102L461.48 307.988L460.406 307.91L458.898 307.832L457.539 307.777L455.676 307.727L454.027 307.695L452.309 307.668L450.66 307.652L447.504 307.637H443.852L442.488 307.641L439.691 307.664L438.188 307.684L436.039 307.723L434.535 307.758L432.742 307.812L431.523 307.859L430.02 307.93L428.941 307.992L427.727 308.082L427.008 308.148L426.363 308.227L425.789 308.316L425.359 308.41L425.074 308.512L424.93 308.609V309.031L425.074 309.129L425.43 309.242L426.363 309.41L427.727 309.555L429.301 309.668L430.805 309.75L431.668 309.789L432.812 309.832L434.605 309.887L437.184 309.941L438.691 309.961L440.984 309.984L443.348 309.996H446.5L449.297 309.984L451.16 309.969L453.094 309.949L455.746 309.902L457.395 309.859L458.828 309.809L459.902 309.754L460.621 309.711L461.695 309.629L462.555 309.535L463.199 309.438L463.629 309.348H473.664L473.234 309.457L472.59 309.562L471.945 309.641L470.941 309.734L469.793 309.82L468.145 309.914L466.785 309.977L464.992 310.047L463.344 310.098L461.551 310.145L458.898 310.199L457.18 310.227L455.316 310.25L453.094 310.273L450.301 310.293L447.289 310.301L444.496 310.305L441.484 310.301L439.262 310.289L436.324 310.266L432.668 310.215L430.02 310.164L427.941 310.113L426.148 310.059L424.141 309.984L421.562 309.863L419.984 309.77L418.91 309.695L417.691 309.59L416.832 309.492L415.828 309.34L415.109 309.148L414.895 309V308.621Z" fill="#255C99"/>
<path d="M414.895 37.2148H473.664V66.0039L449.172 66.2578V306.172H439.316V66.5117L439.176 66.0039H414.895V37.2148Z" fill="#D62839"/>
<path d="M476.758 146.031L476.828 145.77V140.535L477.117 128.762L477.832 112.539L478.766 99.1953L479.766 88.7305L480.414 83.2344L481.488 75.3867L482.418 69.6289L484.785 57.8555L487.793 46.8672L489.441 42.1562L491.305 37.7109L493.957 32.7383L495.176 30.9062L498.902 26.7188L503.133 24.1055L507.789 23.3203L509.938 23.582L512.879 24.6289L516.891 27.5039L519.184 30.1211L520.977 32.7383L522.84 36.1406L525.133 41.3711L527.281 47.6523L529.004 53.9297L530.723 61.7812L532.156 70.1523L533.375 79.3125L534.449 90.3008L535.094 99.457L535.523 108.613H525.562L524.988 99.457L524.344 92.3945L523.27 83.7578L522.195 77.4805L521.121 72.5078L519.113 65.707L517.395 61.5195L515.242 57.8555L513.164 55.5L510.801 53.9297L509.367 53.4062H505.566L502.129 55.2383L500.121 57.332L498.688 59.4258L496.68 63.3516L495.461 66.4883L494.746 68.582L492.598 76.6953L491.164 84.0195L490.375 88.9922L489.371 96.8398L488.652 103.906L487.867 114.371L487.438 122.219L486.863 140.012L486.789 187.109L487.004 197.051L487.438 207.777L488.008 217.195L488.867 227.141L489.73 234.727L491.234 244.93L492.523 251.734L493.527 256.18L495.461 263.246L496.25 265.602L498.113 270.309L500.051 273.973L502.414 277.113L504.207 278.684L507.074 279.992H510.727L515.027 278.422L517.75 276.328L519.613 274.234L520.832 272.402L522.34 269.523L523.414 266.91L524.418 264.031L525.633 259.582V197.051L507.934 196.789V167.484L535.453 167.223L535.523 269.523L534.02 276.59L532.156 283.391L530.363 288.625L528.5 293.074L525.852 298.043L523.699 301.184L520.402 304.848L517.395 307.203L514.238 308.773L511.445 309.555L508.148 309.816L505.211 309.293L502.055 307.727L499.547 305.633L497.254 303.016L494.961 299.613L492.094 294.121L490.23 289.672L488.297 284.176L486.359 277.637L484.641 270.57L483.492 265.078L482.348 258.797L481.129 250.949L479.98 242.051L479.121 233.941L478.332 224.785L477.762 216.148L477.188 204.375L476.902 194.957L476.758 186.848V146.031Z" fill="#F7B32B"/>
<path d="M538.617 306.855L538.68 306.602L564.109 35.6016H571.832L597.387 307.109H588.406L582.004 236.238H553.938L547.66 306.855H538.617L556.637 206.918L579.43 206.664L568.066 79.9609L567.938 79.7031L567.812 80.4688L556.574 206.664L556.637 206.918L538.617 306.855Z" fill="#109648"/>
<path d="M538.617 310.316H538.977L539.691 310.312H555.816L557.035 310.309H581.047L582.836 310.312H597.387H550.516L549.727 310.316H548.652L548.867 310.32H566.066L568.934 310.324H572.59L576.891 310.32H587.496H569.793V310.316H597.312L597.387 310.32H595.879L594.016 310.324H550.156L548.223 310.32H539.047L538.762 310.316H538.617Z" fill="#F7B32B"/>
<path d="M538.617 308.262H597.387V308.359H572.895V309.156H563.039V308.359H538.617V308.262Z" fill="#D62839"/>
<path d="M600.48 282.84L600.551 282.797V281.777L600.766 280.164L601.266 278.121L601.77 276.719L603.059 274.211L604.852 271.785L606.715 269.918L608.074 268.812L609.293 267.961L612.09 266.387L613.879 265.578L615.816 264.855L618.18 264.133L619.902 263.707L623.77 263.027L626.637 262.73L628.859 262.602H633.66L636.527 262.773L638.605 262.984L640.898 263.324L642.836 263.707L646.203 264.645L649.215 265.836L650.574 266.516L652.727 267.832L654.375 269.109L655.52 270.215L656.809 271.785L657.957 273.699L658.816 275.867L659.246 277.695H649.215L648.711 275.996L648.137 274.68L647.062 272.934L645.988 271.703L644.484 270.469L643.121 269.66L641.258 268.852L639.609 268.344L637.891 267.961L636.242 267.707L633.086 267.449H629.434L628.07 267.535L625.277 267.875L623.77 268.172L621.621 268.77L620.117 269.32L618.324 270.172L617.105 270.895L615.602 272L614.527 272.977L613.309 274.379L612.59 275.441L611.945 276.633L611.371 278.035L610.941 279.523L610.656 281.098L610.512 282.629V289.219L610.656 290.75L611.016 292.535L611.945 295.129L613.309 297.383L614.883 299.168L616.391 300.441L617.25 301.039L618.395 301.719L620.188 302.57L622.766 303.418L624.273 303.758L626.566 304.102L628.93 304.27H632.086L634.879 304.102L636.742 303.887L638.68 303.547L641.328 302.824L642.977 302.145L644.41 301.336L645.488 300.527L646.203 299.848L647.277 298.531L648.137 297.086L648.781 295.598L649.215 294.152H659.246L658.816 295.852L658.172 297.508L657.527 298.742L656.523 300.23L655.375 301.547L653.727 303.035L652.367 304.016L650.574 305.078L648.926 305.887L647.133 306.609L644.484 307.457L642.762 307.883L640.898 308.266L638.68 308.605L635.883 308.902L632.871 309.074L630.078 309.117L627.066 309.031L624.848 308.863L621.906 308.48L618.254 307.715L615.602 306.906L613.523 306.098L611.73 305.246L609.723 304.102L607.145 302.23L605.566 300.785L604.492 299.594L603.273 297.934L602.414 296.445L601.41 294.066L600.695 291.047L600.48 288.707V282.84Z" fill="#255C99"/>
<path d="M600.48 310.297H600.551L600.836 310.293L601.555 310.289L602.484 310.285H603.488L604.133 310.281H606.141L608.504 310.277L611.516 310.273H618.898L622.625 310.27H640.613L642.906 310.273H651.004L652.727 310.277H654.445L655.879 310.281H657.098L658.172 310.285H658.816L659.246 310.289H649.285L648.711 310.285H646.992L645.918 310.281H644.84L642.836 310.277H620.402L619.184 310.281H616.316L614.883 310.285H613.094L612.375 310.289H611.586L611.156 310.293L610.586 310.297L610.512 310.305L610.727 310.309H611.156L611.73 310.312H612.59L613.449 310.316H614.957L616.246 310.32H619.184L619.973 310.324H648.137L649.355 310.32V310.309H631.656V310.301H659.176L659.246 310.324H657.742L655.879 310.328H649.57L647.422 310.332H618.684L615.816 310.328H612.016L610.082 310.324H607.215L606.07 310.32H604.852L603.703 310.316H602.844L602.055 310.312H601.48L600.91 310.309H600.621L600.48 310.305V310.297Z" fill="#F7B32B"/>
<path d="M600.48 160.898H659.246V171.66L634.754 171.754V261.449H624.898V171.848L624.758 171.66H600.48V160.898Z" fill="#D62839"/>
</g>
<defs>
<clipPath id="clip0_3_1810">
<rect width="682" height="322" fill="white"/>
</clipPath>
</defs>
</svg>
