<svg width="682" height="322" viewBox="0 0 682 322" fill="none" xmlns="http://www.w3.org/2000/svg">
<g clip-path="url(#clip0_3_1924)">
<path d="M754 -36H-110V396H754V-36Z" fill="white"/>
<path d="M29.7305 306.359L29.7773 306.312L49.3164 255.234H55.25L74.8828 306.41H67.9844L63.0664 293.051H41.5L36.6758 306.359H29.7305L43.5742 287.523L61.0859 287.477L52.3555 263.594L52.2578 263.547L52.1641 263.691L43.5273 287.477L43.5742 287.523L29.7305 306.359Z" fill="#109648"/>
<path d="M29.7305 308.352L29.7852 308.348V308.309L29.9531 308.238L30.3359 308.156L30.7227 308.098L31.7148 307.996L33.0898 307.895L34.5234 307.816L35.5664 307.773L36.5039 307.738L38.6523 307.672L40.0273 307.641L41.5156 307.609L43.332 307.582L44.6523 307.562L47.6289 307.535L49.8281 307.523L51.5352 307.516H55.2266L57.4297 307.523L59.0273 307.531L60.7891 307.547L62.2734 307.562L64.8633 307.602L67.1758 307.648L68.2227 307.68L69.875 307.734L71.1406 307.785L72.0195 307.832L73.0117 307.895L73.8945 307.973L74.5547 308.062L74.8828 308.137H67.1758L66.7891 308.07L66.3477 308.016L65.5234 307.941L64.6992 307.891L63.543 307.84L62.4961 307.809L61.0625 307.773L59.7969 307.754L58.4766 307.738L57.207 307.727L54.7852 307.715H51.9766L50.9297 307.719L48.7852 307.734L47.6289 307.746L45.9766 307.77L44.8203 307.793L43.4414 307.828L42.5078 307.859L41.3516 307.902L40.5234 307.945L39.5859 308.004L39.0352 308.047L38.543 308.094L38.1016 308.152L37.7695 308.215L37.5508 308.277L37.4414 308.34V308.613L37.5508 308.676L37.8242 308.75L38.543 308.855L39.5859 308.949L40.8008 309.023L41.957 309.074L42.6172 309.098L43.4961 309.129L44.875 309.164L46.8555 309.199L48.0117 309.211L49.7734 309.227L51.5938 309.234H54.0156L56.1641 309.227L57.5938 309.219L59.082 309.203L61.1172 309.172L62.3828 309.145L63.4844 309.113L64.3125 309.078L64.8633 309.051L65.6875 308.996L66.3477 308.938L66.8438 308.875L67.1758 308.816H74.8828L74.5547 308.887L74.0586 308.953L73.5625 309.004L72.793 309.066L71.9102 309.121L70.6445 309.184L69.5977 309.223L68.2227 309.266L66.957 309.301L65.5781 309.328L63.543 309.363L62.2188 309.383L60.7891 309.398L59.082 309.41L56.9336 309.422L54.6211 309.43L52.4727 309.434L50.1602 309.43L48.4531 309.422L46.1953 309.406L43.3867 309.375L41.3516 309.34L39.7539 309.309L38.375 309.273L36.8359 309.227L34.8516 309.148L33.6406 309.09L32.8164 309.039L31.8789 308.973L31.2188 308.91L30.4453 308.812L29.8945 308.688L29.7305 308.594V308.352Z" fill="#255C99"/>
<path d="M29.7305 220.941L29.7852 220.887V219.828L30.0078 217.441L30.5586 214.152L31.2734 211.449L32.043 209.328L32.5391 208.215L33.3672 206.625L34.082 205.461L35.8984 203.074L38.2109 200.848L39.4766 199.895L40.9102 198.992L42.9453 197.984L43.8828 197.613L46.7461 196.766L49.9961 196.234L53.5742 196.078L55.2266 196.129L57.4844 196.344L60.5664 196.926L62.3281 197.457L63.707 197.984L65.1367 198.676L66.8984 199.734L68.5508 201.008L69.875 202.277L71.1953 203.871L72.2969 205.566L73.2344 207.422L74.0586 209.648L74.5547 211.504L74.8828 213.359H67.2305L66.7891 211.504L66.293 210.07L65.4688 208.324L64.6406 207.051L63.8164 206.043L62.2734 204.664L60.9531 203.816L59.3008 203.074L57.7031 202.598L55.8867 202.277L54.7852 202.172H51.8672L49.2227 202.543L47.6836 202.969L46.582 203.391L45.0391 204.188L44.1016 204.824L43.5508 205.246L41.9023 206.891L40.8008 208.375L40.1953 209.383L39.4219 210.973L38.8711 212.406L38.2656 214.523L37.9375 216.117L37.4961 219.719L37.4414 229.262L37.6055 231.277L37.9375 233.449L38.375 235.359L39.0352 237.375L39.6992 238.91L40.8555 240.977L41.8438 242.355L42.6172 243.258L44.1016 244.688L44.707 245.168L46.1406 246.121L47.6289 246.863L49.4453 247.5L50.8203 247.816L53.0234 248.082H55.832L59.1367 247.766L61.2266 247.34L62.6602 246.914L63.5977 246.543L64.7539 245.961L65.5781 245.43L66.3477 244.848L67.2852 243.945V231.277L53.6836 231.223V225.285L74.8281 225.234L74.8828 245.961L73.7266 247.395L72.2969 248.77L70.918 249.832L69.4883 250.734L67.4492 251.738L65.7969 252.375L63.2656 253.117L60.9531 253.594L58.5312 253.914L56.3828 254.074L53.8516 254.125L51.5938 254.02L49.168 253.703L47.2422 253.277L45.4805 252.746L43.7188 252.059L41.5156 250.945L40.082 250.043L38.5977 248.93L37.1094 247.605L35.7891 246.172L34.9062 245.059L34.0273 243.789L33.0898 242.199L32.207 240.395L31.5469 238.75L30.9414 236.895L30.5 235.148L30.0625 232.762L29.8398 230.852L29.7305 229.211V220.941Z" fill="#F7B32B"/>
<path d="M77.2617 309.102L77.3086 309.098L96.8477 306.09H102.781L122.414 309.105H115.516L110.598 308.316H89.0312L84.207 309.102H77.2617L91.1055 307.992L108.617 307.988L99.8867 306.582L99.7891 306.578L99.6914 306.586L91.0586 307.988L91.1055 307.992L77.2617 309.102Z" fill="#109648"/>
<path d="M77.2617 310.289H77.3164V310.285L77.4805 310.277L77.8672 310.27L78.2539 310.266L79.2422 310.258L80.6211 310.246L82.0508 310.238L83.0977 310.234H84.0352L86.1836 310.227L87.5586 310.223H89.0469L90.8633 310.219L92.1836 310.215H97.3594L99.0664 310.211H102.758L104.961 310.215H109.805L112.395 310.219L114.707 310.227H115.75L117.402 310.23L118.672 310.238L119.551 310.242L120.543 310.246L121.422 310.254L122.086 310.262L122.414 310.27H114.707L114.32 310.262L113.879 310.258L113.055 310.25L112.227 310.246L111.07 310.242L110.023 310.238L108.594 310.234H106.004L104.738 310.23H96.3125L95.1562 310.234H93.5039L92.3477 310.238L90.9727 310.242H90.0352L88.8789 310.246L88.0547 310.25L87.1172 310.258L86.5664 310.262L86.0703 310.266L85.6328 310.27L85.3008 310.277L85.082 310.281L84.9688 310.289V310.312L85.082 310.32L85.3555 310.324L86.0703 310.336L87.1172 310.344L88.3281 310.352L89.4844 310.355L90.1445 310.359H91.0273L92.4023 310.363L94.3867 310.367H95.543L97.3047 310.371H103.691L105.125 310.367H106.609L108.648 310.363H109.914L111.016 310.359L111.844 310.355L112.395 310.352L113.219 310.348L113.879 310.344L114.375 310.336L114.707 310.332H122.414L122.086 310.34L121.094 310.348L120.324 310.355L119.441 310.359L118.176 310.363L117.129 310.367L115.75 310.371L114.484 310.375L113.109 310.379L111.07 310.383H109.75L108.316 310.387H93.7266L90.918 310.383L88.8789 310.379L87.2812 310.375H85.9062L84.3633 310.371L82.3828 310.363L81.1719 310.355L80.3438 310.352L79.4102 310.348L78.7461 310.34L77.9766 310.332L77.4258 310.32L77.2617 310.312V310.289Z" fill="#255C99"/>
<path d="M77.2617 174.18L77.3164 173.984V170.117L77.5352 161.41L78.0859 149.414L78.8047 139.543L79.5742 131.805L80.0703 127.742L80.8945 121.938L81.6094 117.68L83.4297 108.973L85.7422 100.848L87.0078 97.3633L88.4375 94.0742L90.4766 90.3984L91.4141 89.043L94.2773 85.9492L97.5234 84.0117L101.105 83.4336L102.758 83.625L105.016 84.4023L108.098 86.5273L109.859 88.4648L111.238 90.3984L112.668 92.9141L114.43 96.7852L116.082 101.426L117.402 106.07L118.727 111.875L119.828 118.066L120.762 124.84L121.59 132.965L122.086 139.738L122.414 146.512H114.762L114.32 139.738L113.824 134.516L113 128.129L112.172 123.484L111.348 119.809L109.805 114.777L108.484 111.684L106.832 108.973L105.234 107.23L103.418 106.07L102.316 105.684H99.3984L96.7539 107.039L95.2109 108.586L94.1094 110.133L92.5703 113.035L91.6328 115.359L91.082 116.906L89.4297 122.906L88.3281 128.324L87.7227 132L86.9531 137.805L86.4023 143.027L85.7969 150.766L85.4648 156.57L85.0234 169.73L84.9688 204.555L85.1367 211.91L85.4648 219.844L85.9062 226.809L86.5664 234.16L87.2266 239.77L88.3828 247.316L89.375 252.348L90.1445 255.637L91.6328 260.863L92.2383 262.602L93.6719 266.086L95.1562 268.793L96.9727 271.117L98.3516 272.277L100.555 273.246H103.363L106.668 272.082L108.758 270.535L110.191 268.988L111.125 267.633L112.281 265.504L113.109 263.57L113.879 261.441L114.816 258.152V211.91L101.215 211.715V190.047L122.359 189.852L122.414 265.504L121.258 270.73L119.828 275.762L118.449 279.629L117.02 282.918L114.98 286.594L113.328 288.918L110.797 291.625L108.484 293.367L106.059 294.527L103.914 295.109L101.379 295.301L99.1211 294.914L96.6992 293.754L94.7734 292.207L93.0117 290.273L91.2461 287.758L89.0469 283.691L87.6133 280.402L86.125 276.34L84.6406 271.504L83.3164 266.277L82.4375 262.215L81.5547 257.574L80.6211 251.77L79.7383 245.188L79.0781 239.191L78.4727 232.418L78.0312 226.035L77.5898 217.328L77.3711 210.359L77.2617 204.363V174.18Z" fill="#F7B32B"/>
<path d="M77.2617 296.41H122.414V297.328L103.598 297.336V304.98H96.0234V297.344L95.9141 297.328H77.2617V296.41Z" fill="#D62839"/>
<path d="M124.793 310.152H124.84L144.379 309.504H150.312L169.945 310.152H163.047L158.125 309.984H136.562L131.738 310.152H124.793L138.637 309.914H156.148L147.418 309.609H147.32L147.223 309.613L138.59 309.914H138.637L124.793 310.152Z" fill="#109648"/>
<path d="M124.793 193.863L124.848 193.73V191.09L125.066 185.152L125.617 176.973L126.332 170.242L127.105 164.965L127.602 162.195L128.426 158.234L129.141 155.332L130.957 149.395L133.27 143.852L134.539 141.477L135.969 139.234L138.008 136.727L138.941 135.805L141.805 133.691L145.055 132.375L148.633 131.977L150.285 132.109L152.543 132.637L155.629 134.09L157.391 135.41L158.766 136.727L160.199 138.445L161.961 141.082L163.613 144.25L164.934 147.418L166.254 151.375L167.355 155.598L168.293 160.215L169.117 165.758L169.613 170.375L169.945 174.992H162.289L161.852 170.375L161.355 166.812L160.527 162.457L159.703 159.293L158.875 156.785L157.336 153.355L156.012 151.242L154.363 149.395L152.766 148.207L150.949 147.418L149.848 147.152H146.926L144.285 148.074L142.742 149.133L141.641 150.188L140.098 152.168L139.164 153.75L138.613 154.805L136.961 158.895L135.859 162.59L135.254 165.098L134.484 169.055L133.934 172.617L133.328 177.895L132.996 181.855L132.555 190.828L132.5 214.578L132.664 219.594L132.996 225.004L133.438 229.754L134.098 234.766L134.758 238.594L135.914 243.738L136.906 247.168L137.676 249.414L139.164 252.977L139.77 254.164L141.199 256.539L142.688 258.387L144.504 259.969L145.883 260.762L148.082 261.422H150.891L154.195 260.629L156.289 259.574L157.719 258.516L158.656 257.594L159.812 256.141L160.641 254.824L161.41 253.371L162.348 251.129V219.594L148.746 219.461V204.684L169.891 204.551L169.945 256.141L168.789 259.703L167.355 263.137L165.98 265.773L164.547 268.02L162.512 270.523L160.859 272.109L158.324 273.957L156.012 275.145L153.59 275.934L151.441 276.332L148.91 276.461L146.652 276.199L144.23 275.406L142.301 274.352L140.539 273.031L138.777 271.316L136.574 268.547L135.145 266.301L133.656 263.531L132.172 260.234L130.848 256.672L129.969 253.898L129.086 250.734L128.148 246.773L127.27 242.289L126.609 238.199L126.004 233.578L125.562 229.227L125.121 223.285L124.902 218.535L124.793 214.445V193.863Z" fill="#F7B32B"/>
<path d="M124.793 277.57H169.945V280.871L151.125 280.898V308.398H143.555V280.93L143.445 280.871H124.793V277.57Z" fill="#D62839"/>
<path d="M172.32 308.863H172.375V308.82L172.543 308.754L172.926 308.672L173.312 308.613L174.305 308.512L175.68 308.414L177.113 308.34L178.16 308.293L179.094 308.258L181.242 308.195L182.617 308.16L184.105 308.133L185.922 308.102L187.246 308.086L190.219 308.059L192.422 308.047L194.129 308.039H197.816L200.02 308.047L201.617 308.055L203.379 308.07L204.863 308.086L207.453 308.125L209.766 308.172L210.812 308.199L212.465 308.254L213.73 308.305L214.613 308.352L215.602 308.414L216.484 308.492L217.145 308.582L217.477 308.656H209.766L209.379 308.586L208.941 308.531L208.113 308.461L207.289 308.41L206.133 308.359L205.086 308.328L203.652 308.293L202.387 308.273L201.066 308.258L199.801 308.25L197.375 308.238H194.566L193.523 308.242L191.375 308.254L190.219 308.266L188.566 308.293L187.41 308.312L186.031 308.348L185.098 308.379L183.941 308.422L183.113 308.461L182.18 308.52L181.629 308.562L181.133 308.613L180.691 308.668L180.359 308.73L180.141 308.793L180.031 308.855V309.125L180.141 309.188L180.418 309.258L181.133 309.363L182.18 309.457L183.391 309.527L184.547 309.582L185.207 309.605L186.086 309.633L187.465 309.668L189.445 309.703L190.602 309.715L192.367 309.73L194.184 309.734H196.605L198.754 309.73L200.184 309.719L201.672 309.707L203.707 309.676L204.977 309.648L206.078 309.617L206.902 309.582L207.453 309.555L208.277 309.504L208.941 309.445L209.438 309.383L209.766 309.324H217.477L217.145 309.395L216.648 309.461L216.152 309.512L215.383 309.57L214.5 309.625L213.234 309.688L212.188 309.727L210.812 309.77L209.547 309.801L208.168 309.832L206.133 309.867L204.809 309.883L203.379 309.898L201.672 309.914L199.523 309.926L197.211 309.934H195.062L192.75 309.93L191.043 309.922L188.785 309.906L185.977 309.875L183.941 309.844L182.344 309.812L180.965 309.777L179.426 309.73L177.441 309.652L176.23 309.594L175.406 309.547L174.469 309.477L173.809 309.418L173.039 309.32L172.488 309.199L172.32 309.102V308.863Z" fill="#255C99"/>
<path d="M172.32 298.129L172.375 298.117V297.836L172.598 297.203L173.148 296.328L173.863 295.613L174.633 295.051L175.129 294.754L175.957 294.332L176.672 294.023L178.488 293.391L180.801 292.801L182.066 292.547L183.5 292.309L185.539 292.039L186.473 291.941L189.336 291.719L192.586 291.578L196.164 291.535L197.816 291.547L200.074 291.605L203.156 291.758L204.922 291.898L206.297 292.039L207.73 292.223L209.492 292.504L211.145 292.844L212.465 293.18L213.785 293.602L214.887 294.051L215.824 294.543L216.648 295.133L217.145 295.625L217.477 296.117H209.82L209.379 295.625L208.887 295.246L208.059 294.781L207.234 294.445L206.406 294.18L204.863 293.812L203.543 293.586L201.891 293.391L200.293 293.266L198.477 293.18L197.375 293.152H194.457L191.816 293.25L190.273 293.363L189.172 293.477L187.629 293.688L186.695 293.855L186.145 293.969L184.492 294.402L183.391 294.797L182.785 295.062L182.012 295.484L181.461 295.867L180.855 296.43L180.527 296.852L180.086 297.805L180.031 300.336L180.195 300.871L180.527 301.449L180.965 301.953L181.629 302.488L182.289 302.898L183.445 303.445L184.438 303.812L185.207 304.051L186.695 304.43L187.301 304.555L188.73 304.809L190.219 305.004L192.035 305.176L193.41 305.258L195.613 305.328H198.422L201.727 305.246L203.82 305.133L205.25 305.02L206.188 304.922L207.344 304.766L208.168 304.625L208.941 304.473L209.875 304.234V300.871L196.273 300.859V299.281L217.422 299.27L217.477 304.766L216.32 305.145L214.887 305.512L213.512 305.793L212.078 306.031L210.043 306.301L208.391 306.469L205.855 306.664L203.543 306.793L201.121 306.875L198.973 306.918L196.441 306.934L194.184 306.902L191.758 306.82L189.832 306.707L188.07 306.566L186.309 306.383L184.105 306.09L182.672 305.848L181.188 305.555L179.699 305.203L178.379 304.824L177.496 304.527L176.617 304.191L175.68 303.77L174.801 303.289L174.137 302.855L173.531 302.363L173.094 301.898L172.652 301.266L172.43 300.758L172.32 300.324V298.129Z" fill="#F7B32B"/>
<path d="M172.32 95.418H217.477V116.293L198.656 116.477V290.426H191.086V116.656L190.977 116.293H172.32V95.418Z" fill="#D62839"/>
<path d="M219.852 216.375L219.906 216.277V213.938L220.07 210.238L220.457 205.562L220.844 202.348L221.832 196.602L223.211 191.051L224.641 186.766L225.688 184.234L226.625 182.285L228.773 178.68L230.148 176.832L231.637 175.176L233.453 173.52L234.773 172.543L237.746 170.988L239.949 170.305L241.656 170.012H245.348L247.551 170.402L249.145 170.891L250.91 171.668L252.395 172.543L254.984 174.688L257.297 177.414L258.344 178.973L259.996 181.992L261.262 184.914L262.141 187.445L263.133 191.051L264.016 195.434L264.676 200.398L265.004 204.59H257.297L256.91 200.691L256.469 197.672L255.645 193.68L254.816 190.855L253.66 188.031L252.617 186.18L251.184 184.328L249.918 183.16L248.598 182.285L247.328 181.699L244.906 181.117H242.098L241.051 181.309L238.902 182.09L237.746 182.77L236.098 184.137L234.941 185.402L233.562 187.348L232.625 189.004L231.469 191.539L230.645 193.777L229.707 196.992L229.156 199.426L228.66 202.152L228.223 205.367L227.891 208.777L227.672 212.379L227.562 215.887V230.984L227.672 234.488L227.945 238.578L228.66 244.52L229.707 249.684L230.918 253.773L232.074 256.695L232.738 258.059L233.617 259.617L234.996 261.566L236.977 263.512L238.133 264.293L239.895 265.07L241.711 265.461H244.137L246.281 265.07L247.715 264.586L249.203 263.805L251.238 262.148L252.504 260.59L253.605 258.742L254.434 256.891L254.984 255.332L255.809 252.312L256.469 249L256.965 245.594L257.297 242.281H265.004L264.676 246.176L264.18 249.977L263.684 252.801L262.914 256.207L262.031 259.227L260.766 262.637L259.719 264.879L258.344 267.312L257.074 269.164L255.699 270.82L253.66 272.766L252.34 273.742L250.91 274.617L249.203 275.395L247.055 276.078L244.742 276.469L242.594 276.566L240.281 276.371L238.574 275.98L236.316 275.105L233.508 273.352L231.469 271.5L229.875 269.648L228.496 267.703L226.953 265.07L224.973 260.785L223.762 257.477L222.934 254.746L222 250.949L221.34 247.539L220.566 242.086L220.016 235.172L219.852 229.812V216.375Z" fill="#255C99"/>
<path d="M219.852 304.707L219.906 304.695V304.531L220.125 304.152L220.676 303.633L221.395 303.207L222.164 302.871L222.66 302.695L223.484 302.441L224.203 302.258L226.02 301.883L228.332 301.531L229.598 301.379L231.031 301.234L233.066 301.078L234.004 301.02L236.867 300.883L240.117 300.801L243.695 300.773L245.348 300.785L247.605 300.816L250.688 300.91L252.449 300.992L253.828 301.078L255.258 301.188L257.02 301.352L258.672 301.555L259.996 301.754L261.316 302.008L262.418 302.273L263.352 302.57L264.18 302.922L264.676 303.215L265.004 303.508H257.352L256.91 303.215L256.414 302.988L255.59 302.711L254.762 302.512L253.938 302.352L252.395 302.133L251.074 302L249.422 301.883L247.824 301.805L246.008 301.754L244.906 301.738H241.988L239.344 301.797L237.805 301.863L236.703 301.93L235.16 302.059L234.223 302.156L233.672 302.227L232.02 302.484L230.918 302.719L230.312 302.879L229.543 303.129L228.992 303.355L228.387 303.691L228.055 303.941L227.617 304.512L227.562 306.02L227.727 306.34L228.055 306.684L228.496 306.984L229.156 307.305L229.82 307.547L230.977 307.875L231.965 308.09L232.738 308.234L234.223 308.461L234.828 308.535L236.262 308.688L237.746 308.805L239.566 308.902L240.941 308.953L243.145 308.996H245.953L249.258 308.945L251.348 308.879L252.781 308.812L253.719 308.754L254.875 308.66L255.699 308.578L256.469 308.484L257.406 308.344V306.34L243.805 306.332V305.395L264.949 305.383L265.004 308.66L263.848 308.887L262.418 309.105L261.039 309.273L259.609 309.414L257.57 309.574L255.918 309.676L253.387 309.793L251.074 309.867L248.652 309.918L246.504 309.941L243.969 309.953L241.711 309.934L239.289 309.883L237.363 309.816L235.602 309.734L233.84 309.625L231.637 309.449L230.203 309.305L228.719 309.129L227.23 308.922L225.91 308.695L225.027 308.52L224.148 308.316L223.211 308.066L222.328 307.781L221.668 307.52L221.062 307.227L220.621 306.953L220.184 306.574L219.961 306.273L219.852 306.012V304.707Z" fill="#F7B32B"/>
<path d="M219.852 277.672H265.004V280.027L246.188 280.047V299.668H238.617V280.07L238.504 280.027H219.852V277.672Z" fill="#D62839"/>
<path d="M267.383 290.141L267.43 289.949L286.969 86.9336H292.902L312.535 290.332H305.637L300.715 237.238H279.152L274.328 290.141H267.383L281.227 215.273L298.738 215.082L290.008 120.164L289.91 119.973L289.812 120.547L281.18 215.082L281.227 215.273L267.383 290.141Z" fill="#109648"/>
<path d="M267.383 299.262L267.438 299.246V298.91L267.656 298.16L268.207 297.125L268.922 296.277L269.695 295.609L270.191 295.258L271.016 294.758L271.73 294.391L273.551 293.641L275.863 292.941L277.129 292.641L278.559 292.355L280.598 292.039L281.535 291.922L284.398 291.656L287.645 291.488L291.227 291.438L292.879 291.457L295.137 291.523L298.219 291.707L299.98 291.871L301.355 292.039L302.789 292.258L304.551 292.59L306.203 292.992L307.523 293.391L308.848 293.891L309.949 294.426L310.883 295.008L311.711 295.707L312.203 296.293L312.535 296.875H304.883L304.441 296.293L303.945 295.844L303.121 295.293L302.293 294.891L301.469 294.574L299.926 294.141L298.605 293.875L296.953 293.641L295.355 293.492L293.539 293.391L292.438 293.355H289.52L286.875 293.473L285.332 293.605L284.23 293.742L282.691 293.992L281.754 294.191L281.203 294.324L279.551 294.84L278.449 295.309L277.844 295.625L277.074 296.125L276.523 296.574L275.918 297.242L275.586 297.742L275.145 298.879L275.09 301.879L275.258 302.512L275.586 303.195L276.027 303.797L276.688 304.43L277.348 304.914L278.504 305.566L279.496 306L280.266 306.281L281.754 306.73L282.359 306.883L283.793 307.184L285.277 307.414L287.094 307.617L288.473 307.715L290.676 307.801H293.484L296.785 307.699L298.879 307.566L300.312 307.434L301.246 307.316L302.402 307.133L303.23 306.965L304 306.781L304.938 306.5V302.512L291.336 302.496V300.629L312.48 300.613L312.535 307.133L311.379 307.582L309.949 308.016L308.57 308.352L307.141 308.633L305.102 308.949L303.449 309.148L300.918 309.383L298.605 309.535L296.18 309.633L294.035 309.684L291.5 309.699L289.242 309.668L286.82 309.566L284.895 309.434L283.129 309.266L281.367 309.051L279.164 308.699L277.734 308.418L276.246 308.066L274.762 307.648L273.438 307.199L272.559 306.848L271.676 306.449L270.742 305.949L269.859 305.383L269.199 304.863L268.594 304.281L268.152 303.73L267.711 302.98L267.492 302.379L267.383 301.863V299.262Z" fill="#F7B32B"/>
<path d="M314.91 277.254L314.961 277.188L334.496 202.926H340.43L360.066 277.324H353.168L348.246 257.906H326.684L321.859 277.254H314.91L328.758 249.871L346.27 249.801L337.535 215.082L337.441 215.012L337.344 215.219L328.707 249.801L328.758 249.871L314.91 277.254Z" fill="#109648"/>
<path d="M314.91 310.199H314.969V310.191L315.133 310.18L315.52 310.164L315.902 310.152L316.895 310.137L318.27 310.117L319.703 310.105L320.75 310.098L321.684 310.09L323.832 310.078L325.211 310.074L326.695 310.066L328.512 310.062L329.836 310.059L332.809 310.055H335.012L336.719 310.051H340.406L342.609 310.055H344.207L345.969 310.059H347.457L350.043 310.066L352.355 310.074L353.402 310.082L355.055 310.09L356.32 310.098L357.203 310.105L358.195 310.117L359.074 310.133L359.734 310.148L360.066 310.16H352.355L351.973 310.148L351.531 310.141L350.703 310.125L349.879 310.117L348.723 310.109L347.676 310.102L346.246 310.098L344.977 310.094L343.656 310.09H342.391L339.965 310.086H336.113L333.965 310.09L332.809 310.094L331.156 310.098L330 310.102L328.625 310.105L327.688 310.113L326.531 310.121L325.703 310.125L324.77 310.137L324.219 310.145L323.723 310.152L323.281 310.164L322.953 310.176L322.73 310.188L322.621 310.195V310.246L322.73 310.254L323.008 310.27L323.723 310.285L324.77 310.305L325.98 310.316L327.137 310.324L327.797 310.328L328.68 310.336L330.055 310.34L332.039 310.348H333.195L334.957 310.352H342.773L344.262 310.348L346.301 310.344L347.566 310.336L348.668 310.332L349.492 310.324L350.043 310.32L350.871 310.312L351.531 310.301L352.027 310.289L352.355 310.281H360.066L359.734 310.293L359.238 310.305L358.742 310.312L357.973 310.324L357.094 310.332L355.824 310.344L354.781 310.352L353.402 310.359L352.137 310.363L350.758 310.371L348.723 310.375L347.402 310.379L345.969 310.383H344.262L342.113 310.387H333.633L331.375 310.383L328.566 310.379L326.531 310.371L324.934 310.367L323.559 310.359L322.016 310.352L320.031 310.34L318.82 310.328L317.996 310.32L317.059 310.309L316.398 310.297L315.629 310.281L315.078 310.258L314.91 310.242V310.199Z" fill="#255C99"/>
<path d="M314.91 285.551L314.969 285.535V285.234L315.188 284.551L315.738 283.609L316.453 282.836L317.227 282.227L317.719 281.91L318.547 281.453L319.262 281.121L321.078 280.438L323.391 279.801L324.66 279.527L326.09 279.27L328.129 278.98L329.062 278.875L331.926 278.633L335.176 278.48L338.754 278.434L340.406 278.449L342.664 278.508L345.75 278.676L347.512 278.828L348.887 278.98L350.32 279.176L352.082 279.48L353.734 279.844L355.055 280.211L356.375 280.664L357.477 281.148L358.414 281.68L359.238 282.32L359.734 282.852L360.066 283.383H352.41L351.973 282.852L351.477 282.441L350.648 281.941L349.824 281.574L348.996 281.285L347.457 280.891L346.133 280.648L344.48 280.438L342.887 280.301L341.066 280.211L339.965 280.18H337.047L334.406 280.285L332.863 280.406L331.762 280.527L330.219 280.754L329.285 280.938L328.734 281.059L327.082 281.531L325.98 281.953L325.375 282.242L324.602 282.699L324.055 283.109L323.445 283.715L323.117 284.172L322.676 285.203L322.621 287.934L322.785 288.512L323.117 289.133L323.559 289.68L324.219 290.258L324.879 290.695L326.035 291.289L327.027 291.684L327.797 291.941L329.285 292.352L329.891 292.488L331.32 292.762L332.809 292.973L334.625 293.156L336.004 293.246L338.203 293.32H341.012L344.316 293.23L346.41 293.109L347.84 292.988L348.777 292.883L349.934 292.715L350.758 292.562L351.531 292.395L352.465 292.137V288.512L338.867 288.496V286.797L360.012 286.781L360.066 292.715L358.91 293.125L357.477 293.52L356.102 293.824L354.668 294.082L352.633 294.367L350.98 294.551L348.445 294.762L346.133 294.898L343.711 294.992L341.562 295.035L339.031 295.051L336.773 295.02L334.352 294.93L332.422 294.809L330.66 294.656L328.898 294.461L326.695 294.141L325.266 293.883L323.777 293.566L322.289 293.184L320.969 292.773L320.09 292.457L319.207 292.094L318.27 291.637L317.391 291.121L316.73 290.652L316.125 290.121L315.684 289.617L315.242 288.938L315.023 288.391L314.91 287.918V285.551Z" fill="#F7B32B"/>
<path d="M314.91 296.16H360.066V297.527L341.246 297.539V308.945H333.676V297.551L333.566 297.527H314.91V296.16Z" fill="#D62839"/>
<path d="M362.441 276.059L362.492 275.918L382.027 126.387H387.961L407.598 276.199H400.699L395.777 237.094H374.215L369.391 276.059H362.441L376.289 220.918L393.801 220.777L385.066 150.863L384.973 150.723L384.875 151.145L376.238 220.777L376.289 220.918L362.441 276.059Z" fill="#109648"/>
<path d="M362.441 291.074L362.496 291.043V290.457L362.719 289.137L363.27 287.316L363.984 285.82L364.754 284.645L365.25 284.027L366.078 283.148L366.793 282.504L368.609 281.184L370.922 279.949L372.188 279.422L373.621 278.922L375.656 278.363L376.594 278.16L379.457 277.691L382.707 277.398L386.285 277.309L387.938 277.34L390.195 277.457L393.277 277.777L395.039 278.07L396.418 278.363L397.848 278.746L399.609 279.332L401.262 280.039L402.586 280.742L403.906 281.621L405.008 282.562L405.945 283.59L406.77 284.82L407.266 285.848L407.598 286.875H399.941L399.5 285.848L399.004 285.055L398.18 284.086L397.355 283.383L396.527 282.824L394.984 282.062L393.664 281.594L392.012 281.184L390.414 280.918L388.598 280.742L387.496 280.684H384.578L381.934 280.891L380.395 281.125L379.293 281.359L377.75 281.797L376.812 282.152L376.262 282.387L374.613 283.297L373.512 284.117L372.906 284.676L372.133 285.555L371.582 286.348L370.977 287.52L370.648 288.402L370.207 290.398L370.152 295.68L370.316 296.793L370.648 298L371.086 299.055L371.75 300.168L372.41 301.02L373.566 302.164L374.555 302.93L375.328 303.426L376.812 304.219L377.422 304.484L378.852 305.012L380.34 305.422L382.156 305.773L383.531 305.949L385.734 306.098H388.543L391.848 305.922L393.941 305.688L395.371 305.453L396.309 305.246L397.465 304.926L398.289 304.629L399.062 304.309L399.996 303.809V296.793L386.395 296.766V293.48L407.539 293.449L407.598 304.926L406.438 305.715L405.008 306.48L403.633 307.066L402.199 307.566L400.16 308.121L398.512 308.477L395.977 308.887L393.664 309.148L391.242 309.324L389.094 309.414L386.562 309.441L384.305 309.383L381.879 309.207L379.953 308.973L378.191 308.68L376.43 308.297L374.227 307.684L372.793 307.184L371.309 306.566L369.82 305.832L368.5 305.043L367.617 304.426L366.738 303.723L365.801 302.84L364.922 301.844L364.258 300.934L363.652 299.906L363.215 298.938L362.773 297.617L362.551 296.559L362.441 295.648V291.074Z" fill="#F7B32B"/>
<path d="M409.973 151.398L410.027 151.152V146.164L410.246 134.941L410.797 119.484L411.516 106.766L412.285 96.793L412.781 91.5547L413.605 84.0742L414.324 78.5898L416.141 67.3672L418.453 56.8945L419.719 52.4062L421.152 48.168L423.188 43.4297L424.125 41.6836L426.988 37.6953L430.238 35.1992L433.816 34.4531L435.469 34.7031L437.727 35.6992L440.809 38.4414L442.57 40.9375L443.949 43.4297L445.379 46.6719L447.141 51.6562L448.793 57.6406L450.113 63.6289L451.438 71.1094L452.539 79.0859L453.473 87.8164L454.301 98.2891L454.797 107.016L455.125 115.742H447.473L447.031 107.016L446.535 100.281L445.711 92.0547L444.883 86.0703L444.059 81.332L442.516 74.8477L441.195 70.8594L439.543 67.3672L437.945 65.125L436.129 63.6289L435.027 63.1289H432.109L429.465 64.875L427.922 66.8672L426.824 68.8633L425.281 72.6055L424.344 75.5977L423.793 77.5898L422.141 85.3203L421.039 92.3047L420.434 97.0391L419.664 104.52L419.113 111.254L418.508 121.227L418.176 128.707L417.738 145.664L417.68 190.547L417.848 200.023L418.176 210.246L418.617 219.223L419.277 228.699L419.938 235.93L421.094 245.656L422.086 252.141L422.859 256.379L424.344 263.109L424.949 265.355L426.383 269.844L427.867 273.336L429.688 276.328L431.062 277.824L433.266 279.07H436.074L439.379 277.574L441.469 275.578L442.902 273.582L443.836 271.84L444.992 269.094L445.82 266.602L446.59 263.859L447.527 259.621V200.023L433.926 199.773V171.848L455.07 171.598L455.125 269.094L453.969 275.828L452.539 282.312L451.16 287.297L449.73 291.539L447.691 296.273L446.039 299.266L443.508 302.758L441.195 305.004L438.773 306.5L436.625 307.246L434.09 307.496L431.832 306.996L429.41 305.5L427.484 303.508L425.723 301.012L423.957 297.77L421.758 292.535L420.324 288.297L418.836 283.059L417.352 276.824L416.031 270.094L415.148 264.855L414.266 258.871L413.332 251.391L412.449 242.914L411.789 235.184L411.184 226.457L410.742 218.227L410.301 207.008L410.082 198.027L409.973 190.301V151.398Z" fill="#F7B32B"/>
<path d="M409.973 308.605H455.125V308.691L436.309 308.695V309.434H428.734V308.695L428.625 308.691H409.973V308.605Z" fill="#D62839"/>
<path d="M457.504 191.375L457.559 191.242V188.566L457.777 182.547L458.328 174.25L459.043 167.426L459.816 162.074L460.312 159.266L461.137 155.25L461.852 152.305L463.668 146.285L465.984 140.664L467.25 138.258L468.68 135.984L470.719 133.441L471.652 132.504L474.52 130.363L477.766 129.023L481.348 128.625L482.996 128.758L485.254 129.293L488.34 130.766L490.102 132.102L491.477 133.441L492.91 135.18L494.672 137.855L496.324 141.066L497.645 144.277L498.965 148.293L500.066 152.574L501.004 157.258L501.832 162.875L502.324 167.559L502.656 172.242H495.004L494.562 167.559L494.066 163.945L493.238 159.531L492.414 156.32L491.59 153.777L490.047 150.301L488.723 148.16L487.074 146.285L485.477 145.082L483.66 144.277L482.559 144.012H479.641L476.996 144.945L475.453 146.016L474.352 147.09L472.812 149.094L471.875 150.699L471.324 151.77L469.672 155.918L468.57 159.664L467.965 162.207L467.195 166.223L466.645 169.832L466.039 175.188L465.707 179.199L465.266 188.297L465.211 212.383L465.375 217.469L465.707 222.953L466.148 227.77L466.809 232.855L467.469 236.734L468.625 241.953L469.617 245.43L470.387 247.707L471.875 251.316L472.48 252.523L473.91 254.93L475.398 256.805L477.215 258.41L478.594 259.211L480.797 259.883H483.602L486.906 259.078L489 258.008L490.43 256.938L491.367 256L492.523 254.531L493.352 253.191L494.121 251.719L495.059 249.445V217.469L481.457 217.332V202.348L502.602 202.215L502.656 254.531L501.5 258.141L500.066 261.621L498.691 264.297L497.258 266.57L495.223 269.113L493.57 270.719L491.039 272.594L488.723 273.797L486.301 274.598L484.152 275L481.621 275.133L479.363 274.867L476.941 274.062L475.012 272.992L473.25 271.656L471.488 269.918L469.285 267.105L467.855 264.832L466.367 262.023L464.883 258.676L463.559 255.066L462.68 252.254L461.797 249.043L460.863 245.031L459.98 240.48L459.32 236.332L458.715 231.648L458.273 227.234L457.832 221.215L457.613 216.395L457.504 212.25V191.375Z" fill="#F7B32B"/>
<path d="M457.504 276.242H502.656V279.805L483.836 279.836V309.531H476.266V279.867L476.156 279.805H457.504V276.242Z" fill="#D62839"/>
<path d="M505.031 308.16H505.086V308.086L505.254 307.977L505.637 307.836L506.023 307.738L507.016 307.562L508.391 307.395L509.824 307.266L510.871 307.188L511.805 307.129L513.953 307.02L515.328 306.965L516.816 306.914L518.633 306.863L519.957 306.836L522.93 306.789L525.133 306.766L526.84 306.758H530.527L532.73 306.77L534.328 306.785L536.09 306.809L537.578 306.836L540.164 306.898L542.477 306.984L543.523 307.031L545.176 307.121L546.441 307.211L547.324 307.285L548.312 307.395L549.195 307.527L549.855 307.68L550.188 307.805H542.477L542.09 307.688L541.652 307.594L540.824 307.477L540 307.391L538.844 307.305L537.797 307.246L536.363 307.191L535.098 307.156L533.777 307.129L532.512 307.113L530.086 307.094H527.277L526.234 307.102L524.086 307.125L522.93 307.145L521.277 307.188L520.121 307.223L518.742 307.281L517.809 307.332L516.652 307.41L515.824 307.477L514.891 307.574L514.34 307.648L513.844 307.73L513.402 307.828L513.07 307.93L512.852 308.039L512.742 308.148V308.605L512.852 308.711L513.129 308.832L513.844 309.012L514.891 309.168L516.102 309.293L517.258 309.383L517.918 309.422L518.801 309.469L520.176 309.527L522.156 309.59L523.312 309.613L525.078 309.637L526.895 309.648H529.316L531.465 309.637L532.895 309.621L534.383 309.598L536.422 309.547L537.688 309.5L538.789 309.445L539.613 309.387L540.164 309.34L540.992 309.25L541.652 309.148L542.148 309.047L542.477 308.945H550.188L549.855 309.062L549.359 309.18L548.863 309.266L548.094 309.367L547.211 309.457L545.945 309.562L544.898 309.629L543.523 309.703L542.258 309.758L540.879 309.809L538.844 309.867L537.52 309.898L536.09 309.926L534.383 309.949L532.234 309.969L529.922 309.98L527.773 309.984L525.461 309.977L523.754 309.965L521.496 309.938L518.688 309.887L516.652 309.828L515.055 309.773L513.68 309.715L512.137 309.637L510.152 309.504L508.941 309.406L508.117 309.324L507.18 309.207L506.52 309.105L505.75 308.941L505.199 308.73L505.031 308.566V308.16Z" fill="#255C99"/>
<path d="M505.031 292.188L505.086 292.164V291.734L505.309 290.766L505.859 289.434L506.574 288.336L507.344 287.477L507.84 287.023L508.668 286.379L509.383 285.906L511.199 284.938L513.512 284.035L514.777 283.648L516.211 283.281L518.25 282.875L519.184 282.723L522.047 282.379L525.297 282.164L528.875 282.102L530.527 282.121L532.785 282.207L535.871 282.445L537.633 282.66L539.008 282.875L540.441 283.152L542.203 283.586L543.855 284.102L545.176 284.617L546.496 285.262L547.598 285.949L548.535 286.703L549.359 287.605L549.855 288.359L550.188 289.113H542.531L542.09 288.359L541.598 287.777L540.77 287.066L539.945 286.551L539.117 286.145L537.578 285.586L536.254 285.238L534.602 284.938L533.008 284.746L531.188 284.617L530.086 284.574H527.168L524.527 284.723L522.984 284.895L521.883 285.066L520.34 285.391L519.406 285.648L518.855 285.82L517.203 286.488L516.102 287.09L515.496 287.5L514.723 288.145L514.172 288.723L513.566 289.586L513.238 290.23L512.797 291.691L512.742 295.562L512.906 296.379L513.238 297.262L513.68 298.035L514.34 298.855L515 299.477L516.156 300.316L517.148 300.875L517.918 301.242L519.406 301.82L520.012 302.016L521.441 302.402L522.93 302.703L524.746 302.961L526.121 303.09L528.324 303.199H531.133L534.438 303.07L536.531 302.898L537.961 302.727L538.898 302.574L540.055 302.34L540.879 302.125L541.652 301.887L542.586 301.52V296.379L528.984 296.359V293.949L550.133 293.93L550.188 302.34L549.031 302.918L547.598 303.477L546.223 303.906L544.789 304.273L542.754 304.684L541.102 304.941L538.566 305.242L536.254 305.434L533.832 305.562L531.684 305.629L529.152 305.648L526.895 305.605L524.473 305.477L522.543 305.305L520.781 305.09L519.02 304.812L516.816 304.359L515.387 303.996L513.898 303.543L512.41 303.004L511.09 302.426L510.207 301.973L509.328 301.457L508.391 300.812L507.512 300.078L506.852 299.414L506.242 298.66L505.805 297.949L505.363 296.984L505.145 296.207L505.031 295.543V292.188Z" fill="#F7B32B"/>
<path d="M505.031 130.172H550.188V146.316L531.367 146.457V280.992H523.797V146.598L523.688 146.316H505.031V130.172Z" fill="#D62839"/>
<path d="M552.562 310.387H552.609L572.148 310.078H578.082L597.715 310.387H590.816L585.898 310.309H564.332L559.508 310.387H552.562L566.406 310.273H583.918L575.188 310.129H574.996L566.359 310.273H566.406L552.562 310.387Z" fill="#109648"/>
<path d="M552.562 224.559L552.617 224.48V222.531L552.781 219.441L553.168 215.543L553.555 212.863L554.547 208.074L555.922 203.441L557.352 199.871L558.398 197.758L559.336 196.133L561.484 193.129L562.859 191.586L564.348 190.203L566.164 188.824L567.484 188.012L570.461 186.711L572.66 186.145L574.367 185.898H578.059L580.262 186.227L581.859 186.633L583.621 187.281L585.105 188.012L587.695 189.797L590.008 192.074L591.055 193.371L592.707 195.891L593.973 198.328L594.852 200.438L595.844 203.441L596.727 207.098L597.387 211.238L597.715 214.73H590.008L589.621 211.484L589.18 208.965L588.355 205.637L587.531 203.281L586.371 200.926L585.328 199.383L583.895 197.84L582.629 196.863L581.309 196.133L580.039 195.645L577.617 195.16H574.809L573.762 195.32L571.617 195.973L570.461 196.539L568.809 197.676L567.652 198.734L566.273 200.355L565.34 201.738L564.18 203.848L563.355 205.719L562.418 208.398L561.867 210.43L561.375 212.703L560.934 215.383L560.602 218.227L560.383 221.23L560.273 224.152V236.742L560.383 239.668L560.656 243.078L561.375 248.031L562.418 252.336L563.633 255.746L564.789 258.184L565.449 259.32L566.328 260.621L567.707 262.246L569.688 263.871L570.844 264.52L572.605 265.168L574.422 265.492H576.848L578.996 265.168L580.426 264.762L581.914 264.113L583.949 262.73L585.215 261.434L586.316 259.891L587.145 258.348L587.695 257.047L588.52 254.527L589.18 251.77L589.676 248.926L590.008 246.164H597.715L597.387 249.414L596.891 252.578L596.395 254.934L595.625 257.777L594.742 260.297L593.477 263.137L592.43 265.008L591.055 267.035L589.785 268.578L588.41 269.961L586.371 271.586L585.051 272.398L583.621 273.129L581.914 273.777L579.766 274.348L577.453 274.672L575.305 274.754L572.992 274.59L571.285 274.266L569.027 273.535L566.219 272.07L564.18 270.527L562.586 268.984L561.207 267.363L559.668 265.168L557.684 261.594L556.473 258.832L555.645 256.559L554.711 253.391L554.051 250.551L553.277 246L552.727 240.234L552.562 235.77V224.559Z" fill="#255C99"/>
<path d="M552.562 305.273L552.617 305.27V305.152L552.84 304.887L553.391 304.52L554.105 304.219L554.875 303.98L555.371 303.859L556.195 303.68L556.914 303.551L558.73 303.285L561.043 303.039L562.309 302.93L563.742 302.832L565.777 302.719L566.715 302.676L569.578 302.582L572.828 302.523L576.406 302.508L578.059 302.512L580.316 302.535L583.398 302.602L585.16 302.66L586.539 302.719L587.969 302.797L589.73 302.914L591.383 303.055L592.707 303.195L594.027 303.375L595.129 303.562L596.066 303.77L596.891 304.02L597.387 304.223L597.715 304.43H590.062L589.621 304.223L589.125 304.066L588.301 303.871L587.473 303.727L586.648 303.617L585.105 303.461L583.785 303.367L582.133 303.285L580.535 303.234L578.719 303.195L577.617 303.184H574.699L572.055 303.227L570.516 303.273L569.414 303.32L567.871 303.41L566.934 303.48L566.383 303.527L564.73 303.711L563.633 303.875L563.023 303.988L562.254 304.164L561.703 304.324L561.098 304.562L560.766 304.738L560.328 305.141L560.273 306.203L560.438 306.426L560.766 306.668L561.207 306.879L561.867 307.105L562.531 307.277L563.688 307.508L564.676 307.66L565.449 307.762L566.934 307.918L567.539 307.973L568.973 308.078L570.461 308.16L572.277 308.23L573.652 308.266L575.855 308.297H578.664L581.969 308.262L584.059 308.215L585.492 308.168L586.43 308.125L587.586 308.062L588.41 308L589.18 307.938L590.117 307.836V306.426L576.516 306.418V305.758L597.66 305.754L597.715 308.062L596.559 308.219L595.129 308.375L593.75 308.492L592.32 308.594L590.281 308.703L588.629 308.773L586.098 308.859L583.785 308.91L581.363 308.945L579.215 308.965L576.68 308.969L574.422 308.957L572 308.922L570.074 308.875L568.312 308.816L566.551 308.738L564.348 308.617L562.914 308.516L561.43 308.391L559.941 308.242L558.621 308.086L557.738 307.961L556.859 307.82L555.922 307.641L555.039 307.441L554.379 307.258L553.773 307.051L553.332 306.855L552.895 306.59L552.672 306.379L552.562 306.195V305.273Z" fill="#F7B32B"/>
<path d="M552.562 275.859H597.715V278.594L578.898 278.617V301.398H571.328V278.641L571.219 278.594H552.562V275.859Z" fill="#D62839"/>
<path d="M600.094 267.305L600.141 267.219L619.68 176.707H625.613L645.246 267.387H638.348L633.426 243.719H611.863L607.039 267.305H600.094L613.938 233.926L631.449 233.84L622.719 191.523L622.621 191.438L622.523 191.695L613.891 233.84L613.938 233.926L600.094 267.305Z" fill="#109648"/>
<path d="M600.094 310.125H600.148V310.113L600.312 310.098L600.699 310.078L601.086 310.062L602.074 310.039L603.453 310.012L604.883 309.996L605.93 309.984L606.867 309.977L609.012 309.961L610.391 309.953L611.879 309.945L613.695 309.938L615.016 309.934L617.988 309.926L620.191 309.922H627.789L629.387 309.926L631.148 309.93L632.637 309.934L635.227 309.941L637.539 309.953L638.582 309.961L640.234 309.973L641.504 309.988L642.383 309.996L643.375 310.012L644.254 310.031L644.918 310.055L645.246 310.074H637.539L637.152 310.055L636.711 310.043L635.887 310.023L635.059 310.012L633.902 310L632.855 309.992L631.426 309.984L630.16 309.98L628.836 309.977L627.57 309.973L625.148 309.969H622.34L621.293 309.973H619.145L617.988 309.977L616.336 309.984L615.18 309.988L613.805 309.996L612.867 310.004L611.711 310.016L610.887 310.027L609.949 310.039L609.398 310.051L608.902 310.062L608.465 310.078L608.133 310.09L607.914 310.105L607.801 310.121V310.188L607.914 310.203L608.188 310.223L608.902 310.246L609.949 310.27L611.16 310.289L612.316 310.301L612.977 310.309L613.859 310.312L615.234 310.324L617.219 310.332L618.375 310.336H620.137L621.953 310.34H624.375L626.523 310.336H627.957L629.441 310.332L631.48 310.324L632.746 310.316L633.848 310.309L634.676 310.301L635.227 310.297L636.051 310.281L636.711 310.266L637.207 310.254L637.539 310.238H645.246L644.918 310.254L644.422 310.273L643.926 310.285L643.152 310.301L642.273 310.312L641.008 310.328L639.961 310.336L638.582 310.348L637.316 310.355L635.941 310.363L633.902 310.371L632.582 310.375L631.148 310.379L629.441 310.383L627.297 310.387H618.816L616.559 310.383L613.75 310.375L611.711 310.367L610.113 310.359L608.738 310.348L607.195 310.336L605.215 310.32L604.004 310.305L603.176 310.293L602.242 310.277L601.578 310.262L600.809 310.238L600.258 310.207L600.094 310.184V310.125Z" fill="#255C99"/>
<path d="M600.094 284.738L600.148 284.703V284.012L600.367 282.453L600.918 280.305L601.637 278.539L602.406 277.156L602.902 276.426L603.727 275.387L604.441 274.625L606.262 273.066L608.574 271.613L609.84 270.988L611.27 270.402L613.309 269.742L614.246 269.5L617.109 268.945L620.355 268.602L623.938 268.496L625.59 268.531L627.848 268.668L630.93 269.051L632.691 269.398L634.066 269.742L635.5 270.195L637.262 270.887L638.914 271.719L640.234 272.547L641.559 273.586L642.66 274.695L643.594 275.906L644.422 277.363L644.918 278.574L645.246 279.785H637.594L637.152 278.574L636.656 277.641L635.832 276.496L635.004 275.664L634.18 275.008L632.637 274.105L631.316 273.555L629.664 273.066L628.066 272.758L626.25 272.547L625.148 272.48H622.23L619.586 272.723L618.043 273L616.941 273.277L615.402 273.797L614.465 274.211L613.914 274.488L612.262 275.562L611.16 276.531L610.555 277.188L609.785 278.227L609.234 279.164L608.629 280.547L608.297 281.586L607.855 283.941L607.801 290.176L607.969 291.492L608.297 292.914L608.738 294.16L609.398 295.477L610.059 296.48L611.215 297.832L612.207 298.73L612.977 299.32L614.465 300.254L615.07 300.566L616.504 301.191L617.988 301.676L619.805 302.09L621.184 302.297L623.387 302.473H626.195L629.496 302.262L631.59 301.984L633.023 301.711L633.957 301.465L635.113 301.086L635.941 300.738L636.711 300.359L637.648 299.77V291.492L624.047 291.457V287.578L645.191 287.543L645.246 301.086L644.09 302.02L642.66 302.922L641.281 303.613L639.852 304.203L637.812 304.859L636.16 305.277L633.629 305.762L631.316 306.074L628.891 306.281L626.746 306.383L624.211 306.418L621.953 306.352L619.531 306.141L617.605 305.863L615.84 305.52L614.078 305.07L611.879 304.34L610.445 303.754L608.957 303.023L607.473 302.16L606.148 301.223L605.27 300.496L604.387 299.664L603.453 298.625L602.57 297.449L601.91 296.375L601.305 295.164L600.863 294.02L600.422 292.461L600.203 291.215L600.094 290.141V284.738Z" fill="#F7B32B"/>
<path d="M600.094 307.527H645.246V307.664L626.43 307.668V308.812H618.855V307.668L618.746 307.664H600.094V307.527Z" fill="#D62839"/>
</g>
<defs>
<clipPath id="clip0_3_1924">
<rect width="682" height="322" fill="white"/>
</clipPath>
</defs>
</svg>
