<svg width="682" height="322" viewBox="0 0 682 322" fill="none" xmlns="http://www.w3.org/2000/svg">
<g clip-path="url(#clip0_3_2071)">
<path d="M754 -36H-110V396H754V-36Z" fill="white"/>
<path d="M29.7305 293.613L29.8008 293.426L58.0703 95.2305H66.6562L95.0664 293.801H85.082L77.9648 241.965H46.7617L39.7812 293.613H29.7305L49.7656 220.523L75.1016 220.336L62.4688 127.672L62.3281 127.484L62.1875 128.047L49.6953 220.336L49.7656 220.523L29.7305 293.613Z" fill="#109648"/>
<path d="M29.7305 297.195L29.8125 297.191V297.07L30.0508 296.879L30.6055 296.637L31.1641 296.473L32.5977 296.176L34.5898 295.891L36.6641 295.668L38.1758 295.539L39.5312 295.438L42.6367 295.25L44.6289 295.156L46.7812 295.07L49.4102 294.984L51.3242 294.934L55.625 294.855L58.8125 294.82L61.2812 294.805H66.6211L69.8086 294.824L72.1172 294.848L74.668 294.891L76.8203 294.934L80.5625 295.047L83.9102 295.188L85.4258 295.266L87.8164 295.422L89.6484 295.574L90.9219 295.703L92.3555 295.891L93.6289 296.117L94.5859 296.371L95.0664 296.586H83.9102L83.3516 296.387L82.7148 296.23L81.5195 296.023L80.3242 295.879L78.6523 295.734L77.1367 295.637L75.0664 295.543L73.2344 295.48L71.3203 295.438L69.4883 295.406L65.9844 295.375H61.9219L60.4062 295.387L57.2969 295.426L55.625 295.461L53.2344 295.531L51.5625 295.598L49.5703 295.699L48.2148 295.785L46.543 295.914L45.3477 296.031L43.9922 296.195L43.1953 296.32L42.4805 296.461L41.8398 296.629L41.3633 296.805L41.043 296.988L40.8867 297.172V297.949L41.043 298.129L41.4414 298.34L42.4805 298.648L43.9922 298.914L45.7461 299.125L47.418 299.277L48.375 299.348L49.6484 299.426L51.6406 299.527L54.5117 299.629L56.1836 299.668L58.7344 299.707L61.3633 299.727H64.8672L67.9766 299.707L70.0469 299.684L72.1992 299.645L75.1445 299.559L76.9805 299.477L78.5703 299.383L79.7656 299.285L80.5625 299.207L81.7578 299.051L82.7148 298.879L83.4336 298.703L83.9102 298.531H95.0664L94.5859 298.734L93.8711 298.93L93.1523 299.074L92.0391 299.25L90.7617 299.406L88.9297 299.582L87.418 299.699L85.4258 299.824L83.5898 299.918L81.6016 300.004L78.6523 300.105L76.7383 300.156L74.668 300.199L72.1992 300.242L69.0898 300.277L65.7461 300.297L62.6367 300.301L59.2891 300.293L56.8203 300.27L53.5547 300.227L49.4922 300.137L46.543 300.039L44.2305 299.945L42.2383 299.844L40.0078 299.707L37.1406 299.488L35.3867 299.316L34.1914 299.176L32.8398 298.98L31.8828 298.805L30.7656 298.523L29.9688 298.164L29.7305 297.891V297.195Z" fill="#255C99"/>
<path d="M29.7305 303.25L29.8125 303.246V303.16L30.1289 302.977L30.9258 302.719L31.9609 302.508L33.0781 302.34L33.793 302.254L34.9883 302.129L36.0234 302.039L38.6562 301.852L42 301.68L43.832 301.605L45.9062 301.535L48.8516 301.457L50.207 301.426L54.3516 301.359L59.0508 301.32L64.2305 301.305L66.6211 301.309L69.8867 301.328L74.3477 301.371L76.8984 301.414L78.8906 301.457L80.9609 301.508L83.5117 301.594L85.9023 301.691L87.8164 301.789L89.7266 301.914L91.3203 302.047L92.6758 302.191L93.8711 302.367L94.5859 302.512L95.0664 302.656H83.9883L83.3516 302.512L82.6367 302.398L81.4414 302.262L80.2461 302.164L79.0508 302.086L76.8203 301.977L74.9062 301.91L72.5156 301.852L70.207 301.816L67.5781 301.789L65.9844 301.781H61.7617L57.9375 301.812L55.707 301.844L54.1133 301.879L51.8789 301.941L50.5273 301.988L49.7305 302.023L47.3398 302.152L45.7461 302.266L44.8711 302.348L43.7539 302.469L42.957 302.582L42.082 302.746L41.6016 302.871L40.9648 303.152L40.8867 303.898L41.125 304.059L41.6016 304.227L42.2383 304.375L43.1953 304.531L44.1523 304.652L45.8242 304.816L47.2578 304.922L48.375 304.992L50.5273 305.105L51.4023 305.141L53.4727 305.215L55.625 305.273L58.2539 305.324L60.2461 305.348L63.4336 305.371H67.4961L72.2773 305.344L75.3047 305.312L77.3789 305.277L78.7305 305.25L80.4062 305.203L81.6016 305.164L82.7148 305.117L84.0703 305.047V304.059L64.3906 304.051V303.59L94.9844 303.586L95.0664 305.203L93.3906 305.316L91.3203 305.422L89.3281 305.508L87.2578 305.578L84.3086 305.656L81.918 305.707L78.2539 305.762L74.9062 305.801L71.4023 305.824L68.293 305.84L64.6289 305.844L61.3633 305.832L57.8555 305.809L55.0664 305.777L52.5195 305.734L49.9688 305.68L46.7812 305.594L44.7109 305.523L42.5586 305.438L40.4062 305.332L38.4961 305.223L37.2188 305.133L35.9453 305.035L34.5898 304.91L33.3164 304.77L32.3594 304.641L31.4844 304.496L30.8477 304.359L30.2109 304.172L29.8906 304.023L29.7305 303.895V303.25Z" fill="#F7B32B"/>
<path d="M29.7305 306.848H95.0664V307.238L67.8359 307.242V310.492H56.8789V307.242L56.7227 307.238H29.7305V306.848Z" fill="#D62839"/>
<path d="M98.5039 290.871L98.5742 290.695L126.844 102.859H135.43L163.836 291.051H153.855L146.738 241.926H115.535L108.555 290.871H98.5039L118.535 221.605L143.875 221.43L131.242 133.605L131.102 133.43L130.961 133.961L118.469 221.43L118.535 221.605L98.5039 290.871Z" fill="#109648"/>
<path d="M98.5039 310.211H98.582V310.199L98.8242 310.184L99.3789 310.16L99.9375 310.145L101.371 310.121L103.363 310.094L105.434 310.074L106.949 310.062L108.305 310.051L111.41 310.035L113.402 310.027L115.555 310.02L118.184 310.012L120.098 310.008L124.398 310L127.586 309.996H138.582L140.891 310L143.441 310.004L145.594 310.008L149.336 310.016L152.684 310.031L154.195 310.039L156.586 310.051L158.418 310.066L159.695 310.078L161.129 310.094L162.402 310.113L163.359 310.137L163.836 310.156H152.684L152.125 310.137L151.488 310.125L150.293 310.105L149.098 310.094L147.426 310.078L145.91 310.07L143.84 310.062L142.008 310.059L140.094 310.051H138.262L134.758 310.047H129.18L126.07 310.051L124.398 310.055L122.008 310.062L120.336 310.066L118.344 310.078L116.988 310.086L115.316 310.098L114.121 310.105L112.766 310.121L111.969 310.133L111.25 310.145L110.613 310.16L110.137 310.176L109.816 310.191L109.66 310.211V310.281L109.816 310.297L110.215 310.316L111.25 310.344L112.766 310.367L114.52 310.387L116.191 310.398L117.148 310.406L118.422 310.414L120.414 310.422L123.281 310.43L124.957 310.434L127.504 310.438L130.137 310.441H133.641L136.746 310.438H138.82L140.973 310.434L143.918 310.426L145.75 310.418L147.344 310.41L148.539 310.398L149.336 310.395L150.531 310.379L151.488 310.363L152.203 310.348L152.684 310.332H163.836L163.359 310.352L162.645 310.367L161.926 310.383L160.809 310.398L159.535 310.41L157.703 310.426L156.188 310.438L154.195 310.449L152.363 310.457L150.371 310.465L147.426 310.473L145.512 310.477L143.441 310.484H140.973L137.863 310.488L134.516 310.492H128.062L125.594 310.488L122.328 310.484L118.262 310.477L115.316 310.469L113.004 310.461L111.012 310.449L108.781 310.438L105.914 310.418L104.16 310.402L102.965 310.391L101.609 310.371L100.656 310.355L99.5391 310.332L98.7422 310.301L98.5039 310.273V310.211Z" fill="#255C99"/>
<path d="M98.5039 296.391L98.582 296.383V296.195L98.9023 295.781L99.6992 295.207L100.734 294.734L101.852 294.367L102.566 294.172L103.762 293.895L104.797 293.691L107.426 293.273L110.773 292.887L112.605 292.719L114.68 292.562L117.625 292.387L118.98 292.324L123.125 292.176L127.824 292.082L133.004 292.055L135.395 292.062L138.66 292.102L143.121 292.203L145.672 292.293L147.664 292.387L149.734 292.508L152.285 292.691L154.676 292.914L156.586 293.137L158.5 293.414L160.094 293.711L161.449 294.031L162.645 294.422L163.359 294.746L163.836 295.07H152.762L152.125 294.746L151.41 294.496L150.215 294.191L149.02 293.969L147.824 293.793L145.594 293.551L143.68 293.402L141.289 293.273L138.98 293.191L136.348 293.137L134.758 293.117H130.535L126.707 293.184L124.477 293.258L122.883 293.332L120.652 293.469L119.301 293.578L118.504 293.652L116.113 293.941L114.52 294.199L113.641 294.375L112.527 294.652L111.73 294.902L110.852 295.273L110.375 295.551L109.738 296.18L109.66 297.844L109.898 298.195L110.375 298.574L111.012 298.906L111.969 299.258L112.926 299.523L114.598 299.887L116.031 300.125L117.148 300.281L119.301 300.531L120.176 300.617L122.246 300.781L124.398 300.91L127.027 301.023L129.02 301.078L132.207 301.125H136.27L141.051 301.07L144.078 300.996L146.148 300.922L147.504 300.855L149.176 300.754L150.371 300.664L151.488 300.559L152.844 300.402V298.195L133.164 298.184V297.148L163.758 297.141L163.836 300.754L162.164 301.004L160.094 301.246L158.102 301.43L156.031 301.586L153.082 301.762L150.691 301.875L147.027 302.004L143.68 302.086L140.176 302.141L137.066 302.168L133.402 302.18L130.137 302.16L126.629 302.105L123.84 302.031L121.289 301.938L118.742 301.816L115.555 301.625L113.484 301.465L111.332 301.273L109.18 301.043L107.27 300.793L105.992 300.598L104.719 300.375L103.363 300.098L102.09 299.785L101.133 299.496L100.258 299.172L99.6172 298.867L98.9805 298.453L98.6641 298.121L98.5039 297.832V296.391Z" fill="#F7B32B"/>
<path d="M98.5039 303.184H163.836V303.805L136.609 303.809V308.992H125.652V303.816L125.496 303.805H98.5039V303.184Z" fill="#D62839"/>
<path d="M167.277 310.488L167.348 310.484L195.617 307.328H204.203L232.609 310.492H222.629L215.508 309.664H184.309L177.328 310.488H167.277L187.309 309.324L212.648 309.32L200.012 307.844L199.875 307.84L199.734 307.848L187.238 309.32L187.309 309.324L167.277 310.488Z" fill="#109648"/>
<path d="M167.277 293.477L167.355 293.469V293.297L167.594 293.02L168.152 292.672L168.711 292.434L170.145 292.004L172.137 291.59L174.207 291.27L175.723 291.082L177.078 290.938L180.184 290.668L182.176 290.527L184.328 290.406L186.957 290.281L188.867 290.211L193.172 290.094L196.359 290.043L198.828 290.02H204.168L207.352 290.051L209.664 290.086L212.215 290.145L214.363 290.211L218.109 290.371L221.457 290.574L222.969 290.688L225.359 290.914L227.191 291.133L228.469 291.32L229.902 291.59L231.176 291.918L232.133 292.285L232.609 292.598H221.457L220.898 292.309L220.262 292.082L219.066 291.785L217.871 291.574L216.195 291.363L214.684 291.227L212.613 291.09L210.777 291L208.867 290.938L207.035 290.891L203.527 290.848H199.465L197.953 290.863L194.844 290.922L193.172 290.973L190.781 291.074L189.109 291.168L187.117 291.312L185.762 291.438L184.09 291.625L182.895 291.793L181.539 292.031L180.742 292.215L180.023 292.418L179.387 292.656L178.91 292.91L178.59 293.18L178.43 293.441V294.566L178.59 294.828L178.988 295.133L180.023 295.578L181.539 295.961L183.293 296.266L184.965 296.484L185.922 296.586L187.195 296.703L189.188 296.848L192.055 296.992L193.73 297.051L196.277 297.109L198.906 297.137H202.414L205.52 297.109L207.594 297.074L209.742 297.016L212.691 296.891L214.523 296.773L216.117 296.637L217.312 296.5L218.109 296.383L219.305 296.156L220.262 295.91L220.977 295.656L221.457 295.41H232.609L232.133 295.699L231.414 295.984L230.699 296.195L229.582 296.449L228.309 296.672L226.477 296.926L224.961 297.094L222.969 297.277L221.137 297.414L219.145 297.535L216.195 297.684L214.285 297.754L212.215 297.82L209.742 297.879L206.637 297.93L203.289 297.957L200.184 297.965L196.836 297.949L194.367 297.922L191.098 297.855L187.035 297.727L184.09 297.586L181.777 297.449L179.785 297.305L177.555 297.109L174.688 296.789L172.934 296.543L171.738 296.34L170.383 296.055L169.426 295.801L168.312 295.395L167.516 294.879L167.277 294.48V293.477Z" fill="#255C99"/>
<path d="M167.277 191.391L167.355 191.234V188.117L167.676 181.098L168.473 171.43L169.508 163.477L170.621 157.238L171.34 153.961L172.535 149.285L173.57 145.852L176.199 138.836L179.547 132.285L181.379 129.477L183.449 126.828L186.398 123.863L187.754 122.773L191.895 120.277L196.598 118.715L201.777 118.25L204.168 118.406L207.434 119.027L211.895 120.742L214.445 122.305L216.438 123.863L218.508 125.891L221.059 129.008L223.449 132.754L225.359 136.496L227.273 141.172L228.867 146.164L230.219 151.621L231.414 158.172L232.133 163.629L232.609 169.09H221.535L220.898 163.629L220.18 159.422L218.984 154.273L217.789 150.531L216.594 147.566L214.363 143.512L212.453 141.02L210.062 138.836L207.75 137.43L205.121 136.496L203.527 136.184H199.305L195.48 137.273L193.25 138.523L191.656 139.77L189.426 142.109L188.07 143.98L187.273 145.23L184.883 150.062L183.293 154.43L182.414 157.395L181.301 162.07L180.504 166.281L179.625 172.52L179.148 177.199L178.512 187.805L178.43 215.875L178.672 221.801L179.148 228.195L179.785 233.809L180.742 239.734L181.699 244.258L183.371 250.34L184.805 254.395L185.922 257.047L188.07 261.258L188.949 262.66L191.02 265.469L193.172 267.652L195.801 269.523L197.793 270.457L200.98 271.238H205.043L209.824 270.301L212.852 269.055L214.922 267.809L216.277 266.715L217.949 265L219.145 263.441L220.262 261.723L221.613 259.074V221.801L201.934 221.645V204.18L232.531 204.023L232.609 265L230.938 269.211L228.867 273.266L226.875 276.383L224.801 279.035L221.855 282L219.465 283.871L215.801 286.055L212.453 287.457L208.945 288.391L205.84 288.859L202.176 289.016L198.906 288.703L195.402 287.77L192.613 286.52L190.062 284.961L187.516 282.934L184.328 279.66L182.254 277.008L180.105 273.734L177.953 269.836L176.039 265.625L174.766 262.348L173.492 258.605L172.137 253.926L170.863 248.625L169.906 243.789L169.027 238.332L168.391 233.184L167.754 226.168L167.438 220.555L167.277 215.719V191.391Z" fill="#F7B32B"/>
<path d="M167.277 298.969H232.609V299.758L205.383 299.766V306.32H194.426V299.77L194.266 299.758H167.277V298.969Z" fill="#D62839"/>
<path d="M236.051 264.184L236.117 264.113L264.387 191.477H272.973L301.383 264.25H291.402L284.281 245.254H253.082L246.102 264.184H236.051L256.082 237.395L281.422 237.328L268.785 203.367L268.645 203.297L268.508 203.504L256.012 237.328L256.082 237.395L236.051 264.184Z" fill="#109648"/>
<path d="M236.051 310.477H237.484L238.918 310.473H245.848L248.957 310.469H291.742L294.133 310.473H299.949L300.906 310.477H301.383H289.672L289.035 310.473H277.641L275.809 310.469H266.723L263.617 310.473H249.516L248.797 310.477H247.203V310.48H247.363L247.762 310.484H250.312L252.062 310.488H286.883L288.078 310.484H301.383H299.473L298.355 310.488H289.91L287.918 310.492H252.859L250.551 310.488H240.512L239.156 310.484H237.086L236.289 310.48H236.051V310.477Z" fill="#255C99"/>
<path d="M236.051 282.602L236.129 282.566V281.828L236.449 280.16L237.246 277.867L238.281 275.98L239.395 274.504L240.113 273.727L241.309 272.617L242.344 271.801L244.973 270.137L248.32 268.586L250.152 267.918L252.223 267.289L255.172 266.586L256.527 266.328L260.668 265.734L265.371 265.367L270.547 265.254L272.938 265.293L276.207 265.441L280.668 265.848L283.219 266.219L285.207 266.586L287.281 267.066L289.832 267.809L292.219 268.695L294.133 269.582L296.043 270.691L297.637 271.875L298.992 273.172L300.188 274.723L300.906 276.02L301.383 277.312H290.309L289.672 276.02L288.953 275.02L287.758 273.801L286.562 272.91L285.367 272.211L283.137 271.246L281.227 270.656L278.836 270.137L276.523 269.805L273.895 269.582L272.301 269.508H268.078L264.254 269.77L262.023 270.062L260.43 270.359L258.199 270.914L256.844 271.359L256.047 271.656L253.656 272.801L252.062 273.836L251.188 274.539L250.07 275.648L249.273 276.648L248.398 278.129L247.922 279.238L247.285 281.754L247.203 288.41L247.441 289.816L247.922 291.332L248.559 292.664L249.516 294.07L250.469 295.141L252.145 296.586L253.578 297.547L254.691 298.176L256.844 299.176L257.723 299.508L259.793 300.172L261.945 300.691L264.574 301.133L266.566 301.355L269.75 301.543H273.816L278.598 301.32L281.625 301.023L283.695 300.727L285.051 300.469L286.723 300.062L287.918 299.691L289.035 299.285L290.387 298.656V289.816L270.707 289.777V285.637L301.305 285.598L301.383 300.062L299.711 301.059L297.637 302.023L295.645 302.762L293.574 303.391L290.625 304.094L288.238 304.539L284.57 305.055L281.227 305.387L277.719 305.609L274.613 305.723L270.945 305.758L267.68 305.684L264.176 305.461L261.387 305.164L258.836 304.797L256.285 304.316L253.102 303.539L251.027 302.91L248.875 302.133L246.727 301.207L244.812 300.211L243.539 299.434L242.266 298.547L240.91 297.434L239.633 296.18L238.68 295.031L237.801 293.738L237.164 292.516L236.527 290.852L236.207 289.52L236.051 288.375V282.602Z" fill="#F7B32B"/>
<path d="M236.051 306.762H301.383V307.051L274.152 307.055V309.465H263.199V307.059L263.039 307.051H236.051V306.762Z" fill="#D62839"/>
<path d="M304.82 305.312L304.891 305.309L333.16 302.707H341.746L370.156 305.312H360.176L353.055 304.633H321.852L314.875 305.312H304.82L324.855 304.352L350.191 304.348L337.559 303.133L337.418 303.129L337.281 303.137L324.785 304.348L324.855 304.352L304.82 305.312Z" fill="#109648"/>
<path d="M304.82 309.809H304.902V309.781L305.141 309.738L305.699 309.688L306.258 309.648L307.691 309.586L309.684 309.523L311.754 309.473L313.266 309.445L314.621 309.422L317.73 309.383L319.723 309.359L321.871 309.344L324.5 309.324L326.414 309.312L330.715 309.293L333.902 309.285H341.711L344.898 309.289L347.211 309.293L349.758 309.301L351.91 309.312L355.656 309.336L359 309.367L360.516 309.387L362.906 309.418L364.738 309.453L366.012 309.48L367.445 309.523L368.723 309.57L369.68 309.629L370.156 309.676H359L358.445 309.633L357.805 309.598L356.609 309.551L355.414 309.52L353.742 309.488L352.23 309.465L350.156 309.445L348.324 309.434L346.414 309.422L344.578 309.414L341.074 309.41H335.496L332.391 309.422L330.715 309.43L328.324 309.445L326.652 309.457L324.66 309.48L323.305 309.5L321.633 309.527L320.438 309.555L319.082 309.59L318.285 309.617L317.57 309.648L316.934 309.684L316.453 309.723L316.137 309.766L315.977 309.805V309.977L316.137 310.016L316.535 310.062L317.57 310.129L319.082 310.188L320.836 310.234L322.508 310.266L323.465 310.281L324.742 310.301L326.734 310.32L329.602 310.344L331.273 310.352L333.824 310.359L336.453 310.367H339.957L343.066 310.359L345.137 310.355L347.289 310.348L350.238 310.328L352.07 310.309L353.664 310.289L354.859 310.27L355.656 310.25L356.852 310.215L357.805 310.18L358.523 310.141L359 310.102H370.156L369.68 310.148L368.961 310.191L368.242 310.223L367.129 310.262L365.852 310.297L364.02 310.332L362.508 310.359L360.516 310.387L358.684 310.406L356.691 310.426L353.742 310.449L351.832 310.461L349.758 310.469L347.289 310.477L344.18 310.484L340.836 310.492H337.727L334.383 310.488L331.91 310.484L328.645 310.477L324.582 310.453L321.633 310.434L319.324 310.414L317.332 310.391L315.102 310.359L312.23 310.312L310.48 310.273L309.285 310.242L307.93 310.199L306.973 310.164L305.859 310.102L305.062 310.023L304.82 309.961V309.809Z" fill="#255C99"/>
<path d="M304.82 163.691L304.902 163.469V159.062L305.219 149.141L306.016 135.473L307.051 124.227L308.168 115.41L308.887 110.781L310.082 104.164L311.117 99.3164L313.746 89.3945L317.094 80.1367L318.926 76.168L320.996 72.418L323.945 68.2305L325.297 66.6875L329.441 63.1602L334.141 60.9531L339.32 60.293L341.711 60.5156L344.977 61.3945L349.441 63.8203L351.988 66.0273L353.98 68.2305L356.055 71.0977L358.602 75.5039L360.992 80.7969L362.906 86.0859L364.816 92.7031L366.41 99.7578L367.766 107.473L368.961 116.73L369.68 124.449L370.156 132.164H359.082L358.445 124.449L357.727 118.496L356.531 111.219L355.336 105.93L354.141 101.742L351.91 96.0078L349.996 92.4805L347.609 89.3945L345.297 87.4102L342.668 86.0859L341.074 85.6484H336.852L333.027 87.1914L330.797 88.9531L329.203 90.7188L326.973 94.0234L325.617 96.6719L324.82 98.4336L322.43 105.27L320.836 111.441L319.961 115.629L318.844 122.242L318.047 128.195L317.172 137.016L316.695 143.629L316.055 158.621L315.977 198.305L316.215 206.68L316.695 215.719L317.332 223.656L318.285 232.035L319.242 238.426L320.918 247.027L322.352 252.758L323.465 256.504L325.617 262.457L326.492 264.441L328.566 268.41L330.715 271.496L333.344 274.145L335.336 275.465L338.523 276.566H342.59L347.367 275.246L350.395 273.48L352.469 271.719L353.824 270.176L355.496 267.75L356.691 265.543L357.805 263.121L359.16 259.371V206.68L339.48 206.461V181.77L370.074 181.547L370.156 267.75L368.484 273.703L366.41 279.434L364.418 283.844L362.348 287.59L359.398 291.781L357.008 294.426L353.344 297.512L349.996 299.496L346.492 300.82L343.387 301.48L339.719 301.699L336.453 301.258L332.949 299.938L330.16 298.172L327.609 295.969L325.059 293.102L321.871 288.473L319.801 284.727L317.648 280.094L315.5 274.582L313.586 268.633L312.312 264L311.035 258.711L309.684 252.098L308.406 244.602L307.449 237.766L306.574 230.051L305.938 222.773L305.301 212.855L304.98 204.918L304.82 198.082V163.691Z" fill="#F7B32B"/>
<path d="M304.82 306.32H370.156V306.527L342.926 306.531V308.277H331.973V306.531L331.812 306.527H304.82V306.32Z" fill="#D62839"/>
<path d="M373.594 303.895L373.664 303.891L401.934 300.594H410.52L438.93 303.895H428.945L421.828 303.035H390.625L383.645 303.895H373.594L393.629 302.68L418.965 302.676L406.332 301.133H406.191L406.051 301.141L393.559 302.676L393.629 302.68L373.594 303.895Z" fill="#109648"/>
<path d="M373.594 309.344H373.676V309.301L373.914 309.23L374.473 309.141L375.027 309.078L376.461 308.969L378.453 308.863L380.527 308.781L382.039 308.734L383.395 308.695L386.5 308.629L388.492 308.594L390.645 308.562L393.273 308.531L395.188 308.512L399.488 308.48L402.676 308.469L405.145 308.461H410.484L413.672 308.469L415.98 308.48L418.531 308.496L420.684 308.512L424.426 308.551L427.773 308.605L429.289 308.633L431.68 308.691L433.512 308.746L434.785 308.793L436.219 308.863L437.496 308.945L438.449 309.043L438.93 309.121H427.773L427.215 309.047L426.578 308.988L425.383 308.914L424.188 308.859L422.516 308.805L421 308.77L418.93 308.734L417.098 308.715L415.184 308.695L413.352 308.684L409.848 308.676H405.785L404.27 308.68L401.164 308.691L399.488 308.707L397.098 308.73L395.426 308.754L393.434 308.793L392.078 308.824L390.406 308.871L389.211 308.914L387.855 308.977L387.059 309.023L386.344 309.074L385.707 309.137L385.227 309.199L384.91 309.27L384.75 309.336V309.625L384.91 309.691L385.309 309.77L386.344 309.883L387.855 309.98L389.609 310.059L391.281 310.113L392.238 310.141L393.512 310.168L395.504 310.207L398.375 310.242L400.047 310.258L402.598 310.273L405.227 310.281H408.73L411.84 310.273L413.91 310.262L416.062 310.25L419.008 310.219L420.844 310.188L422.438 310.152L423.629 310.117L424.426 310.086L425.621 310.031L426.578 309.965L427.297 309.902L427.773 309.84H438.93L438.449 309.914L437.734 309.984L437.016 310.039L435.902 310.105L434.625 310.16L432.793 310.227L431.281 310.27L429.289 310.316L427.457 310.352L425.465 310.383L422.516 310.418L420.602 310.438L418.531 310.453L416.062 310.469L412.953 310.48L409.609 310.488L406.5 310.492L403.152 310.488L400.684 310.48L397.418 310.465L393.355 310.43L390.406 310.395L388.094 310.359L386.105 310.324L383.871 310.273L381.004 310.191L379.25 310.129L378.055 310.074L376.703 310.004L375.746 309.938L374.629 309.836L373.832 309.703L373.594 309.602V309.344Z" fill="#255C99"/>
<path d="M373.594 305.996L373.676 305.992V305.945L373.992 305.844L374.789 305.695L375.824 305.578L376.941 305.484L377.656 305.438L378.852 305.367L379.891 305.312L382.52 305.211L385.863 305.109L387.695 305.07L389.77 305.027L392.715 304.984L394.07 304.969L398.215 304.93L402.914 304.906L408.094 304.902H410.484L413.75 304.914L418.211 304.938L420.762 304.961L422.754 304.984L424.824 305.016L427.375 305.062L429.766 305.117L431.68 305.176L433.59 305.242L435.184 305.32L436.539 305.402L437.734 305.5L438.449 305.582L438.93 305.66H427.855L427.215 305.582L426.5 305.516L425.305 305.441L424.109 305.383L422.914 305.34L420.684 305.277L418.77 305.242L416.379 305.211L414.07 305.188L411.441 305.176L409.848 305.168H405.625L401.801 305.188L399.57 305.203L397.977 305.223L395.746 305.258L394.391 305.285L393.594 305.305L391.203 305.379L389.609 305.441L388.734 305.488L387.617 305.559L386.82 305.621L385.945 305.715L385.465 305.785L384.828 305.941L384.75 306.363L384.988 306.453L385.465 306.547L386.105 306.633L387.059 306.719L388.016 306.789L389.688 306.879L391.125 306.941L392.238 306.98L394.391 307.043L395.266 307.062L397.336 307.105L399.488 307.137L402.117 307.168L404.109 307.18L407.297 307.191H411.359L416.141 307.176L419.168 307.16L421.242 307.141L422.594 307.125L424.27 307.098L425.465 307.074L426.578 307.051L427.934 307.008V306.453L408.254 306.449V306.188L438.848 306.184L438.93 307.098L437.254 307.16L435.184 307.223L433.191 307.27L431.121 307.309L428.172 307.352L425.781 307.383L422.117 307.414L418.77 307.434L415.266 307.449L412.156 307.457H408.492L405.227 307.453L401.719 307.438L398.93 307.422L396.383 307.398L393.832 307.367L390.645 307.316L388.574 307.277L386.422 307.23L384.27 307.172L382.359 307.109L381.082 307.059L379.809 307.004L378.453 306.934L377.18 306.852L376.223 306.781L375.348 306.699L374.711 306.621L374.074 306.516L373.754 306.434L373.594 306.359V305.996Z" fill="#F7B32B"/>
<path d="M373.594 69.3398H438.93V93.9883L411.699 94.2031V299.59H400.746V94.418L400.586 93.9883H373.594V69.3398Z" fill="#D62839"/>
<path d="M442.367 310.488L442.438 310.484L470.707 307.07H479.293L507.703 310.492H497.719L490.602 309.598H459.398L452.418 310.488H442.367L462.398 309.23L487.738 309.227L475.105 307.629L474.965 307.625L474.824 307.637L462.332 309.227L462.398 309.23L442.367 310.488Z" fill="#109648"/>
<path d="M442.367 299.188L442.445 299.184V299.094L442.688 298.953L443.242 298.777L443.801 298.652L445.234 298.438L447.227 298.227L449.301 298.062L450.812 297.965L452.168 297.891L455.273 297.754L457.266 297.684L459.418 297.621L462.047 297.559L463.961 297.523L468.262 297.461L471.449 297.438L473.918 297.426H479.258L482.445 297.441L484.754 297.457L487.305 297.488L489.457 297.523L493.199 297.602L496.547 297.707L498.059 297.766L500.449 297.879L502.285 297.992L503.559 298.086L504.992 298.227L506.266 298.391L507.223 298.578L507.703 298.738H496.547L495.988 298.59L495.352 298.477L494.156 298.324L492.961 298.219L491.289 298.109L489.773 298.039L487.703 297.969L485.871 297.926L483.957 297.891L482.125 297.871L478.621 297.848H474.555L473.043 297.855L469.934 297.883L468.262 297.91L465.871 297.961L464.199 298.012L462.207 298.086L460.852 298.148L459.18 298.242L457.984 298.328L456.629 298.449L455.832 298.543L455.117 298.648L454.477 298.77L454 298.898L453.68 299.035L453.523 299.168V299.742L453.68 299.875L454.078 300.031L455.117 300.258L456.629 300.453L458.383 300.609L460.055 300.719L461.012 300.77L462.285 300.828L464.277 300.902L467.145 300.977L468.82 301.008L471.367 301.035L474 301.051H477.504L480.613 301.035L482.684 301.02L484.836 300.988L487.781 300.926L489.613 300.867L491.207 300.797L492.402 300.727L493.199 300.668L494.395 300.551L495.352 300.426L496.07 300.297L496.547 300.172H507.703L507.223 300.32L506.508 300.465L505.789 300.57L504.672 300.699L503.398 300.816L501.566 300.945L500.051 301.031L498.059 301.121L496.227 301.191L494.234 301.254L491.289 301.328L489.375 301.367L487.305 301.398L484.836 301.43L481.727 301.457L478.379 301.469L475.273 301.473L471.926 301.465L469.457 301.453L466.191 301.418L462.125 301.352L459.18 301.281L456.867 301.211L454.875 301.137L452.645 301.035L449.777 300.875L448.023 300.75L446.828 300.645L445.473 300.5L444.52 300.371L443.402 300.164L442.605 299.902L442.367 299.699V299.188Z" fill="#255C99"/>
<path d="M442.367 304.016L442.445 304.012V303.945L442.766 303.797L443.562 303.594L444.598 303.43L445.715 303.297L446.43 303.23L447.625 303.129L448.66 303.059L451.289 302.91L454.637 302.773L456.469 302.715L458.543 302.66L461.488 302.598L462.844 302.574L466.988 302.52L471.688 302.488L476.867 302.477L479.258 302.48L482.523 302.496L486.984 302.531L489.535 302.562L491.527 302.598L493.598 302.641L496.148 302.703L498.539 302.781L500.449 302.863L502.363 302.961L503.957 303.066L505.312 303.18L506.508 303.316L507.223 303.434L507.703 303.547H496.625L495.988 303.434L495.273 303.344L494.078 303.234L492.883 303.156L491.688 303.094L489.457 303.008L487.543 302.957L485.152 302.91L482.844 302.883L480.215 302.863L478.621 302.855H474.398L470.574 302.879L468.34 302.906L466.746 302.93L464.516 302.98L463.164 303.02L462.367 303.047L459.977 303.148L458.383 303.238L457.504 303.301L456.391 303.398L455.594 303.488L454.719 303.617L454.238 303.715L453.602 303.941L453.523 304.527L453.762 304.652L454.238 304.789L454.875 304.906L455.832 305.031L456.789 305.125L458.461 305.254L459.895 305.34L461.012 305.395L463.164 305.484L464.039 305.512L466.109 305.57L468.262 305.617L470.891 305.656L472.883 305.676L476.07 305.691H480.133L484.914 305.672L487.941 305.645L490.012 305.621L491.367 305.598L493.039 305.562L494.234 305.527L495.352 305.492L496.707 305.438V304.652L477.027 304.648V304.285L507.621 304.281L507.703 305.562L506.027 305.648L503.957 305.734L501.965 305.801L499.895 305.855L496.945 305.918L494.555 305.957L490.891 306.004L487.543 306.031L484.039 306.051L480.93 306.062L477.266 306.066L474 306.059L470.492 306.039L467.703 306.012L465.156 305.98L462.605 305.938L459.418 305.867L457.348 305.812L455.195 305.746L453.043 305.664L451.133 305.574L449.855 305.504L448.582 305.426L447.227 305.328L445.953 305.219L444.996 305.117L444.121 305L443.484 304.895L442.844 304.746L442.527 304.629L442.367 304.527V304.016Z" fill="#F7B32B"/>
<path d="M442.367 83.3203H507.703V106.133L480.473 106.332V296.422H469.516V106.531L469.359 106.133H442.367V83.3203Z" fill="#D62839"/>
<path d="M511.141 297.672L511.211 297.465L539.48 76.8359H548.066L576.473 297.879H566.492L559.371 240.18H528.172L521.191 297.672H511.141L531.172 216.312L556.512 216.105L543.875 112.953L543.738 112.746L543.598 113.367L531.102 216.105L531.172 216.312L511.141 297.672Z" fill="#109648"/>
<path d="M511.141 304.867L511.219 304.863V304.797L511.457 304.691L512.016 304.555L512.574 304.465L514.008 304.297L516 304.137L518.07 304.016L519.586 303.941L520.941 303.887L524.047 303.781L526.039 303.727L528.191 303.68L530.82 303.633L532.73 303.605L537.035 303.559L540.223 303.539L542.691 303.531H548.031L551.215 303.543L553.527 303.555L556.078 303.578L558.227 303.605L561.973 303.664L565.32 303.746L566.832 303.789L569.223 303.875L571.055 303.961L572.332 304.035L573.766 304.137L575.039 304.266L575.996 304.406L576.473 304.527H565.32L564.762 304.414L564.125 304.328L562.93 304.215L561.734 304.133L560.062 304.051L558.547 303.996L556.477 303.945L554.645 303.91L552.73 303.887L550.898 303.867L547.391 303.852H543.328L541.816 303.855L538.707 303.879L537.035 303.898L534.645 303.938L532.973 303.977L530.98 304.031L529.625 304.078L527.953 304.152L526.758 304.215L525.402 304.309L524.605 304.379L523.887 304.457L523.25 304.551L522.773 304.648L522.453 304.754L522.293 304.855V305.289L522.453 305.391L522.852 305.508L523.887 305.68L525.402 305.828L527.156 305.945L528.828 306.031L529.785 306.07L531.059 306.113L533.051 306.172L535.918 306.227L537.594 306.25L540.141 306.273L542.77 306.285H546.277L549.383 306.273L551.457 306.258L553.605 306.234L556.555 306.188L558.387 306.145L559.98 306.09L561.176 306.035L561.973 305.992L563.168 305.902L564.125 305.809L564.84 305.711L565.32 305.613H576.473L575.996 305.727L575.277 305.836L574.562 305.918L573.445 306.016L572.172 306.105L570.34 306.203L568.824 306.266L566.832 306.336L565 306.391L563.008 306.438L560.062 306.492L558.148 306.523L556.078 306.547L553.605 306.57L550.5 306.59L547.152 306.602L544.047 306.605L540.699 306.598L538.23 306.586L534.965 306.562L530.898 306.512L527.953 306.457L525.641 306.402L523.648 306.348L521.418 306.273L518.551 306.148L516.797 306.055L515.602 305.973L514.246 305.863L513.293 305.766L512.176 305.609L511.379 305.41L511.141 305.254V304.867Z" fill="#255C99"/>
<path d="M511.141 308.844L511.219 308.84V308.789L511.539 308.668L512.336 308.508L513.371 308.371L514.484 308.266L515.203 308.211L516.398 308.133L517.434 308.074L520.062 307.957L523.41 307.844L525.242 307.797L527.312 307.754L530.262 307.703L531.617 307.684L535.758 307.645L540.461 307.617L545.641 307.609H548.031L551.297 307.621L555.758 307.652L558.309 307.676L560.301 307.703L562.371 307.738L564.922 307.789L567.312 307.852L569.223 307.918L571.137 307.996L572.73 308.078L574.082 308.172L575.277 308.281L575.996 308.375L576.473 308.465H565.398L564.762 308.375L564.043 308.305L562.848 308.215L561.652 308.152L560.461 308.102L558.227 308.035L556.316 307.992L553.926 307.957L551.613 307.934L548.984 307.918L547.391 307.91H543.168L539.344 307.93L537.113 307.949L535.52 307.973L533.289 308.012L531.934 308.043L531.137 308.062L528.75 308.145L527.156 308.219L526.277 308.27L525.164 308.348L524.367 308.418L523.488 308.523L523.012 308.605L522.375 308.781L522.293 309.258L522.535 309.355L523.012 309.465L523.648 309.559L524.605 309.66L525.562 309.734L527.234 309.84L528.668 309.906L529.785 309.953L531.934 310.023L532.812 310.047L534.883 310.094L537.035 310.129L539.664 310.164L541.656 310.18L544.844 310.191H548.906L553.688 310.176L556.715 310.156L558.785 310.133L560.141 310.113L561.812 310.086L563.008 310.059L564.125 310.031L565.48 309.984V309.355H545.797V309.059L576.395 309.055L576.473 310.086L574.801 310.156L572.73 310.227L570.738 310.277L568.664 310.324L565.719 310.371L563.328 310.406L559.664 310.441L556.316 310.465L552.809 310.48L549.703 310.488L546.039 310.492L542.77 310.484L539.266 310.469L536.477 310.449L533.926 310.422L531.379 310.391L528.191 310.332L526.117 310.289L523.969 310.234L521.816 310.168L519.902 310.098L518.629 310.043L517.355 309.977L516 309.898L514.727 309.809L513.77 309.727L512.895 309.637L512.254 309.551L511.617 309.43L511.301 309.336L511.141 309.254V308.844Z" fill="#F7B32B"/>
<path d="M511.141 298.883H576.473V299.273L549.246 299.277V302.527H538.289V299.281L538.129 299.273H511.141V298.883Z" fill="#D62839"/>
<path d="M579.914 281.523L579.98 281.449L608.25 199.234H616.836L645.246 281.602H635.266L628.145 260.102H596.945L589.965 281.523H579.914L599.945 251.207L625.285 251.129L612.648 212.691L612.512 212.613L612.371 212.848L599.875 251.129L599.945 251.207L579.914 281.523Z" fill="#109648"/>
<path d="M579.914 286.973L579.992 286.961V286.742L580.23 286.395L580.789 285.953L581.348 285.652L582.781 285.109L584.773 284.586L586.844 284.184L588.359 283.945L589.711 283.762L592.82 283.422L594.812 283.25L596.965 283.094L599.594 282.938L601.504 282.848L605.809 282.699L608.996 282.637L611.465 282.609H616.801L619.988 282.645L622.301 282.691L624.852 282.762L627 282.848L630.746 283.047L634.094 283.305L635.605 283.449L637.996 283.734L639.828 284.012L641.102 284.25L642.539 284.586L643.812 285L644.77 285.469L645.246 285.863H634.094L633.535 285.496L632.898 285.211L631.703 284.836L630.508 284.57L628.832 284.305L627.32 284.129L625.246 283.953L623.414 283.844L621.504 283.762L619.672 283.707L616.164 283.652H612.102L610.586 283.672L607.48 283.742L605.809 283.809L603.418 283.938L601.742 284.055L599.75 284.238L598.398 284.395L596.723 284.633L595.527 284.844L594.176 285.148L593.379 285.375L592.66 285.633L592.023 285.934L591.547 286.254L591.227 286.594L591.066 286.926V288.344L591.227 288.676L591.625 289.062L592.66 289.621L594.176 290.105L595.926 290.492L597.602 290.766L598.559 290.895L599.832 291.039L601.824 291.223L604.691 291.406L606.363 291.48L608.914 291.555L611.543 291.59H615.051L618.156 291.555L620.227 291.508L622.379 291.434L625.328 291.277L627.16 291.133L628.754 290.957L629.949 290.785L630.746 290.637L631.941 290.352L632.898 290.043L633.613 289.719L634.094 289.41H645.246L644.77 289.777L644.051 290.133L643.336 290.398L642.219 290.719L640.945 291.004L639.113 291.324L637.598 291.535L635.605 291.766L633.773 291.938L631.781 292.094L628.832 292.277L626.922 292.371L624.852 292.453L622.379 292.527L619.273 292.59L615.926 292.625L612.82 292.637L609.473 292.617L607.004 292.582L603.734 292.5L599.672 292.332L596.723 292.16L594.414 291.984L592.422 291.801L590.191 291.555L587.324 291.152L585.57 290.84L584.375 290.582L583.02 290.227L582.062 289.902L580.949 289.391L580.152 288.738L579.914 288.234V286.973Z" fill="#255C99"/>
<path d="M579.914 297.219L579.992 297.211V297.059L580.312 296.715L581.109 296.242L582.145 295.855L583.258 295.547L583.977 295.387L585.172 295.16L586.207 294.992L588.836 294.648L592.184 294.328L594.016 294.191L596.086 294.059L599.035 293.914L600.391 293.863L604.531 293.738L609.234 293.664L614.414 293.641L616.801 293.648L620.07 293.68L624.531 293.762L627.082 293.84L629.074 293.914L631.145 294.016L633.695 294.168L636.082 294.352L637.996 294.535L639.91 294.762L641.5 295.008L642.855 295.273L644.051 295.594L644.77 295.863L645.246 296.129H634.172L633.535 295.863L632.816 295.656L631.621 295.402L630.426 295.219L629.23 295.074L627 294.879L625.09 294.754L622.699 294.648L620.387 294.578L617.758 294.535L616.164 294.52H611.941L608.117 294.57L605.887 294.633L604.293 294.695L602.062 294.809L600.707 294.898L599.91 294.961L597.52 295.199L595.926 295.41L595.051 295.555L593.934 295.785L593.141 295.992L592.262 296.297L591.785 296.527L591.148 297.047L591.066 298.418L591.305 298.711L591.785 299.023L592.422 299.297L593.379 299.586L594.332 299.809L596.008 300.105L597.441 300.305L598.559 300.434L600.707 300.641L601.586 300.711L603.656 300.848L605.809 300.953L608.438 301.043L610.43 301.09L613.617 301.129H617.68L622.461 301.082L625.488 301.023L627.559 300.961L628.914 300.906L630.586 300.824L631.781 300.746L632.898 300.664L634.25 300.535V298.711L614.57 298.703V297.848L645.168 297.84L645.246 300.824L643.574 301.031L641.5 301.227L639.512 301.379L637.438 301.512L634.492 301.656L632.102 301.746L628.434 301.855L625.09 301.922L621.582 301.969L618.477 301.992L614.809 302L611.543 301.984L608.039 301.938L605.25 301.875L602.699 301.801L600.148 301.703L596.965 301.543L594.891 301.41L592.742 301.25L590.59 301.059L588.676 300.855L587.402 300.695L586.129 300.512L584.773 300.281L583.496 300.023L582.543 299.785L581.664 299.52L581.027 299.266L580.391 298.922L580.07 298.648L579.914 298.41V297.219Z" fill="#F7B32B"/>
<path d="M579.914 303.004H645.246V303.805L618.016 303.812V310.492H607.062V303.82L606.902 303.805H579.914V303.004Z" fill="#D62839"/>
</g>
<defs>
<clipPath id="clip0_3_2071">
<rect width="682" height="322" fill="white"/>
</clipPath>
</defs>
</svg>
